# Blender v2.79 (sub 0) OBJ File: ''
# www.blender.org
mtllib blademaster08_1.mtl
o cw1hsw08_1.001
v -0.000100 0.333800 0.070900
v -0.000100 0.373800 0.170900
v -0.038900 0.373800 0.000900
v -0.000100 0.413800 0.070900
v -0.023900 0.453800 0.000900
v -0.000100 0.413800 -0.067900
v -0.000100 0.453800 -0.049100
v -0.000100 0.662600 0.120900
v -0.000100 0.712600 0.250900
v -0.038900 0.712600 0.000900
v -0.000100 0.762600 0.120900
v -0.023900 0.812600 0.000900
v -0.000100 0.762600 -0.117900
v -0.000100 0.812600 -0.097900
v -0.000100 1.332600 0.190900
v -0.000100 1.412600 0.220900
v -0.023900 1.337600 0.157100
v -0.000100 1.342600 0.120900
v -0.043900 0.055100 0.000900
v -0.000100 0.015100 0.000900
v -0.000100 0.055100 0.045900
v -0.000100 0.055100 -0.044100
v -0.023900 0.095100 0.000900
v -0.000100 0.293800 0.025900
v -0.023900 0.293800 0.000900
v -0.000100 0.293800 -0.024100
v -0.000100 0.333800 -0.067900
v -0.000100 0.095100 0.025900
v -0.000100 0.453800 0.050900
v -0.023900 0.593800 0.000900
v -0.000100 0.593800 -0.049100
v -0.000100 0.592600 0.050900
v -0.000100 0.662600 -0.117900
v -0.000100 0.812600 0.100900
v -0.038900 0.912600 0.000900
v -0.000100 0.873800 -0.117900
v -0.000100 0.872600 0.120900
v -0.023900 0.972600 0.110900
v -0.000100 0.922600 0.185900
v -0.000100 1.032600 0.060900
v -0.000100 1.012600 0.000900
v -0.023900 1.052600 0.150900
v -0.000100 1.012600 0.220900
v -0.000100 1.082600 0.100900
v -0.023900 1.241300 0.138400
v -0.000100 1.242600 0.180900
v -0.000100 1.242600 0.090900
v -0.000100 0.095100 -0.024100
v -0.000100 0.373800 -0.167900
v -0.000100 0.713800 -0.247900
v -0.000100 1.412600 -0.217900
v -0.023900 1.337600 -0.152900
v -0.000100 1.332600 -0.187900
v -0.000100 1.342600 -0.117900
v -0.023900 0.972600 -0.107900
v -0.000100 0.922600 -0.181600
v -0.000100 1.032600 -0.057900
v -0.023900 1.052600 -0.147900
v -0.000100 1.012600 -0.217900
v -0.000100 1.082600 -0.097900
v -0.023900 1.241300 -0.134100
v -0.000100 1.242600 -0.177900
v -0.000100 1.242600 -0.087900
v 0.039900 0.373800 0.000900
v 0.039900 0.712600 0.000900
v 0.024900 1.337600 0.157100
v 0.024900 0.972600 0.110900
v 0.039900 0.912600 0.000900
v 0.024900 1.052600 0.150900
v 0.024900 1.241300 0.138400
v 0.024900 0.095100 0.000900
v 0.024900 0.453800 0.000900
v 0.024900 0.812600 0.000900
v 0.024900 1.337600 -0.152900
v 0.044900 0.055100 0.000900
v 0.024900 0.293800 0.000900
v 0.024900 0.592600 0.000900
v 0.024900 0.972600 -0.107900
v 0.024900 1.052600 -0.147900
v 0.024900 1.241300 -0.134100
vt 0.550800 0.953100
vt 0.707000 0.914100
vt 0.433600 0.914100
vt 0.550800 0.882800
vt 0.433600 0.851600
vt 0.320300 0.882800
vt 0.351600 0.851600
vt 0.628900 0.671900
vt 0.832000 0.625000
vt 0.433600 0.625000
vt 0.628900 0.578100
vt 0.433600 0.539100
vt 0.242200 0.578100
vt 0.273400 0.539100
vt 0.753900 0.074200
vt 0.793000 0.011700
vt 0.699200 0.074200
vt 0.636700 0.074200
vt 0.937500 0.898400
vt 0.937500 0.992200
vt 0.988300 0.898400
vt 0.882800 0.898400
vt 0.937500 0.761700
vt 0.476600 0.992200
vt 0.433600 0.992200
vt 0.390600 0.992200
vt 0.320300 0.953100
vt 0.988300 0.761700
vt 0.988300 0.011700
vt 0.937500 0.011700
vt 0.519500 0.851600
vt 0.433600 0.734400
vt 0.351600 0.734400
vt 0.519500 0.734400
vt 0.242200 0.671900
vt 0.597700 0.539100
vt 0.433600 0.449200
vt 0.242200 0.480500
vt 0.628900 0.480500
vt 0.613300 0.394500
vt 0.730500 0.441400
vt 0.535200 0.339800
vt 0.433600 0.355500
vt 0.683600 0.324200
vt 0.800800 0.355500
vt 0.597700 0.293000
vt 0.668000 0.152300
vt 0.738300 0.152300
vt 0.597700 0.152300
vt 0.882800 0.761700
vt 0.882800 0.011700
vt 0.164100 0.914100
vt 0.039100 0.625000
vt 0.085900 0.011700
vt 0.132800 0.074200
vt 0.187500 0.074200
vt 0.242200 0.074200
vt 0.257800 0.394500
vt 0.140600 0.441400
vt 0.335900 0.339800
vt 0.195300 0.324200
vt 0.085900 0.355500
vt 0.281300 0.293000
vt 0.218800 0.152300
vt 0.148400 0.152300
vt 0.281300 0.152300
vt 0.433600 0.914100
vt 0.433600 0.625000
vt 0.699200 0.074200
vt 0.613300 0.394500
vt 0.433600 0.449200
vt 0.683600 0.324200
vt 0.668000 0.152300
vt 0.937500 0.761700
vt 0.433600 0.851600
vt 0.433600 0.539100
vt 0.187500 0.074200
vt 0.937500 0.898400
vt 0.433600 0.992200
vt 0.937500 0.011700
vt 0.433600 0.734400
vt 0.257800 0.394500
vt 0.195300 0.324200
vt 0.218800 0.152300
vn -0.0072 -0.8572 0.5150
vn -0.0184 0.0000 0.9998
vn -0.9974 -0.0719 -0.0016
vn -0.0084 0.6456 0.7636
vn -0.9905 0.1374 -0.0013
vn -0.0084 0.6382 -0.7699
vn -0.0111 0.1527 -0.9882
vn -0.0058 -0.8528 0.5221
vn -0.0156 0.0000 0.9999
vn -0.9992 -0.0396 -0.0008
vn -0.0056 0.6948 0.7192
vn -0.9995 0.0318 -0.0013
vn -0.0057 0.6965 -0.7176
vn -0.0063 -0.1833 -0.9830
vn -0.0118 -0.2335 0.9723
vn -0.0391 0.9244 0.3795
vn -0.9840 0.0749 0.1617
vn -0.0122 0.5037 -0.8638
vn -0.9754 -0.2205 -0.0000
vn -0.0084 -1.0000 -0.0000
vn -0.0097 0.0240 0.9997
vn -0.0097 0.0240 -0.9997
vn -0.9529 0.3033 -0.0000
vn -0.0112 -0.2701 0.9628
vn -0.9981 -0.0620 -0.0000
vn -0.0112 -0.2679 -0.9634
vn -0.0067 -0.8540 -0.5203
vn -0.0126 0.1583 0.9873
vn -0.0102 0.1619 0.9868
vn -0.9991 -0.0419 -0.0004
vn -0.0090 -0.2911 -0.9566
vn -0.0090 -0.2909 0.9567
vn -0.0052 -0.8500 -0.5268
vn -0.0054 -0.1877 0.9822
vn -0.9986 0.0527 -0.0007
vn -0.0062 -0.5980 -0.8014
vn -0.0056 -0.6000 0.8000
vn -0.9996 0.0273 0.0019
vn -0.0067 -0.5471 0.8370
vn -0.0066 0.9068 -0.4216
vn -0.0057 1.0000 0.0033
vn -0.9973 -0.0151 -0.0716
vn -0.0091 0.0022 1.0000
vn -0.0092 0.3075 -0.9515
vn -0.9989 0.0412 -0.0225
vn -0.0112 -0.0477 0.9988
vn -0.0102 0.0561 -0.9984
vn -0.0126 0.1583 -0.9873
vn -0.0185 0.0000 -0.9998
vn -0.0157 0.0262 -0.9995
vn -0.0383 0.9430 -0.3305
vn -0.0116 -0.2335 -0.9723
vn -0.9857 0.0794 -0.1486
vn -0.0123 0.5028 0.8643
vn -0.9996 0.0263 -0.0031
vn -0.0068 -0.5518 -0.8339
vn -0.0066 0.9056 0.4241
vn -0.9972 -0.0162 0.0731
vn -0.0090 -0.0002 -1.0000
vn -0.0093 0.3075 0.9515
vn -0.9986 0.0420 0.0324
vn -0.0115 -0.0480 -0.9988
vn -0.0103 0.0546 0.9985
vn 0.9973 -0.0741 -0.0017
vn 0.9992 -0.0407 -0.0008
vn 0.9823 0.0774 0.1706
vn 0.9996 0.0277 0.0004
vn 0.9985 0.0547 -0.0008
vn 0.9971 -0.0160 -0.0742
vn 0.9988 0.0432 -0.0232
vn 0.9506 0.3106 -0.0000
vn 0.9900 0.1411 -0.0013
vn 0.9994 0.0335 -0.0014
vn 0.9841 0.0820 -0.1572
vn 0.9730 -0.2306 0.0000
vn 0.9981 -0.0620 -0.0000
vn 0.9991 -0.0415 -0.0004
vn 0.9996 0.0267 -0.0017
vn 0.9970 -0.0171 0.0758
vn 0.9985 0.0440 0.0334
usemtl cw1hsw08_1.001

f 1/1/1 2/2/2 3/3/3
f 3/3/3 2/2/2 4/4/4
f 4/4/4 5/5/5 3/3/3
f 6/6/6 3/3/3 5/5/5
f 5/5/5 7/7/7 6/6/6
f 8/8/8 9/9/9 10/10/10
f 10/10/10 9/9/9 11/11/11
f 11/11/11 12/12/12 10/10/10
f 13/13/13 10/10/10 12/12/12
f 12/12/12 14/14/14 13/13/13
f 15/15/15 16/16/16 17/17/17
f 16/16/16 18/18/18 17/17/17
f 19/19/19 20/20/20 21/21/21
f 20/20/20 19/19/19 22/22/22
f 23/23/23 22/22/22 19/19/19
f 24/24/24 1/1/1 3/3/3
f 3/3/3 25/25/25 24/24/24
f 25/25/25 3/3/3 26/26/26
f 27/27/27 26/26/26 3/3/3
f 28/28/28 24/29/24 25/30/25
f 5/5/5 4/4/4 29/31/29
f 29/31/29 30/32/30 5/5/5
f 7/7/7 5/5/5 30/32/30
f 30/32/30 31/33/31 7/7/7
f 30/32/30 29/31/29 32/34/32
f 32/34/32 10/10/10 30/32/30
f 31/33/31 30/32/30 10/10/10
f 10/10/10 33/35/33 31/33/31
f 32/34/32 8/8/8 10/10/10
f 12/12/12 11/11/11 34/36/34
f 34/36/34 35/37/35 12/12/12
f 14/14/14 12/12/12 35/37/35
f 35/37/35 36/38/36 14/14/14
f 34/36/34 37/39/37 35/37/35
f 38/40/38 37/39/37 39/41/39
f 37/39/37 38/40/38 35/37/35
f 40/42/40 35/37/35 38/40/38
f 35/37/35 40/42/40 41/43/41
f 42/44/42 39/41/39 43/45/43
f 39/41/39 42/44/42 38/40/38
f 44/46/44 38/40/38 42/44/42
f 38/40/38 44/46/44 40/42/40
f 45/47/45 43/45/43 46/48/46
f 43/45/43 45/47/45 42/44/42
f 47/49/47 42/44/42 45/47/45
f 42/44/42 47/49/47 44/46/44
f 17/17/17 46/48/46 15/15/15
f 46/48/46 17/17/17 45/47/45
f 18/18/18 45/47/45 17/17/17
f 45/47/45 18/18/18 47/49/47
f 23/23/23 19/19/19 21/21/21
f 23/23/23 21/21/21 28/28/28
f 28/28/28 25/30/25 23/23/23
f 48/50/48 23/23/23 25/30/25
f 25/30/25 26/51/26 48/50/48
f 49/52/49 27/27/27 3/3/3
f 3/3/3 6/6/6 49/52/49
f 50/53/50 33/35/33 10/10/10
f 10/10/10 13/13/13 50/53/50
f 51/54/51 53/55/52 52/56/53
f 52/56/53 54/57/54 51/54/51
f 36/38/36 55/58/55 56/59/56
f 35/37/35 55/58/55 36/38/36
f 55/58/55 35/37/35 57/60/57
f 41/43/41 57/60/57 35/37/35
f 56/59/56 58/61/58 59/62/59
f 55/58/55 58/61/58 56/59/56
f 58/61/58 55/58/55 60/63/60
f 57/60/57 60/63/60 55/58/55
f 59/62/59 61/64/61 62/65/62
f 58/61/58 61/64/61 59/62/59
f 61/64/61 58/61/58 63/66/63
f 60/63/60 63/66/63 58/61/58
f 62/65/62 52/56/53 53/55/52
f 61/64/61 52/56/53 62/65/62
f 52/56/53 61/64/61 54/57/54
f 63/66/63 54/57/54 61/64/61
f 22/22/22 23/23/23 48/50/48
f 2/2/2 1/1/1 64/67/64
f 64/67/64 4/4/4 2/2/2
f 9/9/9 8/8/8 65/68/65
f 65/68/65 11/11/11 9/9/9
f 16/16/16 15/15/15 66/69/66
f 66/69/66 18/18/18 16/16/16
f 37/39/37 67/70/67 39/41/39
f 68/71/68 67/70/67 37/39/37
f 67/70/67 68/71/68 40/42/40
f 41/43/41 40/42/40 68/71/68
f 39/41/39 69/72/69 43/45/43
f 67/70/67 69/72/69 39/41/39
f 69/72/69 67/70/67 44/46/44
f 40/42/40 44/46/44 67/70/67
f 43/45/43 70/73/70 46/48/46
f 69/72/69 70/73/70 43/45/43
f 70/73/70 69/72/69 47/49/47
f 44/46/44 47/49/47 69/72/69
f 46/48/46 66/69/66 15/15/15
f 70/73/70 66/69/66 46/48/46
f 66/69/66 70/73/70 18/18/18
f 47/49/47 18/18/18 70/73/70
f 21/21/21 71/74/71 28/28/28
f 27/27/27 49/52/49 64/67/64
f 64/67/64 49/52/49 6/6/6
f 6/6/6 72/75/72 64/67/64
f 4/4/4 64/67/64 72/75/72
f 72/75/72 29/31/29 4/4/4
f 33/35/33 50/53/50 65/68/65
f 65/68/65 50/53/50 13/13/13
f 13/13/13 73/76/73 65/68/65
f 11/11/11 65/68/65 73/76/73
f 73/76/73 34/36/34 11/11/11
f 53/55/52 51/54/51 74/77/74
f 51/54/51 54/57/54 74/77/74
f 75/78/75 20/20/20 22/22/22
f 20/20/20 75/78/75 21/21/21
f 71/74/71 21/21/21 75/78/75
f 26/26/26 27/27/27 64/67/64
f 64/67/64 76/79/76 26/26/26
f 76/79/76 64/67/64 24/24/24
f 1/1/1 24/24/24 64/67/64
f 48/50/48 26/51/26 76/80/76
f 72/75/72 6/6/6 7/7/7
f 7/7/7 77/81/77 72/75/72
f 29/31/29 72/75/72 77/81/77
f 77/81/77 32/34/32 29/31/29
f 77/81/77 7/7/7 31/33/31
f 31/33/31 65/68/65 77/81/77
f 32/34/32 77/81/77 65/68/65
f 65/68/65 8/8/8 32/34/32
f 31/33/31 33/35/33 65/68/65
f 73/76/73 13/13/13 14/14/14
f 14/14/14 68/71/68 73/76/73
f 34/36/34 73/76/73 68/71/68
f 68/71/68 37/39/37 34/36/34
f 14/14/14 36/38/36 68/71/68
f 78/82/78 36/38/36 56/59/56
f 36/38/36 78/82/78 68/71/68
f 57/60/57 68/71/68 78/82/78
f 68/71/68 57/60/57 41/43/41
f 79/83/79 56/59/56 59/62/59
f 56/59/56 79/83/79 78/82/78
f 60/63/60 78/82/78 79/83/79
f 78/82/78 60/63/60 57/60/57
f 80/84/80 59/62/59 62/65/62
f 59/62/59 80/84/80 79/83/79
f 63/66/63 79/83/79 80/84/80
f 79/83/79 63/66/63 60/63/60
f 74/77/74 62/65/62 53/55/52
f 62/65/62 74/77/74 80/84/80
f 54/57/54 80/84/80 74/77/74
f 80/84/80 54/57/54 63/66/63
f 71/74/71 75/78/75 22/22/22
f 71/74/71 22/22/22 48/50/48
f 48/50/48 76/80/76 71/74/71
f 28/28/28 71/74/71 76/80/76
f 76/80/76 24/29/24 28/28/28
