# Blender v2.79 (sub 0) OBJ File: ''
# www.blender.org
mtllib blademaster07_1.mtl
o MDL_cw1hsw07_1
v 0.022500 0.211400 0.030000
v -0.023700 0.211400 -0.018700
v 0.022500 0.166400 -0.018700
v 0.070000 0.211400 -0.018700
v 0.022500 0.246400 0.002500
v 0.043700 0.246400 -0.018700
v 0.022500 0.438900 0.002500
v 0.043700 0.438900 -0.018700
v 0.021300 0.515100 0.020000
v 0.060000 0.513900 -0.018700
v 0.001200 0.246400 -0.018700
v 0.001200 0.440100 -0.018700
v -0.015000 0.515100 -0.018700
v 0.022500 0.211400 -0.066200
v 0.022500 0.246400 -0.038700
v 0.022500 0.438900 -0.038700
v 0.021300 0.513900 -0.056200
v -0.016200 0.445100 -0.048700
v -0.016200 0.513900 -0.018700
v -0.016200 0.543900 -0.087500
v -0.016200 0.483900 -0.137500
v -0.016200 0.603900 -0.127500
v -0.016200 0.573900 -0.197500
v -0.016200 0.683900 -0.137500
v -0.016200 0.683900 -0.217500
v 0.002500 0.410100 -0.063700
v 0.002500 0.513900 -0.018700
v 0.002500 0.543900 -0.087500
v 0.002500 0.448900 -0.167500
v 0.002500 0.603900 -0.127500
v 0.002500 0.556400 -0.238700
v 0.002500 0.763900 -0.147500
v 0.002500 0.763900 -0.277500
v -0.016200 0.543900 0.051300
v -0.016200 0.445100 0.011300
v -0.016200 0.483900 0.101300
v -0.016200 0.603900 0.091300
v -0.016200 0.573900 0.161300
v -0.016200 0.683900 0.101300
v -0.016200 0.683900 0.181300
v 0.002500 0.543900 0.051300
v 0.002500 0.410100 0.026300
v 0.002500 0.448900 0.131300
v 0.002500 0.603900 0.091300
v 0.002500 0.556400 0.203800
v 0.002500 0.763900 0.111300
v 0.002500 0.763900 0.241300
v 0.062500 0.543900 -0.087500
v 0.062500 0.513900 -0.018700
v 0.062500 0.443900 -0.048700
v 0.062500 0.483900 -0.137500
v 0.062500 0.603900 -0.127500
v 0.062500 0.573900 -0.197500
v 0.062500 0.683900 -0.137500
v 0.062500 0.683900 -0.217500
v 0.042500 0.543900 -0.087500
v 0.042500 0.513900 -0.018700
v 0.042500 0.408900 -0.063700
v 0.042500 0.448900 -0.167500
v 0.042500 0.603900 -0.127500
v 0.042500 0.556400 -0.238700
v 0.042500 0.763900 -0.147500
v 0.042500 0.763900 -0.277500
v 0.062500 0.443900 0.011300
v 0.062500 0.543900 0.051300
v 0.062500 0.483900 0.101300
v 0.062500 0.603900 0.091300
v 0.062500 0.573900 0.161300
v 0.062500 0.683900 0.101300
v 0.062500 0.683900 0.181300
v 0.042500 0.408900 0.026300
v 0.042500 0.543900 0.051300
v 0.042500 0.448900 0.131300
v 0.042500 0.603900 0.091300
v 0.042500 0.556400 0.203800
v 0.042500 0.763900 0.111300
v 0.042500 0.763900 0.241300
v -0.028800 0.472600 -0.018700
v 0.073700 0.515100 -0.060000
v 0.073700 0.472600 -0.018700
v -0.028800 0.515100 -0.060000
v -0.028800 0.515100 0.023800
v 0.073700 0.556400 -0.018700
v -0.028800 0.556400 -0.018700
v 0.073700 0.515100 0.023800
v 0.021300 1.315100 0.036300
v 0.021300 1.505100 -0.106200
v -0.006200 1.315100 -0.018700
v 0.021300 1.315100 0.123800
v 0.021300 0.913900 0.121300
v 0.021300 1.315100 -0.082500
v 0.021300 1.605100 -0.140000
v -0.006300 0.605100 -0.018700
v 0.021300 0.605100 -0.098700
v 0.021300 0.605100 0.058800
v 0.021300 0.515100 0.061300
v 0.021300 0.605100 -0.140000
v 0.021300 0.915100 -0.160000
v 0.021300 0.605100 0.101300
v 0.021300 0.913900 0.058800
v -0.006300 0.913900 -0.018700
v 0.021300 0.913900 -0.098700
v 0.021300 1.315100 -0.157500
v 0.021300 0.515100 -0.090000
v 0.022500 1.505100 -0.106200
v 0.022500 1.315100 -0.082500
v 0.052500 1.315100 -0.018700
v 0.022500 1.315100 0.036300
v 0.022500 0.605100 0.058800
v 0.052500 0.605100 -0.018700
v 0.022500 0.515100 0.020000
v 0.022500 0.913900 0.058800
v 0.052500 0.913900 -0.018700
v 0.022500 0.605100 -0.098700
v 0.022500 0.913900 -0.098700
v 0.022500 0.513900 -0.056200
v 0.022500 1.505100 -0.106200
v 0.022500 1.315100 -0.082500
v 0.022500 1.315100 0.036300
v 0.022500 1.315100 0.123800
v 0.022500 0.913900 0.121300
v 0.022500 0.605100 0.058800
v 0.022500 0.515100 0.020000
v 0.022500 0.515100 0.061300
v 0.022500 0.605100 0.101300
v 0.022500 0.913900 0.058800
v 0.022500 0.605100 -0.098700
v 0.022500 0.913900 -0.098700
v 0.022500 0.915100 -0.160000
v 0.022500 1.315100 -0.157500
v 0.022500 1.605100 -0.140000
v 0.022500 0.605100 -0.140000
v 0.022500 0.513900 -0.056200
v 0.022500 0.515100 -0.090000
v 0.022500 1.505100 -0.106200
v 0.022500 1.315100 -0.082500
v 0.022500 1.315100 0.036300
v 0.022500 1.315100 0.123800
v 0.022500 0.913900 0.121300
v 0.022500 0.605100 0.058800
v 0.022500 0.515100 0.020000
v 0.022500 0.515100 0.061300
v 0.022500 0.605100 0.101300
v 0.022500 0.913900 0.058800
v 0.022500 0.605100 -0.098700
v 0.022500 0.913900 -0.098700
v 0.022500 0.915100 -0.160000
v 0.022500 1.315100 -0.157500
v 0.022500 1.605100 -0.140000
v 0.022500 0.605100 -0.140000
v 0.022500 0.513900 -0.056200
v 0.022500 0.515100 -0.090000
vt 0.507800 0.968800
vt 0.625000 0.968800
vt 0.625000 0.992200
vt 0.625000 0.968800
vt 0.546900 0.925800
vt 0.625000 0.925800
vt 0.546900 0.566400
vt 0.625000 0.566400
vt 0.507800 0.511700
vt 0.625000 0.511700
vt 0.625000 0.925800
vt 0.625000 0.566400
vt 0.625000 0.511700
vt 0.738300 0.968800
vt 0.699200 0.925800
vt 0.699200 0.566400
vt 0.738300 0.511700
vt 0.507800 0.492200
vt 0.507800 0.011700
vt 0.671900 0.011700
vt 0.671900 0.492200
vt 0.824200 0.011700
vt 0.824200 0.492200
vt 0.988300 0.011700
vt 0.988300 0.492200
vt 0.507800 0.492200
vt 0.507800 0.011700
vt 0.671900 0.011700
vt 0.671900 0.492200
vt 0.824200 0.011700
vt 0.824200 0.492200
vt 0.988300 0.011700
vt 0.988300 0.492200
vt 0.671900 0.011700
vt 0.507800 0.492200
vt 0.671900 0.492200
vt 0.824200 0.011700
vt 0.824200 0.492200
vt 0.988300 0.011700
vt 0.988300 0.492200
vt 0.671900 0.011700
vt 0.507800 0.492200
vt 0.671900 0.492200
vt 0.824200 0.011700
vt 0.824200 0.492200
vt 0.988300 0.011700
vt 0.988300 0.492200
vt 0.671900 0.011700
vt 0.507800 0.011700
vt 0.507800 0.492200
vt 0.671900 0.492200
vt 0.824200 0.011700
vt 0.824200 0.492200
vt 0.988300 0.011700
vt 0.988300 0.492200
vt 0.671900 0.011700
vt 0.507800 0.011700
vt 0.507800 0.492200
vt 0.671900 0.492200
vt 0.824200 0.011700
vt 0.824200 0.492200
vt 0.988300 0.011700
vt 0.988300 0.492200
vt 0.507800 0.492200
vt 0.671900 0.011700
vt 0.671900 0.492200
vt 0.824200 0.011700
vt 0.824200 0.492200
vt 0.988300 0.011700
vt 0.988300 0.492200
vt 0.507800 0.492200
vt 0.671900 0.011700
vt 0.671900 0.492200
vt 0.824200 0.011700
vt 0.824200 0.492200
vt 0.988300 0.011700
vt 0.988300 0.492200
vt 0.757800 0.742200
vt 0.988300 0.511700
vt 0.988300 0.742200
vt 0.757800 0.511700
vt 0.757800 0.742200
vt 0.988300 0.511700
vt 0.988300 0.742200
vt 0.757800 0.511700
vt 0.757800 0.761700
vt 0.988300 0.992200
vt 0.757800 0.992200
vt 0.988300 0.761700
vt 0.757800 0.742200
vt 0.988300 0.742200
vt 0.757800 0.511700
vt 0.757800 0.992200
vt 0.988300 0.761700
vt 0.757800 0.761700
vt 0.988300 0.992200
vt 0.757800 0.742200
vt 0.988300 0.511700
vt 0.988300 0.742200
vt 0.125000 0.250000
vt 0.250000 0.101600
vt 0.250000 0.250000
vt 0.007800 0.250000
vt 0.007800 0.550800
vt 0.375000 0.250000
vt 0.250000 0.011700
vt 0.250000 0.992200
vt 0.250000 0.875000
vt 0.375000 0.875000
vt 0.125000 0.875000
vt 0.199200 0.992200
vt 0.125000 0.992200
vt 0.296900 0.992200
vt 0.488300 0.875000
vt 0.488300 0.550800
vt 0.007800 0.875000
vt 0.125000 0.550800
vt 0.250000 0.550800
vt 0.375000 0.550800
vt 0.488300 0.250000
vt 0.375000 0.992200
vt 0.250000 0.101600
vt 0.250000 0.250000
vt 0.375000 0.250000
vt 0.125000 0.250000
vt 0.125000 0.875000
vt 0.250000 0.992200
vt 0.250000 0.875000
vt 0.199200 0.992200
vt 0.125000 0.550800
vt 0.250000 0.550800
vt 0.375000 0.875000
vt 0.375000 0.550800
vt 0.296900 0.992200
vt 0.007800 0.250000
vt 0.250000 0.101600
vt 0.125000 0.250000
vt 0.007800 0.550800
vt 0.125000 0.992200
vt 0.125000 0.875000
vt 0.199200 0.992200
vt 0.007800 0.875000
vt 0.125000 0.550800
vt 0.488300 0.550800
vt 0.375000 0.875000
vt 0.375000 0.550800
vt 0.488300 0.250000
vt 0.375000 0.250000
vt 0.250000 0.011700
vt 0.488300 0.875000
vt 0.296900 0.992200
vt 0.375000 0.992200
vt 0.007800 0.250000
vt 0.125000 0.250000
vt 0.250000 0.101600
vt 0.007800 0.550800
vt 0.125000 0.992200
vt 0.199200 0.992200
vt 0.125000 0.875000
vt 0.007800 0.875000
vt 0.125000 0.550800
vt 0.488300 0.550800
vt 0.375000 0.550800
vt 0.375000 0.875000
vt 0.488300 0.250000
vt 0.375000 0.250000
vt 0.250000 0.011700
vt 0.488300 0.875000
vt 0.296900 0.992200
vt 0.375000 0.992200
vn -0.5818 -0.5973 0.5520
vn 0.5711 -0.6029 0.5571
vn 0.6276 0.4810 0.6122
vn 0.6244 0.4692 0.6244
vn 0.7071 -0.0000 0.7071
vn 0.6992 -0.1496 0.6992
vn 0.6966 -0.1514 0.7013
vn -0.6447 0.4586 0.6116
vn -0.6163 0.4865 0.6192
vn -0.7054 -0.0000 0.7088
vn -0.7016 -0.1515 0.6963
vn -0.7192 -0.1663 0.6746
vn 0.5667 -0.5981 -0.5667
vn -0.5773 -0.5927 -0.5615
vn -0.6287 0.4805 -0.6115
vn -0.6154 0.4378 -0.6554
vn -0.6845 0.0000 -0.7290
vn -0.6790 -0.1771 -0.7125
vn -0.7124 -0.1539 -0.6847
vn 0.6244 0.4692 -0.6244
vn 0.5958 0.4962 -0.6315
vn 0.6862 0.0000 -0.7274
vn 0.6787 -0.1475 -0.7194
vn 0.6875 -0.1546 -0.7095
vn -1.0000 0.0000 0.0000
vn 1.0000 0.0000 0.0000
vn 0.0000 -0.6969 -0.7172
vn 0.0000 0.7172 0.6969
vn 0.0000 0.7071 -0.7071
vn 0.0000 -0.7071 0.7071
vn -0.8480 0.3180 0.4240
vn -0.9172 -0.0493 -0.3953
vn -0.9414 0.0910 -0.3248
vn -0.9382 0.0907 0.3341
vn -0.6996 -0.2829 0.6562
vn -0.6889 -0.3062 -0.6570
vn -0.9420 -0.0000 0.3355
vn -0.9453 0.0000 -0.3261
vn -0.9419 0.0188 0.3354
vn -0.8944 0.0002 0.4472
vn -0.9453 0.0002 -0.3261
vn -0.9182 0.0160 -0.3958
vn 0.9037 -0.0530 -0.4249
vn 0.8262 0.3380 0.4507
vn 0.9298 0.0765 0.3599
vn 0.6830 -0.2892 0.6708
vn 0.9326 -0.0000 0.3610
vn 0.9363 0.0000 -0.3511
vn 0.9324 0.0202 0.3609
vn 0.8779 -0.0000 0.4789
vn 0.9048 0.0172 -0.4255
vn 0.6716 -0.3130 -0.6716
vn 0.9336 0.0768 -0.3501
usemtl MDL_cw1hsw07_1_TEX_cw1hsw07_1
s off
f 1/1/1 2/2/1 3/3/1
f 3/3/2 4/4/2 1/1/2
f 5/5/3 1/1/3 4/4/3
f 4/4/4 6/6/4 5/5/4
f 7/7/5 5/5/5 6/6/5
f 6/6/5 8/8/5 7/7/5
f 9/9/6 7/7/6 8/8/6
f 8/8/7 10/10/7 9/9/7
f 1/1/8 11/11/8 2/2/8
f 5/5/9 11/11/9 1/1/9
f 11/11/10 5/5/10 12/12/10
f 7/7/10 12/12/10 5/5/10
f 12/12/11 7/7/11 13/13/11
f 9/9/12 13/13/12 7/7/12
f 14/14/13 4/4/13 3/3/13
f 3/3/14 2/2/14 14/14/14
f 15/15/15 14/14/15 2/2/15
f 2/2/16 11/11/16 15/15/16
f 16/16/17 15/15/17 11/11/17
f 11/11/17 12/12/17 16/16/17
f 17/17/18 16/16/18 12/12/18
f 12/12/19 13/13/19 17/17/19
f 14/14/20 6/6/20 4/4/20
f 15/15/21 6/6/21 14/14/21
f 6/6/22 15/15/22 8/8/22
f 16/16/22 8/8/22 15/15/22
f 8/8/23 16/16/23 10/10/23
f 17/17/24 10/10/24 16/16/24
f 18/18/25 19/19/25 20/20/25
f 20/20/25 21/21/25 18/18/25
f 21/21/25 20/20/25 22/22/25
f 22/22/25 23/23/25 21/21/25
f 23/23/25 22/22/25 24/24/25
f 24/24/25 25/25/25 23/23/25
f 26/26/25 27/27/25 28/28/25
f 28/28/25 29/29/25 26/26/25
f 29/29/25 28/28/25 30/30/25
f 30/30/25 31/31/25 29/29/25
f 31/31/25 30/30/25 32/32/25
f 32/32/25 33/33/25 31/31/25
f 34/34/25 19/19/25 35/35/25
f 35/35/25 36/36/25 34/34/25
f 37/37/25 34/34/25 36/36/25
f 36/36/25 38/38/25 37/37/25
f 39/39/25 37/37/25 38/38/25
f 38/38/25 40/40/25 39/39/25
f 41/41/25 27/27/25 42/42/25
f 42/42/25 43/43/25 41/41/25
f 44/44/25 41/41/25 43/43/25
f 43/43/25 45/45/25 44/44/25
f 46/46/25 44/44/25 45/45/25
f 45/45/25 47/47/25 46/46/25
f 48/48/26 49/49/26 50/50/26
f 50/50/26 51/51/26 48/48/26
f 52/52/26 48/48/26 51/51/26
f 51/51/26 53/53/26 52/52/26
f 54/54/26 52/52/26 53/53/26
f 53/53/26 55/55/26 54/54/26
f 56/56/26 57/57/26 58/58/26
f 58/58/26 59/59/26 56/56/26
f 60/60/26 56/56/26 59/59/26
f 59/59/26 61/61/26 60/60/26
f 62/62/26 60/60/26 61/61/26
f 61/61/26 63/63/26 62/62/26
f 64/64/26 49/49/26 65/65/26
f 65/65/26 66/66/26 64/64/26
f 66/66/26 65/65/26 67/67/26
f 67/67/26 68/68/26 66/66/26
f 68/68/26 67/67/26 69/69/26
f 69/69/26 70/70/26 68/68/26
f 71/71/26 57/57/26 72/72/26
f 72/72/26 73/73/26 71/71/26
f 73/73/26 72/72/26 74/74/26
f 74/74/26 75/75/26 73/73/26
f 75/75/26 74/74/26 76/76/26
f 76/76/26 77/77/26 75/75/26
f 78/78/27 79/79/27 80/80/27
f 79/79/27 78/78/27 81/81/27
f 82/82/28 83/83/28 84/84/28
f 83/83/28 82/82/28 85/85/28
f 78/86/25 84/87/25 81/88/25
f 84/87/25 78/86/25 82/89/25
f 81/90/29 83/83/29 79/91/29
f 83/83/29 81/90/29 84/92/29
f 79/93/26 85/94/26 80/95/26
f 85/94/26 79/93/26 83/96/26
f 80/97/30 82/98/30 78/99/30
f 82/98/30 80/97/30 85/85/30
f 86/100/31 87/101/31 88/102/31
f 87/101/25 86/100/25 89/103/25
f 90/104/25 89/103/25 86/100/25
f 87/101/32 91/105/32 88/102/32
f 91/105/25 87/101/25 92/106/25
f 89/103/25 92/106/25 87/101/25
f 13/107/33 93/108/33 94/109/33
f 93/108/34 13/107/34 95/110/34
f 9/111/35 95/110/35 13/107/35
f 95/110/25 9/111/25 96/112/25
f 94/109/36 17/113/36 13/107/36
f 17/113/25 94/109/25 97/114/25
f 98/115/25 97/114/25 94/109/25
f 99/116/25 95/110/25 96/112/25
f 90/104/25 100/117/25 99/116/25
f 100/117/25 95/110/25 99/116/25
f 95/110/37 100/117/37 93/108/37
f 101/118/37 93/108/37 100/117/37
f 93/108/38 101/118/38 94/109/38
f 102/119/38 94/109/38 101/118/38
f 94/109/25 102/119/25 98/115/25
f 103/120/25 98/115/25 102/119/25
f 86/100/25 100/117/25 90/104/25
f 100/117/39 86/100/39 101/118/39
f 88/102/40 101/118/40 86/100/40
f 101/118/41 88/102/41 102/119/41
f 91/105/42 102/119/42 88/102/42
f 102/119/25 91/105/25 103/120/25
f 92/106/25 103/120/25 91/105/25
f 104/121/25 17/113/25 97/114/25
f 105/122/43 107/123/43 106/124/43
f 107/123/44 105/122/44 108/125/44
f 109/126/45 10/127/45 110/128/45
f 10/127/46 109/126/46 111/129/46
f 110/128/47 112/130/47 109/126/47
f 112/130/47 110/128/47 113/131/47
f 114/132/48 113/131/48 110/128/48
f 113/131/48 114/132/48 115/133/48
f 113/131/49 108/125/49 112/130/49
f 108/125/50 113/131/50 107/123/50
f 115/133/48 107/123/48 113/131/48
f 107/123/51 115/133/51 106/124/51
f 10/127/52 116/134/52 114/132/52
f 114/132/53 110/128/53 10/127/53
f 120/135/25 117/136/25 119/137/25
f 119/137/25 121/138/25 120/135/25
f 124/139/25 122/140/25 123/141/25
f 122/140/25 124/139/25 125/142/25
f 125/142/25 126/143/25 122/140/25
f 129/144/25 127/145/25 128/146/25
f 128/146/25 130/147/25 129/144/25
f 126/143/25 125/142/25 121/138/25
f 121/138/25 119/137/25 126/143/25
f 130/147/25 128/146/25 118/148/25
f 118/148/25 131/149/25 130/147/25
f 117/136/25 120/135/25 131/149/25
f 131/149/25 118/148/25 117/136/25
f 132/150/25 127/145/25 129/144/25
f 133/151/25 132/150/25 134/152/25
f 132/150/25 133/151/25 127/145/25
usemtl MDL_cw1hsw07_1_TEX_cw1hsw07_1.001
f 138/153/26 137/154/26 135/155/26
f 137/154/26 138/153/26 139/156/26
f 142/157/26 141/158/26 140/159/26
f 140/159/26 143/160/26 142/157/26
f 143/160/26 140/159/26 144/161/26
f 147/162/26 146/163/26 145/164/26
f 146/163/26 147/162/26 148/165/26
f 144/161/26 139/156/26 143/160/26
f 139/156/26 144/161/26 137/154/26
f 148/165/26 136/166/26 146/163/26
f 136/166/26 148/165/26 149/167/26
f 135/155/26 149/167/26 138/153/26
f 149/167/26 135/155/26 136/166/26
f 150/168/26 147/162/26 145/164/26
f 151/169/26 152/170/26 150/168/26
f 150/168/26 145/164/26 151/169/26
