# Blender v2.79 (sub 0) OBJ File: ''
# www.blender.org
mtllib dualgunner02.mtl
o MDL_w2dgn02l_bod01_001
v 0.000000 -0.171600 0.232800
v 0.000000 -0.234700 0.193100
v 0.000000 -0.140900 0.159100
v 0.000000 -0.182800 0.139100
v 0.000000 -0.285600 0.117200
v 0.000000 -0.205300 0.101300
v 0.000000 -0.205300 0.052500
v 0.000000 -0.283100 0.009700
v 0.000000 -0.206200 -0.043700
v 0.000000 -0.167500 0.013700
v 0.000000 -0.017200 0.225600
v 0.000000 -0.061600 0.136300
v 0.000000 -0.015000 0.056600
v 0.000000 0.119400 0.560600
v 0.000000 0.121600 0.276600
v 0.000000 0.222800 0.269400
v 0.000000 0.163100 0.190000
v 0.000000 0.230300 0.200900
v 0.021300 0.104400 0.347200
v -0.020600 -0.020000 0.347200
v 0.021300 -0.020000 0.347200
v -0.020600 0.104400 0.347200
v 0.003400 0.104400 0.347200
v -0.003400 0.104400 0.016600
v -0.003400 0.104400 0.347200
v 0.003400 0.104400 0.016600
v 0.003400 -0.020000 0.347200
v -0.003400 -0.020000 0.061300
v 0.003400 -0.020000 0.061300
v -0.003400 -0.020000 0.347200
v 0.003400 0.081200 0.012500
v -0.003400 0.081200 0.012500
v 0.003400 0.069700 0.001200
v -0.003400 0.069700 0.001200
v 0.003400 0.061900 -0.029100
v -0.003400 0.061900 -0.029100
v 0.003400 0.042800 -0.056900
v -0.003400 0.042800 -0.056900
v 0.003400 0.022800 -0.075000
v -0.003400 0.022800 -0.075000
v -0.021900 0.038400 0.141200
v -0.021900 0.045600 0.347200
v -0.021900 0.045600 0.141200
v -0.021900 0.038400 0.347200
v -0.022500 0.000900 0.034100
v -0.022500 0.079700 0.141600
v -0.022500 0.079700 0.034100
v -0.022500 0.000900 0.141600
v 0.021300 0.045600 0.347200
v 0.021300 0.038400 0.141200
v 0.021300 0.045600 0.141200
v 0.021300 0.038400 0.347200
v 0.021300 0.079700 0.141600
v 0.021300 0.000900 0.034100
v 0.021300 0.079700 0.034100
v 0.021300 0.000900 0.141600
v 0.021300 0.092500 0.004700
v 0.021300 -0.048100 -0.040900
v 0.021300 0.034700 -0.099700
v 0.021300 0.026600 0.052200
v -0.022200 0.092500 0.004700
v -0.021900 -0.048100 -0.040900
v -0.021900 0.026600 0.052200
v -0.021900 0.034700 -0.099700
v 0.000000 -0.032800 0.695900
v 0.000000 -0.185000 0.321900
v 0.000000 -0.420000 0.584400
v 0.000000 -0.737200 0.372800
v 0.000000 -1.050000 0.003700
v 0.000000 -1.047500 -0.113800
v 0.000000 0.206200 0.104700
v 0.000000 0.138800 0.158700
v 0.000000 0.097500 0.063400
v 0.000000 0.156900 0.020600
v 0.000000 0.097500 0.232200
vt 0.617200 0.554700
vt 0.390600 0.535200
vt 0.648400 0.406300
vt 0.390600 0.406300
vt 0.648400 0.535200
vt 0.390600 0.535200
vt 0.648400 0.406300
vt 0.390600 0.406300
vt 0.210900 0.406300
vt 0.125000 0.523400
vt 0.007800 0.394500
vt 0.117200 0.339800
vt 0.992200 0.507800
vt 0.851600 0.371100
vt 0.992200 0.242200
vt 1.000000 0.230500
vt 0.539100 0.230500
vt 0.539100 0.003900
vt 0.429700 0.140600
vt 0.375000 0.011700
vt 0.789100 0.812500
vt 0.671900 0.968800
vt 0.789100 0.968800
vt 0.671900 0.812500
vt 0.375000 0.082000
vt 0.390600 0.066400
vt 0.375000 0.066400
vt 0.390600 0.082000
vt 0.359400 0.089800
vt 0.320300 0.066400
vt 0.320300 0.089800
vt 0.359400 0.066400
vt 0.414100 0.082000
vt 0.414100 0.066400
vt 0.429700 0.082000
vt 0.429700 0.066400
vt 0.453100 0.082000
vt 0.453100 0.066400
vt 0.468800 0.082000
vt 0.468800 0.066400
vt 0.492200 0.082000
vt 0.492200 0.066400
vt 0.320300 0.089800
vt 0.359400 0.066400
vt 0.320300 0.066400
vt 0.359400 0.089800
vt 0.820300 0.386700
vt 0.523400 0.269500
vt 0.820300 0.269500
vt 0.523400 0.386700
vt 0.320300 0.066400
vt 0.359400 0.089800
vt 0.359400 0.066400
vt 0.320300 0.089800
vt 0.523400 0.269500
vt 0.820300 0.386700
vt 0.820300 0.269500
vt 0.523400 0.386700
vt 0.164100 0.265600
vt 0.507800 0.398400
vt 0.507800 0.265600
vt 0.195300 0.378900
vt 0.164100 0.265600
vt 0.507800 0.398400
vt 0.195300 0.378900
vt 0.507800 0.265600
vt 0.990277 0.506038
vt 0.951177 0.978738
vt 0.599677 0.627138
vt 0.601600 0.628900
vt 0.554700 1.000000
vt 0.554700 1.000000
vt 0.390600 0.984400
vt 0.156300 0.984400
vt 0.187500 0.023400
vt 0.346154 0.184615
vt 0.344712 0.184562
vt 0.079327 0.260738
vt 0.002562 0.153581
vt 0.001119 0.152619
vt 0.187981 0.023400
vt 0.345192 0.183600
vt 0.531300 0.261700
vt 0.078100 0.261700
vn 1.0000 0.0000 0.0000
vn 0.0000 -0.0000 1.0000
vn 0.0000 1.0000 0.0000
vn 0.0000 0.7662 -0.6426
vn 0.0000 -1.0000 -0.0000
vn 0.0000 0.3641 -0.9313
vn 0.0000 0.5470 -0.8371
vn 0.0000 0.8165 -0.5773
vn 0.0000 0.9087 -0.4175
vn 0.0000 0.9330 -0.3598
vn -0.0000 0.8843 -0.4670
vn 0.0000 0.7779 -0.6284
vn -0.0000 0.7265 -0.6872
vn 0.0000 0.6710 -0.7414
vn -1.0000 0.0000 0.0000
vn -1.0000 -0.0023 0.0004
vn -1.0000 -0.0022 0.0005
vn -1.0000 -0.0029 0.0023
vn -1.0000 -0.0015 -0.0021
usemtl TEX_w2dgn02_1_001
s 1
f 1/1/1 2/2/1 3/3/1
f 2/2/1 4/4/1 3/3/1
f 2/5/1 5/6/1 4/7/1
f 6/8/1 4/7/1 5/6/1
f 5/6/1 7/9/1 6/8/1
f 8/10/1 7/9/1 5/6/1
f 8/10/1 9/11/1 10/12/1
f 10/12/1 7/9/1 8/10/1
f 11/13/1 3/3/1 12/14/1
f 12/14/1 13/15/1 11/13/1
f 14/16/1 15/17/1 16/18/1
f 16/18/1 15/17/1 17/19/1
f 18/20/1 16/18/1 17/19/1
f 3/3/1 11/13/1 1/1/1
f 19/21/2 20/22/2 21/23/2
f 20/22/2 19/21/2 22/24/2
f 23/25/3 24/26/4 25/27/3
f 24/26/4 23/25/3 26/28/4
f 27/29/5 28/30/5 29/31/5
f 28/30/5 27/29/5 30/32/5
f 24/26/4 31/33/6 32/34/7
f 31/33/6 24/26/4 26/28/4
f 32/34/7 33/35/8 34/36/9
f 33/35/8 32/34/7 31/33/6
f 34/36/9 35/37/10 36/38/11
f 35/37/10 34/36/9 33/35/8
f 36/38/11 37/39/12 38/40/13
f 37/39/12 36/38/11 35/37/10
f 38/40/13 39/41/14 40/42/14
f 39/41/14 38/40/13 37/39/12
f 41/43/15 42/44/15 43/45/15
f 42/44/15 41/43/15 44/46/15
f 45/47/15 46/48/15 47/49/15
f 46/48/15 45/47/15 48/50/15
f 49/51/1 50/52/1 51/53/1
f 50/52/1 49/51/1 52/54/1
f 53/55/1 54/56/1 55/57/1
f 54/56/1 53/55/1 56/58/1
f 57/59/1 58/60/1 59/61/1
f 58/60/1 57/59/1 60/62/1
f 61/63/16 62/64/17 63/65/18
f 62/64/17 61/63/16 64/66/19
f 11/67/1 65/68/1 66/69/1
f 11/13/1 66/70/1 1/1/1
f 2/2/1 1/1/1 67/71/1
f 5/6/1 2/5/1 68/72/1
f 5/6/1 69/73/1 70/74/1
f 70/74/1 8/10/1 5/6/1
f 17/19/1 71/75/1 18/20/1
f 71/75/1 17/19/1 72/76/1
f 72/77/1 73/78/1 74/79/1
f 74/80/1 71/81/1 72/82/1
f 72/76/1 75/83/1 73/84/1
o MDL_w2dgn02l_bod00
v 0.021100 -0.105300 -0.122800
v -0.020900 -0.045500 -0.117300
v 0.021100 -0.045500 -0.117300
v -0.020900 -0.105300 -0.122800
v 0.021100 -0.149800 -0.109800
v -0.020900 -0.149800 -0.109800
v 0.021100 -0.061700 -0.055900
v -0.020900 -0.037300 -0.046300
v -0.020900 -0.061700 -0.055900
v 0.021100 -0.037300 -0.046300
v 0.021100 -0.095800 -0.051900
v -0.020900 -0.095800 -0.051900
v 0.021100 -0.122300 -0.038300
v -0.020900 -0.122300 -0.038300
v -0.020900 -0.138600 -0.075300
v -0.020900 -0.005600 -0.097500
v -0.020900 0.009400 -0.092300
v -0.021400 -0.016400 -0.032200
v -0.021400 0.022200 -0.075000
v -0.021400 -0.003000 -0.028100
v 0.021100 -0.138600 -0.075300
v 0.021100 -0.005600 -0.097500
v -0.020900 0.032500 -0.090600
v 0.021100 0.023000 -0.098300
v -0.020900 0.023000 -0.098300
v 0.021100 0.032500 -0.090600
v 0.021100 0.022200 -0.075000
v 0.021100 -0.034400 -0.030200
v -0.020900 -0.039100 -0.033800
v 0.021100 -0.039100 -0.033800
v -0.020900 -0.034400 -0.030200
v 0.021100 -0.016400 -0.032200
v 0.021100 0.009400 -0.092300
v 0.021100 -0.027700 -0.025300
v -0.020900 -0.027700 -0.025300
v -0.021400 -0.032500 -0.015000
v 0.021100 -0.032500 -0.015000
v -0.021400 -0.033400 -0.000900
v 0.021100 -0.033400 -0.000900
v -0.021400 -0.025000 0.016100
v 0.021100 -0.025000 0.016100
v -0.021400 -0.008900 0.023000
v 0.021100 -0.008900 0.023000
v -0.021400 0.003700 0.014400
v 0.021100 0.003700 0.014400
v 0.021100 0.009400 -0.002300
v 0.021100 0.061300 -0.028600
v -0.021400 0.069200 0.001900
v 0.021100 0.069200 0.001900
v -0.021400 0.061300 -0.028600
v 0.021100 0.042200 -0.056700
v -0.021400 0.042200 -0.056700
v -0.021400 0.009400 -0.002300
v 0.021100 0.006600 -0.016700
v -0.021400 0.006600 -0.016700
v 0.021100 -0.003000 -0.028100
v -0.021400 0.042000 0.033400
v -0.021400 -0.014700 0.033600
v 0.021100 0.042000 0.033400
v 0.021100 -0.014700 0.033600
v 0.021100 -0.019400 0.040800
v -0.021400 -0.019400 0.040800
v -0.021400 -0.019400 0.193700
v -0.021400 0.042000 0.193700
v 0.021100 -0.019400 0.193700
v 0.021100 -0.019400 0.346700
v -0.021400 -0.019400 0.346700
v 0.021100 0.103600 0.033400
v -0.021400 0.103600 0.033400
v 0.021100 0.103600 0.193700
v -0.021400 0.103600 0.016600
v 0.021100 0.103600 0.346700
v -0.021400 0.103600 0.193700
v -0.021400 0.103600 0.346700
v -0.021400 0.080900 0.013100
v -0.021400 0.042000 0.346700
v 0.021100 0.042000 0.346700
v 0.021100 0.042000 0.193700
v 0.021100 0.080900 0.013100
v 0.021100 0.103600 0.016600
v -0.021400 -0.031700 0.020600
v 0.021100 -0.031700 0.020600
v -0.021400 -0.040300 0.001200
v 0.021100 -0.040300 0.001200
v -0.021400 -0.039500 -0.016600
v 0.021100 -0.039500 -0.016600
v 0.009400 -0.002700 -0.018600
v -0.009200 0.000000 -0.010200
v -0.009200 -0.002700 -0.018600
v 0.009400 -0.010600 -0.023600
v 0.009400 0.000000 -0.010200
v -0.009200 -0.010600 -0.023600
v 0.009400 -0.021300 -0.023300
v -0.009200 -0.021300 -0.023300
v -0.009200 0.011300 -0.010800
v -0.009200 0.006100 -0.024400
v -0.009200 -0.009700 -0.034500
v -0.009200 -0.027500 -0.033100
v 0.009400 -0.027500 -0.033100
v 0.009400 -0.009700 -0.034500
v 0.009400 0.006100 -0.024400
v 0.009400 0.011300 -0.010800
v -0.009200 -0.035900 -0.009500
v 0.009400 -0.035900 -0.009500
vt 0.351600 0.843800
vt 0.453100 0.812500
vt 0.351600 0.812500
vt 0.453100 0.843800
vt 0.351600 0.890600
vt 0.453100 0.890600
vt 0.507800 0.929700
vt 0.468800 0.992200
vt 0.507800 0.992200
vt 0.468800 0.929700
vt 0.585900 0.929700
vt 0.539100 0.992200
vt 0.585900 0.992200
vt 0.625000 0.929700
vt 0.539100 0.929700
vt 0.625000 0.992200
vt 0.992200 0.835900
vt 0.789100 0.968800
vt 0.984400 0.984400
vt 0.859400 0.687500
vt 0.984400 0.679700
vt 0.718800 0.656300
vt 0.648400 0.585900
vt 0.468800 0.734400
vt 0.585900 0.875000
vt 0.406300 0.695300
vt 0.593800 0.500000
vt 0.375000 0.617200
vt 0.546900 0.468800
vt 0.546900 0.914100
vt 0.593800 0.992200
vt 0.593800 0.914100
vt 0.546900 0.992200
vt 0.593800 0.914100
vt 0.593800 0.992200
vt 0.789100 0.968800
vt 0.992200 0.835900
vt 0.984400 0.984400
vt 0.859400 0.687500
vt 0.718800 0.656300
vt 0.984400 0.679700
vt 0.585900 0.875000
vt 0.468800 0.734400
vt 0.648400 0.585900
vt 0.859400 0.570300
vt 0.992200 0.617200
vt 0.859400 0.617200
vt 0.992200 0.570300
vt 0.859400 0.460900
vt 0.992200 0.460900
vt 0.765600 0.515600
vt 0.679700 0.531300
vt 0.765600 0.531300
vt 0.656300 0.515600
vt 0.375000 0.617200
vt 0.593800 0.500000
vt 0.406300 0.695300
vt 0.359400 0.695300
vt 0.335900 0.648400
vt 0.765600 0.578100
vt 0.335900 0.648400
vt 0.359400 0.695300
vt 0.656300 0.515600
vt 0.632800 0.484400
vt 0.679700 0.531300
vt 0.500000 0.937500
vt 0.476600 0.992200
vt 0.476600 0.937500
vt 0.500000 0.992200
vt 0.523400 0.937500
vt 0.523400 0.992200
vt 0.570300 0.937500
vt 0.570300 0.992200
vt 0.632800 0.937500
vt 0.632800 0.992200
vt 0.656300 0.937500
vt 0.656300 0.992200
vt 0.601600 0.937500
vt 0.601600 0.992200
vt 0.546900 0.992200
vt 0.632800 0.484400
vt 0.453100 0.750000
vt 0.351600 0.765600
vt 0.453100 0.765600
vt 0.351600 0.750000
vt 0.453100 0.734400
vt 0.351600 0.734400
vt 0.351600 0.789100
vt 0.453100 0.789100
vt 0.828100 0.007800
vt 0.757800 0.179700
vt 0.757800 0.007800
vt 0.828100 0.179700
vt 0.898400 0.007800
vt 0.898400 0.179700
vt 0.992200 0.007800
vt 0.992200 0.179700
vt 0.546900 0.937500
vt 0.523400 0.992200
vt 0.523400 0.937500
vt 0.500000 0.992200
vt 0.500000 0.937500
vt 0.062500 0.781300
vt 0.054700 0.843800
vt 0.171900 0.992200
vt 0.296900 0.867200
vt 1.000000 0.992200
vt 1.000000 0.875000
vt 0.984400 0.945300
vt 0.078100 0.726600
vt 0.304700 0.734400
vt 0.304700 0.648400
vt 0.078100 0.648400
vt 0.328100 0.507800
vt 0.546900 0.468800
vt 0.328100 0.507800
vt 0.078100 0.726600
vt 0.304700 0.648400
vt 0.304700 0.734400
vt 0.062500 0.781300
vt 0.078100 0.648400
vt 0.296900 0.867200
vt 0.171900 0.992200
vt 0.992200 0.179700
vt 0.992200 0.445300
vt 0.953100 0.179700
vt 0.953100 0.179700
vt 0.390600 0.179700
vt 0.390600 0.445300
vt 0.992200 0.445300
vt 0.992200 0.179700
vt 0.054700 0.843800
vt 0.539100 0.007800
vt 0.007800 0.179700
vt 0.007800 0.007800
vt 0.539100 0.179700
vt 0.242200 0.007800
vt 0.242200 0.179700
vt 0.414100 0.007800
vt 0.414100 0.179700
vt 0.289100 0.007800
vt 0.609400 0.179700
vt 0.218800 0.007800
vt 0.289100 0.179700
vt 0.218800 0.179700
vt 0.429700 0.929700
vt 0.429700 0.992200
vt 0.343800 0.906300
vt 0.218800 0.445300
vt 0.218800 0.179700
vt 0.390600 0.179700
vt 0.195300 0.445300
vt 0.023400 0.195300
vt 0.195300 0.195300
vt 0.023400 0.445300
vt 0.195300 0.195300
vt 0.023400 0.195300
vt 0.390600 0.179700
vt 0.218800 0.445300
vt 0.390600 0.445300
vt 0.218800 0.179700
vt 0.218800 0.179700
vt 0.390600 0.179700
vt 0.992200 0.179700
vt 0.687500 0.007800
vt 0.609400 0.007800
vt 0.687500 0.179700
vt 0.015600 0.875000
vt 0.343800 0.906300
vt 1.000000 0.875000
vt 1.000000 0.992200
vt 0.984400 0.945300
vt 0.476600 0.937500
vt 0.492200 0.992200
vt 0.492200 0.937500
vt 0.476600 0.992200
vt 0.992200 0.234400
vt 0.882800 0.179700
vt 0.882800 0.234400
vt 0.945300 0.179700
vt 0.945300 0.179700
vt 0.882800 0.234400
vt 0.882800 0.179700
vt 0.992200 0.234400
vt 0.531300 0.992200
vt 0.531300 0.937500
vt 0.812500 0.179700
vt 0.812500 0.234400
vt 0.812500 0.234400
vt 0.812500 0.179700
vt 0.585900 0.992200
vt 0.585900 0.937500
vt 0.859400 0.179700
vt 0.859400 0.234400
vt 0.859400 0.234400
vt 0.859400 0.179700
vt 0.632800 0.992200
vt 0.632800 0.937500
vt 0.992200 0.179700
vt 0.992200 0.234400
vt 0.992200 0.234400
vt 0.992200 0.179700
vt 0.671900 0.992200
vt 0.671900 0.937500
vt 0.992200 0.179700
vt 0.015600 0.875000
vt 0.429700 0.929700
vt 0.429700 0.992200
vt 0.039100 0.460900
vt 0.015600 0.539100
vt 0.039100 0.539100
vt 0.078100 0.460900
vt 0.015600 0.460900
vt 0.078100 0.539100
vt 0.132800 0.460900
vt 0.132800 0.539100
vt 0.148400 0.593800
vt 0.187500 0.460900
vt 0.148400 0.460900
vt 0.109400 0.593800
vt 0.187500 0.593800
vt 0.109400 0.460900
vt 0.062500 0.585900
vt 0.054700 0.460900
vt 0.109400 0.593800
vt 0.054700 0.460900
vt 0.109400 0.460900
vt 0.148400 0.593800
vt 0.062500 0.585900
vt 0.148400 0.460900
vt 0.187500 0.593800
vt 0.187500 0.460900
vt 0.195300 0.593800
vt 0.226600 0.460900
vt 0.195300 0.460900
vt 0.226600 0.593800
vt 0.187500 0.539100
vt 0.187500 0.460900
vt 0.007800 0.570300
vt 0.007800 0.570300
vn 0.8045 -0.0196 -0.5936
vn -0.7124 0.1491 -0.6857
vn 0.5605 0.2748 -0.7812
vn -0.7127 -0.1115 -0.6926
vn 0.4124 -0.6234 -0.6643
vn -0.4124 -0.9000 -0.1411
vn 0.8077 -0.1243 0.5764
vn -0.8447 -0.4652 0.2647
vn -0.7166 -0.0318 0.6968
vn 0.9542 -0.2588 0.1504
vn 0.7121 0.1637 0.6827
vn -0.8041 0.2070 0.5573
vn 0.3424 -0.3141 0.8855
vn -0.5891 -0.2701 0.7616
vn -0.7075 -0.6560 0.2630
vn -0.7077 0.2870 -0.6455
vn -0.8670 0.0385 -0.4969
vn -0.9395 0.0273 0.3416
vn -0.8621 0.5020 0.0685
vn -0.7200 -0.3240 0.6136
vn 0.7075 -0.6644 0.2407
vn 0.7077 0.2594 -0.6571
vn -0.6501 0.6815 -0.3360
vn 0.6078 0.2601 -0.7503
vn -0.3575 -0.0635 -0.9318
vn 0.3956 0.9094 0.1286
vn 0.9035 0.3947 -0.1671
vn 0.8957 -0.3856 0.2215
vn -0.3546 -0.7821 0.5124
vn 0.3546 -0.9175 0.1804
vn -0.8466 -0.5317 0.0213
vn 0.8078 0.0739 0.5848
vn 0.8177 -0.0981 -0.5672
vn 0.5695 0.6646 0.4836
vn -0.7233 0.4719 0.5042
vn -0.7129 0.6705 0.2055
vn 0.7126 0.6893 0.1306
vn -0.7178 0.6921 -0.0755
vn 0.7178 0.6678 -0.1968
vn -0.7267 0.5298 -0.4373
vn 0.7267 0.4080 -0.5526
vn -0.7466 0.0557 -0.6630
vn 0.8314 -0.1525 -0.5344
vn -0.4662 -0.7040 -0.5357
vn 0.7255 -0.5478 -0.4167
vn 0.8086 -0.5811 -0.0920
vn 0.7117 0.6556 -0.2524
vn -0.7192 0.6299 -0.2934
vn 0.7192 0.5636 -0.4064
vn -0.7117 0.6221 -0.3262
vn 0.7092 0.5506 -0.4402
vn -0.7092 0.5147 -0.4817
vn -0.8086 -0.5882 0.0119
vn 0.7172 -0.6522 0.2453
vn -0.7172 -0.6004 0.3536
vn 0.7200 -0.4374 0.5387
vn -1.0000 0.0000 0.0000
vn -0.8667 -0.4945 -0.0648
vn 1.0000 0.0000 0.0000
vn 0.7934 -0.5428 0.2756
vn 0.7202 -0.6422 -0.2625
vn -0.7202 -0.6812 -0.1312
vn -0.7071 -0.7071 -0.0000
vn 0.5547 -0.8320 0.0000
vn 0.6667 -0.6667 0.3333
vn -0.4084 -0.4081 0.8165
vn 0.5547 0.8321 0.0000
vn -0.5547 0.8320 0.0000
vn 0.8000 0.6000 0.0000
vn -0.5501 0.6339 -0.5437
vn 0.3333 0.6667 0.6667
vn -0.7071 0.7071 0.0000
vn -0.8165 0.4082 0.4083
vn -0.5708 0.4382 -0.6944
vn -0.7071 -0.0000 0.7071
vn 0.7071 -0.0000 0.7071
vn 0.5708 0.2844 -0.7703
vn 0.7965 0.4590 -0.3936
vn -0.7169 -0.5088 0.4765
vn 0.7169 -0.5821 0.3836
vn -0.7155 -0.6743 0.1826
vn 0.7155 -0.6946 0.0753
vn -0.7130 -0.6904 -0.1221
vn 0.7110 -0.6806 -0.1771
vn 0.7261 -0.5903 0.3526
vn -0.3010 -0.5411 0.7853
vn -0.7261 -0.4893 0.4831
vn 0.7209 -0.2503 0.6463
vn 0.7838 -0.3523 0.5113
vn -0.7209 -0.1151 0.6834
vn 0.4719 0.3374 0.8146
vn -0.8488 0.2022 0.4885
vn -0.8944 0.0237 0.4466
vn 0.4472 0.0474 0.8932
vn -0.4472 0.6144 0.6500
vn 0.7071 0.4857 0.5139
usemtl TEX_w2dgn02
s 1
f 76/85/20 77/86/21 78/87/22
f 77/86/21 76/85/20 79/88/23
f 80/89/24 79/88/23 76/85/20
f 79/88/23 80/89/24 81/90/25
f 82/91/26 83/92/27 84/93/28
f 83/92/27 82/91/26 85/94/29
f 86/95/30 84/96/28 87/97/31
f 87/97/31 88/98/32 86/95/30
f 86/95/30 82/99/26 84/96/28
f 87/97/31 89/100/33 88/98/32
f 90/101/34 79/102/23 81/103/25
f 79/102/23 90/101/34 87/104/31
f 89/105/33 87/104/31 90/101/34
f 84/106/28 83/107/27 91/108/35
f 91/108/35 77/109/21 84/106/28
f 92/110/36 91/108/35 83/107/27
f 83/107/27 93/111/37 92/110/36
f 94/112/38 92/110/36 93/111/37
f 93/111/37 95/113/39 94/112/38
f 87/104/31 77/109/21 79/102/23
f 77/109/21 87/104/31 84/106/28
f 96/114/40 81/115/25 80/116/24
f 81/115/25 96/114/40 90/117/34
f 88/118/32 90/117/34 96/114/40
f 90/117/34 88/118/32 89/119/33
f 76/120/20 96/121/40 80/122/24
f 86/123/30 96/121/40 76/120/20
f 76/120/20 82/124/26 86/123/30
f 86/123/30 88/125/32 96/121/40
f 82/124/26 76/120/20 78/126/22
f 78/126/22 97/127/41 82/124/26
f 82/124/26 97/127/41 85/128/29
f 98/129/42 99/130/43 100/131/44
f 99/130/43 98/129/42 101/132/45
f 94/133/38 101/132/45 98/129/42
f 101/132/45 94/133/38 102/134/46
f 103/135/47 104/136/48 105/137/49
f 104/136/48 103/135/47 106/138/50
f 102/139/46 107/140/51 108/141/52
f 108/141/52 99/142/43 102/139/46
f 101/143/45 102/139/46 99/142/43
f 108/141/52 107/140/51 85/128/29
f 105/137/49 83/107/27 85/144/29
f 83/107/27 105/137/49 104/136/48
f 98/145/42 92/110/36 94/112/38
f 92/110/36 98/145/42 100/146/44
f 103/147/47 107/140/51 109/148/53
f 103/147/47 105/149/49 85/128/29
f 110/150/54 107/151/51 93/152/37
f 107/151/51 110/150/54 109/153/53
f 111/154/55 109/153/53 110/150/54
f 109/153/53 111/154/55 112/155/56
f 113/156/57 112/155/56 111/154/55
f 112/155/56 113/156/57 114/157/58
f 115/158/59 114/157/58 113/156/57
f 114/157/58 115/158/59 116/159/60
f 117/160/61 116/159/60 115/158/59
f 116/159/60 117/160/61 118/161/62
f 119/162/63 118/161/62 117/160/61
f 118/161/62 119/162/63 120/163/64
f 121/164/65 120/163/64 119/162/63
f 106/138/50 83/107/27 104/136/48
f 106/138/50 110/165/54 93/111/37
f 92/166/36 97/167/41 91/168/35
f 97/167/41 92/166/36 108/169/52
f 100/170/44 108/169/52 92/166/36
f 108/169/52 100/170/44 99/171/43
f 78/172/22 91/168/35 97/167/41
f 91/168/35 78/172/22 77/173/21
f 122/174/66 123/175/67 124/176/68
f 123/175/67 122/174/66 125/177/69
f 126/178/70 125/177/69 122/174/66
f 125/177/69 126/178/70 127/179/71
f 102/180/46 127/179/71 126/178/70
f 127/179/71 102/180/46 94/181/38
f 121/164/65 119/162/63 128/182/72
f 128/182/72 129/183/73 121/164/65
f 129/183/73 128/182/72 130/184/74
f 130/184/74 131/185/75 129/183/73
f 131/185/75 130/184/74 95/186/39
f 95/186/39 107/151/51 131/185/75
f 95/186/39 93/152/37 107/151/51
f 128/187/72 119/188/63 132/189/76
f 132/189/76 123/190/67 128/187/72
f 132/191/76 117/192/61 133/193/77
f 130/194/74 128/187/72 125/195/69
f 125/195/69 127/196/71 130/194/74
f 125/195/69 128/187/72 123/190/67
f 130/194/74 127/196/71 95/197/39
f 94/112/38 95/113/39 127/198/71
f 131/199/75 102/139/46 126/200/70
f 102/139/46 131/199/75 107/140/51
f 129/201/73 126/202/70 122/203/66
f 122/203/66 121/204/65 129/201/73
f 129/201/73 131/205/75 126/202/70
f 121/204/65 122/203/66 124/206/68
f 124/206/68 134/207/78 121/204/65
f 135/208/79 134/209/78 136/210/80
f 137/211/81 138/212/82 139/213/76
f 139/213/76 132/214/76 137/211/81
f 133/215/77 137/211/81 132/214/76
f 120/216/64 121/204/65 134/207/78
f 140/217/83 137/218/81 136/219/80
f 137/218/81 140/217/83 138/220/82
f 141/221/84 138/220/82 140/217/83
f 138/220/82 141/221/84 142/222/85
f 143/223/86 144/224/87 145/225/88
f 144/224/87 143/223/86 146/226/89
f 147/227/90 148/228/91 149/229/92
f 148/228/91 147/227/90 145/225/88
f 146/230/89 132/189/76 144/231/87
f 150/232/93 132/189/76 146/230/89
f 132/189/76 150/232/93 123/190/67
f 151/233/94 138/212/82 142/234/85
f 138/212/82 151/233/94 139/213/76
f 149/229/92 139/213/76 151/233/94
f 139/213/76 149/229/92 148/235/91
f 152/236/95 142/237/85 141/238/84
f 142/237/85 152/236/95 151/239/94
f 147/240/90 151/239/94 152/236/95
f 151/239/94 147/240/90 149/241/92
f 145/242/88 152/243/95 153/244/78
f 152/243/95 145/242/88 147/245/90
f 141/246/84 153/244/78 152/243/95
f 153/244/78 141/246/84 140/247/83
f 134/209/78 153/244/78 136/210/80
f 145/242/88 153/244/78 134/209/78
f 134/209/78 143/248/86 145/242/88
f 154/249/96 146/226/89 155/250/97
f 146/226/89 154/249/96 150/251/93
f 124/176/68 150/251/93 154/249/96
f 150/251/93 124/176/68 123/175/67
f 132/189/76 119/188/63 117/252/61
f 134/207/78 124/206/68 154/253/96
f 118/254/62 134/255/78 135/256/79
f 136/257/80 133/258/77 135/259/79
f 133/258/77 136/257/80 137/260/81
f 133/261/77 115/262/59 156/263/98
f 115/262/59 133/261/77 117/264/61
f 118/265/62 157/266/99 116/267/60
f 157/266/99 118/265/62 135/268/79
f 135/259/79 156/269/98 157/270/99
f 156/269/98 135/259/79 133/258/77
f 156/263/98 113/271/57 158/272/100
f 113/271/57 156/263/98 115/262/59
f 116/267/60 159/273/101 114/274/58
f 159/273/101 116/267/60 157/266/99
f 157/270/99 158/275/100 159/276/101
f 158/275/100 157/270/99 156/269/98
f 158/272/100 111/277/55 160/278/102
f 111/277/55 158/272/100 113/271/57
f 114/274/58 161/279/103 112/280/56
f 161/279/103 114/274/58 159/273/101
f 159/276/101 160/281/102 161/282/103
f 160/281/102 159/276/101 158/275/100
f 83/107/27 106/138/50 93/111/37
f 107/140/51 103/147/47 85/128/29
f 160/278/102 110/283/54 106/284/50
f 110/283/54 160/278/102 111/277/55
f 112/280/56 103/285/47 109/286/53
f 103/285/47 112/280/56 161/279/103
f 161/282/103 106/287/50 103/288/47
f 106/287/50 161/282/103 160/281/102
f 132/214/76 139/213/76 148/235/91
f 148/235/91 144/289/87 132/214/76
f 153/244/78 140/247/83 136/210/80
f 118/290/62 120/216/64 134/207/78
f 155/291/97 134/207/78 154/253/96
f 134/207/78 155/291/97 143/292/86
f 162/293/104 163/294/105 164/295/106
f 164/295/106 165/296/107 162/293/104
f 162/293/104 166/297/108 163/294/105
f 165/296/107 164/295/106 167/298/109
f 167/298/109 168/299/110 165/296/107
f 167/298/109 169/300/111 168/299/110
f 164/301/106 170/302/112 171/303/76
f 171/303/76 167/304/109 164/301/106
f 164/301/106 163/305/105 170/302/112
f 167/304/109 171/303/76 172/306/76
f 172/306/76 169/307/111 167/304/109
f 172/306/76 173/308/76 169/307/111
f 165/309/107 174/310/78 175/311/78
f 175/311/78 162/312/104 165/309/107
f 165/309/107 168/313/110 174/310/78
f 162/312/104 175/311/78 176/314/78
f 176/314/78 166/315/108 162/312/104
f 176/314/78 177/316/113 166/315/108
f 163/317/105 177/318/113 170/319/112
f 177/318/113 163/317/105 166/320/108
f 168/299/110 169/300/111 178/321/114
f 178/321/114 179/322/115 168/299/110
f 169/307/111 173/308/76 178/323/114
f 174/310/78 168/313/110 179/324/115
f 144/224/87 148/228/91 145/225/88
f 143/223/86 155/250/97 146/226/89
f 97/127/41 108/141/52 85/128/29
