# Blender v2.79 (sub 0) OBJ File: ''
# www.blender.org
mtllib dualgunner01.mtl
o MDL_w2dgn01l_bod00.001
v -0.013000 0.012500 0.026100
v 0.013000 0.012500 0.170200
v -0.013000 0.012500 0.170200
v 0.013000 0.012500 0.026100
v -0.013000 0.087500 0.028300
v 0.013000 0.087500 0.170200
v 0.013000 0.087500 0.028300
v -0.013000 0.087500 0.170200
v -0.013000 0.015200 0.011400
v -0.013000 0.004800 0.013600
v 0.013000 0.012300 -0.072300
v -0.013000 0.015200 -0.058700
v 0.013000 0.015200 -0.058700
v -0.013000 0.012300 -0.072300
v -0.013000 0.034700 -0.055900
v 0.013000 0.024200 -0.053000
v -0.013000 0.024200 -0.053000
v 0.013000 0.034700 -0.055900
v -0.013000 0.001200 0.021900
v 0.013000 0.001200 0.021900
v -0.013000 -0.007800 0.014400
v 0.013000 -0.007800 0.014400
v 0.013000 0.064700 0.005500
v -0.013000 0.064700 0.005500
v 0.013000 0.015200 0.011400
v 0.013000 -0.015900 -0.002200
v -0.013000 -0.018000 -0.014100
v 0.013000 -0.018000 -0.014100
v -0.013000 -0.015900 -0.002200
v 0.013000 -0.012200 -0.001600
v -0.013000 -0.012200 -0.001600
v -0.013000 -0.016600 -0.025200
v 0.013000 -0.016600 -0.025200
v -0.013000 -0.011400 -0.034800
v 0.013000 -0.011400 -0.034800
v -0.013000 -0.015300 -0.045300
v 0.013000 -0.015300 -0.045300
v -0.013000 0.018800 -0.010000
v -0.013000 0.040300 -0.029800
v -0.013000 0.055900 -0.018000
v -0.013000 0.011700 -0.017800
v -0.013000 0.021900 0.000800
v 0.013000 0.055900 -0.018000
v 0.013000 0.021900 0.000800
v 0.013000 0.018800 -0.010000
v -0.013000 0.035200 -0.041300
v 0.013000 0.040300 -0.030000
v 0.013000 0.011700 -0.017800
v 0.013000 0.035200 -0.041300
v 0.013000 -0.009700 -0.009400
v 0.013000 -0.006300 -0.015500
v 0.013000 0.000300 -0.019500
v -0.013000 0.000300 -0.019500
v -0.013000 -0.006300 -0.015500
v 0.013000 0.004800 0.013600
v -0.013000 -0.003400 0.011600
v -0.013000 -0.009700 -0.009400
v 0.013000 -0.003400 0.011600
v 0.016200 -0.075500 -0.058600
v -0.017000 -0.099400 -0.046400
v 0.017000 -0.099400 -0.046400
v -0.016200 -0.075500 -0.058600
v 0.015300 -0.050000 -0.063000
v -0.015300 -0.050000 -0.063000
v 0.013100 -0.025200 -0.053400
v -0.013100 -0.025200 -0.053400
v 0.013100 -0.023900 -0.038800
v -0.013100 -0.030800 -0.045300
v 0.013100 -0.030800 -0.045300
v -0.013100 -0.023900 -0.038800
v 0.016900 -0.094400 -0.114200
v -0.016900 -0.094400 -0.114200
v -0.017500 -0.127200 -0.103000
v 0.015600 -0.056900 -0.116400
v 0.017500 -0.127200 -0.103000
v 0.014400 -0.134100 -0.092200
v -0.014400 -0.134100 -0.092200
v -0.015500 -0.056900 -0.116400
v 0.014700 -0.025900 -0.105900
v -0.014500 -0.025900 -0.105900
v 0.013100 0.004100 -0.083300
v -0.013100 0.004100 -0.083300
v 0.013100 0.019500 -0.081100
v -0.013100 0.012500 -0.088400
v -0.013100 0.019500 -0.081100
v 0.013100 0.012500 -0.088400
v 0.014200 -0.111200 -0.045600
v -0.014100 -0.111200 -0.045600
v 0.000000 0.394700 -0.048700
v -0.007000 0.257700 0.087800
v 0.000000 0.304400 0.099400
v 0.007000 0.257700 0.087800
v 0.000000 0.237000 0.165500
v 0.007000 0.171600 0.121100
v 0.000000 0.174800 0.185500
v -0.007000 0.171600 0.121100
v -0.007000 0.086700 0.093900
v 0.000000 0.142800 0.020500
v -0.007000 0.086700 0.150200
v 0.000000 0.122800 -0.088300
v 0.000000 0.079700 -0.030900
v 0.000000 0.178000 0.049200
v 0.000000 0.215500 0.061400
v 0.000000 0.269200 0.013300
v 0.000000 0.099100 0.174100
v 0.000000 0.108100 0.220900
v 0.007000 0.086700 0.093900
v 0.007000 0.086700 0.150200
v 0.000000 0.032200 -0.044100
v -0.007000 -0.314200 0.009100
v 0.000000 -0.437200 -0.037700
v 0.000000 -0.334800 0.023100
v 0.000000 -0.297500 -0.011300
v 0.000000 -0.234800 0.030000
v 0.007000 -0.314200 0.009100
v -0.007000 -0.234400 0.096700
v 0.000000 -0.134700 0.058900
v 0.000000 -0.187300 0.050200
v 0.000000 -0.108100 0.083400
v -0.007000 -0.076300 0.132200
v 0.000000 -0.216900 0.057300
v 0.000000 -0.092700 0.185000
v 0.000000 0.001600 0.218100
v 0.007000 -0.076300 0.132200
v 0.007000 -0.234400 0.096700
v 0.000000 -0.263900 0.127200
v 0.000000 -0.000000 0.166700
v 0.000000 0.015900 0.148400
v -0.007000 0.015900 0.094700
v 0.007000 0.015900 0.094700
v 0.000000 -0.078000 0.073400
v 0.000000 -0.045600 0.044800
v 0.000000 0.015900 0.027700
vt 0.453100 0.359400
vt 0.359400 0.152300
vt 0.453100 0.152300
vt 0.359400 0.359400
vt 0.453100 0.304700
vt 0.359400 0.152300
vt 0.359400 0.304700
vt 0.453100 0.152300
vt 0.343800 0.363300
vt 0.007800 0.066400
vt 0.007800 0.363300
vt 0.328100 0.394500
vt 0.382800 0.398400
vt 0.343800 0.066400
vt 0.007800 0.003900
vt 0.343800 0.003900
vt 0.343800 0.066400
vt 0.007800 0.363300
vt 0.007800 0.066400
vt 0.343800 0.363300
vt 0.265600 0.992200
vt 0.234400 0.929700
vt 0.234400 0.992200
vt 0.265600 0.929700
vt 0.156300 0.929700
vt 0.203100 0.992200
vt 0.203100 0.929700
vt 0.156300 0.992200
vt 0.015600 0.441400
vt 0.078100 0.406300
vt 0.015600 0.406300
vt 0.078100 0.441400
vt 0.015600 0.476600
vt 0.078100 0.476600
vt 0.531300 0.320300
vt 0.445300 0.281300
vt 0.445300 0.320300
vt 0.531300 0.281300
vt 0.328100 0.394500
vt 0.109400 0.414100
vt 0.015600 0.488300
vt 0.070300 0.468800
vt 0.015600 0.468800
vt 0.070300 0.488300
vt 0.296900 0.996100
vt 0.375000 0.972700
vt 0.296900 0.972700
vt 0.375000 0.996100
vt 0.070300 0.449200
vt 0.015600 0.449200
vt 0.070300 0.429700
vt 0.015600 0.429700
vt 0.070300 0.414100
vt 0.015600 0.414100
vt 0.320300 0.445300
vt 0.156300 0.460900
vt 0.218800 0.488300
vt 0.351600 0.457000
vt 0.304700 0.425800
vt 0.109400 0.414100
vt 0.093800 0.925800
vt 0.140600 0.996100
vt 0.140600 0.925800
vt 0.093800 0.996100
vt 0.054700 0.582000
vt 0.070300 0.492200
vt 0.015600 0.578100
vt 0.304700 0.425800
vt 0.320300 0.445300
vt 0.156300 0.460900
vt 0.320300 0.531300
vt 0.250000 0.515600
vt 0.273400 0.535200
vt 0.437500 0.500000
vt 0.187500 0.996100
vt 0.187500 0.925800
vt 0.351600 0.457000
vt 0.218800 0.488300
vt 0.250000 0.515600
vt 0.468800 0.449200
vt 0.414100 0.453100
vt 0.429700 0.437500
vt 0.468800 0.421900
vt 0.460900 0.476600
vt 0.437500 0.500000
vt 0.390600 0.460900
vt 0.109400 0.511700
vt 0.164100 0.515600
vt 0.054700 0.582000
vt 0.218800 0.925800
vt 0.265600 0.996100
vt 0.265600 0.925800
vt 0.218800 0.996100
vt 0.320300 0.531300
vt 0.273400 0.535200
vt 0.109400 0.511700
vt 0.164100 0.515600
vt 0.015600 0.578100
vt 0.070300 0.492200
vt 0.390600 0.460900
vt 0.414100 0.453100
vt 0.382800 0.398400
vt 0.398400 0.378900
vt 0.437500 0.394500
vt 0.398400 0.378900
vt 0.437500 0.394500
vt 0.414100 0.410200
vt 0.429700 0.437500
vt 0.468800 0.421900
vt 0.445300 0.421900
vt 0.468800 0.449200
vt 0.460900 0.476600
vt 0.382800 0.968800
vt 0.296900 0.996100
vt 0.382800 0.996100
vt 0.296900 0.968800
vt 0.414100 0.410200
vt 0.562500 0.496100
vt 0.500000 0.503900
vt 0.562500 0.503900
vt 0.500000 0.496100
vt 0.562500 0.480500
vt 0.562500 0.511700
vt 0.500000 0.511700
vt 0.562500 0.460900
vt 0.500000 0.460900
vt 0.500000 0.480500
vt 0.500000 0.449200
vt 0.562500 0.449200
vt 0.562500 0.445300
vt 0.500000 0.445300
vt 0.562500 0.437500
vt 0.500000 0.437500
vt 0.562500 0.425800
vt 0.562500 0.410200
vt 0.500000 0.410200
vt 0.500000 0.425800
vt 0.445300 0.421900
vt 0.992200 0.714800
vt 0.921900 0.777300
vt 0.992200 0.777300
vt 0.921900 0.714800
vt 0.992200 0.636700
vt 0.921900 0.636700
vt 0.992200 0.554700
vt 0.921900 0.554700
vt 0.085900 0.679700
vt 0.007800 0.656300
vt 0.085900 0.656300
vt 0.007800 0.679700
vt 0.085900 0.710900
vt 0.007800 0.710900
vt 0.406300 0.738300
vt 0.500000 0.812500
vt 0.500000 0.738300
vt 0.406300 0.671900
vt 0.406300 0.812500
vt 0.406300 0.832000
vt 0.500000 0.832000
vt 0.500000 0.671900
vt 0.406300 0.605500
vt 0.500000 0.605500
vt 0.406300 0.531300
vt 0.500000 0.531300
vt 0.484400 0.777300
vt 0.421900 0.753900
vt 0.484400 0.753900
vt 0.421900 0.777300
vt 0.367200 0.734400
vt 0.062500 0.753900
vt 0.125000 0.703100
vt 0.304700 0.808600
vt 0.140600 0.648400
vt 0.375000 0.656300
vt 0.312500 0.589800
vt 0.093800 0.601600
vt 0.218800 0.531300
vt 0.218800 0.531300
vt 0.093800 0.601600
vt 0.203100 0.500000
vt 0.234400 0.515600
vt 0.312500 0.589800
vt 0.140600 0.648400
vt 0.375000 0.656300
vt 0.367200 0.734400
vt 0.125000 0.703100
vt 0.304700 0.808600
vt 0.062500 0.753900
vt 0.062500 0.781300
vt 0.257800 0.824200
vt 0.468800 0.250000
vt 0.554700 0.179700
vt 0.468800 0.179700
vt 0.554700 0.250000
vt 0.921900 0.800800
vt 0.992200 0.800800
vt 0.257800 0.824200
vt 0.062500 0.781300
vt 0.078100 0.625000
vt 0.007800 0.648400
vt 0.078100 0.648400
vt 0.007800 0.625000
vt 0.039100 0.601600
vt 0.062500 0.613300
vt 0.039100 0.601600
vt 0.062500 0.613300
vt 0.078100 0.625000
vt 0.007800 0.648400
vt 0.078100 0.648400
vt 0.007800 0.625000
vt 0.203100 0.500000
vt 0.234400 0.515600
vt 0.085900 0.710900
vt 0.007800 0.679700
vt 0.085900 0.679700
vt 0.007800 0.710900
vt 0.015600 0.824200
vt 0.484400 0.910200
vt 0.351600 0.941400
vt 0.484400 0.910200
vt 0.648400 0.996100
vt 0.765600 0.925800
vt 0.828100 0.992200
vt 0.765600 0.925800
vt 0.703100 0.757800
vt 0.898400 0.808600
vt 0.960900 0.886700
vt 0.695300 0.640600
vt 0.812500 0.671900
vt 0.648400 0.824200
vt 0.554700 0.855500
vt 0.375000 0.835900
vt 0.968800 0.941400
vt 0.976600 0.996100
vt 0.960900 0.886700
vt 0.898400 0.808600
vt 0.898400 0.636700
vt 0.625000 0.609400
vt 0.601600 0.812500
vt 0.687500 0.632800
vt 0.554700 0.585900
vt 0.632800 0.457000
vt 0.625000 0.609400
vt 0.835900 0.429700
vt 0.609400 0.281300
vt 0.648400 0.386700
vt 0.671900 0.230500
vt 0.781300 0.156300
vt 0.687500 0.418000
vt 0.976600 0.171900
vt 0.984400 0.007800
vt 0.781300 0.156300
vt 0.835900 0.429700
vt 0.976600 0.437500
vt 0.828100 0.027300
vt 0.742200 0.011700
vt 0.585900 0.027300
vt 0.585900 0.027300
vt 0.609400 0.183600
vt 0.375000 0.054700
vt 0.476600 0.136700
vt 1.000000 0.886700
vt 0.988300 0.941400
vn -0.8924 -0.4191 0.1673
vn 0.6667 -0.6667 0.3333
vn -0.4083 -0.4082 0.8165
vn 0.8453 -0.3586 0.3961
vn -0.6303 0.7173 -0.2971
vn 0.3333 0.6667 0.6667
vn 0.9078 0.3874 -0.1605
vn -0.8165 0.4082 0.4083
vn -0.8201 -0.2582 -0.5107
vn -0.8989 0.0068 -0.4382
vn 0.8241 0.5644 0.0489
vn -0.5823 0.7252 -0.3674
vn 0.5823 0.5963 -0.5526
vn -0.8235 0.5220 0.2221
vn -0.4442 0.2075 -0.8716
vn 0.8219 0.0005 -0.5697
vn -0.8219 0.1652 -0.5452
vn 0.4442 0.7697 -0.4586
vn -0.5596 -0.3741 0.7395
vn 0.5596 -0.4557 0.6922
vn -0.7169 -0.6514 0.2483
vn 0.7169 -0.6144 -0.3295
vn 0.7143 0.5597 -0.4202
vn -0.7143 0.6143 -0.3354
vn 0.8201 -0.3890 -0.4197
vn 0.6227 -0.6630 0.4155
vn -0.7107 -0.7016 0.0527
vn 0.7106 -0.7033 -0.0181
vn -0.6227 -0.4063 0.6687
vn 0.3133 0.4963 0.8096
vn -0.5507 0.4363 0.7116
vn -0.5606 -0.8027 -0.2037
vn 0.5606 -0.7710 -0.3021
vn -0.8753 -0.4719 -0.1058
vn 0.8753 -0.4821 0.0385
vn -0.9313 -0.2339 0.2792
vn 0.9304 0.0530 0.3626
vn -0.6102 -0.6918 0.3861
vn -0.7202 0.5150 -0.4650
vn -0.7181 0.5796 -0.3852
vn -0.8469 -0.2504 0.4692
vn -0.7350 -0.6497 -0.1942
vn 0.7193 0.5953 -0.3582
vn 0.7350 -0.6781 0.0043
vn 0.8387 -0.4755 0.2653
vn -0.8612 0.5017 -0.0816
vn 0.7156 0.5084 -0.4790
vn 0.6228 -0.3683 0.6902
vn 0.8611 0.4868 -0.1467
vn 0.8085 0.4579 0.3697
vn 0.8333 0.5071 0.2200
vn 0.7259 0.2152 0.6532
vn -0.7260 0.0541 0.6856
vn -0.8085 0.3861 0.4441
vn 0.7160 0.0107 -0.6980
vn -0.2623 -0.1573 -0.9521
vn -0.6019 0.7326 0.3178
vn 0.4776 -0.1432 -0.8668
vn 0.7067 0.2746 0.6521
vn -0.7874 0.1128 0.6060
vn 0.5454 0.1105 0.8309
vn -0.5556 0.2402 0.7960
vn 0.8054 0.0312 0.5920
vn -0.8094 -0.0747 0.5825
vn 0.9502 -0.2243 0.2164
vn -0.9540 -0.2990 -0.0228
vn 0.6439 -0.2439 0.7252
vn -0.3892 -0.8540 0.3453
vn 0.3892 -0.9073 -0.1594
vn -0.6430 0.1708 0.7466
vn 0.7130 -0.1461 -0.6857
vn -0.4570 -0.5938 -0.6622
vn -0.8037 -0.0634 -0.5916
vn 0.5606 0.0748 -0.8247
vn 0.8903 -0.3574 -0.2821
vn 0.3181 -0.9328 -0.1695
vn -0.5212 -0.8385 0.1588
vn -0.5588 0.1824 -0.8090
vn 0.7099 0.3269 -0.6238
vn -0.7070 0.3923 -0.5885
vn 0.7744 0.0387 -0.6316
vn -0.9272 0.0263 -0.3737
vn 0.5557 0.8308 -0.0299
vn -0.3052 0.1238 -0.9442
vn -0.8009 0.5984 -0.0195
vn 0.5397 0.1094 -0.8347
vn 0.5352 -0.6070 0.5875
vn -0.3324 -0.3412 0.8793
vn 0.0000 0.9612 -0.2759
vn -0.9998 0.0128 -0.0121
vn -0.0000 0.7787 0.6274
vn 0.9998 0.0128 -0.0121
vn 0.0000 0.5045 0.8634
vn 0.9997 0.0194 0.0147
vn -0.0000 0.3916 0.9201
vn -0.9997 0.0195 0.0147
vn 0.0000 0.7309 -0.6825
vn -0.9991 0.0143 -0.0408
vn -0.8789 -0.3597 0.3132
vn 0.0000 0.4010 -0.9161
vn -0.0000 -0.4406 -0.8977
vn 0.0000 0.4919 -0.8706
vn -0.0000 -0.3332 -0.9429
vn 0.0000 -0.5742 -0.8187
vn 0.0000 -0.6752 0.7376
vn -0.0000 -0.2289 0.9735
vn 0.8789 -0.3597 0.3132
vn 0.9991 0.0143 -0.0408
vn 0.0000 0.2677 -0.9635
vn -0.9994 -0.0089 -0.0342
vn -0.0000 -0.9570 -0.2901
vn -0.6108 -0.5365 0.5823
vn 0.0000 0.3644 -0.9312
vn -0.0000 0.6997 -0.7144
vn 0.9994 -0.0318 -0.0150
vn -0.9995 -0.0052 -0.0325
vn 0.0000 0.3629 -0.9318
vn -0.0000 -0.0790 -0.9969
vn 0.0000 0.1410 -0.9900
vn -0.9999 -0.0054 0.0117
vn 0.0000 0.3506 -0.9365
vn 0.8218 -0.1741 0.5425
vn -0.0000 0.4035 0.9150
vn 1.0000 0.0001 -0.0073
vn 0.9991 0.0145 -0.0391
vn -0.0260 -0.5987 0.8006
vn 0.0000 0.9462 0.3236
vn -0.0000 0.5359 0.8443
vn -0.9997 -0.0048 -0.0227
vn 0.9997 -0.0048 -0.0227
vn 0.0000 -0.5175 -0.8557
vn 0.0000 -0.2679 -0.9635
vn -0.0000 -0.4745 -0.8802
usemtl TEX_w2dgn01.001

f 1/1/1 2/2/2 3/3/3
f 2/2/2 1/1/1 4/4/4
f 5/5/5 6/6/6 7/7/7
f 6/6/6 5/5/5 8/8/8
f 1/9/1 8/10/8 5/11/5
f 5/11/5 9/12/9 1/9/1
f 10/13/10 1/9/1 9/12/9
f 1/9/1 3/14/3 8/10/8
f 3/14/3 6/15/6 8/10/8
f 6/15/6 3/14/3 2/16/2
f 2/17/2 7/18/7 6/19/6
f 7/18/7 2/17/2 4/20/4
f 11/21/11 12/22/12 13/23/13
f 12/22/12 11/21/11 14/24/14
f 15/25/15 16/26/16 17/27/17
f 16/26/16 15/25/15 18/28/18
f 19/29/19 4/30/4 1/31/1
f 4/30/4 19/29/19 20/32/20
f 21/33/21 20/32/20 19/29/19
f 20/32/20 21/33/21 22/34/22
f 23/35/23 5/36/5 7/37/7
f 5/36/5 23/35/23 24/38/24
f 7/18/7 4/20/4 25/39/25
f 25/39/25 23/40/23 7/18/7
f 26/41/26 27/42/27 28/43/28
f 27/42/27 26/41/26 29/44/29
f 29/45/29 30/46/30 31/47/31
f 30/46/30 29/45/29 26/48/26
f 32/49/32 28/43/28 27/42/27
f 28/43/28 32/49/32 33/50/33
f 34/51/34 33/50/33 32/49/32
f 33/50/33 34/51/34 35/52/35
f 36/53/36 35/52/35 34/51/34
f 35/52/35 36/53/36 37/54/37
f 38/55/38 40/56/39 39/57/40
f 39/57/40 41/58/41 38/55/38
f 40/56/39 38/55/38 42/59/42
f 42/59/42 24/60/24 40/56/39
f 24/60/24 42/59/42 9/12/9
f 24/61/24 43/62/43 40/63/39
f 43/62/43 24/61/24 23/64/23
f 37/65/37 16/66/16 35/67/35
f 44/68/44 45/69/45 43/70/43
f 44/68/44 43/70/43 23/40/23
f 17/71/17 46/72/46 15/73/15
f 46/72/46 17/71/17 34/74/34
f 40/63/39 47/75/47 39/76/40
f 47/75/47 40/63/39 43/62/43
f 45/69/45 48/77/48 47/78/47
f 47/78/47 43/70/43 45/69/45
f 49/79/49 47/78/47 48/77/48
f 28/80/28 51/81/50 50/82/51
f 50/82/51 26/83/26 28/80/28
f 51/81/50 33/84/33 35/85/35
f 33/84/33 51/81/50 28/80/28
f 49/79/49 52/86/52 35/85/35
f 52/86/52 49/79/49 48/77/48
f 12/87/12 14/88/14 36/89/36
f 46/90/46 18/91/18 15/92/15
f 18/91/18 46/90/46 49/93/49
f 39/76/40 49/93/49 46/90/46
f 49/93/49 39/76/40 47/75/47
f 16/94/16 18/95/18 49/79/49
f 49/79/49 35/85/35 16/94/16
f 13/96/13 37/65/37 11/97/11
f 34/98/34 17/99/17 36/89/36
f 17/27/17 13/23/13 12/22/12
f 13/23/13 17/27/17 16/26/16
f 16/66/16 37/65/37 13/96/13
f 17/99/17 12/87/12 36/89/36
f 53/100/53 46/72/46 34/74/34
f 34/74/34 54/101/54 53/100/53
f 25/39/25 44/68/44 23/40/23
f 55/102/55 25/39/25 4/20/4
f 55/102/55 20/103/20 22/104/22
f 20/103/20 55/102/55 4/20/4
f 10/13/10 19/105/19 1/9/1
f 19/105/19 10/13/10 21/106/21
f 56/107/56 21/106/21 10/13/10
f 57/108/57 29/109/29 31/110/31
f 29/109/29 57/108/57 27/111/27
f 54/101/54 27/111/27 57/108/57
f 27/111/27 54/101/54 32/112/32
f 41/58/41 39/57/40 46/72/46
f 56/113/56 22/114/22 21/115/21
f 22/114/22 56/113/56 58/116/58
f 55/102/55 22/104/22 58/117/58
f 9/118/9 55/119/55 10/120/10
f 55/119/55 9/118/9 25/121/25
f 42/122/42 25/121/25 9/118/9
f 56/123/56 10/120/10 55/119/55
f 58/124/58 56/123/56 55/119/55
f 38/125/38 45/126/45 44/127/44
f 45/126/45 38/125/38 48/128/48
f 44/127/44 42/122/42 38/125/38
f 42/122/42 44/127/44 25/121/25
f 48/128/48 38/125/38 41/129/41
f 41/129/41 53/130/53 48/128/48
f 52/131/52 48/128/48 53/130/53
f 53/130/53 54/132/54 52/131/52
f 51/133/50 52/131/52 54/132/54
f 54/132/54 57/134/57 51/133/50
f 57/134/57 31/135/31 30/136/30
f 57/134/57 30/136/30 50/137/51
f 51/133/50 57/134/57 50/137/51
f 54/101/54 34/74/34 32/112/32
f 9/12/9 5/11/5 24/60/24
f 30/138/30 26/83/26 50/82/51
f 59/139/59 60/140/60 61/141/61
f 60/140/60 59/139/59 62/142/62
f 63/143/63 62/142/62 59/139/59
f 62/142/62 63/143/63 64/144/64
f 65/145/65 64/144/64 63/143/63
f 64/144/64 65/145/65 66/146/66
f 67/147/67 68/148/68 69/149/69
f 68/148/68 67/147/67 70/150/70
f 37/151/37 70/150/70 67/147/67
f 70/150/70 37/151/37 36/152/36
f 71/153/71 73/154/72 72/155/73
f 72/155/73 74/156/74 71/153/71
f 73/154/72 71/153/71 75/157/75
f 75/157/75 76/158/76 73/154/72
f 77/159/77 73/154/72 76/158/76
f 74/156/74 72/155/73 78/160/78
f 78/160/78 79/161/79 74/156/74
f 79/161/79 78/160/78 80/162/80
f 80/162/80 81/163/81 79/161/79
f 80/162/80 82/164/82 81/163/81
f 83/165/83 84/166/84 85/167/85
f 84/166/84 83/165/83 86/168/86
f 72/169/73 60/170/60 62/171/62
f 60/170/60 72/169/73 73/172/72
f 72/169/73 62/171/62 64/173/64
f 64/173/64 78/174/78 72/169/73
f 64/173/64 80/175/80 78/174/78
f 80/175/80 64/173/64 66/176/66
f 82/177/82 80/175/80 66/176/66
f 66/176/66 14/88/14 82/177/82
f 14/88/14 66/176/66 36/89/36
f 81/178/81 11/97/11 65/179/65
f 11/97/11 81/178/81 83/180/83
f 86/181/86 83/180/83 81/178/81
f 65/179/65 79/182/79 81/178/81
f 79/182/79 65/179/65 63/183/63
f 74/184/74 79/182/79 63/183/63
f 63/183/63 71/185/71 74/184/74
f 71/185/71 63/183/63 59/186/59
f 75/187/75 59/186/59 61/188/61
f 61/188/61 87/189/87 75/187/75
f 76/190/76 75/187/75 87/189/87
f 75/187/75 71/185/71 59/186/59
f 77/191/77 87/192/87 88/193/88
f 87/192/87 77/191/77 76/194/76
f 88/195/88 61/141/61 60/140/60
f 61/141/61 88/195/88 87/196/87
f 77/197/77 60/170/60 73/172/72
f 60/170/60 77/197/77 88/198/88
f 69/199/69 66/200/66 65/201/65
f 66/200/66 69/199/69 68/202/68
f 65/179/65 37/65/37 67/203/67
f 37/65/37 65/179/65 11/97/11
f 67/203/67 69/204/69 65/179/65
f 70/205/70 66/176/66 68/206/68
f 84/207/84 81/208/81 82/209/82
f 81/208/81 84/207/84 86/210/86
f 82/177/82 85/211/85 84/212/84
f 85/211/85 82/177/82 14/88/14
f 14/213/14 83/214/83 85/215/85
f 83/214/83 14/213/14 11/216/11
f 66/176/66 70/205/70 36/89/36
f 89/217/89 90/218/90 91/219/91
f 92/220/92 89/217/89 91/219/91
f 91/219/91 93/221/93 92/220/92
f 94/222/94 92/220/92 93/221/93
f 93/221/93 95/223/95 94/222/94
f 96/224/96 98/225/97 97/226/98
f 97/226/98 99/227/99 96/224/96
f 100/228/100 97/226/98 98/225/97
f 97/226/98 100/228/100 101/229/101
f 96/224/96 102/230/102 98/225/97
f 102/230/102 96/224/96 103/231/103
f 90/218/90 103/231/103 96/224/96
f 103/231/103 90/218/90 104/232/104
f 89/217/89 104/232/104 90/218/90
f 105/233/105 106/234/106 96/224/96
f 96/224/96 99/227/99 105/233/105
f 94/222/94 106/234/106 105/233/105
f 106/234/106 94/222/94 95/223/95
f 96/224/96 106/234/106 95/223/95
f 93/221/93 96/224/96 95/223/95
f 96/224/96 93/221/93 90/218/90
f 91/219/91 90/218/90 93/221/93
f 94/222/94 108/235/107 107/236/108
f 107/236/108 98/225/97 94/222/94
f 107/236/108 100/228/100 98/225/97
f 102/230/102 94/222/94 98/225/97
f 94/222/94 102/230/102 103/231/103
f 92/220/92 94/222/94 103/231/103
f 92/220/92 103/231/103 104/232/104
f 92/220/92 104/232/104 89/217/89
f 101/229/101 100/228/100 107/236/108
f 107/236/108 109/237/109 101/229/101
f 101/229/101 109/237/109 97/226/98
f 110/238/110 111/239/111 112/240/112
f 111/239/111 110/238/110 113/241/113
f 114/242/114 113/241/113 110/238/110
f 115/243/115 112/240/112 111/239/111
f 111/239/111 113/241/113 115/243/115
f 116/244/116 117/245/117 118/246/118
f 117/245/117 116/244/116 119/247/119
f 120/248/120 119/247/119 116/244/116
f 121/249/121 116/244/116 118/246/118
f 114/242/114 116/244/116 121/249/121
f 110/238/110 116/244/116 114/242/114
f 116/244/116 110/238/110 112/240/112
f 120/248/120 122/250/122 123/251/123
f 124/252/124 123/251/123 122/250/122
f 122/250/122 125/253/125 124/252/124
f 119/247/119 124/252/124 125/253/125
f 126/254/126 122/250/122 120/248/120
f 120/248/120 116/244/116 126/254/126
f 126/254/126 125/253/125 122/250/122
f 126/254/126 116/244/116 112/240/112
f 115/243/115 125/253/125 126/254/126
f 125/253/125 115/243/115 114/242/114
f 113/241/113 114/242/114 115/243/115
f 112/240/112 115/243/115 126/254/126
f 125/253/125 117/245/117 119/247/119
f 121/249/121 118/246/118 125/253/125
f 125/253/125 114/242/114 121/249/121
f 117/245/117 125/253/125 118/246/118
f 127/255/127 128/256/128 120/248/120
f 120/248/120 123/251/123 127/255/127
f 120/248/120 128/256/128 129/257/129
f 124/252/124 130/258/130 128/256/128
f 128/256/128 127/255/127 124/252/124
f 123/251/123 124/252/124 127/255/127
f 131/259/131 119/247/119 120/248/120
f 124/252/124 119/247/119 131/259/131
f 129/257/129 133/260/132 132/261/133
f 132/261/133 120/248/120 129/257/129
f 130/258/130 132/261/133 133/260/132
f 132/261/133 130/258/130 124/252/124
f 124/252/124 131/259/131 132/261/133
f 132/261/133 131/259/131 120/248/120
f 52/86/52 51/81/50 35/85/35
f 53/100/53 41/58/41 46/72/46
f 99/227/99 108/262/107 105/263/105
f 105/233/105 108/235/107 94/222/94
