# Blender v2.79 (sub 0) OBJ File: ''
# www.blender.org
mtllib dualswordsa7l.mtl
o MDL_w2dswa7l_bod00
v -0.017500 0.350300 0.082200
v 0.017200 0.265000 0.080600
v -0.017500 0.265000 0.080600
v 0.017200 0.350300 0.082200
v -0.015600 0.453500 0.074100
v 0.015300 0.453500 0.074100
v -0.017500 -0.460000 0.052500
v 0.017200 -0.460000 0.052500
v 0.017200 -0.368100 0.069100
v 0.012800 -0.526200 0.001600
v -0.017500 -0.368100 0.069100
v 0.017200 -0.310000 0.065600
v 0.011900 0.320700 0.160600
v 0.017200 0.260700 0.103400
v 0.017200 0.193800 0.244400
v 0.017200 0.159100 0.169100
v 0.017200 0.033800 0.306600
v 0.017200 -0.007200 0.200300
v 0.017200 -0.142500 0.335900
v 0.017200 -0.184700 0.173100
v 0.017200 -0.344000 0.268100
v 0.017200 -0.459300 0.163100
v -0.008800 0.356900 0.187800
v 0.008800 0.356900 0.187800
v 0.000000 0.297800 0.245900
v -0.017500 0.193800 0.244400
v -0.011900 0.320700 0.160600
v -0.017500 0.033800 0.306600
v -0.017500 -0.141800 0.335900
v -0.017500 -0.344000 0.268100
v -0.017500 -0.459300 0.163100
v -0.017500 0.260700 0.103400
v -0.017500 0.159100 0.169100
v -0.017500 -0.007200 0.200300
v -0.017500 -0.184700 0.173100
v -0.017500 -0.310000 0.065600
v -0.012800 -0.526200 0.001600
v 0.000300 -0.527800 0.191600
v 0.009700 -0.476800 0.220300
v 0.000000 -0.575000 -0.053100
v -0.010600 -0.475900 0.220000
v 0.000000 -0.467200 0.364700
v -0.025300 0.364100 0.067500
v 0.025000 0.367500 -0.022800
v -0.025300 0.367500 -0.022800
v 0.025000 0.364100 0.067500
v 0.000000 -0.006200 -0.007200
v -0.017200 0.055300 -0.063700
v 0.017200 0.055300 -0.063700
v 0.025000 0.271000 0.063700
v 0.025000 0.274400 -0.026600
v -0.025300 0.271000 0.063700
v -0.025300 0.274400 -0.026600
v -0.017200 0.259100 -0.003400
v 0.000000 0.257500 0.039700
v 0.017200 0.259100 -0.003400
v 0.000000 0.152800 0.019100
v 0.014400 0.158800 -0.010000
v 0.000000 0.053500 -0.008400
v 0.017200 0.082200 -0.039700
v -0.014700 0.158800 -0.010000
v -0.017200 0.082200 -0.039700
v -0.010900 0.357500 0.089400
v 0.020600 0.361600 -0.030000
v -0.020900 0.361600 -0.030000
v 0.010900 0.357500 0.089400
v -0.010900 0.275700 0.085000
v 0.020600 0.279700 -0.034400
v 0.010900 0.275700 0.085000
v -0.020900 0.279700 -0.034400
v -0.020900 0.339400 -0.046300
v -0.020900 0.304100 -0.048100
v -0.020900 0.340700 -0.061600
v -0.020900 0.305000 -0.063400
v 0.020600 0.305000 -0.063400
v 0.020600 0.340700 -0.061600
v 0.020600 0.304100 -0.048100
v 0.020600 0.339400 -0.046300
vt 0.484400 0.628900
vt 0.570300 0.468800
vt 0.484400 0.468800
vt 0.570300 0.628900
vt 0.484400 0.996100
vt 0.570300 0.996100
vt 0.570300 0.800800
vt 0.484400 0.847700
vt 0.570300 0.765600
vt 0.570300 0.847700
vt 0.570300 0.918000
vt 0.484400 0.765600
vt 0.570300 0.722700
vt 0.726600 0.910200
vt 0.781300 0.996100
vt 0.867200 0.855500
vt 0.648400 0.847700
vt 0.687500 0.828100
vt 0.898400 0.695300
vt 0.710900 0.691400
vt 0.914100 0.511700
vt 0.664100 0.507800
vt 0.828100 0.347700
vt 0.507800 0.371100
vt 0.601600 0.195300
vt 0.343800 0.121100
vt 0.250000 0.281300
vt 0.199200 0.222700
vt 0.156300 0.160200
vt 0.671900 0.988300
vt 0.585900 0.906300
vt 0.671900 0.906300
vt 0.585900 0.988300
vt 0.625000 0.996100
vt 0.570300 0.761700
vt 0.484400 0.843800
vt 0.570300 0.843800
vt 0.484400 0.761700
vt 0.570300 0.726600
vt 0.484400 0.726600
vt 0.570300 0.800800
vt 0.484400 0.824200
vt 0.570300 0.824200
vt 0.484400 0.800800
vt 0.570300 0.750000
vt 0.484400 0.750000
vt 0.570300 0.500000
vt 0.484400 0.566400
vt 0.570300 0.566400
vt 0.484400 0.500000
vt 0.867200 0.855500
vt 0.781300 0.996100
vt 0.726600 0.910200
vt 0.687500 0.828100
vt 0.710900 0.691400
vt 0.898400 0.695300
vt 0.664100 0.507800
vt 0.914100 0.511700
vt 0.828100 0.347700
vt 0.507800 0.371100
vt 0.601600 0.195300
vt 0.250000 0.281300
vt 0.343800 0.121100
vt 0.199200 0.222700
vt 0.156300 0.160200
vt 0.085900 0.128900
vt 0.570300 0.488300
vt 0.484400 0.453100
vt 0.570300 0.453100
vt 0.484400 0.488300
vt 0.570300 0.554700
vt 0.484400 0.554700
vt 0.570300 0.621100
vt 0.484400 0.621100
vt 0.570300 0.671900
vt 0.484400 0.671900
vt 0.484400 0.722700
vt 0.929700 0.886700
vt 0.992200 0.796900
vt 0.929700 0.886700
vt 0.335900 0.039100
vt 0.507800 0.074200
vt 0.085900 0.128900
vt 0.007800 0.093800
vt 0.570300 0.480500
vt 0.484400 0.718800
vt 0.570300 0.718800
vt 0.484400 0.480500
vt 0.523400 0.453100
vt 0.671900 0.019500
vt 0.507800 0.074200
vt 0.523400 0.941400
vt 0.484400 0.918000
vt 0.570300 0.996100
vt 0.484400 0.800800
vt 0.648400 0.847700
vt 0.351600 0.996100
vt 0.007800 0.894500
vt 0.007800 0.996100
vt 0.351600 0.894500
vt 0.421900 0.761700
vt 0.367200 0.652300
vt 0.468800 0.652300
vt 0.351600 0.726600
vt 0.007800 0.726600
vt 0.195300 0.253900
vt 0.078100 0.394500
vt 0.195300 0.394500
vt 0.078100 0.253900
vt 0.007800 0.726600
vt 0.351600 0.894500
vt 0.007800 0.894500
vt 0.351600 0.726600
vt 0.101600 0.707000
vt 0.242200 0.687500
vt 0.078100 0.253900
vt 0.195300 0.394500
vt 0.078100 0.394500
vt 0.195300 0.253900
vt 0.007800 0.652300
vt 0.351600 0.652300
vt 0.101600 0.675800
vt 0.445300 0.527300
vt 0.312500 0.644500
vt 0.445300 0.644500
vt 0.312500 0.527300
vt 0.445300 0.425800
vt 0.312500 0.437500
vt 0.468800 0.378900
vt 0.312500 0.378900
vt 0.312500 0.527300
vt 0.312500 0.437500
vt 0.312500 0.378900
vt 0.281300 0.644500
vt 0.281300 0.527300
vt 0.281300 0.437500
vt 0.281300 0.378900
vt 0.312500 0.644500
vt 0.265600 0.402300
vt 0.203100 0.546900
vt 0.265600 0.546900
vt 0.203100 0.402300
vt 0.265600 0.402300
vt 0.203100 0.546900
vt 0.203100 0.402300
vt 0.265600 0.546900
vt 0.007800 0.402300
vt 0.007800 0.546900
vt 0.203100 0.546900
vt 0.007800 0.402300
vt 0.007800 0.546900
vt 0.007800 0.570300
vt 0.203100 0.570300
vt 0.007800 0.605500
vt 0.203100 0.605500
vt 0.203100 0.402300
vt 0.203100 0.605500
vt 0.007800 0.644500
vt 0.203100 0.644500
vt 0.007800 0.605500
vt 0.203100 0.570300
vt 0.007800 0.570300
vt 0.007800 0.546900
vt 0.203100 0.570300
vt 0.203100 0.605500
vt 0.007800 0.570300
vt 0.007800 0.605500
vn -0.7257 0.0006 -0.6880
vn 0.6589 -0.2879 -0.6949
vn -0.3873 -0.7538 -0.5308
vn 0.5730 -0.0329 -0.8189
vn -0.8271 0.2718 -0.4919
vn 0.7868 0.5906 0.1791
vn 0.5731 -0.0330 -0.8189
vn -0.4598 0.3461 -0.8178
vn 0.5571 0.0823 -0.8263
vn 0.7215 0.2603 -0.6416
vn 0.7556 0.3542 -0.5510
vn 0.5571 0.0822 -0.8263
vn -0.4597 0.3461 -0.8179
vn -0.5571 0.0160 -0.8303
vn -0.5572 0.0160 -0.8303
vn 0.4748 0.2806 -0.8342
vn 0.7868 0.5906 0.1790
vn 0.9560 0.0488 0.2893
vn 0.9560 0.0488 0.2894
vn 0.7496 -0.5940 -0.2922
vn 0.5730 -0.0330 -0.8189
vn 0.7025 0.3132 0.6391
vn 0.7496 -0.5939 -0.2922
vn 0.7130 -0.3020 -0.6328
vn 0.7092 0.1632 0.6859
vn 0.7116 -0.0516 -0.7007
vn 0.7161 -0.1130 0.6888
vn 0.7116 -0.0515 -0.7007
vn 0.7092 0.1631 0.6859
vn 0.8098 0.1932 -0.5539
vn 0.5621 -0.4681 0.6819
vn 0.9741 0.1039 0.2010
vn 0.4747 0.2806 -0.8342
vn -0.5334 0.5996 0.5966
vn 0.7868 0.5907 0.1790
vn -0.5334 0.5997 0.5966
vn 0.6778 0.5025 0.5367
vn -0.0000 -0.3799 0.9250
vn -0.7084 0.3539 0.6107
vn -0.9854 -0.0481 0.1634
vn -0.5565 0.2474 0.7931
vn 0.7091 0.1631 0.6859
vn -0.7168 0.0026 0.6972
vn -0.5565 0.2475 0.7931
vn -0.7146 -0.3114 0.6264
vn -0.7146 -0.3115 0.6264
vn -0.9435 -0.1453 0.2977
vn 0.5620 -0.4681 0.6819
vn -0.9854 -0.0480 0.1634
vn -0.7485 -0.5031 -0.4320
vn -0.7201 -0.2019 -0.6638
vn -0.8036 0.0238 -0.5947
vn -0.7169 0.0025 0.6972
vn -0.7193 0.3485 -0.6009
vn -0.8507 0.1676 -0.4982
vn -0.4597 0.3461 -0.8178
vn -0.8864 0.2253 -0.4045
vn -0.3873 -0.7539 -0.5307
vn -0.8036 0.0238 -0.5946
vn 0.8099 0.1932 -0.5539
vn -0.7193 0.3485 -0.6010
vn -0.8507 0.1674 -0.4983
vn 0.0067 -0.9667 0.2560
vn 0.7931 0.5911 0.1469
vn -0.8864 0.2252 -0.4045
vn 0.0021 0.2030 -0.9792
vn 0.0067 -0.9666 0.2560
vn -0.5931 0.7778 0.2079
vn -0.9435 -0.1452 0.2977
vn 0.7931 0.5911 0.1470
vn 0.0967 0.9767 0.1914
vn 0.0066 -0.9666 0.2560
vn 0.0967 0.9768 0.1913
vn 0.7556 0.3543 -0.5510
vn 0.7556 0.3543 -0.5509
vn -0.6671 0.6531 0.3584
vn 0.6662 0.6793 -0.3077
vn -0.4078 0.4408 -0.7996
vn 0.4087 0.3750 0.8321
vn 0.7378 -0.6545 0.1649
vn -0.8945 -0.1211 -0.4304
vn 0.4158 0.2208 -0.8822
vn 0.7360 -0.5237 0.4290
vn 0.6698 -0.4219 -0.6110
vn -0.5406 -0.5671 0.6215
vn 0.4087 0.3750 0.8320
vn -0.6672 0.6530 0.3584
vn 0.7360 -0.5237 0.4291
vn -0.6920 -0.5104 -0.5105
vn -0.5406 -0.5670 0.6215
vn -0.5881 -0.5826 -0.5611
vn 0.0419 -0.7934 0.6072
vn 0.6698 -0.4220 -0.6110
vn 0.6663 0.6793 -0.3077
vn 0.7359 -0.5237 0.4290
vn 0.8255 -0.4913 -0.2778
vn -0.5406 -0.5670 0.6214
vn 0.6698 -0.4220 -0.6109
vn -0.5881 -0.5825 -0.5611
vn 0.0095 -0.2254 0.9742
vn 0.0420 -0.7934 0.6072
vn 0.8482 0.0638 -0.5258
vn -0.0458 -0.2465 0.9681
vn 0.8171 0.3384 -0.4667
vn 0.8171 0.3384 -0.4668
vn 0.4158 0.2209 -0.8822
vn -0.8459 0.1618 -0.5083
vn -0.8375 0.3669 -0.4050
vn 0.8482 0.0637 -0.5259
vn 0.8255 -0.4912 -0.2778
vn 0.8171 0.3385 -0.4667
vn 0.4159 0.2208 -0.8822
vn -0.5881 -0.5826 -0.5610
vn -0.7052 0.7041 0.0832
vn 0.8337 0.5390 -0.1202
vn -0.6029 0.6579 -0.4513
vn 0.7053 0.7042 0.0814
vn -0.4454 -0.8953 0.0073
vn 0.5012 -0.7485 -0.4342
vn 0.8909 -0.4506 0.0572
vn -0.9225 -0.3461 -0.1707
vn 0.8909 -0.4506 0.0573
vn 0.7053 0.7042 0.0815
vn 0.5011 -0.7486 -0.4342
vn -0.7480 0.6444 -0.1588
vn -0.7463 -0.4919 -0.4484
vn -0.6718 0.3686 -0.6425
vn -0.4071 -0.7923 -0.4544
vn 0.6654 -0.2987 -0.6841
vn -0.6718 0.3685 -0.6425
vn 0.4130 0.8438 -0.3425
vn 0.6655 -0.2986 -0.6841
vn 0.7463 -0.6184 -0.2461
vn 0.7480 0.5435 -0.3809
vn 0.7480 0.5436 -0.3808
vn 0.5011 -0.7485 -0.4342
vn 0.7480 0.5435 -0.3808
vn 0.4130 0.8439 -0.3425
usemtl TEX_w2dswa7

f 1/1/1 2/2/2 3/3/3
f 2/2/2 1/1/1 4/4/4
f 5/5/5 6/6/6 4/7/7
f 7/8/8 9/9/9 8/10/10
f 8/10/10 10/11/11 7/8/8
f 9/9/12 7/8/13 11/12/14
f 11/12/15 12/13/16 9/9/9
f 4/14/7 6/15/17 13/16/18
f 2/17/2 13/16/19 14/18/20
f 13/16/19 2/17/2 4/14/21
f 15/19/22 14/18/23 13/16/19
f 14/18/23 15/19/22 16/20/24
f 17/21/25 16/20/24 15/19/22
f 16/20/24 17/21/25 18/22/26
f 19/23/27 18/22/28 17/21/29
f 20/24/30 18/22/28 19/23/27
f 19/23/27 21/25/31 20/24/30
f 22/26/32 20/24/30 21/25/31
f 20/24/30 22/26/32 12/27/33
f 9/28/9 12/27/16 22/26/32
f 8/29/10 9/28/9 22/26/32
f 23/30/34 6/31/35 5/32/5
f 6/31/17 23/30/36 24/33/37
f 25/34/38 24/33/37 23/30/36
f 26/35/39 13/36/18 27/37/40
f 13/36/18 26/35/39 15/38/22
f 28/39/41 15/38/22 26/35/39
f 15/38/22 28/39/41 17/40/42
f 29/41/43 17/42/29 28/43/44
f 17/42/29 29/41/43 19/44/27
f 30/45/45 19/44/27 29/41/43
f 19/44/27 30/45/46 21/46/31
f 31/47/47 21/48/48 30/49/45
f 21/48/48 31/47/47 22/50/32
f 27/51/49 5/52/5 1/53/1
f 1/53/1 32/54/50 27/51/49
f 33/55/51 27/51/49 32/54/50
f 27/51/49 33/55/51 26/56/39
f 34/57/52 26/56/39 33/55/51
f 26/56/39 34/57/52 28/58/44
f 29/59/53 28/58/44 34/57/52
f 35/60/54 30/61/45 29/59/53
f 36/62/55 30/61/45 35/60/54
f 30/61/45 36/62/55 31/63/47
f 31/63/47 11/64/14 7/65/56
f 7/65/56 37/66/57 31/63/47
f 14/67/23 3/68/58 2/69/2
f 3/68/58 14/67/23 32/70/50
f 16/71/24 32/70/50 14/67/23
f 32/70/50 16/71/24 33/72/51
f 18/73/28 33/72/51 16/71/24
f 33/72/51 18/73/28 34/74/59
f 20/75/30 34/74/59 18/73/28
f 34/74/52 20/75/60 35/76/61
f 12/13/16 35/76/61 20/75/60
f 35/76/61 12/13/16 36/77/62
f 11/12/15 36/77/62 12/13/16
f 13/16/18 6/15/17 24/78/37
f 24/78/37 25/79/38 13/16/18
f 23/80/34 5/52/5 27/51/49
f 27/51/49 25/79/38 23/80/36
f 35/60/54 29/59/53 34/57/52
f 38/81/63 22/26/32 39/82/64
f 22/26/32 38/81/63 10/83/11
f 37/66/65 40/84/66 38/81/67
f 38/81/67 31/63/47 37/66/65
f 41/85/68 22/86/32 31/87/69
f 22/86/32 41/85/68 39/88/70
f 42/89/71 39/88/70 41/85/68
f 38/81/72 39/82/64 42/90/71
f 41/91/68 38/81/72 42/90/73
f 27/37/49 13/36/18 25/92/38
f 10/83/11 8/29/10 22/26/32
f 31/63/47 38/81/67 41/91/68
f 38/81/67 40/84/66 10/83/74
f 37/93/57 7/8/13 10/11/75
f 10/11/74 40/94/66 37/93/65
f 5/5/5 4/7/4 1/95/1
f 1/53/1 3/96/58 32/54/50
f 36/62/55 11/64/14 31/63/47
f 43/97/76 44/98/77 45/99/78
f 44/98/77 43/97/76 46/100/79
f 47/101/80 48/102/81 49/103/82
f 50/104/83 44/98/77 46/100/79
f 44/98/77 50/104/83 51/105/84
f 52/106/85 46/107/86 43/108/87
f 46/107/86 52/106/85 50/109/88
f 53/110/89 43/111/76 45/112/78
f 43/111/76 53/110/89 52/113/90
f 54/114/91 52/113/90 53/110/89
f 52/113/90 54/114/91 55/115/92
f 51/116/93 45/117/78 44/118/94
f 45/117/78 51/116/93 53/119/89
f 55/115/92 51/120/93 50/121/95
f 51/120/93 55/115/92 56/122/96
f 50/121/88 52/113/97 55/115/92
f 56/122/96 53/110/89 51/120/98
f 53/110/89 56/122/96 54/114/99
f 57/123/100 56/124/96 55/125/101
f 56/124/96 57/123/100 58/126/102
f 59/127/103 58/126/102 57/123/100
f 58/126/102 59/127/103 60/128/104
f 47/129/80 60/128/104 59/127/103
f 60/128/105 47/129/80 49/130/106
f 57/123/100 55/125/101 61/131/107
f 61/131/107 62/132/108 57/123/100
f 59/127/103 57/123/100 62/132/108
f 62/132/108 48/133/81 59/127/103
f 47/129/80 59/127/103 48/133/81
f 58/126/109 54/134/91 56/124/110
f 54/134/91 58/126/109 61/135/107
f 60/128/111 61/135/107 58/126/109
f 61/135/107 60/128/105 62/136/108
f 49/130/112 62/136/108 60/128/105
f 62/136/108 49/130/112 48/137/81
f 55/125/101 54/138/113 61/131/107
f 63/139/114 64/140/115 65/141/116
f 64/140/115 63/139/114 66/142/117
f 67/143/118 68/144/119 69/145/120
f 68/144/119 67/143/118 70/146/121
f 69/147/122 64/140/115 66/142/123
f 64/140/115 69/147/122 68/148/124
f 70/149/121 63/150/114 65/151/116
f 65/151/116 71/152/125 70/149/121
f 72/153/126 70/149/121 71/152/125
f 71/152/125 73/154/127 72/153/126
f 74/155/128 72/153/126 73/154/127
f 70/149/121 67/156/118 63/150/114
f 75/157/129 73/158/130 76/159/131
f 73/158/127 75/157/132 74/160/128
f 77/161/133 74/160/128 75/157/132
f 74/160/128 77/161/133 72/162/126
f 68/144/119 72/162/126 77/161/133
f 72/162/126 68/144/119 70/163/121
f 78/164/134 65/151/116 64/140/115
f 65/151/116 78/164/135 71/152/125
f 76/165/131 71/152/125 78/164/135
f 71/152/125 76/165/131 73/154/127
f 77/166/133 64/140/115 68/148/136
f 64/140/115 77/166/133 78/164/137
f 75/167/129 78/164/137 77/166/133
f 78/164/137 75/167/129 76/165/138
o MDL_w2dsw07l_bld00
v 0.000000 -0.270900 0.279300
v 0.000000 -0.371500 0.283200
v -0.012900 -0.326100 0.159500
v 0.012300 -0.326100 0.159500
v 0.000000 -0.202300 0.205300
v 0.000000 -0.206400 0.104500
v 0.000000 -0.445600 0.214800
v 0.000000 -0.449500 0.114000
v 0.000000 -0.381100 0.040000
v 0.000000 -0.280300 0.036000
v -0.000200 -0.413700 0.040600
v -0.000200 -0.238400 0.277500
v -0.000200 -0.201200 0.237300
v -0.000200 -0.450900 0.080900
v -0.000200 -0.347800 0.304800
v -0.000200 -0.304300 0.013400
v -0.000200 -0.359000 0.015400
v -0.000200 -0.293100 0.302600
v -0.000200 -0.444500 0.246700
v -0.000200 -0.207600 0.071400
v -0.000200 -0.247900 0.034200
v -0.000200 -0.404300 0.283900
v -0.000200 -0.471800 0.137300
v -0.000200 -0.180400 0.180700
v -0.000200 -0.182500 0.126000
v -0.000200 -0.469600 0.192000
vt 0.695300 0.156300
vt 0.992200 0.156300
vt 0.781300 0.050800
vt 0.992200 0.156300
vt 0.781300 0.261700
vt 0.992200 0.304700
vt 0.992200 0.007800
vt 0.781300 0.050800
vt 0.695300 0.156300
vt 0.781300 0.261700
vt 0.007800 0.144500
vt 0.062500 0.394500
vt 0.007800 0.394500
vt 0.062500 0.144500
vt 0.007800 0.144500
vt 0.062500 0.394500
vt 0.007800 0.394500
vt 0.062500 0.144500
vt 0.007800 0.144500
vt 0.062500 0.394500
vt 0.007800 0.394500
vt 0.062500 0.144500
vt 0.007800 0.144500
vt 0.062500 0.394500
vt 0.007800 0.394500
vt 0.062500 0.144500
vn 0.0026 0.4177 0.9086
vn -1.0000 -0.0001 -0.0000
vn 0.0026 -0.3463 0.9381
vn 1.0000 -0.0001 -0.0000
vn 0.0026 0.9382 0.3460
vn 1.0000 -0.0001 -0.0001
vn 0.0026 0.9080 -0.4189
vn 0.0027 -0.9082 0.4185
vn 0.0028 -0.9381 -0.3465
vn 0.0026 -0.4190 -0.9080
vn 0.0027 0.3464 -0.9381
vn 0.0026 0.9081 -0.4188
vn -1.0000 -0.0001 -0.0001
vn -1.0000 0.0000 0.0000
usemtl TEX_w2dswa7

f 79/168/139 81/169/140 80/170/141
f 80/170/141 82/171/142 79/168/139
f 83/172/143 79/168/139 82/171/142
f 82/171/144 84/173/145 83/172/143
f 85/174/146 81/169/140 86/175/147
f 86/175/147 82/171/142 85/174/146
f 80/170/141 85/174/146 82/171/142
f 87/176/148 81/169/140 88/177/149
f 88/177/149 82/171/144 87/176/148
f 86/175/147 87/176/148 82/171/144
f 81/169/140 84/173/150 88/177/149
f 84/173/145 81/169/151 83/172/143
f 81/169/140 79/168/139 83/172/143
f 87/176/148 86/175/147 81/169/140
f 85/174/146 80/170/141 81/169/140
f 82/171/144 88/177/149 84/173/145
f 89/178/152 90/179/152 91/180/152
f 90/179/152 89/178/152 92/181/152
f 93/182/152 94/183/152 95/184/152
f 94/183/152 93/182/152 96/185/152
f 97/186/152 98/187/152 99/188/152
f 98/187/152 97/186/152 100/189/152
f 101/190/152 102/191/152 103/192/152
f 102/191/152 101/190/152 104/193/152
o MDL_w2dsw07l_bld01
v 0.000000 -0.040900 0.356700
v 0.000000 -0.123000 0.359900
v -0.012900 -0.085900 0.259000
v 0.012300 -0.085900 0.259000
v 0.000000 0.014800 0.296300
v 0.000000 0.011600 0.214300
v 0.000000 -0.183300 0.304000
v 0.000000 -0.186600 0.222000
v 0.000000 -0.130800 0.161700
v 0.000000 -0.048700 0.158500
v -0.000200 -0.157200 0.162600
v -0.000200 -0.014800 0.354900
v -0.000200 0.015500 0.322300
v -0.000200 -0.187300 0.195300
v -0.000200 -0.103600 0.377100
v -0.000200 -0.068300 0.140400
v -0.000200 -0.112800 0.142100
v -0.000200 -0.059200 0.375400
v -0.000200 -0.182200 0.329900
v -0.000200 0.010200 0.187600
v -0.000200 -0.022500 0.157300
v -0.000200 -0.149500 0.360100
v -0.000200 -0.204400 0.241000
v -0.000200 0.032300 0.276300
v -0.000200 0.030600 0.232000
v -0.000200 -0.202700 0.285600
vt 0.695300 0.156300
vt 0.992200 0.156300
vt 0.781300 0.050800
vt 0.992200 0.156300
vt 0.781300 0.261700
vt 0.992200 0.304700
vt 0.992200 0.007800
vt 0.781300 0.050800
vt 0.695300 0.156300
vt 0.781300 0.261700
vt 0.007800 0.144500
vt 0.062500 0.394500
vt 0.007800 0.394500
vt 0.062500 0.144500
vt 0.007800 0.144500
vt 0.062500 0.394500
vt 0.007800 0.394500
vt 0.062500 0.144500
vt 0.007800 0.144500
vt 0.062500 0.394500
vt 0.007800 0.394500
vt 0.062500 0.144500
vt 0.007800 0.144500
vt 0.062500 0.394500
vt 0.007800 0.394500
vt 0.062500 0.144500
vn 0.0031 0.4192 0.9079
vn -1.0000 -0.0000 -0.0001
vn 0.0033 -0.3473 0.9378
vn 1.0000 -0.0000 -0.0001
vn 0.0032 0.9384 0.3454
vn 0.0032 0.9082 -0.4186
vn 0.0032 0.9385 0.3454
vn 0.0032 -0.9083 0.4183
vn 0.0033 -0.9382 -0.3461
vn 0.0033 -0.4181 -0.9084
vn 0.0032 0.3464 -0.9381
vn 0.0032 0.9082 -0.4185
vn -1.0000 -0.0000 0.0000
usemtl TEX_w2dswa7

f 105/194/153 107/195/154 106/196/155
f 106/196/155 108/197/156 105/194/153
f 109/198/157 105/194/153 108/197/156
f 108/197/156 110/199/158 109/198/159
f 111/200/160 107/195/154 112/201/161
f 112/201/161 108/197/156 111/200/160
f 106/196/155 111/200/160 108/197/156
f 113/202/162 107/195/154 114/203/163
f 114/203/163 108/197/156 113/202/162
f 112/201/161 113/202/162 108/197/156
f 107/195/154 110/199/164 114/203/163
f 110/199/158 107/195/154 109/198/159
f 107/195/154 105/194/153 109/198/157
f 113/202/162 112/201/161 107/195/154
f 111/200/160 106/196/155 107/195/154
f 108/197/156 114/203/163 110/199/158
f 115/204/165 116/205/165 117/206/165
f 116/205/165 115/204/165 118/207/165
f 119/208/165 120/209/165 121/210/165
f 120/209/165 119/208/165 122/211/165
f 123/212/165 124/213/165 125/214/165
f 124/213/165 123/212/165 126/215/165
f 127/216/165 128/217/165 129/218/165
f 128/217/165 127/216/165 130/219/165
o MDL_w2dsw07l_bld02
v 0.000000 0.150300 0.292600
v 0.000000 0.089000 0.295000
v -0.012900 0.116700 0.219800
v 0.012300 0.116700 0.219800
v 0.000000 0.191900 0.247600
v 0.000000 0.189500 0.186400
v 0.000000 0.044000 0.253400
v 0.000000 0.041700 0.192100
v 0.000000 0.083300 0.147100
v 0.000000 0.144500 0.144800
v -0.000200 0.063400 0.147600
v -0.000200 0.170000 0.291500
v -0.000200 0.192600 0.267000
v -0.000200 0.040800 0.172000
v -0.000200 0.103400 0.308100
v -0.000200 0.129800 0.130900
v -0.000200 0.096700 0.132300
v -0.000200 0.136700 0.306800
v -0.000200 0.044700 0.272800
v -0.000200 0.188600 0.166200
v -0.000200 0.164200 0.143600
v -0.000200 0.069200 0.295400
v -0.000200 0.028100 0.206400
v -0.000200 0.205300 0.232800
v -0.000200 0.203900 0.199500
v -0.000200 0.029400 0.239500
vt 0.695300 0.156300
vt 0.992200 0.156300
vt 0.781300 0.050800
vt 0.992200 0.156300
vt 0.781300 0.261700
vt 0.992200 0.304700
vt 0.992200 0.007800
vt 0.781300 0.050800
vt 0.695300 0.156300
vt 0.781300 0.261700
vt 0.007800 0.144500
vt 0.062500 0.394500
vt 0.007800 0.394500
vt 0.062500 0.144500
vt 0.007800 0.144500
vt 0.062500 0.394500
vt 0.007800 0.394500
vt 0.062500 0.144500
vt 0.007800 0.144500
vt 0.062500 0.394500
vt 0.007800 0.394500
vt 0.062500 0.144500
vt 0.007800 0.144500
vt 0.062500 0.394500
vt 0.007800 0.394500
vt 0.062500 0.144500
vn 0.0042 0.4185 0.9082
vn -1.0000 -0.0001 -0.0001
vn 0.0042 -0.3463 0.9381
vn 1.0000 -0.0000 -0.0001
vn 0.0042 0.9382 0.3461
vn 0.0042 0.9080 -0.4189
vn 0.0042 0.9382 0.3460
vn 0.0042 -0.9086 0.4176
vn 0.0043 -0.9378 -0.3470
vn 0.0043 -0.4179 -0.9085
vn 0.0043 0.3468 -0.9379
vn 0.0043 0.9080 -0.4189
vn -1.0000 -0.0000 -0.0001
vn -1.0000 -0.0000 0.0000
usemtl TEX_w2dswa7

f 131/220/166 133/221/167 132/222/168
f 132/222/168 134/223/169 131/220/166
f 135/224/170 131/220/166 134/223/169
f 134/223/169 136/225/171 135/224/172
f 137/226/173 133/221/167 138/227/174
f 138/227/174 134/223/169 137/226/173
f 132/222/168 137/226/173 134/223/169
f 139/228/175 133/221/167 140/229/176
f 140/229/176 134/223/169 139/228/175
f 138/227/174 139/228/175 134/223/169
f 133/221/167 136/225/177 140/229/176
f 136/225/171 133/221/178 135/224/172
f 133/221/167 131/220/166 135/224/170
f 139/228/175 138/227/174 133/221/167
f 137/226/173 132/222/168 133/221/167
f 134/223/169 140/229/176 136/225/171
f 141/230/179 142/231/179 143/232/179
f 142/231/179 141/230/179 144/233/179
f 145/234/179 146/235/179 147/236/179
f 146/235/179 145/234/179 148/237/179
f 149/238/179 150/239/179 151/240/179
f 150/239/179 149/238/179 152/241/179
f 153/242/179 154/243/179 155/244/179
f 154/243/179 153/242/179 156/245/179
o MDL_w2dsw07l_bld03
v 0.000000 0.272300 0.218200
v 0.000000 0.223700 0.220100
v -0.012900 0.245700 0.160200
v 0.012300 0.245700 0.160200
v 0.000000 0.305400 0.182400
v 0.000000 0.303500 0.133800
v 0.000000 0.187900 0.186900
v 0.000000 0.186000 0.138400
v 0.000000 0.219100 0.102600
v 0.000000 0.267700 0.100700
v -0.000200 0.203400 0.102900
v -0.000200 0.287900 0.217300
v -0.000200 0.305900 0.197900
v -0.000200 0.185400 0.122400
v -0.000200 0.235200 0.230400
v -0.000200 0.256200 0.089800
v -0.000200 0.229800 0.090900
v -0.000200 0.261600 0.229400
v -0.000200 0.188500 0.202400
v -0.000200 0.302900 0.117900
v -0.000200 0.283400 0.099900
v -0.000200 0.207900 0.220400
v -0.000200 0.175400 0.149600
v -0.000200 0.316000 0.170500
v -0.000200 0.314900 0.144100
v -0.000200 0.176300 0.176000
vt 0.695300 0.156300
vt 0.992200 0.156300
vt 0.781300 0.050800
vt 0.992200 0.156300
vt 0.781300 0.261700
vt 0.992200 0.304700
vt 0.992200 0.007800
vt 0.781300 0.050800
vt 0.695300 0.156300
vt 0.781300 0.261700
vt 0.007800 0.144500
vt 0.062500 0.394500
vt 0.007800 0.394500
vt 0.062500 0.144500
vt 0.007800 0.144500
vt 0.062500 0.394500
vt 0.007800 0.394500
vt 0.062500 0.144500
vt 0.007800 0.144500
vt 0.062500 0.394500
vt 0.007800 0.394500
vt 0.062500 0.144500
vt 0.007800 0.144500
vt 0.062500 0.394500
vt 0.007800 0.394500
vt 0.062500 0.144500
vn 0.0053 0.4188 0.9081
vn -1.0000 -0.0000 -0.0004
vn 0.0053 -0.3473 0.9377
vn 1.0000 -0.0000 -0.0004
vn 0.0053 0.9383 0.3459
vn 0.0053 0.9080 -0.4190
vn 0.0053 0.9383 0.3458
vn 0.0053 -0.9086 0.4176
vn 0.0053 -0.9379 -0.3467
vn 1.0000 -0.0001 -0.0004
vn 0.0054 -0.4184 -0.9083
vn 0.0054 0.3462 -0.9382
vn -1.0000 -0.0001 -0.0004
vn -1.0000 -0.0000 0.0000
usemtl TEX_w2dswa7

f 157/246/180 159/247/181 158/248/182
f 158/248/182 160/249/183 157/246/180
f 161/250/184 157/246/180 160/249/183
f 160/249/183 162/251/185 161/250/186
f 163/252/187 159/247/181 164/253/188
f 164/253/188 160/249/189 163/252/187
f 158/248/182 163/252/187 160/249/189
f 165/254/190 159/247/181 166/255/191
f 166/255/191 160/249/183 165/254/190
f 164/253/188 165/254/190 160/249/183
f 159/247/181 162/251/185 166/255/191
f 162/251/185 159/247/192 161/250/186
f 159/247/181 157/246/180 161/250/184
f 165/254/190 164/253/188 159/247/181
f 163/252/187 158/248/182 159/247/181
f 160/249/183 166/255/191 162/251/185
f 167/256/193 168/257/193 169/258/193
f 168/257/193 167/256/193 170/259/193
f 171/260/193 172/261/193 173/262/193
f 172/261/193 171/260/193 174/263/193
f 175/264/193 176/265/193 177/266/193
f 176/265/193 175/264/193 178/267/193
f 179/268/193 180/269/193 181/270/193
f 180/269/193 179/268/193 182/271/193
