# Blender v2.79 (sub 0) OBJ File: ''
# www.blender.org
mtllib dualswords02l.mtl
o MDL_w2dsw02l_bod00_001
v -0.003700 -0.408400 0.017800
v -0.003700 -0.269800 0.001400
v -0.003700 -0.408400 0.001400
v -0.003700 -0.269800 0.017800
v 0.000000 -0.408400 0.036900
v 0.000000 -0.269800 0.036900
v 0.003900 -0.269800 0.017800
v -0.003700 -0.499300 0.008800
v -0.003700 -0.453900 -0.008000
v -0.003700 -0.499300 -0.010300
v 0.000000 -0.499300 0.027800
v 0.003900 -0.408400 0.017800
v -0.003700 -0.754500 0.008800
v -0.003700 -0.754500 -0.030900
v 0.000000 -0.754500 0.027800
v 0.003900 -0.499300 0.008800
v 0.003900 -0.269800 0.001400
v 0.003900 -0.408400 0.001400
v 0.003900 -0.453900 -0.008000
v 0.003900 -0.499300 -0.010300
v 0.003900 -0.754500 0.008800
v 0.003900 -0.754500 -0.030900
v 0.003900 -0.499300 -0.030900
v -0.003700 -0.499300 -0.030900
v -0.008100 -0.453900 -0.008000
v -0.008100 -0.499300 -0.032800
v -0.008100 -0.269800 -0.032800
v -0.008100 -0.499300 -0.010300
v 0.008300 -0.269800 -0.032800
v 0.008300 -0.408400 0.001400
v 0.008300 -0.453900 -0.008000
v 0.008300 -0.499300 -0.032800
v 0.008300 -0.499300 -0.010300
v 0.000000 -0.269800 -0.038600
v 0.000000 -0.499300 -0.038600
v 0.008300 -0.269800 0.001400
v -0.008100 -0.408400 0.001400
v -0.008100 -0.269800 0.001400
v 0.008300 -0.269800 0.031100
v -0.008100 -0.269800 0.031100
v -0.008100 -0.254500 -0.032800
v -0.008100 -0.254500 0.001400
v 0.000000 -0.254500 -0.038600
v 0.008300 -0.254500 -0.032800
v 0.008300 -0.254500 0.001400
v -0.008100 -0.254500 0.031100
v 0.008300 -0.254500 0.031100
v 0.000000 -0.254500 0.036900
v 0.000000 -0.254500 0.076100
v 0.023000 -0.244300 0.065800
v 0.000000 -0.244300 0.076100
v 0.023000 -0.254500 0.065800
v 0.039800 -0.244300 0.037800
v 0.039800 -0.254500 0.037800
v 0.045900 -0.244300 -0.000300
v 0.045900 -0.254500 -0.000300
v 0.039800 -0.244300 -0.038600
v 0.039800 -0.254500 -0.038600
v 0.023000 -0.244300 -0.066600
v 0.023000 -0.254500 -0.066600
v 0.000000 -0.244300 -0.076900
v 0.000000 -0.254500 -0.076900
v -0.022800 -0.244300 -0.066600
v -0.022800 -0.254500 -0.066600
v -0.039700 -0.244300 -0.038600
v -0.039700 -0.254500 -0.038600
v -0.045800 -0.244300 -0.000300
v -0.045800 -0.254500 -0.000300
v -0.039700 -0.244300 0.037800
v -0.039700 -0.254500 0.037800
v -0.022800 -0.244300 0.065800
v -0.022800 -0.254500 0.065800
v -0.009400 -0.244300 0.010600
v -0.013700 -0.244300 -0.000500
v 0.000000 -0.244300 0.019100
v 0.009400 -0.244300 0.010600
v 0.013700 -0.244300 -0.000500
v -0.009400 -0.244300 -0.011700
v 0.000000 -0.244300 -0.020000
v 0.009400 -0.244300 -0.011700
v -0.009400 -0.133900 0.010600
v 0.000000 -0.133900 0.019100
v -0.013700 -0.133900 -0.000500
v 0.009400 -0.133900 0.010600
v 0.013700 -0.133900 -0.000500
v 0.009400 -0.133900 -0.011700
v -0.009400 -0.133900 -0.011700
v 0.000000 -0.133900 -0.020000
v -0.009400 -0.031700 0.010600
v 0.000000 -0.023400 0.018900
v -0.013700 -0.034600 -0.000500
v 0.009400 -0.031700 0.010600
v 0.013700 -0.034600 -0.000500
v 0.009400 -0.031700 -0.011700
v 0.000000 -0.023400 -0.020000
v -0.009400 -0.031700 -0.011700
v 0.000000 -0.012100 0.022000
v 0.013700 -0.023400 0.018900
v 0.013700 -0.012100 0.022000
v 0.013700 -0.012100 -0.023000
v 0.013700 -0.023400 -0.020000
v 0.000000 -0.012100 -0.023000
v 0.013700 -0.000900 -0.020000
v 0.000000 -0.000900 -0.020000
v 0.013700 0.007400 -0.011700
v 0.000000 0.007400 -0.011700
v 0.013700 0.010400 -0.000500
v 0.000000 0.010400 -0.000500
v 0.013700 0.007400 0.010600
v 0.000000 0.007400 0.010600
v 0.013700 -0.000900 0.018900
v 0.000000 -0.000900 0.018900
v 0.013700 -0.031700 0.010600
v 0.013700 -0.031700 -0.011700
v 0.000000 -0.031700 -0.011700
v 0.000000 -0.034600 -0.000500
v 0.000000 -0.031700 0.010600
v 0.013700 -0.012100 -0.000500
v 0.000000 -0.012100 -0.000500
vt 0.265600 0.550800
vt 0.179700 0.746100
vt 0.179700 0.550800
vt 0.265600 0.746100
vt 0.382800 0.550800
vt 0.382800 0.746100
vt 0.265600 0.746100
vt 0.218800 0.445300
vt 0.148400 0.503900
vt 0.117200 0.445300
vt 0.335900 0.445300
vt 0.265600 0.550800
vt 0.218800 0.003900
vt 0.007800 0.003900
vt 0.335900 0.003900
vt 0.218800 0.445300
vt 0.179700 0.746100
vt 0.179700 0.550800
vt 0.148400 0.503900
vt 0.117200 0.445300
vt 0.218800 0.003900
vt 0.007800 0.003900
vt 0.007800 0.074200
vt 0.218800 0.089800
vt 0.007800 0.089800
vt 0.218800 0.074200
vt 0.007800 0.445300
vt 0.007800 0.445300
vt 0.742200 0.109400
vt 0.562500 0.582000
vt 0.562500 0.003900
vt 0.710900 0.003900
vt 0.562500 0.582000
vt 0.789100 0.242200
vt 0.742200 0.109400
vt 0.710900 0.003900
vt 0.562500 0.003900
vt 0.414100 0.582000
vt 0.414100 0.003900
vt 0.789100 0.582000
vt 0.789100 0.242200
vt 0.789100 0.582000
vt 0.992200 0.746100
vt 0.992200 0.476600
vt 0.968800 0.476600
vt 0.968800 0.746100
vt 0.992200 0.835900
vt 0.968800 0.835900
vt 0.992200 0.703100
vt 0.992200 0.652300
vt 0.968800 0.652300
vt 0.968800 0.699200
vt 0.968800 0.781300
vt 0.992200 0.742200
vt 0.992200 0.777300
vt 0.968800 0.828100
vt 0.992200 0.828100
vt 0.968800 0.972700
vt 0.968800 0.835900
vt 0.992200 0.835900
vt 0.992200 0.972700
vt 0.968800 0.746100
vt 0.968800 0.476600
vt 0.992200 0.476600
vt 0.992200 0.746100
vt 0.609400 0.750000
vt 0.613300 0.742200
vt 0.601600 0.746100
vt 0.597700 0.746100
vt 0.597700 0.750000
vt 0.609400 0.734400
vt 0.601600 0.738300
vt 0.597700 0.738300
vt 0.597700 0.734400
vt 0.203100 0.804700
vt 0.078100 0.777300
vt 0.078100 0.804700
vt 0.203100 0.886700
vt 0.203100 0.777300
vt 0.078100 0.804700
vt 0.203100 0.804700
vt 0.078100 0.886700
vt 0.203100 0.886700
vt 0.078100 0.972700
vt 0.078100 0.886700
vt 0.203100 0.972700
vt 0.203100 0.972700
vt 0.078100 0.996100
vt 0.203100 0.996100
vt 0.078100 0.972700
vt 0.062500 0.996100
vt 0.007800 0.953100
vt 0.007800 0.996100
vt 0.062500 0.953100
vt 0.007800 0.918000
vt 0.062500 0.918000
vt 0.007800 0.878900
vt 0.062500 0.878900
vt 0.007800 0.843800
vt 0.062500 0.843800
vt 0.007800 0.820300
vt 0.062500 0.820300
vt 0.007800 0.781300
vt 0.062500 0.781300
vt 0.007800 0.820300
vt 0.062500 0.820300
vt 0.007800 0.843800
vt 0.062500 0.843800
vt 0.007800 0.878900
vt 0.062500 0.878900
vt 0.007800 0.918000
vt 0.062500 0.918000
vt 0.007800 0.953100
vt 0.062500 0.953100
vt 0.593800 0.668000
vt 0.437500 0.640600
vt 0.398400 0.679700
vt 0.625000 0.601600
vt 0.875000 0.668000
vt 0.554700 0.679700
vt 0.445300 0.718800
vt 0.593800 0.691400
vt 0.640600 0.757800
vt 0.875000 0.589800
vt 0.625000 0.601600
vt 0.593800 0.668000
vt 0.437500 0.640600
vt 0.554700 0.679700
vt 0.398400 0.679700
vt 0.593800 0.691400
vt 0.445300 0.718800
vt 0.875000 0.699200
vt 0.875000 0.769500
vt 0.640600 0.757800
vt 0.875000 0.769500
vt 0.640600 0.757800
vt 0.718800 0.699200
vt 0.875000 0.707000
vt 0.648400 0.679700
vt 0.437500 0.714800
vt 0.398400 0.679700
vt 0.429700 0.644500
vt 0.625000 0.601600
vt 0.718800 0.660200
vt 0.875000 0.652300
vt 0.875000 0.593800
vt 0.718800 0.699200
vt 0.640600 0.757800
vt 0.437500 0.714800
vt 0.648400 0.679700
vt 0.398400 0.679700
vt 0.429700 0.644500
vt 0.718800 0.660200
vt 0.625000 0.601600
vt 0.906300 0.328100
vt 0.804700 0.003900
vt 0.906300 0.003900
vt 0.992200 0.328100
vt 0.804700 0.328100
vt 0.906300 0.003900
vt 0.992200 0.003900
vt 0.906300 0.328100
vt 0.906300 0.003900
vt 0.804700 0.328100
vt 0.804700 0.003900
vt 0.906300 0.328100
vt 0.906300 0.328100
vt 0.992200 0.003900
vt 0.992200 0.328100
vt 0.906300 0.003900
vt 0.906300 0.418000
vt 0.804700 0.089800
vt 0.906300 0.089800
vt 0.992200 0.445300
vt 0.804700 0.410200
vt 0.906300 0.089800
vt 0.992200 0.089800
vt 0.906300 0.418000
vt 0.906300 0.089800
vt 0.804700 0.410200
vt 0.804700 0.089800
vt 0.906300 0.418000
vt 0.906300 0.089800
vt 0.992200 0.445300
vt 0.992200 0.089800
vt 0.906300 0.418000
vt 0.062500 0.843800
vt 0.007800 0.859400
vt 0.007800 0.843800
vt 0.062500 0.859400
vt 0.062500 0.859400
vt 0.007800 0.843800
vt 0.007800 0.859400
vt 0.062500 0.843800
vt 0.007800 0.828100
vt 0.062500 0.828100
vt 0.007800 0.808600
vt 0.062500 0.808600
vt 0.007800 0.785200
vt 0.062500 0.785200
vt 0.007800 0.808600
vt 0.062500 0.808600
vt 0.007800 0.828100
vt 0.062500 0.828100
vt 0.023400 0.875000
vt 0.007800 0.890600
vt 0.007800 0.875000
vt 0.023400 0.875000
vt 0.007800 0.875000
vt 0.039100 0.804700
vt 0.023400 0.804700
vt 0.023400 0.828100
vt 0.023400 0.789100
vt 0.046900 0.789100
vt 0.023400 0.804700
vt 0.039100 0.804700
vt 0.023400 0.828100
vt 0.429700 0.781300
vt 0.429700 0.890600
vt 0.546900 0.796900
vt 0.320300 0.793000
vt 0.242200 0.832000
vt 0.218800 0.890600
vt 0.242200 0.941400
vt 0.312500 0.980500
vt 0.429700 0.992200
vt 0.539100 0.984400
vt 0.617200 0.945300
vt 0.640600 0.890600
vt 0.617200 0.832000
vt 0.617200 0.832000
vt 0.429700 0.886700
vt 0.640600 0.886700
vt 0.539100 0.793000
vt 0.429700 0.781300
vt 0.312500 0.796900
vt 0.242200 0.832000
vt 0.218800 0.886700
vt 0.242200 0.945300
vt 0.320300 0.984400
vt 0.429700 0.992200
vt 0.546900 0.980500
vt 0.617200 0.941400
vt 0.382800 0.082000
vt 0.992200 0.972700
vt 0.968800 0.972700
vn -0.9966 -0.0055 0.0820
vn -0.6667 -0.6667 0.3333
vn -0.5565 -0.0562 0.8290
vn -0.8243 -0.5563 0.1058
vn -0.0051 -0.0334 0.9994
vn 0.1595 -0.5680 0.8074
vn 0.8234 -0.5564 0.1113
vn -0.0050 -0.0333 0.9994
vn -0.9954 -0.0032 0.0960
vn -0.7080 -0.1074 0.6980
vn -0.8687 -0.2392 0.4338
vn -0.9966 -0.0054 0.0820
vn -0.0051 -0.0662 0.9978
vn 0.9963 -0.0057 0.0863
vn -0.7042 -0.7085 0.0452
vn -0.6667 -0.3333 -0.6667
vn -0.0031 -0.7868 0.6172
vn 0.9949 -0.0033 0.1010
vn 0.5772 -0.5774 0.5774
vn 0.5565 -0.1126 0.8232
vn 0.7080 -0.0716 0.7025
vn 0.9949 -0.0033 0.1011
vn 0.8687 -0.4453 0.2169
vn 0.8290 -0.5564 0.0559
vn 0.6667 -0.6666 -0.3334
vn 0.8290 -0.5565 0.0559
vn 0.6667 -0.6667 -0.3333
vn -0.6666 -0.3333 -0.6667
vn 0.8290 -0.5565 0.0560
vn 0.3330 -0.6665 -0.6669
vn -0.1925 -0.9622 -0.1925
vn -0.7080 -0.0716 0.7025
vn -0.9669 0.0000 -0.2551
vn -0.7753 -0.4900 -0.3984
vn -0.4015 -0.8234 0.4010
vn 0.8868 0.0000 -0.4622
vn 0.5565 -0.0563 0.8290
vn 0.7080 -0.1074 0.6980
vn 0.4015 -0.4422 0.8021
vn 0.5331 -0.8288 -0.1698
vn -0.2351 -0.0000 -0.9720
vn 0.1753 -0.6222 -0.7630
vn 0.9428 -0.2357 0.2357
vn -0.5565 -0.1126 0.8232
vn -0.8729 -0.2182 0.4364
vn 0.5565 -0.0563 0.8289
vn 0.5774 -0.5773 0.5774
vn 0.3333 -0.6667 -0.6667
vn -0.1925 -0.9622 -0.1924
vn -0.8687 -0.2392 0.4337
vn -0.8687 -0.2391 0.4338
vn -0.7080 -0.1075 0.6980
vn -0.5565 -0.0563 0.8289
vn 0.6374 -0.7433 0.2031
vn -0.5356 -0.7424 0.4024
vn -0.8242 -0.5563 0.1058
vn 0.1595 -0.5681 0.8074
vn -0.4481 -0.8282 -0.3367
vn -0.6000 -0.8000 0.0000
vn -0.4481 -0.8282 -0.3366
vn 0.1439 -0.7662 -0.6263
vn 0.6374 -0.7433 -0.2031
vn 0.6000 -0.8000 -0.0000
vn -0.6390 -0.7424 0.2012
vn 0.5316 -0.7433 0.4062
vn -0.1252 -0.8464 0.5176
vn 0.1188 -0.5858 0.8017
vn 0.4780 0.5707 0.6677
vn -0.1214 0.5859 0.8013
vn 0.5109 -0.7217 0.4671
vn 0.5436 0.8047 0.2388
vn 0.4779 0.5707 0.6677
vn 0.6730 -0.7128 0.1974
vn 0.8280 0.5590 0.0444
vn 0.5436 0.8046 0.2388
vn 0.8280 -0.5590 -0.0438
vn 0.6731 0.7129 -0.1970
vn 0.6422 -0.7129 -0.2819
vn 0.6421 -0.7129 -0.2819
vn 0.5109 0.7217 -0.4671
vn 0.4029 -0.7217 -0.5629
vn 0.1189 0.5859 -0.8017
vn -0.1016 -0.7351 -0.6703
vn -0.4039 0.7214 -0.5626
vn -0.6057 -0.5704 -0.5547
vn -0.6058 -0.5704 -0.5547
vn -0.7574 0.5611 -0.3341
vn -0.4039 0.7214 -0.5625
vn -0.6728 -0.7129 -0.1975
vn -0.6728 -0.7129 -0.1976
vn -0.5949 0.8032 -0.0314
vn -0.7574 0.5610 -0.3340
vn -0.8280 -0.5590 0.0444
vn -0.6727 0.7129 0.1980
vn -0.6416 -0.7129 0.2831
vn -0.6058 0.5704 0.5547
vn -0.6728 0.7129 0.1979
vn -0.4039 -0.7214 0.5625
vn -0.4038 -0.7214 0.5626
vn 0.1189 -0.5858 0.8017
vn 0.1189 -0.5859 0.8016
vn 0.8280 -0.5590 -0.0437
vn 0.6730 -0.7128 0.1973
vn -0.5424 0.7156 0.4400
vn -0.8091 0.5782 0.1053
vn 0.1042 0.9325 0.3458
vn 0.7151 0.5640 0.4129
vn 0.5719 0.8171 -0.0727
vn -0.5104 0.8074 -0.2960
vn -0.7574 0.5611 -0.3340
vn -0.1428 0.8628 -0.4850
vn 0.5389 0.7162 -0.4435
vn -0.8227 0.0002 0.5684
vn -0.0018 0.0005 1.0000
vn -1.0000 -0.0000 0.0015
vn -0.0018 0.0006 1.0000
vn 0.8239 0.0000 0.5668
vn 0.1043 0.9325 0.3458
vn 1.0000 -0.0000 0.0015
vn 0.8213 0.0000 -0.5704
vn -0.5105 0.8074 -0.2960
vn -0.8213 -0.0000 -0.5704
vn -0.1427 0.8628 -0.4850
vn -0.8214 -0.0000 -0.5704
vn 0.0000 0.0000 -1.0000
vn 0.8214 0.0000 -0.5704
vn -0.8219 0.5447 0.1666
vn -0.6389 -0.0627 0.7668
vn -0.6863 0.7117 -0.1497
vn -0.6388 -0.0626 0.7668
vn 0.4706 -0.4944 0.7308
vn 0.9251 -0.3732 0.0706
vn 0.9251 -0.3731 0.0706
vn 0.5407 -0.5094 -0.6695
vn 0.5407 -0.5093 -0.6695
vn -0.3027 -0.1161 -0.9460
vn -0.6384 0.7475 -0.1836
vn -0.6384 0.7475 -0.1835
vn 0.0000 0.0002 -1.0000
vn -0.5672 -0.0744 0.8202
vn 0.4594 -0.4464 0.7679
vn 0.5671 0.0763 0.8201
vn -0.6388 -0.0627 0.7668
vn 0.5664 -0.0721 -0.8210
vn 0.5666 -0.4733 -0.6745
vn -0.5664 0.0739 -0.8208
vn 0.5665 0.3469 -0.7475
vn -0.5665 0.4739 -0.6742
vn 0.5665 0.6742 -0.4739
vn -0.5665 0.7475 -0.3469
vn 0.5666 0.8208 -0.0727
vn -0.5666 0.8206 0.0745
vn 0.5664 0.7470 0.3481
vn -0.5664 0.6739 0.4744
vn 0.5661 0.4759 0.6731
vn 0.5664 0.7470 0.3480
vn -0.5661 0.3512 0.7458
vn -0.5661 0.3511 0.7458
vn 0.5672 0.0762 0.8201
vn 0.5661 0.4758 0.6731
vn -0.5671 -0.0744 0.8203
vn 0.7195 -0.6025 0.3454
vn 0.7196 -0.6028 -0.3447
vn 0.7196 -0.6028 -0.3446
vn -0.7197 0.6028 0.3446
vn -0.5658 0.8215 0.0703
vn -0.5668 0.7488 -0.3436
vn -0.5659 0.8215 0.0703
vn 1.0000 0.0000 0.0000
vn 0.7197 -0.6028 -0.3446
vn -1.0000 0.0000 0.0000
vn -0.5666 0.8206 0.0746
vn -0.7197 0.6028 0.3447
vn -0.5668 0.7488 -0.3437
vn -0.5565 -0.0563 0.8290
vn -0.7080 -0.0717 0.7025
usemtl TEX_w2dsw02_001

f 1/1/1 2/2/2 3/3/3
f 2/2/2 1/1/1 4/4/4
f 5/5/5 4/4/4 1/1/1
f 4/4/4 5/5/5 6/6/6
f 7/7/7 6/6/6 5/5/8
f 8/8/9 9/9/10 10/10/11
f 9/9/10 8/8/9 1/1/12
f 11/11/13 1/1/12 8/8/9
f 1/1/12 11/11/13 5/5/8
f 12/12/14 5/5/8 11/11/13
f 13/13/15 10/10/11 14/14/16
f 10/10/11 13/13/15 8/8/9
f 15/15/17 8/8/9 13/13/15
f 8/8/9 15/15/17 11/11/13
f 16/16/18 11/11/13 15/15/17
f 12/12/14 17/17/19 7/7/7
f 17/17/19 12/12/14 18/18/20
f 19/19/21 18/18/20 12/12/14
f 5/5/8 12/12/14 7/7/7
f 16/16/22 19/19/21 12/12/14
f 19/19/21 16/16/22 20/20/23
f 21/21/24 20/20/23 16/16/22
f 20/20/23 21/21/24 22/22/25
f 11/11/13 16/16/18 12/12/14
f 15/15/17 21/21/26 16/16/18
f 22/23/27 13/24/15 14/25/28
f 13/24/15 22/23/27 21/26/29
f 23/27/30 14/14/16 24/28/31
f 14/14/16 23/27/30 22/22/27
f 20/20/23 22/22/27 23/27/30
f 25/29/32 27/30/33 26/31/34
f 26/31/34 28/32/35 25/29/32
f 29/33/36 30/34/37 31/35/38
f 31/35/38 33/36/39 32/37/40
f 32/37/40 29/33/36 31/35/38
f 34/38/41 26/31/34 27/30/33
f 26/31/34 34/38/41 35/39/42
f 29/33/36 35/39/42 34/38/41
f 35/39/42 29/33/36 32/37/40
f 30/34/37 29/33/36 36/40/43
f 37/41/44 38/42/45 27/30/33
f 30/43/46 36/44/43 17/45/47
f 30/43/46 17/45/47 18/46/20
f 31/47/38 30/43/46 18/46/20
f 31/47/38 18/46/20 19/48/21
f 32/49/40 33/50/39 20/51/23
f 32/49/40 20/51/23 23/52/48
f 32/49/40 23/52/48 24/53/49
f 35/54/42 32/49/40 24/53/49
f 24/53/49 26/55/34 35/54/42
f 24/53/49 10/56/50 28/57/35
f 24/53/49 28/57/35 26/55/34
f 10/58/51 9/59/52 25/60/32
f 10/58/51 25/60/32 28/61/35
f 3/62/53 2/63/2 38/64/45
f 3/62/53 38/64/45 37/65/44
f 39/66/54 6/67/6 7/68/7
f 7/68/7 17/69/19 39/66/54
f 39/66/54 17/69/19 36/70/43
f 40/71/55 4/72/56 6/67/57
f 4/72/56 40/71/55 2/73/2
f 40/71/55 38/74/45 2/73/2
f 41/75/58 34/76/41 27/77/33
f 27/77/33 42/78/59 41/75/58
f 34/76/41 41/75/60 43/79/61
f 43/79/61 29/80/36 34/76/41
f 44/81/62 36/82/43 29/80/36
f 29/80/36 43/79/61 44/81/62
f 36/82/43 44/81/62 45/83/63
f 45/83/63 39/84/54 36/82/43
f 42/78/59 27/77/33 38/85/45
f 38/85/45 46/86/64 42/78/59
f 47/87/65 6/88/6 39/84/54
f 39/84/54 45/83/63 47/87/65
f 6/88/57 47/87/65 48/89/66
f 48/89/66 40/90/55 6/88/57
f 40/90/55 48/89/66 46/86/64
f 46/86/64 38/85/45 40/90/55
f 49/91/67 50/92/68 51/93/69
f 50/92/68 49/91/67 52/94/70
f 52/94/70 53/95/71 50/92/72
f 53/95/71 52/94/70 54/96/73
f 54/96/73 55/97/74 53/95/75
f 55/97/74 54/96/73 56/98/76
f 56/98/76 57/99/77 55/97/74
f 57/99/77 56/98/76 58/100/78
f 58/100/79 59/101/80 57/99/77
f 59/101/80 58/100/79 60/102/81
f 60/102/81 61/103/82 59/101/80
f 61/103/82 60/102/81 62/104/83
f 62/104/83 63/105/84 61/103/82
f 63/105/84 62/104/83 64/106/85
f 64/106/86 65/107/87 63/105/88
f 65/107/87 64/106/86 66/108/89
f 66/108/90 67/109/91 65/107/92
f 67/109/91 66/108/90 68/110/93
f 68/110/93 69/111/94 67/109/91
f 69/111/94 68/110/93 70/112/95
f 70/112/95 71/113/96 69/111/97
f 71/113/96 70/112/95 72/114/98
f 72/114/99 51/93/69 71/113/96
f 51/93/69 72/114/99 49/91/100
f 41/115/58 64/116/86 62/117/83
f 64/116/86 41/115/58 66/118/90
f 42/119/59 66/118/90 41/115/58
f 43/120/61 41/115/58 62/117/83
f 62/117/83 60/121/81 43/120/61
f 44/122/62 43/120/61 60/121/81
f 60/121/81 58/123/79 44/122/62
f 42/119/59 68/124/93 66/118/90
f 68/124/93 42/119/59 70/125/95
f 46/126/64 70/125/95 42/119/59
f 70/125/95 46/126/64 72/127/98
f 48/128/66 72/127/98 46/126/64
f 72/127/98 48/128/66 49/129/101
f 48/128/66 47/130/65 52/131/70
f 48/128/66 52/131/70 49/129/101
f 58/123/79 45/132/63 44/122/62
f 45/132/63 58/123/78 56/133/102
f 45/132/63 54/134/103 47/130/65
f 54/134/103 45/132/63 56/133/102
f 47/130/65 54/134/103 52/131/70
f 67/135/91 69/136/97 73/137/104
f 67/135/91 73/137/104 74/138/105
f 75/139/106 69/136/97 71/140/96
f 71/140/96 51/141/69 75/139/106
f 50/142/68 75/139/106 51/141/69
f 69/136/97 75/139/106 73/137/104
f 75/139/106 50/142/68 53/143/75
f 76/144/107 75/139/106 53/143/75
f 53/143/75 77/145/108 76/144/107
f 77/145/108 53/143/75 55/146/74
f 78/147/109 65/148/110 67/135/91
f 65/148/110 78/147/109 63/149/84
f 78/147/109 67/135/91 74/138/105
f 63/149/84 78/147/109 79/150/111
f 79/150/111 61/151/82 63/149/84
f 59/152/80 61/151/82 79/150/111
f 79/150/111 80/153/112 59/152/80
f 57/154/77 59/152/80 80/153/112
f 80/153/112 77/145/108 57/154/77
f 57/154/77 77/145/108 55/146/74
f 81/155/113 74/156/105 73/157/104
f 73/157/104 82/158/114 81/155/113
f 74/156/105 81/155/113 83/159/115
f 83/159/115 78/160/109 74/156/105
f 82/158/116 73/157/104 75/161/106
f 75/161/106 84/162/117 82/158/116
f 84/162/117 75/161/118 76/163/107
f 76/163/107 85/164/119 84/162/117
f 85/164/119 76/163/107 77/165/108
f 77/165/108 86/166/120 85/164/119
f 78/160/121 83/159/115 87/167/122
f 87/167/122 79/168/111 78/160/121
f 79/168/123 87/167/124 88/169/125
f 88/169/125 80/170/112 79/168/123
f 80/170/112 88/169/125 86/166/126
f 86/166/126 77/165/108 80/170/112
f 89/171/127 83/172/115 81/173/113
f 81/173/113 90/174/128 89/171/127
f 83/172/115 89/171/127 91/175/129
f 91/175/129 87/176/122 83/172/115
f 90/174/130 81/173/113 82/177/116
f 82/177/116 92/178/131 90/174/130
f 92/178/131 82/177/116 84/179/117
f 84/179/117 93/180/132 92/178/131
f 93/180/133 84/179/117 85/181/119
f 85/181/119 94/182/134 93/180/133
f 94/182/135 85/181/119 86/183/126
f 86/183/126 95/184/136 94/182/135
f 95/184/136 86/183/126 88/185/125
f 88/185/125 96/186/137 95/184/136
f 96/186/138 88/185/139 87/176/124
f 87/176/124 91/175/129 96/186/138
f 97/187/140 98/188/141 99/189/142
f 98/188/141 97/187/140 90/190/143
f 95/191/136 100/192/144 101/193/145
f 100/192/144 95/191/136 102/194/146
f 102/194/146 103/195/147 100/192/144
f 103/195/147 102/194/146 104/196/148
f 104/196/148 105/197/149 103/195/147
f 105/197/149 104/196/148 106/198/150
f 106/198/150 107/199/151 105/197/149
f 107/199/151 106/198/150 108/200/152
f 108/200/152 109/201/153 107/199/151
f 109/201/153 108/200/152 110/202/154
f 110/202/154 111/203/155 109/201/156
f 111/203/155 110/202/154 112/204/157
f 112/204/158 99/189/159 111/203/160
f 99/189/159 112/204/158 97/187/161
f 92/205/131 93/206/132 113/207/162
f 113/207/162 98/188/141 92/205/131
f 92/205/131 98/188/141 90/190/130
f 94/208/134 114/209/163 93/206/133
f 114/209/164 94/208/135 101/193/145
f 94/208/135 95/191/136 101/193/145
f 96/210/137 115/211/165 95/212/136
f 115/211/165 96/210/137 116/213/166
f 116/213/166 96/210/137 91/214/129
f 91/214/129 117/215/167 116/213/168
f 89/216/127 117/215/167 91/214/129
f 117/215/167 89/216/127 90/217/128
f 93/218/132 118/219/169 113/220/162
f 118/219/169 93/218/133 114/221/170
f 101/222/145 118/219/169 114/221/170
f 118/219/169 101/222/145 100/223/144
f 103/224/147 118/219/169 100/223/144
f 118/219/169 103/224/147 105/225/149
f 107/226/151 118/219/169 105/225/149
f 118/219/169 107/226/151 109/227/156
f 111/228/160 118/219/169 109/227/156
f 118/219/169 111/228/160 99/229/159
f 118/219/169 99/229/159 98/230/141
f 113/220/162 118/219/169 98/230/141
f 112/231/158 119/232/171 97/233/140
f 119/232/171 112/231/158 110/234/154
f 108/235/172 119/232/171 110/234/154
f 119/232/171 108/235/172 106/236/150
f 104/237/148 119/232/171 106/236/150
f 119/232/171 104/237/148 102/238/146
f 119/232/171 102/238/146 95/239/136
f 115/240/173 119/232/171 95/239/136
f 116/241/168 119/232/171 115/240/173
f 119/232/171 116/241/168 117/242/167
f 90/243/130 119/232/171 117/242/174
f 119/232/171 90/243/130 97/233/140
f 21/26/29 15/244/17 13/24/15
f 24/28/31 14/14/16 10/10/11
f 33/245/39 19/48/21 20/246/23
f 19/48/21 33/245/39 31/47/38
f 9/59/10 3/62/53 37/65/44
f 3/3/175 9/9/10 1/1/12
f 9/59/10 37/65/44 25/60/176
f 25/29/32 37/41/44 27/30/33
