# Blender v2.79 (sub 0) OBJ File: ''
# www.blender.org
mtllib dualswordsb4l.mtl
o MDL_w2dswb4l_edg01
v 0.013300 -0.497800 0.261500
v 0.000000 -0.448900 0.239000
v 0.000000 -0.482000 0.292800
v 0.000000 -0.476900 0.227000
v 0.000000 -0.466900 0.149200
v 0.000000 -0.512400 0.243400
v 0.000000 -0.551700 0.332600
v 0.005300 -0.487800 0.147500
v 0.000000 -0.508800 0.146100
v -0.013400 -0.497800 0.261500
v -0.005300 -0.487800 0.147500
vt 0.382800 0.867200
vt 0.328100 0.929700
vt 0.484400 0.918000
vt 0.304700 0.902300
vt 0.007800 0.902300
vt 0.601600 0.839800
vt 0.382800 0.839800
vt 0.007800 0.867200
vt 0.007800 0.839800
vt 0.382800 0.867200
vt 0.007800 0.867200
vn 0.9975 0.0701 -0.0098
vn 0.0020 0.9868 -0.1618
vn 0.0014 0.7079 0.7063
vn 0.0020 0.9630 -0.2695
vn 0.0013 0.9992 0.0390
vn 0.0041 -0.9622 0.2723
vn 0.0014 -0.9697 -0.2443
vn 0.9760 -0.2098 -0.0582
vn -0.0000 -0.9993 -0.0369
vn 0.0013 0.7078 0.7064
vn -0.9975 0.0705 -0.0099
vn -0.9975 0.0705 -0.0100
vn 0.0041 -0.9622 0.2722
vn -0.9975 0.0704 -0.0099
vn 0.0019 0.9630 -0.2696
vn 0.0014 0.9992 0.0391
vn 0.0020 0.9630 -0.2696
vn 0.0019 0.9868 -0.1618
vn -0.9757 -0.2109 -0.0588
vn -0.9757 -0.2108 -0.0588
usemtl TEX_w2dswb4l

f 1/1/1 2/2/2 3/3/3
f 2/2/2 1/1/1 4/4/4
f 5/5/5 4/4/4 1/1/1
f 1/1/1 7/6/6 6/7/7
f 6/7/7 8/8/8 1/1/1
f 1/1/1 8/8/8 5/5/5
f 6/7/7 9/9/9 8/8/8
f 7/6/6 1/1/1 3/3/10
f 2/2/2 10/10/11 3/3/10
f 10/10/12 6/7/7 7/6/13
f 7/6/6 3/3/10 10/10/11
f 10/10/14 4/4/15 5/5/16
f 4/4/17 10/10/12 2/2/18
f 10/10/14 5/5/16 11/11/19
f 11/11/20 6/7/7 10/10/12
f 11/11/20 9/9/9 6/7/7
o MDL_w2dswb4l_edg04
v 0.000000 -0.652300 0.119800
v -0.006900 -0.702400 0.060800
v 0.006900 -0.702400 0.060800
v 0.000000 -0.646900 0.085900
v 0.005800 -0.736500 0.036100
v -0.005800 -0.736500 0.036100
v 0.000000 -0.689100 0.043400
v 0.000000 -0.664000 0.037700
v 0.000000 -0.719000 0.015700
vt 0.601600 0.839800
vt 0.382800 0.839800
vt 0.382800 0.867200
vt 0.484400 0.918000
vt 0.007800 0.839800
vt 0.007800 0.867200
vt 0.304700 0.902300
vt 0.328100 0.929700
vt 0.007800 0.902300
vn 0.0001 -0.6139 0.7894
vn -0.9496 -0.2550 0.1821
vn 0.8638 -0.3641 0.3482
vn -0.0000 0.9919 -0.1273
vn 0.8638 -0.3642 0.3482
vn -0.7918 -0.3583 0.4946
vn 0.9693 -0.1440 0.1991
vn 0.0000 0.2329 -0.9725
vn -0.0000 0.1001 -0.9950
vn -0.9497 -0.2550 0.1820
vn -0.7918 -0.3582 0.4948
vn 0.0000 0.6796 -0.7336
vn 0.9693 -0.1439 0.1991
vn 0.0000 0.9919 -0.1272
usemtl TEX_w2dswb4l

f 12/12/21 13/13/22 14/14/23
f 13/13/22 12/12/21 15/15/24
f 14/14/25 15/15/24 12/12/21
f 14/14/23 17/16/26 16/17/27
f 16/17/27 18/18/28 14/14/23
f 19/19/29 14/14/23 18/18/28
f 18/18/28 13/13/30 19/19/29
f 17/16/31 14/14/23 13/13/22
f 13/13/22 18/18/28 17/16/31
f 20/20/32 17/16/31 18/18/28
f 18/18/28 16/17/33 20/20/32
f 19/19/29 15/15/34 14/14/23
f 15/15/34 19/19/29 13/13/30
o MDL_w2dswb4l_bod00
v 0.000000 -1.036800 -0.231600
v 0.000000 -0.898100 -0.232800
v 0.007800 -0.927800 -0.175300
v -0.008100 -0.927800 -0.175300
v -0.008100 -0.991800 -0.179100
v 0.000000 -0.212800 -0.022200
v -0.000900 -0.281800 -0.058700
v 0.038800 -0.301500 -0.003700
v -0.038800 -0.301500 -0.003700
v -0.020900 -0.209300 -0.000000
v -0.027500 -0.249600 0.051200
v 0.020900 -0.209300 -0.000000
v 0.027200 -0.249300 0.051200
v 0.021600 -0.113700 0.007200
v 0.000000 -0.107800 -0.015000
v -0.021600 -0.113700 0.007200
v 0.015300 -0.034600 0.056600
v 0.000000 -0.021500 0.043700
v -0.015300 -0.034600 0.056600
v 0.015300 -0.017400 0.097800
v 0.000000 0.000700 0.107500
v -0.015300 -0.017400 0.097800
v 0.000000 -0.181200 0.181900
v -0.015300 -0.172400 0.146900
v 0.000000 -0.168700 0.121600
v 0.015300 -0.172400 0.146900
v 0.000000 -0.038100 0.090600
v 0.000000 -0.207100 0.142200
v 0.000000 -0.210600 0.053800
v 0.000000 -0.206200 0.020600
v 0.000000 -0.118100 0.025600
v 0.000000 -0.046200 0.070600
v 0.007800 -0.991800 -0.179100
v 0.000000 -1.137100 -0.111600
v 0.007800 -0.859600 -0.128100
v 0.000000 -0.824300 -0.180600
v -0.008100 -0.859600 -0.128100
v 0.000000 -0.238400 0.157500
v 0.000000 -0.528400 -0.011300
v 0.000000 -0.476200 -0.034700
v 0.028800 -0.435600 0.065600
v 0.000000 -0.778700 -0.198400
v 0.000000 -0.699900 -0.071600
v 0.011900 -0.779600 0.004100
v 0.011900 -0.534000 0.155900
v 0.000000 -0.612100 -0.023700
v 0.011900 -0.656800 0.112200
v 0.021600 -0.436800 -0.032200
v 0.000000 -0.483100 -0.117200
v 0.000000 -0.474900 -0.122200
v -0.021600 -0.436800 -0.032200
v -0.011900 -0.534000 0.155900
v 0.020900 -0.382400 0.181300
v -0.020900 -0.382400 0.181300
v -0.011900 -0.656800 0.112200
v -0.011900 -0.779600 0.004100
v -0.027200 -0.439600 0.070300
v -0.032500 -0.405600 0.123100
v 0.000000 -0.368700 -0.074400
v 0.000000 -0.506200 -0.205000
v 0.000000 -0.346800 -0.207200
v 0.026900 -0.278400 0.075000
v -0.027200 -0.278400 0.075000
v 0.041300 -0.302400 0.055000
v 0.073100 -0.199300 -0.073400
v -0.041300 -0.302400 0.055000
v 0.037500 -0.302400 0.089100
v 0.049700 -0.414000 0.061600
v -0.037500 -0.302400 0.089100
v 0.000000 -0.260300 0.171900
v -0.001200 -0.309000 0.193100
v 0.000000 -0.337100 0.163700
v -0.050000 -0.414000 0.061600
v -0.039100 -0.473400 0.007800
v -0.073100 -0.199300 -0.073400
v 0.032200 -0.405600 0.123100
v 0.062800 -0.530600 0.123800
v -0.056600 -0.585600 0.052500
v 0.056200 -0.585300 0.048100
v 0.038800 -0.472400 0.007200
v 0.056600 -0.585600 0.056900
v -0.063100 -0.540300 0.115000
vt 0.554700 0.085900
vt 0.468800 0.183600
vt 0.679700 0.312500
vt 0.679700 0.312500
vt 0.679700 0.183600
vt 0.734400 0.750000
vt 0.828100 0.668000
vt 0.671900 0.687500
vt 0.828100 0.668000
vt 0.828100 0.750000
vt 0.734400 0.714800
vt 0.828100 0.750000
vt 0.734400 0.714800
vt 0.007800 0.941400
vt 0.242200 0.968800
vt 0.007800 0.968800
vt 0.242200 0.941400
vt 0.242200 0.968800
vt 0.007800 0.941400
vt 0.242200 0.968800
vt 0.007800 0.968800
vt 0.242200 0.941400
vt 0.242200 0.968800
vt 0.828100 0.941400
vt 0.703100 0.906300
vt 0.835900 0.929700
vt 0.664100 0.925800
vt 0.703100 0.906300
vt 0.664100 0.816400
vt 0.718800 0.796900
vt 0.750000 0.808600
vt 0.718800 0.796900
vt 0.742200 0.882800
vt 0.648400 0.769500
vt 0.703100 0.761700
vt 0.773400 0.929700
vt 0.992200 0.976600
vt 0.992200 0.945300
vt 0.773400 0.964800
vt 0.953100 0.996100
vt 0.992200 0.976600
vt 0.007800 0.996100
vt 0.242200 0.996100
vt 0.843800 0.906300
vt 0.835900 0.929700
vt 0.679700 0.183600
vt 0.679700 0.003900
vt 0.679700 0.496100
vt 0.429700 0.496100
vt 0.679700 0.496100
vt 0.734400 0.750000
vt 0.789100 0.753900
vt 0.007800 0.996100
vt 0.242200 0.996100
vt 0.007800 0.968800
vt 0.007800 0.968800
vt 0.773400 0.929700
vt 0.992200 0.898400
vt 0.007800 0.523400
vt 0.007800 0.707000
vt 0.171900 0.707000
vt 0.007800 0.003900
vt 0.429700 0.003900
vt 0.179700 0.039100
vt 0.429700 0.003900
vt 0.007800 0.257800
vt 0.398400 0.257800
vt 0.398400 0.562500
vt 0.007800 0.410200
vt 0.398400 0.410200
vt 0.484400 0.742200
vt 0.687500 0.714800
vt 0.484400 0.714800
vt 0.171900 0.730500
vt 0.171900 0.750000
vt 0.484400 0.742200
vt 0.882800 0.074200
vt 0.695300 0.136700
vt 0.882800 0.136700
vt 0.695300 0.074200
vt 0.882800 0.003900
vt 0.695300 0.003900
vt 0.882800 0.285200
vt 0.695300 0.363300
vt 0.882800 0.363300
vt 0.695300 0.285200
vt 0.882800 0.222700
vt 0.695300 0.222700
vt 0.171900 0.707000
vt 0.398400 0.257800
vt 0.398400 0.410200
vt 0.398400 0.562500
vt 0.312500 0.707000
vt 0.398400 0.707000
vt 0.882800 0.457000
vt 0.695300 0.496100
vt 0.882800 0.496100
vt 0.695300 0.457000
vt 0.882800 0.410200
vt 0.695300 0.410200
vt 0.789100 0.363300
vt 0.007800 0.785200
vt 0.460900 0.828100
vt 0.664100 0.890600
vt 0.007800 0.894500
vt 0.539100 0.925800
vt 0.664100 0.890600
vt 0.007800 0.867200
vt 0.687500 0.714800
vt 0.007800 0.757800
vt 0.835900 0.871100
vt 0.835900 0.871100
vt 0.781300 0.855500
vt 0.523400 0.996100
vt 0.781300 0.855500
vt 0.843800 0.859400
vt 0.679700 0.730500
vt 0.843800 0.859400
vt 0.992200 0.882800
vt 0.992200 0.800800
vt 0.968800 0.781300
vt 0.968800 0.726600
vt 0.679700 0.730500
vt 0.554700 0.660200
vt 0.835900 0.726600
vt 0.968800 0.726600
vt 0.523400 0.996100
vt 0.835900 0.726600
vt 0.812500 0.503900
vt 0.625000 0.878900
vt 0.781300 0.921900
vt 0.531300 0.992200
vt 0.781300 0.921900
vt 0.625000 0.878900
vt 0.531300 0.992200
vt 0.601600 0.503900
vt 0.632800 0.503900
vt 0.476600 0.738300
vt 0.593800 0.734400
vt 0.664100 0.746100
vt 0.601600 0.503900
vt 0.554700 0.660200
vt 0.632800 0.503900
vt 0.312500 0.707000
vt 0.476600 0.738300
vt 0.593800 0.734400
vt 0.546900 0.503900
vt 0.789100 0.214800
vt 0.664100 0.746100
vt 0.398400 0.707000
vt 0.781300 0.503900
vt 0.843800 0.742200
vt 0.742200 0.746100
vt 0.710900 0.503900
vt 0.742200 0.746100
vt 0.710900 0.503900
vt 0.843800 0.742200
vt 0.781300 0.503900
vn 0.0028 -0.2134 -0.9770
vn 0.0025 0.3821 -0.9241
vn 0.7645 -0.1572 0.6252
vn -0.7646 -0.2879 0.5766
vn -0.5947 0.0666 0.8012
vn -0.0020 0.1986 -0.9801
vn 0.9313 0.0774 -0.3558
vn -0.0131 0.7583 -0.6517
vn -0.9328 0.0762 -0.3522
vn -0.9145 0.4024 -0.0431
vn -0.9385 0.2767 0.2067
vn 0.9147 0.4020 -0.0420
vn 0.9385 0.2762 0.2072
vn 0.9989 0.0097 0.0452
vn -0.0000 0.4172 -0.9088
vn -0.9989 0.0097 0.0452
vn 0.0000 0.4173 -0.9088
vn -0.0021 0.1987 -0.9801
vn 0.9996 0.0114 0.0268
vn 0.9989 0.0098 0.0452
vn -0.0000 0.8511 -0.5249
vn -0.9996 0.0113 0.0268
vn -0.0000 0.8512 -0.5249
vn 0.9992 0.0162 -0.0354
vn 0.9996 0.0114 0.0269
vn -0.0000 0.9233 0.3840
vn -0.9992 0.0162 -0.0354
vn -0.0000 -0.0157 0.9999
vn -0.9982 0.0554 -0.0214
vn 0.0000 0.1370 -0.9906
vn 0.9982 0.0552 -0.0221
vn 0.0001 -0.8447 -0.5352
vn 0.0010 -0.6047 0.7964
vn 0.9385 0.2762 0.2073
vn 0.0010 -0.6048 0.7964
vn 0.0003 0.9949 -0.1006
vn 0.9982 0.0551 -0.0221
vn 0.0000 0.4711 0.8821
vn 0.9146 0.4021 -0.0420
vn -0.0000 -0.3564 0.9343
vn -0.0000 -0.8329 0.5534
vn -0.0000 -0.8447 -0.5352
vn -0.9996 0.0114 0.0268
vn 0.7587 0.1088 0.6424
vn 0.0007 0.3058 0.9521
vn 0.0025 0.3822 -0.9241
vn 0.8973 -0.3248 0.2990
vn 0.7645 -0.1572 0.6251
vn 0.0038 -0.0207 -0.9998
vn -0.8952 -0.3749 0.2408
vn 0.0003 0.9949 -0.1007
vn 0.9996 0.0113 0.0268
vn 0.0012 -0.2243 0.9745
vn -0.0073 -0.6537 -0.7567
vn -0.0022 -0.9742 -0.2257
vn 0.5425 -0.8399 -0.0140
vn 0.0040 -0.0609 -0.9981
vn 0.0003 0.6812 -0.7321
vn 0.5850 -0.6545 0.4790
vn 0.8412 -0.2190 0.4944
vn 0.0000 0.3329 -0.9430
vn -0.0073 -0.6538 -0.7566
vn 0.7443 -0.3780 0.5507
vn 0.9235 -0.3455 -0.1665
vn 0.0000 -0.9713 -0.2377
vn 0.0000 -0.9880 0.1547
vn -0.9211 -0.3490 -0.1724
vn -0.8441 -0.1901 0.5014
vn 0.5532 0.0988 0.8271
vn -0.6576 0.1603 0.7361
vn -0.7442 -0.2969 0.5984
vn 0.8412 -0.2191 0.4943
vn -0.7442 -0.2969 0.5983
vn 0.7443 -0.3780 0.5506
vn -0.5854 -0.5972 0.5484
vn 0.7442 -0.3780 0.5506
vn 0.5849 -0.6545 0.4790
vn -0.5474 -0.8347 -0.0602
vn -0.9561 -0.0551 0.2879
vn -0.8441 -0.1902 0.5014
vn -0.6577 0.1603 0.7361
vn -0.7646 -0.2878 0.5766
vn 0.0000 -0.9789 0.2042
vn 0.0000 -0.3410 -0.9401
vn 0.9314 0.0774 -0.3558
vn -0.0253 0.4878 -0.8726
vn -0.0252 0.4878 -0.8726
vn -0.0253 0.4879 -0.8725
vn -0.9328 0.0763 -0.3522
vn -0.5193 -0.4845 0.7040
vn 0.6670 -0.3939 0.6324
vn 0.8966 0.0101 0.4427
vn 0.9958 0.0292 0.0863
vn -0.8991 0.3235 0.2948
vn 0.8299 0.5182 0.2066
vn 0.9996 0.0151 -0.0228
vn -0.8991 0.3236 0.2948
vn -0.8938 0.3931 0.2158
vn -0.0007 0.9812 0.1929
vn 0.0055 -0.2511 0.9680
vn 0.0029 0.2740 0.9617
vn 0.5532 0.0988 0.8272
vn -0.9993 0.0114 -0.0359
vn -0.0187 -0.5689 -0.8222
vn -0.6577 0.1602 0.7361
vn -0.9385 0.2767 0.2066
vn -0.9957 0.0284 0.0876
vn -0.9957 0.0284 0.0877
vn 0.9601 -0.0487 0.2755
vn 0.5533 0.0988 0.8271
vn 0.3939 -0.6372 -0.6624
vn -0.5272 -0.2376 0.8158
vn 0.9659 -0.0396 -0.2558
vn -0.8077 -0.4201 -0.4137
vn -0.6225 -0.2384 0.7454
vn 0.5425 -0.8399 -0.0141
vn -0.6224 -0.2384 0.7455
vn 0.9659 -0.0396 -0.2559
vn -0.6576 0.1602 0.7361
vn 0.8412 -0.2190 0.4943
vn -0.1374 -0.6774 -0.7227
vn -0.1374 -0.6773 -0.7227
vn -0.8077 -0.4201 -0.4138
vn 0.7442 -0.3780 0.5507
vn 0.5849 -0.6545 0.4791
usemtl TEX_w2dswb4l

f 21/21/35 22/22/36 23/23/37
f 22/22/36 21/21/35 24/24/38
f 25/25/39 24/24/38 21/21/35
f 26/26/40 28/27/41 27/28/42
f 27/28/42 29/29/43 26/26/40
f 30/30/44 26/26/40 29/29/43
f 29/29/43 31/31/45 30/30/44
f 28/27/41 26/26/40 32/32/46
f 32/32/46 33/33/47 28/27/41
f 26/34/40 34/35/48 32/36/46
f 34/35/48 26/34/40 35/37/49
f 36/38/50 35/37/51 26/34/52
f 35/39/51 37/40/53 34/41/54
f 37/40/53 35/39/51 38/42/55
f 39/43/56 38/42/57 35/39/51
f 38/44/57 40/45/58 37/46/59
f 40/45/58 38/44/57 41/47/60
f 42/48/61 41/47/60 38/44/57
f 43/49/62 40/45/58 41/47/60
f 41/47/60 42/48/61 43/49/62
f 44/50/63 43/49/62 42/48/61
f 42/48/61 45/51/64 44/50/63
f 40/45/58 43/49/62 46/52/65
f 46/52/65 45/51/64 40/45/58
f 47/53/66 40/45/58 45/51/64
f 45/51/64 42/48/61 47/53/66
f 43/54/62 48/55/67 46/52/65
f 33/56/68 46/57/65 48/58/69
f 49/59/70 46/57/71 33/56/68
f 46/57/65 49/59/70 45/60/64
f 44/61/63 45/60/64 49/59/70
f 34/35/48 50/62/72 32/36/73
f 50/62/72 34/35/48 51/63/74
f 52/64/75 40/45/58 47/53/76
f 47/53/76 42/48/61 52/64/75
f 39/65/77 52/64/75 42/48/61
f 42/48/61 38/44/57 39/65/56
f 52/64/75 37/46/53 40/45/58
f 21/21/35 23/23/37 53/66/78
f 53/66/78 54/67/79 21/21/35
f 22/22/80 55/68/81 23/23/82
f 55/68/81 22/22/36 56/69/83
f 57/70/84 56/69/83 22/22/36
f 32/32/46 49/71/85 33/33/47
f 49/71/70 32/32/46 50/72/72
f 37/40/86 51/73/74 34/41/48
f 51/73/74 37/40/86 52/74/75
f 36/38/50 26/34/52 30/75/44
f 30/75/44 50/62/72 36/38/50
f 51/63/74 36/38/50 50/62/72
f 39/43/56 35/39/51 36/76/50
f 36/76/50 51/73/74 39/43/56
f 52/74/75 39/43/56 51/73/74
f 48/55/69 43/54/62 44/50/63
f 48/58/69 44/61/63 31/77/45
f 31/77/45 58/78/87 48/58/69
f 49/59/70 31/77/45 44/61/63
f 30/30/44 49/71/70 50/72/72
f 49/71/70 30/30/44 31/31/45
f 22/22/80 24/24/38 57/70/84
f 25/25/39 21/21/35 54/67/79
f 59/79/88 60/80/89 61/81/90
f 62/82/91 55/83/81 56/84/83
f 56/84/83 57/85/84 62/82/91
f 55/83/81 63/86/92 64/87/93
f 63/86/92 55/83/81 62/82/91
f 65/88/94 59/79/88 61/81/90
f 65/88/94 66/89/95 59/79/96
f 66/89/95 65/88/94 67/90/97
f 68/91/98 61/92/90 60/93/89
f 60/93/89 69/94/99 68/91/98
f 70/95/100 68/91/98 69/94/99
f 69/94/99 71/96/101 70/95/100
f 72/97/102 73/98/103 74/99/104
f 73/98/103 72/97/102 65/100/94
f 75/101/105 65/100/94 72/97/102
f 65/100/106 75/101/107 67/102/108
f 76/103/109 67/104/110 75/105/105
f 67/104/110 76/103/109 64/106/111
f 57/107/84 64/106/111 76/103/109
f 64/106/111 57/107/84 55/108/81
f 77/109/112 60/80/89 59/79/96
f 63/86/92 57/85/84 76/110/109
f 76/110/109 75/111/105 63/86/92
f 66/89/95 63/86/92 75/111/105
f 75/111/105 72/112/102 66/89/95
f 59/79/96 66/89/95 72/112/102
f 72/112/102 77/109/112 59/79/96
f 63/86/92 62/82/91 57/85/84
f 78/113/113 72/112/114 74/114/115
f 24/115/116 55/116/81 57/117/84
f 55/116/81 24/115/116 23/118/37
f 25/119/39 23/118/37 24/115/116
f 23/118/37 25/119/39 53/120/78
f 54/121/79 53/120/78 25/119/39
f 68/91/98 80/122/117 79/123/118
f 79/123/118 28/124/119 68/91/98
f 81/125/120 27/126/42 28/124/41
f 27/126/42 81/125/120 29/127/43
f 79/123/118 81/128/121 28/124/119
f 81/128/122 79/123/118 29/127/123
f 71/96/101 29/127/123 79/123/118
f 71/96/101 69/94/99 60/93/89
f 60/93/89 77/129/112 71/96/101
f 71/96/101 79/123/118 80/122/117
f 70/95/100 71/96/101 80/130/117
f 70/95/100 80/130/117 68/91/98
f 58/78/87 83/131/124 82/132/125
f 82/132/125 33/56/68 58/78/87
f 48/58/69 58/78/87 33/56/68
f 84/133/126 82/132/125 83/131/124
f 82/132/125 84/133/126 33/56/68
f 85/134/127 33/56/68 84/133/126
f 84/133/126 83/131/124 86/135/128
f 86/135/128 87/136/129 84/133/126
f 88/137/130 84/133/126 87/136/129
f 87/136/129 86/135/131 89/138/132
f 89/138/132 90/139/133 87/136/129
f 91/140/134 87/136/129 90/139/133
f 90/139/133 89/138/132 91/140/134
f 92/141/135 91/140/134 89/138/132
f 91/140/134 92/141/135 87/136/129
f 73/142/136 87/136/129 92/141/135
f 31/77/45 83/131/124 58/78/87
f 93/143/137 29/127/123 71/96/101
f 71/96/101 94/144/138 93/143/137
f 89/138/132 78/145/113 74/146/139
f 78/145/113 89/138/132 93/143/137
f 86/135/128 83/131/124 31/77/140
f 95/147/141 86/135/131 31/77/45
f 29/127/123 86/135/128 95/147/142
f 89/138/132 86/135/131 93/143/137
f 96/148/143 87/136/129 73/142/144
f 84/133/126 28/124/119 85/134/127
f 28/124/119 84/133/126 88/137/130
f 88/137/130 87/136/129 96/148/143
f 96/148/143 97/149/145 88/137/130
f 28/150/41 33/151/47 85/152/127
f 31/153/45 29/154/43 95/155/142
f 93/143/137 94/144/138 98/156/146
f 98/157/146 94/158/138 77/159/112
f 77/159/112 93/160/137 98/157/146
f 71/96/101 77/129/112 94/144/138
f 88/137/130 99/161/147 100/162/148
f 99/161/147 88/137/130 101/163/149
f 65/88/94 61/81/150 96/164/143
f 100/165/148 101/163/151 61/166/90
f 101/163/151 100/165/148 99/167/152
f 74/146/153 92/141/135 89/138/132
f 74/99/153 73/98/103 92/168/135
f 61/166/90 101/163/151 88/169/130
f 68/91/98 28/124/119 88/137/130
f 86/135/128 29/127/123 93/143/137
f 65/88/154 96/164/143 73/170/144
f 77/109/112 72/112/102 78/113/113
f 97/171/145 96/172/143 61/173/150
f 61/173/90 88/169/130 97/174/145
f 93/160/137 77/175/112 102/176/155
f 78/145/113 93/143/137 102/176/156
f 77/175/112 78/177/113 102/178/155
f 100/162/148 61/92/90 68/91/98
f 100/162/157 68/91/98 88/137/130
f 67/90/158 63/86/92 66/89/95
f 63/86/92 67/90/158 64/87/159
o MDL_w2dswb4l_edg00
v 0.006900 -0.481600 0.257900
v 0.000000 -0.605500 0.306300
v 0.000000 -0.501300 0.235100
v 0.000000 -0.507800 0.318200
v 0.000000 -0.438400 0.246500
v 0.000000 -0.414100 0.271800
v 0.004400 -0.420700 0.143500
v 0.000000 -0.436000 0.136900
v 0.000000 -0.402100 0.151000
v -0.007000 -0.481600 0.257900
v -0.004400 -0.420700 0.143500
vt 0.382800 0.867200
vt 0.601600 0.839800
vt 0.382800 0.839800
vt 0.484400 0.918000
vt 0.304700 0.902300
vt 0.328100 0.929700
vt 0.007800 0.867200
vt 0.007800 0.839800
vt 0.007800 0.902300
vt 0.382800 0.867200
vt 0.007800 0.867200
vn 0.9994 0.0339 -0.0043
vn 0.0028 -0.8750 -0.4841
vn 0.0010 -0.7637 -0.6456
vn 0.0011 0.2247 0.9744
vn 0.0015 0.9840 -0.1779
vn 0.0020 0.9930 0.1180
vn 0.9953 -0.0731 -0.0632
vn 0.0000 -0.8327 -0.5537
vn 0.0006 0.9277 0.3733
vn -0.9994 0.0341 -0.0046
vn 0.0010 0.2247 0.9744
vn -0.9952 -0.0738 -0.0642
vn 0.0006 0.9277 0.3732
usemtl TEX_w2dswb4l

f 103/179/160 104/180/161 105/181/162
f 104/180/161 103/179/160 106/182/163
f 103/179/160 107/183/164 108/184/165
f 109/185/166 105/181/162 110/186/167
f 105/181/162 109/185/166 103/179/160
f 111/187/168 103/179/160 109/185/166
f 103/179/160 111/187/168 107/183/164
f 112/188/169 107/183/164 111/187/168
f 103/179/160 108/184/165 106/182/170
f 105/181/162 104/180/161 112/188/169
f 112/188/169 113/189/171 105/181/162
f 110/186/167 105/181/162 113/189/171
f 108/184/165 107/183/164 112/188/169
f 112/188/169 106/182/170 108/184/165
f 111/187/172 113/189/171 112/188/169
f 106/182/170 112/188/169 104/180/161
o MDL_w2dswb4l_edg02
v 0.000000 -0.505400 0.183500
v 0.000000 -0.511600 0.248400
v 0.007800 -0.556000 0.211400
v 0.000000 -0.570600 0.305000
v 0.000000 -0.534700 0.179300
v -0.005000 -0.577000 0.131600
v 0.004800 -0.577000 0.131600
v -0.008000 -0.556000 0.211400
v 0.000000 -0.549700 0.120300
vt 0.328100 0.929700
vt 0.484400 0.918000
vt 0.382800 0.867200
vt 0.601600 0.839800
vt 0.304700 0.902300
vt 0.007800 0.839800
vt 0.007800 0.867200
vt 0.382800 0.839800
vt 0.007800 0.902300
vn 0.0034 0.6898 -0.7240
vn 0.0020 0.9143 0.4051
vn 0.8506 -0.5248 0.0341
vn 0.0005 -0.9986 0.0531
vn 0.8506 -0.5248 0.0342
vn 0.0036 0.7571 -0.6533
vn 0.0033 0.6898 -0.7240
vn -0.7753 -0.6140 0.1477
vn 0.9552 -0.2900 0.0592
vn -0.9383 -0.3449 -0.0241
vn 0.0006 -0.9986 0.0532
vn 0.0035 0.7571 -0.6533
vn 0.0033 0.9692 -0.2464
vn 0.0020 0.9142 0.4052
usemtl TEX_w2dswb4l

f 114/190/173 115/191/174 116/192/175
f 115/191/174 117/193/176 116/192/177
f 118/194/178 114/190/179 116/192/175
f 116/192/175 119/195/180 120/196/181
f 119/195/180 116/192/175 121/197/182
f 117/193/183 121/197/182 116/192/175
f 121/197/182 117/193/183 115/191/174
f 120/196/181 118/194/184 116/192/175
f 118/194/184 120/196/181 122/198/185
f 115/191/186 114/190/179 121/197/182
f 121/197/182 114/190/179 118/194/178
f 118/194/178 119/195/180 121/197/182
f 118/194/178 122/198/185 119/195/180
o MDL_w2dswb4l_edg05
v 0.000000 -0.740500 0.054700
v -0.006900 -0.776500 -0.012000
v 0.006900 -0.776500 -0.012000
v 0.000000 -0.729200 0.022200
v 0.005800 -0.804100 -0.035900
v -0.005800 -0.804100 -0.035900
v 0.000000 -0.764700 -0.029100
v 0.000000 -0.739100 -0.030500
v 0.000000 -0.785000 -0.052300
vt 0.601600 0.839800
vt 0.382800 0.839800
vt 0.382800 0.867200
vt 0.484400 0.918000
vt 0.007800 0.839800
vt 0.007800 0.867200
vt 0.304700 0.902300
vt 0.328100 0.929700
vt 0.007800 0.902300
vn 0.0001 -0.7596 0.6504
vn -0.9516 -0.2694 0.1477
vn 0.8674 -0.3932 0.3050
vn -0.0000 0.9995 0.0318
vn 0.8674 -0.3931 0.3050
vn -0.7958 -0.3957 0.4584
vn 0.9722 -0.1525 0.1779
vn -0.0000 0.3869 -0.9221
vn -0.0000 0.3283 -0.9446
vn -0.9516 -0.2695 0.1476
vn 0.0000 0.3870 -0.9221
vn 0.0000 0.7526 -0.6585
vn 0.9722 -0.1525 0.1780
usemtl TEX_w2dswb4l

f 123/199/187 124/200/188 125/201/189
f 124/200/188 123/199/187 126/202/190
f 125/201/191 126/202/190 123/199/187
f 125/201/191 128/203/192 127/204/193
f 127/204/193 129/205/194 125/201/191
f 130/206/195 125/201/191 129/205/194
f 129/205/194 124/200/196 130/206/195
f 128/203/192 125/201/189 124/200/188
f 124/200/188 129/205/197 128/203/192
f 131/207/198 128/203/192 129/205/197
f 129/205/197 127/204/199 131/207/198
f 130/206/195 126/202/190 125/201/191
f 126/202/190 130/206/195 124/200/196
o MDL_w2dswb4l_edg03
v 0.000000 -0.610900 0.213100
v -0.007200 -0.632700 0.147200
v 0.007200 -0.632700 0.147200
v 0.000000 -0.587100 0.169500
v 0.005800 -0.674000 0.090500
v -0.005800 -0.674000 0.090500
v 0.000000 -0.626600 0.114400
v 0.000000 -0.598000 0.117400
v 0.000000 -0.650200 0.075600
vt 0.601600 0.839800
vt 0.382800 0.839800
vt 0.382800 0.867200
vt 0.484400 0.918000
vt 0.007800 0.839800
vt 0.007800 0.867200
vt 0.304700 0.902300
vt 0.328100 0.929700
vt 0.007800 0.902300
vn 0.0000 -0.8428 0.5383
vn -0.9453 -0.2979 0.1329
vn 0.8585 -0.4478 0.2498
vn -0.0000 0.9945 0.1044
vn 0.8585 -0.4479 0.2498
vn -0.7855 -0.5009 0.3635
vn 0.9647 -0.2136 0.1541
vn -0.0000 0.6334 -0.7738
vn 0.0000 0.6206 -0.7841
vn -0.7855 -0.5008 0.3636
vn 0.0000 0.8544 -0.5197
vn 0.9647 -0.2136 0.1542
vn 0.0000 0.9945 0.1045
usemtl TEX_w2dswb4l

f 132/208/200 133/209/201 134/210/202
f 133/209/201 132/208/200 135/211/203
f 134/210/202 135/211/203 132/208/200
f 134/210/204 137/212/205 136/213/206
f 136/213/206 138/214/207 134/210/204
f 139/215/208 134/210/204 138/214/207
f 138/214/207 133/209/201 139/215/208
f 137/212/209 134/210/202 133/209/201
f 133/209/201 138/214/207 137/212/209
f 140/216/210 137/212/209 138/214/207
f 138/214/207 136/213/211 140/216/210
f 139/215/208 135/211/212 134/210/204
f 135/211/212 139/215/208 133/209/201
