# Blender v2.79 (sub 0) OBJ File: ''
# www.blender.org
mtllib dualswordsa3l.mtl
o MDL_w2dswa3l_bod00
v 0.016900 -0.268300 -0.026900
v 0.012500 -0.322100 -0.054100
v 0.012800 -0.290200 -0.024100
v 0.014100 -0.310200 -0.068200
v 0.017500 -0.267100 -0.016300
v 0.012200 -0.368600 -0.085400
v 0.012200 -0.370200 -0.070400
v 0.010900 -0.420800 -0.076600
v 0.010900 -0.414600 -0.065400
v 0.010000 -0.457100 -0.051300
v 0.010000 -0.449300 -0.046300
v 0.000000 -0.268300 -0.032200
v -0.014400 -0.310200 -0.068200
v -0.016900 -0.268300 -0.026900
v 0.012800 -0.286100 -0.000100
v -0.012800 -0.290200 -0.024100
v -0.012800 -0.286100 -0.000100
v -0.012500 -0.322100 -0.054100
v -0.012500 -0.370200 -0.070400
v -0.010900 -0.414600 -0.065400
v -0.010300 -0.449300 -0.046300
v 0.017800 -0.264900 -0.000100
v 0.015900 -0.247400 -0.028500
v 0.000000 -0.248000 -0.042600
v 0.000000 -0.268000 -0.025700
v 0.011900 -0.264900 -0.000100
v 0.021300 -0.207100 -0.000100
v -0.017800 -0.267100 -0.016300
v -0.012500 -0.368600 -0.085400
v -0.010900 -0.420800 -0.076600
v -0.010300 -0.457100 -0.051300
v -0.017800 -0.264900 -0.000100
v -0.012200 -0.264900 -0.000100
v -0.015900 -0.247400 -0.028500
v -0.021300 -0.207100 -0.000100
v 0.000000 -0.038000 -0.027200
v 0.026900 -0.038000 -0.000100
v -0.026900 -0.038000 -0.000100
v -0.026900 -0.000500 -0.000100
v 0.000000 -0.000500 -0.027200
v 0.026900 -0.000500 -0.000100
v 0.016900 -0.268300 0.027100
v 0.012800 -0.290200 0.024300
v 0.012500 -0.322100 0.054300
v 0.017500 -0.267100 0.016500
v 0.014100 -0.310200 0.068400
v 0.012200 -0.368600 0.085600
v 0.012200 -0.370200 0.070600
v 0.010900 -0.420800 0.076800
v 0.010900 -0.414600 0.065600
v 0.010000 -0.457100 0.051500
v 0.010000 -0.449300 0.046500
v 0.000000 -0.268300 0.032400
v -0.012800 -0.290200 0.024300
v -0.012500 -0.322100 0.054300
v -0.012500 -0.370200 0.070600
v -0.010900 -0.414600 0.065600
v 0.015900 -0.247400 0.028700
v 0.000000 -0.248000 0.042800
v -0.016900 -0.268300 0.027100
v -0.015900 -0.247400 0.028700
v 0.000000 -0.268000 0.025900
v -0.014400 -0.310200 0.068400
v -0.017800 -0.267100 0.016500
v -0.012500 -0.368600 0.085600
v -0.010900 -0.420800 0.076800
v -0.010300 -0.457100 0.051500
v -0.010300 -0.449300 0.046500
v 0.000000 -0.038000 0.027400
v 0.000000 -0.000500 0.027400
v -0.016900 -0.048300 -0.000100
v 0.000000 -0.268900 -0.017600
v -0.016900 -0.268900 -0.000100
v 0.000000 -0.048300 -0.017600
v 0.016900 -0.268900 -0.000100
v 0.016900 -0.048300 -0.000100
v 0.000000 -0.268900 0.017400
v 0.000000 -0.048300 0.017400
v -0.016900 -0.036100 -0.000100
v 0.000000 -0.036100 0.017400
v 0.000000 -0.036100 -0.017600
v 0.016900 -0.036100 -0.000100
v 0.005300 -0.506800 0.032400
v 0.005300 -0.506800 -0.032200
v 0.005300 -0.525500 -0.040700
v 0.005900 -0.444300 -0.032200
v 0.005900 -0.444300 0.032400
v 0.005900 -0.431100 0.038400
v 0.005300 -0.525500 0.040900
v 0.005300 -0.536800 -0.031900
v 0.005300 -0.597400 0.036500
v 0.005300 -0.597400 -0.036300
v 0.005300 -0.615200 -0.050100
v 0.005300 -0.536800 0.032100
v 0.005300 -0.615200 0.049900
v 0.005300 -0.651100 -0.036300
v -0.005900 -0.444300 0.032400
v -0.005900 -0.431100 0.038400
v 0.003100 -0.372700 0.029000
v -0.003100 -0.372700 0.029000
v 0.004400 -0.328600 0.026500
v -0.004400 -0.328600 0.026500
v -0.005300 -0.615200 0.049900
v -0.005300 -0.597400 0.036500
v -0.005300 -0.536800 0.032100
v -0.005300 -0.525500 0.040900
v -0.005300 -0.506800 0.032400
v 0.005300 -0.907700 0.036500
v 0.005300 -0.651100 0.036500
v 0.005300 -0.907700 -0.036300
v 0.005900 -0.431100 -0.038200
v 0.004100 -0.372700 -0.000100
v -0.005300 -0.907700 -0.036300
v -0.005300 -0.907700 0.036500
v -0.005300 -0.651100 0.036500
v -0.005900 -0.444300 -0.032200
v -0.005900 -0.431100 -0.038200
v -0.005300 -0.506800 -0.032200
v -0.005300 -0.525500 -0.040700
v -0.005300 -0.536800 -0.031900
v -0.005300 -0.597400 -0.036300
v -0.005300 -0.615200 -0.050100
v -0.005300 -0.651100 -0.036300
v -0.004400 -0.372700 -0.000100
v 0.003100 -0.372700 -0.029100
v -0.003100 -0.372700 -0.029100
v 0.004400 -0.328600 -0.026300
v -0.004400 -0.328600 -0.026300
v 0.004400 -0.285200 -0.000100
v 0.004400 -0.285200 0.024300
v 0.004400 -0.299600 0.041800
v -0.004400 -0.299600 0.041800
v -0.004400 -0.285200 -0.000100
v -0.004400 -0.285200 0.024300
v 0.004400 -0.299600 -0.041900
v 0.004400 -0.285200 -0.024100
v -0.004400 -0.299600 -0.041900
v -0.004400 -0.285200 -0.024100
vt 0.343800 0.031300
vt 0.226600 0.035200
vt 0.226600 0.085900
vt 0.343800 0.085900
vt 0.343800 0.015600
vt 0.343800 0.148400
vt 0.226600 0.148400
vt 0.343800 0.210900
vt 0.226600 0.210900
vt 0.343800 0.253900
vt 0.226600 0.253900
vt 0.109400 0.027300
vt 0.007800 0.027300
vt 0.007800 0.085900
vt 0.210900 0.085900
vt 0.210900 0.027300
vt 0.007800 0.039100
vt 0.210900 0.039100
vt 0.210900 0.062500
vt 0.007800 0.062500
vt 0.210900 0.085900
vt 0.007800 0.085900
vt 0.210900 0.140600
vt 0.007800 0.140600
vt 0.210900 0.203100
vt 0.007800 0.203100
vt 0.007800 0.261700
vt 0.210900 0.261700
vt 0.343800 0.007800
vt 0.226600 0.007800
vt 0.117200 0.722700
vt 0.015600 0.597700
vt 0.179700 0.597700
vt 0.390600 0.722700
vt 0.304700 0.597700
vt 0.179700 0.597700
vt 0.414100 0.003900
vt 0.367200 0.125000
vt 0.414100 0.125000
vt 0.367200 0.011700
vt 0.000000 0.328100
vt 0.007800 0.578100
vt 0.171900 0.585900
vt 0.414100 0.171900
vt 0.343800 0.031300
vt 0.226600 0.085900
vt 0.226600 0.035200
vt 0.343800 0.015600
vt 0.343800 0.085900
vt 0.343800 0.148400
vt 0.226600 0.148400
vt 0.343800 0.210900
vt 0.226600 0.210900
vt 0.343800 0.253900
vt 0.226600 0.253900
vt 0.210900 0.003900
vt 0.007800 0.019500
vt 0.007800 0.003900
vt 0.210900 0.019500
vt 0.210900 0.148400
vt 0.007800 0.148400
vt 0.210900 0.187500
vt 0.007800 0.187500
vt 0.210900 0.257800
vt 0.007800 0.257800
vt 0.343800 0.007800
vt 0.226600 0.007800
vt 0.453100 0.011700
vt 0.015600 0.597700
vt 0.117200 0.722700
vt 0.453100 0.125000
vt 0.171900 0.585900
vt 0.007800 0.578100
vt 0.000000 0.328100
vt 0.304700 0.507800
vt 0.414100 0.171900
vt 0.304700 0.507800
vt 0.250000 0.730500
vt 0.250000 0.851600
vt 0.007800 0.730500
vt 0.007800 0.851600
vt 0.250000 0.851600
vt 0.007800 0.851600
vt 0.007800 0.730500
vt 0.250000 0.730500
vt 0.007800 0.730500
vt 0.250000 0.851600
vt 0.343800 0.031300
vt 0.226600 0.085900
vt 0.226600 0.035200
vt 0.343800 0.015600
vt 0.343800 0.085900
vt 0.343800 0.148400
vt 0.226600 0.148400
vt 0.343800 0.210900
vt 0.226600 0.210900
vt 0.343800 0.253900
vt 0.226600 0.253900
vt 0.007800 0.085900
vt 0.007800 0.027300
vt 0.109400 0.027300
vt 0.210900 0.062500
vt 0.007800 0.062500
vt 0.210900 0.085900
vt 0.007800 0.085900
vt 0.210900 0.140600
vt 0.007800 0.140600
vt 0.210900 0.203100
vt 0.007800 0.203100
vt 0.007800 0.261700
vt 0.117200 0.722700
vt 0.179700 0.597700
vt 0.015600 0.597700
vt 0.390600 0.722700
vt 0.304700 0.597700
vt 0.179700 0.597700
vt 0.117200 0.722700
vt 0.414100 0.003900
vt 0.414100 0.125000
vt 0.367200 0.125000
vt 0.171900 0.585900
vt 0.343800 0.031300
vt 0.226600 0.035200
vt 0.226600 0.085900
vt 0.343800 0.085900
vt 0.343800 0.015600
vt 0.343800 0.148400
vt 0.226600 0.148400
vt 0.343800 0.210900
vt 0.226600 0.210900
vt 0.343800 0.253900
vt 0.226600 0.253900
vt 0.210900 0.085900
vt 0.210900 0.027300
vt 0.210900 0.003900
vt 0.007800 0.003900
vt 0.007800 0.019500
vt 0.210900 0.019500
vt 0.210900 0.148400
vt 0.007800 0.148400
vt 0.210900 0.187500
vt 0.007800 0.187500
vt 0.210900 0.261700
vt 0.210900 0.257800
vt 0.007800 0.257800
vt 0.015600 0.597700
vt 0.453100 0.125000
vt 0.171900 0.585900
vt 0.304700 0.507800
vt 0.304700 0.507800
vt 0.250000 0.730500
vt 0.250000 0.851600
vt 0.250000 0.730500
vt 0.007800 0.929700
vt 0.500000 0.996100
vt 0.500000 0.929700
vt 0.007800 0.996100
vt 0.500000 0.929700
vt 0.007800 0.929700
vt 0.500000 0.859400
vt 0.007800 0.859400
vt 0.382800 0.851600
vt 0.500000 0.781300
vt 0.382800 0.781300
vt 0.265600 0.851600
vt 0.500000 0.851600
vt 0.382800 0.781300
vt 0.382800 0.851600
vt 0.265600 0.781300
vt 0.562500 0.761700
vt 0.945300 0.730500
vt 0.898400 0.761700
vt 0.898400 0.820300
vt 0.570300 0.820300
vt 0.546900 0.855500
vt 0.523400 0.730500
vt 0.898400 0.710900
vt 0.546900 0.609400
vt 0.984400 0.582000
vt 0.914100 0.609400
vt 0.570300 0.710900
vt 0.484400 0.582000
vt 0.921900 0.503900
vt 0.476600 0.425800
vt 0.523400 0.410200
vt 0.476600 0.410200
vt 0.523400 0.425800
vt 0.476600 0.460900
vt 0.523400 0.460900
vt 0.476600 0.488300
vt 0.523400 0.488300
vt 0.476600 0.289100
vt 0.523400 0.273400
vt 0.476600 0.273400
vt 0.523400 0.289100
vt 0.476600 0.359400
vt 0.523400 0.359400
vt 0.476600 0.367200
vt 0.523400 0.367200
vt 0.476600 0.378900
vt 0.523400 0.378900
vt 0.562500 0.007800
vt 0.562500 0.503900
vt 0.921900 0.007800
vt 0.921900 0.855500
vt 0.734400 0.976600
vt 0.609400 0.976600
vt 0.476600 0.023400
vt 0.523400 0.144500
vt 0.476600 0.144500
vt 0.523400 0.023400
vt 0.523400 0.250000
vt 0.476600 0.250000
vt 0.523400 0.003900
vt 0.476600 0.003900
vt 0.898400 0.820300
vt 0.546900 0.855500
vt 0.921900 0.855500
vt 0.570300 0.820300
vt 0.562500 0.761700
vt 0.898400 0.761700
vt 0.945300 0.730500
vt 0.523400 0.730500
vt 0.898400 0.710900
vt 0.570300 0.710900
vt 0.546900 0.609400
vt 0.914100 0.609400
vt 0.484400 0.582000
vt 0.984400 0.582000
vt 0.921900 0.503900
vt 0.562500 0.503900
vt 0.562500 0.007800
vt 0.921900 0.007800
vt 0.734400 0.976600
vt 0.609400 0.976600
vt 0.617200 0.996100
vt 0.617200 0.996100
vt 0.523400 0.410200
vt 0.476600 0.425800
vt 0.476600 0.410200
vt 0.523400 0.378900
vt 0.523400 0.425800
vt 0.476600 0.460900
vt 0.523400 0.273400
vt 0.476600 0.289100
vt 0.476600 0.273400
vt 0.523400 0.250000
vt 0.523400 0.289100
vt 0.476600 0.359400
vt 0.523400 0.460900
vt 0.476600 0.488300
vt 0.523400 0.488300
vt 0.476600 0.378900
vt 0.523400 0.367200
vt 0.476600 0.367200
vt 0.523400 0.359400
vt 0.476600 0.250000
vt 0.523400 0.003900
vt 0.476600 0.003900
vt 0.882800 0.976600
vt 0.875000 0.996100
vt 0.882800 0.976600
vt 0.875000 0.996100
vt 0.460900 0.265600
vt 0.179700 0.421900
vt 0.460900 0.574200
vt 0.195300 0.277300
vt 0.007800 0.296900
vt 0.179700 0.406300
vt 0.367200 0.261700
vt 0.460900 0.179700
vt 0.367200 0.179700
vt 0.460900 0.261700
vt 0.179700 0.421900
vt 0.460900 0.265600
vt 0.460900 0.574200
vt 0.195300 0.277300
vt 0.390600 0.293000
vt 0.179700 0.406300
vt 0.007800 0.296900
vt 0.390600 0.293000
vt 0.179700 0.421900
vt 0.007800 0.296900
vt 0.195300 0.277300
vt 0.179700 0.406300
vt 0.460900 0.179700
vt 0.367200 0.261700
vt 0.367200 0.179700
vt 0.460900 0.261700
vt 0.179700 0.421900
vt 0.195300 0.277300
vt 0.179700 0.406300
vt 0.007800 0.296900
vn 0.9171 -0.0344 -0.3973
vn 0.7337 -0.5892 0.3384
vn 0.7667 -0.3180 0.5577
vn 0.5115 0.4035 -0.7586
vn 0.9950 -0.0860 -0.0517
vn 0.7222 -0.0323 -0.6909
vn 0.5115 0.4036 -0.7586
vn 0.7129 -0.0371 0.7003
vn 0.7132 -0.3283 -0.6194
vn 0.7128 -0.0371 0.7003
vn 0.8332 0.1486 0.5326
vn 0.7238 -0.6092 0.3240
vn 0.8333 0.1486 0.5325
vn 0.3532 0.1451 0.9242
vn 0.0000 0.2796 -0.9601
vn 0.9171 -0.0343 -0.3972
vn -0.6318 0.4150 -0.6546
vn -0.9142 -0.0364 -0.4036
vn 0.4041 -0.9147 0.0012
vn -0.6248 -0.7808 0.0011
vn -0.7279 -0.6457 0.2305
vn 0.4042 -0.9147 0.0013
vn 0.7337 -0.5892 0.3383
vn -0.7280 -0.6457 0.2305
vn -0.7620 -0.3875 0.5188
vn 0.7667 -0.3179 0.5577
vn -0.7112 -0.1412 0.6886
vn -0.7113 -0.1411 0.6886
vn -0.6051 0.2286 0.7626
vn -0.3536 -0.2145 0.9105
vn 0.9864 -0.1646 0.0001
vn 0.2550 0.9633 -0.0834
vn 0.0000 0.0649 -0.9979
vn 0.9170 -0.0344 -0.3973
vn -0.0006 0.8894 0.4572
vn 0.2550 0.9633 -0.0833
vn -0.7002 0.7139 0.0003
vn 0.9967 0.0810 -0.0010
vn -0.9944 -0.0893 -0.0572
vn -0.6318 0.4150 -0.6547
vn -0.7256 0.0751 -0.6840
vn -0.7142 -0.2337 -0.6598
vn -0.6051 0.2287 0.7626
vn -0.7298 -0.6220 -0.2838
vn -0.7297 -0.6220 -0.2838
vn 0.7132 -0.3283 -0.6193
vn -0.7298 -0.6220 -0.2839
vn -0.7141 -0.2337 -0.6599
vn -0.9853 -0.1709 0.0003
vn 0.7011 0.7131 0.0003
vn -0.2528 0.9622 -0.1010
vn -0.9964 0.0842 -0.0007
vn 0.0000 -0.3344 -0.9424
vn 0.5802 -0.8145 -0.0042
vn -0.5802 -0.8145 -0.0021
vn -0.8185 0.5745 -0.0030
vn 0.0000 -0.3345 -0.9424
vn 0.0000 0.5788 -0.8155
vn 0.8185 0.5745 -0.0030
vn -0.8185 0.5745 -0.0029
vn 0.9171 -0.0344 0.3973
vn 0.7667 -0.3180 -0.5577
vn 0.7339 -0.5894 -0.3378
vn 0.9949 -0.0861 0.0520
vn 0.9171 -0.0343 0.3973
vn 0.5115 0.4035 0.7586
vn 0.7222 -0.0323 0.6909
vn 0.7129 -0.0371 -0.7003
vn 0.7132 -0.3283 0.6193
vn 0.8333 0.1486 -0.5325
vn 0.7238 -0.6092 -0.3240
vn 0.3532 0.1451 -0.9242
vn 0.0000 0.2796 0.9601
vn -0.7281 -0.6460 -0.2293
vn 0.7339 -0.5894 -0.3377
vn -0.7620 -0.3875 -0.5188
vn -0.7112 -0.1411 -0.6886
vn -0.6051 0.2286 -0.7626
vn -0.7113 -0.1411 -0.6886
vn 0.2542 0.9634 0.0847
vn -0.0000 0.0650 0.9979
vn 0.0000 0.0649 0.9979
vn 0.9170 -0.0344 0.3973
vn -0.9142 -0.0364 0.4036
vn -0.2519 0.9623 0.1025
vn -0.0006 0.8900 -0.4559
vn 0.9950 -0.0858 0.0515
vn -0.6318 0.4150 0.6547
vn -0.9944 -0.0891 0.0572
vn -0.7256 0.0752 0.6840
vn -0.6318 0.4150 0.6546
vn -0.7142 -0.2337 0.6598
vn -0.7256 0.0751 0.6840
vn -0.7141 -0.2338 0.6598
vn -0.7298 -0.6220 0.2838
vn -0.6051 0.2287 -0.7626
vn -0.3536 -0.2145 -0.9105
vn 0.7238 -0.6093 -0.3240
vn -0.6318 0.4151 0.6546
vn -0.7298 -0.6220 0.2839
vn 0.7237 -0.6093 -0.3240
vn 0.7132 -0.3284 0.6193
vn -0.7141 -0.2337 0.6599
vn 0.7011 0.7130 0.0003
vn -0.9964 0.0843 -0.0008
vn -0.9944 -0.0891 0.0571
vn 0.2542 0.9634 0.0848
vn 0.0000 -0.3366 0.9416
vn 0.0000 0.5816 0.8135
vn 0.0001 0.5816 0.8134
vn -1.0000 -0.0000 0.0000
vn -0.3263 0.0000 -0.9453
vn -0.9519 0.0000 0.3064
vn -0.0000 0.0000 -1.0000
vn 0.9519 0.0000 -0.3064
vn 1.0000 0.0000 0.0000
vn 0.3263 0.0000 0.9453
vn 0.0000 0.0000 1.0000
vn -0.9519 0.0000 -0.3064
vn -0.3263 -0.0001 0.9453
vn 0.3263 0.0000 -0.9453
vn 0.9519 0.0000 0.3064
vn 0.9519 -0.0002 0.3064
vn -0.3263 0.0000 0.9453
vn 0.8063 0.1630 0.5686
vn 0.7534 -0.2047 -0.6249
vn 0.5628 0.2302 -0.7939
vn 0.8055 -0.0872 -0.5861
vn 0.5623 -0.1190 0.8183
vn 0.8089 -0.1211 0.5754
vn 0.7534 -0.2047 0.6249
vn 0.8170 -0.0959 -0.5686
vn 0.8104 0.2584 0.5258
vn 0.7483 -0.0261 -0.6628
vn 0.5696 0.3696 -0.7342
vn 0.5781 -0.1358 0.8046
vn 0.7464 -0.0244 0.6650
vn 0.8043 -0.0722 -0.5898
vn -0.5621 -0.2353 0.7929
vn -0.8066 -0.0031 0.5912
vn 0.5455 0.1093 0.8309
vn -0.8066 -0.0031 0.5911
vn 0.5455 0.1094 0.8309
vn -0.5429 0.0816 0.8358
vn 0.8061 -0.0775 0.5866
vn -0.8044 -0.1818 0.5657
vn -0.8313 0.1773 0.5268
vn -0.7200 0.1791 0.6705
vn -0.5781 -0.3342 0.7444
vn -0.7534 0.0535 0.6554
vn -0.8060 0.0795 0.5865
vn -0.8061 0.0795 0.5865
vn 0.5623 -0.1191 0.8183
vn -0.5622 -0.2353 0.7929
vn 0.6667 -0.6667 0.3333
vn 0.5602 -0.0979 0.8226
vn 0.5774 -0.5773 -0.5774
vn 0.8093 -0.1183 0.5754
vn 0.7183 -0.1413 -0.6813
vn 0.7182 -0.1413 -0.6813
vn 0.9999 0.0108 -0.0000
vn -0.3333 -0.6667 -0.6667
vn 0.5774 -0.5774 -0.5773
vn -0.6667 -0.3333 0.6666
vn -0.5602 -0.1959 0.8049
vn 0.5602 -0.0980 0.8226
vn -0.6667 -0.3333 0.6667
vn 0.6667 -0.6666 0.3333
vn -0.6667 -0.3334 0.6666
vn -0.5601 -0.1958 0.8049
vn -0.8053 -0.1705 -0.5679
vn -0.7149 -0.0061 -0.6992
vn -0.5622 -0.2353 0.7928
vn -0.5627 0.1137 -0.8188
vn -0.7534 0.0535 -0.6554
vn -0.8170 -0.2362 -0.5260
vn -0.7207 0.1820 -0.6690
vn -0.6011 0.2604 -0.7556
vn -0.8043 -0.1443 -0.5764
vn -0.8043 -0.1442 -0.5764
vn -0.3335 -0.6667 -0.6665
vn -0.9999 0.0117 -0.0000
vn -0.8044 -0.1818 0.5656
vn -0.5627 0.1138 -0.8188
vn 0.5454 0.1085 -0.8311
vn -0.6011 0.2605 -0.7556
vn 0.7483 -0.0262 -0.6628
vn 0.5696 0.3696 -0.7341
vn -0.7206 0.1820 -0.6690
vn 0.8170 -0.0960 -0.5686
vn -0.5427 0.0840 -0.8357
vn 0.8067 -0.0762 -0.5861
vn -0.8049 -0.1834 -0.5644
vn 0.5629 0.2302 -0.7938
vn -0.8043 -0.1443 -0.5765
vn 0.7484 -0.0262 -0.6628
vn 0.8043 -0.0721 -0.5898
vn -0.5428 0.0840 -0.8357
vn -0.8049 -0.1833 -0.5644
vn 1.0000 -0.0018 0.0000
vn 0.8062 -0.0775 0.5866
vn 0.4472 -0.4174 0.7911
vn -0.8044 -0.1817 0.5657
vn -0.7071 -0.3300 0.6254
vn 0.4472 -0.4237 -0.7877
vn -0.7071 -0.3347 -0.6228
vn -0.7071 -0.3350 -0.6227
usemtl TEX_w2dswa3

f 1/1/1 3/2/2 2/3/3
f 2/3/3 4/4/4 1/1/1
f 1/1/1 5/5/5 3/2/2
f 6/6/6 4/4/7 2/3/3
f 2/3/3 7/7/8 6/6/6
f 8/8/9 6/6/6 7/7/10
f 7/7/10 9/9/11 8/8/9
f 10/10/12 8/8/9 9/9/11
f 9/9/13 11/11/14 10/10/12
f 12/12/15 1/13/16 4/14/4
f 4/14/4 13/15/17 12/12/15
f 14/16/18 12/12/15 13/15/17
f 15/17/19 17/18/20 16/19/21
f 16/19/21 3/20/2 15/17/22
f 3/20/23 16/19/24 18/21/25
f 18/21/25 2/22/26 3/20/23
f 2/22/3 18/21/25 19/23/27
f 19/23/27 7/24/8 2/22/3
f 7/24/8 19/23/28 20/25/29
f 20/25/29 9/26/13 7/24/8
f 20/25/29 11/27/14 9/26/13
f 11/27/14 20/25/29 21/28/30
f 22/29/31 15/30/19 3/2/2
f 3/2/2 5/5/5 22/29/31
f 23/31/32 5/32/5 1/33/1
f 1/33/1 24/34/33 23/31/32
f 24/34/33 1/33/34 12/35/15
f 12/35/15 14/36/18 24/34/33
f 25/37/35 23/38/32 24/39/33
f 23/38/36 25/37/35 26/40/37
f 27/41/38 22/42/31 5/43/5
f 27/44/38 23/38/36 26/40/37
f 14/45/18 18/46/25 16/47/21
f 16/47/21 28/48/39 14/45/18
f 18/46/25 14/45/18 13/49/40
f 13/49/17 29/50/41 18/46/25
f 19/51/28 18/46/25 29/50/41
f 29/50/41 30/52/42 19/51/28
f 20/53/43 19/51/28 30/52/42
f 30/52/42 31/54/44 20/53/43
f 21/55/30 20/53/29 31/54/45
f 21/56/30 10/57/12 11/58/14
f 10/57/12 21/56/30 31/59/45
f 29/60/41 4/14/4 6/61/6
f 6/61/6 30/62/42 29/60/41
f 29/60/41 13/15/17 4/14/4
f 30/62/42 6/61/6 8/63/46
f 8/63/9 31/64/47 30/62/48
f 8/63/9 10/65/12 31/64/47
f 32/66/49 16/47/21 17/67/20
f 16/47/21 32/66/49 28/48/39
f 25/37/35 33/68/50 26/40/37
f 14/36/18 28/69/39 34/70/51
f 24/34/33 14/36/18 34/70/51
f 25/37/35 24/39/33 34/71/51
f 34/71/51 33/68/50 25/37/35
f 28/72/39 32/73/49 35/74/52
f 35/74/52 34/75/51 28/72/39
f 34/71/51 35/76/52 33/68/50
f 23/77/32 27/41/38 5/43/5
f 36/78/53 37/79/54 38/80/55
f 39/81/56 36/78/57 38/80/55
f 36/78/53 39/81/56 40/82/58
f 41/83/59 37/84/54 36/78/53
f 36/78/53 40/82/58 41/83/59
f 40/85/58 39/86/60 41/87/59
f 42/88/61 44/89/62 43/90/63
f 43/90/63 45/91/64 42/88/61
f 44/89/62 42/88/65 46/92/66
f 46/92/66 47/93/67 44/89/62
f 48/94/68 44/89/62 47/93/67
f 47/93/67 49/95/69 48/94/68
f 50/96/70 48/94/68 49/95/69
f 49/95/69 51/97/71 50/96/70
f 52/98/72 50/96/70 51/97/71
f 46/99/66 42/100/65 53/101/73
f 15/17/19 54/102/74 17/18/20
f 54/102/74 15/17/19 43/103/75
f 43/103/63 55/104/76 54/102/74
f 55/104/76 43/103/63 44/105/62
f 44/105/62 56/106/77 55/104/76
f 56/106/77 44/105/62 48/107/68
f 48/107/68 57/108/78 56/106/79
f 57/108/78 48/107/68 50/109/70
f 52/110/72 57/108/78 50/109/70
f 22/29/31 43/90/75 15/30/19
f 43/90/63 22/29/31 45/91/64
f 58/111/80 42/112/61 45/113/64
f 42/112/61 58/111/80 59/114/81
f 59/114/82 53/115/73 42/112/83
f 53/115/73 59/114/82 60/116/84
f 61/117/85 60/116/84 59/114/82
f 62/118/86 59/119/81 58/120/80
f 58/120/80 26/40/37 62/118/86
f 22/42/31 27/41/38 45/121/87
f 58/120/80 27/44/38 26/40/37
f 60/122/84 54/123/74 55/124/76
f 55/124/76 63/125/88 60/122/84
f 60/122/84 64/126/89 54/123/74
f 65/127/90 63/125/91 55/124/76
f 55/124/76 56/128/77 65/127/90
f 66/129/92 65/127/93 56/128/77
f 56/128/79 57/130/78 66/129/94
f 67/131/95 66/129/92 57/130/96
f 57/130/78 68/132/97 67/131/95
f 63/133/88 46/99/66 53/101/73
f 53/101/73 60/134/84 63/133/88
f 68/135/97 52/136/72 51/137/98
f 51/137/98 67/138/95 68/135/97
f 65/139/93 47/140/67 46/99/66
f 46/99/66 63/133/99 65/139/93
f 66/141/92 49/142/69 47/140/67
f 47/140/67 65/139/93 66/141/92
f 68/143/97 57/108/78 52/110/72
f 67/144/100 51/145/101 49/142/102
f 49/142/102 66/141/103 67/144/100
f 32/66/49 17/67/20 54/123/74
f 54/123/74 64/126/89 32/66/49
f 33/68/50 62/118/86 26/40/37
f 64/146/89 60/116/84 61/117/85
f 62/118/86 61/147/85 59/119/81
f 61/147/85 62/118/86 33/68/104
f 35/74/52 32/73/49 64/148/89
f 35/74/105 64/148/106 61/149/85
f 35/76/52 61/147/85 33/68/50
f 27/41/38 58/150/107 45/121/87
f 38/80/55 37/79/54 69/151/108
f 69/151/108 39/81/56 38/80/55
f 70/152/109 39/81/56 69/151/108
f 41/83/59 69/151/108 37/84/54
f 69/151/108 41/83/59 70/152/109
f 39/86/60 70/153/110 41/87/59
f 71/154/111 72/155/112 73/156/113
f 72/155/112 71/154/111 74/157/114
f 74/157/114 75/158/115 72/155/112
f 75/158/115 74/157/114 76/159/116
f 76/159/116 77/160/117 75/158/115
f 77/160/117 76/159/116 78/161/118
f 78/161/118 73/156/113 77/160/117
f 73/156/113 78/161/118 71/154/111
f 79/162/119 74/163/114 71/164/111
f 71/164/111 80/165/120 79/162/119
f 74/163/114 79/162/119 81/166/121
f 81/166/121 76/167/116 74/163/114
f 76/167/116 81/166/121 82/168/122
f 82/168/122 78/169/118 76/167/116
f 78/169/118 82/168/123 80/165/124
f 80/165/124 71/164/111 78/169/118
f 83/170/125 85/171/126 84/172/127
f 84/172/127 86/173/128 83/170/125
f 87/174/129 83/170/125 86/173/128
f 86/173/128 88/175/130 87/174/129
f 85/171/126 83/170/125 89/176/131
f 89/176/131 90/177/132 85/171/126
f 91/178/133 93/179/134 92/180/135
f 92/180/135 90/177/132 91/178/133
f 94/181/136 91/178/133 90/177/132
f 90/177/132 89/176/131 94/181/136
f 93/179/134 91/178/133 95/182/137
f 95/182/137 96/183/138 93/179/134
f 88/184/130 97/185/139 87/186/129
f 97/185/139 88/184/130 98/187/140
f 99/188/141 98/187/140 88/184/130
f 98/187/142 99/188/143 100/189/144
f 101/190/145 100/189/144 99/188/143
f 100/189/144 101/190/145 102/191/146
f 91/192/133 103/193/147 95/194/137
f 103/193/147 91/192/133 104/195/148
f 94/196/136 104/195/148 91/192/133
f 104/195/148 94/196/136 105/197/149
f 89/198/131 105/197/149 94/196/136
f 105/197/149 89/198/131 106/199/150
f 83/200/125 106/199/150 89/198/131
f 106/199/150 83/200/125 107/201/151
f 87/186/129 107/201/151 83/200/125
f 107/201/152 87/186/153 97/185/154
f 108/202/155 96/183/138 109/203/156
f 96/183/138 108/202/155 110/204/157
f 88/175/158 86/173/128 111/205/159
f 111/205/160 112/206/161 88/175/130
f 99/207/141 88/175/130 112/206/161
f 108/208/155 113/209/162 110/210/163
f 113/209/162 108/208/155 114/211/164
f 95/194/137 115/212/165 109/213/156
f 115/212/165 95/194/137 103/193/147
f 109/213/166 114/214/167 108/215/168
f 114/214/169 109/213/156 115/212/170
f 116/216/171 98/217/142 117/218/172
f 98/217/142 116/216/171 97/219/173
f 107/220/151 97/219/173 116/216/171
f 107/220/151 116/216/171 118/221/174
f 118/221/174 119/222/175 107/220/151
f 106/223/150 107/220/151 119/222/175
f 119/222/175 120/224/176 106/223/150
f 105/225/149 106/223/150 120/224/176
f 120/224/176 104/226/148 105/225/149
f 104/226/148 120/224/176 121/227/177
f 121/227/177 103/228/147 104/226/148
f 103/228/147 121/227/177 122/229/178
f 122/229/178 123/230/179 103/228/147
f 115/231/165 103/228/147 123/230/179
f 123/230/180 114/232/169 115/231/170
f 123/230/180 113/233/181 114/232/169
f 124/234/182 117/218/172 98/217/142
f 98/217/142 100/235/144 124/234/182
f 102/236/183 124/234/182 100/235/144
f 95/182/137 109/203/156 96/183/138
f 112/206/161 101/237/145 99/207/141
f 116/238/171 111/239/159 86/240/128
f 86/240/128 118/241/184 116/238/171
f 111/239/160 116/238/171 117/242/172
f 117/242/172 125/243/185 111/239/160
f 122/244/186 92/245/135 93/246/187
f 93/246/187 123/247/179 122/244/186
f 92/245/188 122/244/178 121/248/189
f 121/248/189 90/249/190 92/245/188
f 126/250/191 127/251/192 125/243/185
f 125/243/185 117/242/172 126/250/191
f 126/250/191 128/252/193 127/251/192
f 118/241/174 86/240/128 84/253/194
f 84/253/194 119/254/175 118/241/174
f 119/254/175 84/253/194 85/255/126
f 85/255/126 120/256/176 119/254/175
f 90/249/132 121/248/189 120/256/176
f 120/256/176 85/255/126 90/249/132
f 123/247/195 93/246/196 96/257/197
f 96/257/138 113/258/181 123/247/180
f 96/257/138 110/259/157 113/258/181
f 124/234/182 126/260/191 117/218/172
f 126/260/198 124/234/182 128/261/199
f 125/262/185 112/206/161 111/205/160
f 127/263/192 112/206/161 125/262/185
f 129/264/200 101/265/201 112/266/161
f 130/267/116 131/268/202 101/269/201
f 131/270/202 102/271/203 101/272/145
f 102/271/203 131/270/202 132/273/204
f 102/274/146 133/275/111 124/276/182
f 134/277/111 133/278/111 102/279/146
f 132/280/204 134/277/111 102/279/146
f 129/281/200 130/267/116 101/269/201
f 127/282/192 129/264/200 112/266/161
f 135/283/205 136/284/116 127/285/192
f 128/286/199 135/287/205 127/288/192
f 135/287/205 128/286/199 137/289/206
f 133/275/111 128/290/199 124/276/182
f 133/278/111 138/291/111 128/292/199
f 138/291/111 137/293/207 128/292/199
f 136/284/116 129/281/200 127/285/192
