# Blender v2.79 (sub 0) OBJ File: ''
# www.blender.org
mtllib dualswords04l.mtl
o MDL_w2dsw04_bod00_001
v 0.005000 -0.652400 -0.087800
v -0.005500 -0.652400 -0.087800
v 0.000000 -0.745700 -0.141200
v -0.004800 -0.555500 -0.050300
v 0.000000 -0.725300 -0.077500
v 0.000000 -0.691900 -0.038800
v 0.005500 -0.555500 -0.050300
v -0.005500 -0.370800 -0.020500
v -0.003000 -0.645800 -0.003900
v 0.000000 -0.542200 0.029700
v 0.000000 -0.640200 0.022000
v 0.000000 -0.697700 0.001100
v 0.002000 -0.645800 -0.003900
v 0.005000 -0.370800 -0.020500
v 0.004700 -0.239300 -0.013700
v 0.000000 -0.358900 0.023100
v -0.000200 -0.239300 0.017500
v -0.005500 -0.239300 -0.013700
v -0.000300 0.004500 0.020800
v 0.006400 0.004500 -0.014500
v 0.005800 0.004500 0.017300
v -0.000300 0.004500 -0.017800
v -0.006300 0.004500 0.017300
v -0.007200 0.004500 -0.014500
v 0.006400 -0.239300 -0.014500
v 0.005800 -0.239300 0.017300
v -0.000300 -0.239300 0.020800
v -0.000300 -0.239300 -0.017800
v -0.006300 -0.239300 0.017300
v -0.007200 -0.239300 -0.014500
v -0.008900 -0.212100 0.090000
v -0.008900 -0.229700 0.093400
v -0.008900 -0.229700 -0.015800
v -0.008900 -0.224900 0.104800
v -0.008900 -0.213000 -0.015800
v 0.000000 -0.229700 -0.021100
v 0.000000 -0.213000 -0.021100
v 0.008800 -0.229700 -0.015800
v 0.008800 -0.229700 0.093400
v 0.008800 -0.213000 -0.015800
v 0.008800 -0.212100 0.090000
v 0.008800 -0.210200 0.092800
v -0.008900 -0.210200 0.092800
v -0.008900 -0.207100 0.094200
v 0.008800 -0.224900 0.104800
v 0.008800 -0.207100 0.094200
v -0.008900 -0.019400 0.093900
v 0.008800 -0.019400 0.093900
v -0.008900 -0.211800 0.110300
v -0.008900 -0.027500 0.110300
v 0.008800 -0.211800 0.110300
v 0.008800 -0.027500 0.110300
v -0.004100 -0.193900 0.087500
v 0.003900 -0.193500 0.095500
v -0.004100 -0.193500 0.095500
v 0.003900 -0.193900 0.087500
v -0.004100 -0.198500 0.081100
v 0.003900 -0.198500 0.081100
v -0.004100 -0.204100 0.077700
v 0.003900 -0.204100 0.077700
v -0.004100 -0.213200 0.076900
v 0.003900 -0.213200 0.076900
v -0.004100 -0.187700 0.084800
v -0.004100 -0.186600 0.095500
v -0.004100 -0.193600 0.075800
v -0.004100 -0.203000 0.071100
v -0.004100 -0.213200 0.069800
v 0.003900 -0.187700 0.084800
v 0.003900 -0.186600 0.095500
v 0.003900 -0.193600 0.075800
v 0.003900 -0.203000 0.071100
v 0.003900 -0.213200 0.069800
v -0.004100 -0.179600 0.083000
v 0.003900 -0.178600 0.095500
v -0.004100 -0.178600 0.095500
v 0.003900 -0.179600 0.083000
v -0.004100 -0.188200 0.070500
v 0.003900 -0.188200 0.070500
v -0.004100 -0.200800 0.063700
v 0.003900 -0.200800 0.063700
v -0.004100 -0.213200 0.062300
v 0.003900 -0.213200 0.062300
v -0.004100 -0.173500 0.080300
v -0.004100 -0.172200 0.095500
v -0.004100 -0.183500 0.065200
v -0.004100 -0.187800 0.062500
v -0.004100 -0.196300 0.058600
v -0.004100 -0.199600 0.057000
v -0.004100 -0.213200 0.055300
v 0.003900 -0.173500 0.080300
v 0.003900 -0.172200 0.095500
v 0.003900 -0.183500 0.065200
v 0.003900 -0.187800 0.062500
v 0.003900 -0.199600 0.057000
v 0.003900 -0.196300 0.058600
v 0.003900 -0.213200 0.055300
v -0.003900 -0.187800 0.018600
v -0.004100 -0.196300 0.018600
v 0.003900 -0.196300 0.018600
v 0.003900 -0.187800 0.018600
v -0.000300 -0.016300 -0.021400
v 0.009500 -0.016400 -0.017000
v 0.009500 -0.016400 0.020500
v -0.000300 -0.016300 0.024800
v -0.010200 -0.016300 -0.017000
v -0.010200 -0.016300 0.020500
v 0.009500 -0.002800 -0.017000
v -0.000300 -0.002800 -0.021400
v -0.010200 -0.002800 -0.017000
v 0.009500 -0.002800 0.020500
v -0.000300 -0.002800 0.024800
v -0.010200 -0.002800 0.020500
vt 0.070300 0.183600
vt 0.039100 0.003900
vt 0.007800 0.183600
vt 0.007800 0.375000
vt 0.257800 0.039100
vt 0.234400 0.183600
vt 0.023400 0.003900
vt 0.421900 0.101600
vt 0.234400 0.183600
vt 0.070300 0.375000
vt 0.007800 0.738300
vt 0.390600 0.375000
vt 0.554700 0.195300
vt 0.687500 0.398400
vt 0.656300 0.203100
vt 0.585900 0.101600
vt 0.554700 0.195300
vt 1 0
vt 0.093800 0
vt 0.093800 0.207000
vt 0.390600 0.375000
vt 1 0
vt 0.113300 0
vt 1 0.207000
vt 0.070300 0.738300
vt 0.070300 0.996100
vt 0.507800 0.738300
vt 0.679700 0.765600
vt 0.695300 0.398400
vt 0.507800 0.738300
vt 0.664100 0.761700
vt 0.523400 0.996100
vt 0.671900 0.996100
vt 0.546900 0.996100
vt 0.007800 0.996100
vt 0.640600 0.996100
vt 0.992200 0.074200
vt 0.945300 0.113300
vt 0.765600 0.113300
vt 0.726600 0.074200
vt 0.945300 0.113300
vt 0.765600 0.113300
vt 0.765600 0.996100
vt 0.765600 0.230500
vt 0.953100 0.230500
vt 0.953100 0.996100
vt 0.726600 0.996100
vt 0.726600 0.230500
vt 0.992200 0.230500
vt 0.992200 0.996100
vt 0.765600 0.996100
vt 0.765600 0.230500
vt 0.953100 0.996100
vt 0.953100 0.230500
vt 0.757800 0.062500
vt 0.960900 0.062500
vt 0.992200 0.027300
vt 0.726600 0.027300
vt 0.960900 0.062500
vt 0.757800 0.062500
vt 0.085900 0.957000
vt 0.210900 0.535200
vt 0.210900 0.957000
vt 0.210900 0.996100
vt 0.085900 0.535200
vt 0.210900 0.503900
vt 0.085900 0.503900
vt 0.335900 0.519500
vt 0.210900 0.519500
vt 0.273400 0.503900
vt 0.335900 0.957000
vt 0.414100 0.996100
vt 0.351600 0.968800
vt 0.476600 0.968800
vt 0.351600 0.785200
vt 0.476600 0.785200
vt 0.476600 0.761700
vt 0.351600 0.761700
vt 0.351600 0.804700
vt 0.085900 0.996100
vt 0.335900 0.996100
vt 0.476600 0.804700
vt 0.351600 0.996100
vt 0.476600 0.996100
vt 0.210900 0.996100
vt 0.085900 0.996100
vt 0.085900 0.964800
vt 0.210900 0.964800
vt 0.085900 0.554700
vt 0.210900 0.503900
vt 0.335900 0.996100
vt 0.210900 0.996100
vt 0.210900 0.941400
vt 0.335900 0.941400
vt 0.210900 0.503900
vt 0.335900 0.503900
vt 0.210900 0.433600
vt 0.210900 0.496100
vt 0.085900 0.496100
vt 0.085900 0.433600
vt 0.335900 0.832000
vt 0.210900 0.664100
vt 0.335900 0.664100
vt 0.210900 0.832000
vt 0.335900 0.996100
vt 0.210900 0.996100
vt 0.335900 0.832000
vt 0.210900 0.832000
vt 0.335900 0.664100
vt 0.210900 0.664100
vt 0.210900 0.832000
vt 0.085900 0.664100
vt 0.210900 0.664100
vt 0.085900 0.832000
vt 0.210900 0.996100
vt 0.085900 0.996100
vt 0.210900 0.832000
vt 0.085900 0.832000
vt 0.210900 0.664100
vt 0.085900 0.664100
vt 0.476600 0.878900
vt 0.351600 0.761700
vt 0.476600 0.761700
vt 0.351600 0.878900
vt 0.476600 0.996100
vt 0.351600 0.996100
vt 0.476600 0.878900
vt 0.351600 0.878900
vt 0.476600 0.761700
vt 0.351600 0.761700
vt 0.335900 0.832000
vt 0.210900 0.664100
vt 0.335900 0.664100
vt 0.210900 0.832000
vt 0.335900 0.996100
vt 0.210900 0.996100
vt 0.335900 0.832000
vt 0.210900 0.832000
vt 0.335900 0.664100
vt 0.210900 0.664100
vt 0.210900 0.832000
vt 0.085900 0.664100
vt 0.210900 0.664100
vt 0.085900 0.832000
vt 0.210900 0.996100
vt 0.085900 0.996100
vt 0.203100 0.945300
vt 0.203100 0.878900
vt 0.210900 0.832000
vt 0.085900 0.832000
vt 0.210900 0.664100
vt 0.085900 0.664100
vt 0.476600 0.878900
vt 0.351600 0.761700
vt 0.476600 0.761700
vt 0.351600 0.878900
vt 0.476600 0.996100
vt 0.351600 0.996100
vt 0.476600 0.960900
vt 0.351600 0.921900
vt 0.476600 0.855500
vt 0.351600 0.855500
vt 0.476600 0.921900
vt 0.476600 0.761700
vt 0.351600 0.761700
vt 0.351600 0.960900
vt 0.210900 0.671900
vt 0.085900 0.886700
vt 0.210900 0.886700
vt 0.085900 0.671900
vt 0.335900 0.503900
vt 0.335900 0.753900
vt 0.210900 0.753900
vt 0.210900 0.503900
vt 0.351600 0.996100
vt 0.351600 0.761700
vt 0.476600 0.761700
vt 0.476600 0.996100
vt 0.726600 0.121100
vt 0.765600 0.160200
vt 0.953100 0.160200
vt 0.992200 0.121100
vt 0.765600 0.160200
vt 0.953100 0.160200
vt 0.945300 0.168000
vt 0.992200 0.222700
vt 0.945300 0.222700
vt 0.773400 0.168000
vt 0.992200 0.168000
vt 0.945300 0.222700
vt 0.773400 0.222700
vt 0.726600 0.168000
vt 0.726600 0.222700
vt 0.773400 0.168000
vt 0.773400 0.222700
vt 0.945300 0.168000
vt 0.953100 0.113300
vt 0.992200 0.074200
vt 0.726600 0.074200
vt 0.765600 0.113300
vt 0.953100 0.113300
vt 0.765600 0.113300
vt 0.210900 0.535200
vt 0.085900 0.957000
vt 0.210900 0.957000
vt 0.085900 0.535200
vt 0.085900 0.996100
vt 0.210900 0.996100
vt 0.085900 0.964800
vt 0.085900 0.996100
vt 0.210900 0.964800
vt 0.085900 0.554700
vt 0.210900 0.503900
vt 0.085900 0.664100
vt 0.210900 0.832000
vt 0.210900 0.664100
vt 0.085900 0.832000
vt 0.210900 0.996100
vt 0.085900 0.996100
vt 0.210900 0.832000
vt 0.085900 0.832000
vt 0.210900 0.664100
vt 0.085900 0.664100
vt 0.085900 0.664100
vt 0.210900 0.832000
vt 0.210900 0.664100
vt 0.085900 0.832000
vt 0.210900 0.996100
vt 0.085900 0.996100
vt 0.203100 0.945300
vt 0.085900 0.832000
vt 0.210900 0.832000
vt 0.203100 0.878900
vt 0.210900 0.664100
vt 0.085900 0.664100
vt 0.085900 0.886700
vt 0.210900 0.671900
vt 0.210900 0.886700
vt 0.085900 0.671900
vn 0.8217 0.2056 -0.5315
vn 0.0005 0.3997 -0.9166
vn -0.9144 0.1425 -0.3789
vn -0.7258 0.2115 -0.6546
vn 0.8217 0.2057 -0.5315
vn 0.0038 -0.8643 0.5029
vn 0.0015 -0.6736 0.7391
vn 0.8217 0.2055 -0.5315
vn 0.0015 -0.6737 0.7390
vn 0.0038 -0.8643 0.5030
vn 0.7296 0.1579 -0.6654
vn -0.7258 0.2114 -0.6546
vn -0.7483 0.0770 -0.6589
vn -0.9144 0.1425 -0.3790
vn -0.9855 -0.1666 0.0334
vn 0.0059 -0.0324 0.9995
vn 0.0210 -0.2199 0.9753
vn 0.0058 -0.0323 0.9995
vn -0.9855 -0.1665 0.0334
vn 0.0061 -0.2128 -0.9771
vn 0.0210 -0.2200 0.9753
vn 0.9861 -0.1648 0.0221
vn 0.8217 0.2055 -0.5316
vn -0.9855 -0.1665 0.0335
vn 0.8689 0.0590 -0.4915
vn -0.7483 0.0769 -0.6589
vn 0.7531 0.0412 -0.6566
vn 0.8433 0.0153 0.5373
vn 0.7531 0.0413 -0.6566
vn 0.8433 0.0152 0.5372
vn -0.9116 0.0041 0.4112
vn -0.9116 0.0040 0.4111
vn -0.7641 0.0333 -0.6442
vn -0.9116 0.0041 0.4111
vn 0.1229 0.7501 0.6498
vn 0.8799 0.3523 0.3189
vn 0.5758 0.6114 -0.5428
vn -0.1038 0.7391 -0.6655
vn -0.6021 0.6000 0.5267
vn -0.8804 0.3622 -0.3062
vn 0.8799 0.3524 0.3189
vn 0.7030 -0.3523 0.6178
vn 0.7464 -0.6114 -0.2627
vn 0.5758 0.6114 -0.5427
vn 0.1229 0.7502 0.6497
vn -0.1275 -0.7501 0.6489
vn 0.1115 -0.7391 -0.6643
vn -0.1037 0.7391 -0.6655
vn -0.7509 -0.5999 0.2761
vn -0.1276 -0.7502 0.6488
vn -0.6746 -0.3622 -0.6432
vn -0.7509 -0.6000 0.2761
vn -0.6022 0.5999 0.5268
vn 0.1114 -0.7391 -0.6643
vn -0.8804 0.3622 -0.3063
vn -0.8110 0.5383 -0.2294
vn -0.7557 -0.6018 -0.2585
vn -0.5615 -0.8202 0.1090
vn -0.6295 -0.5492 0.5497
vn -0.5042 0.7475 -0.4324
vn 0.0024 -0.2798 -0.9601
vn -0.7557 -0.6017 -0.2585
vn 0.0021 0.5036 -0.8640
vn 0.6277 -0.7485 -0.2137
vn -0.7557 -0.6017 -0.2584
vn 0.0025 -0.2798 -0.9601
vn 0.5615 -0.7983 0.2179
vn 0.6101 0.6005 -0.5170
vn 0.8110 0.5732 -0.1172
vn 0.6147 0.5077 -0.6036
vn -0.8417 0.3476 -0.4132
vn -0.7142 0.1956 -0.6720
vn 0.6147 0.5078 -0.6036
vn 0.8110 0.5732 -0.1173
vn 0.8509 -0.3713 0.3716
vn 0.7142 0.0972 -0.6931
vn -0.4866 0.4348 -0.7578
vn 0.4866 0.8718 -0.0556
vn 0.7142 0.0973 -0.6931
vn -0.4866 0.4347 -0.7578
vn -0.7133 -0.0921 0.6948
vn -0.6094 0.5464 0.5746
vn -0.6094 0.5464 0.5745
vn 0.8509 -0.3712 0.3716
vn 0.7133 -0.1841 0.6763
vn 0.7133 -0.1841 0.6762
vn 0.6094 0.2732 0.7443
vn -0.7200 -0.6743 0.1640
vn 0.7071 -0.7062 0.0356
vn -0.8944 -0.4467 0.0223
vn 0.7200 -0.6295 0.2922
vn -0.7135 -0.5096 0.4809
vn 0.7135 -0.4400 0.5453
vn -0.7153 -0.2684 0.6452
vn 0.7154 -0.1655 0.6789
vn -0.4472 -0.0783 0.8910
vn 0.7071 -0.0619 0.7044
vn -0.7161 0.6367 -0.2861
vn -0.4472 0.8897 -0.0915
vn -0.7180 0.4142 -0.5593
vn -0.7116 0.1660 -0.6827
vn -0.8944 0.0566 -0.4436
vn 0.7161 0.6745 -0.1797
vn 0.7071 0.7034 -0.0723
vn 0.7180 0.5074 -0.4765
vn -0.7180 0.4142 -0.5594
vn 0.7116 0.2421 -0.6596
vn -0.7116 0.1662 -0.6827
vn 0.7071 0.0896 -0.7014
vn -0.7178 -0.6742 0.1737
vn 0.7071 -0.7048 0.0567
vn -0.8944 -0.4458 0.0356
vn 0.7178 -0.6328 0.2903
vn -0.8071 -0.4283 0.4063
vn 0.8071 -0.3579 0.4695
vn -0.8047 -0.2136 0.5540
vn -0.8047 -0.2137 0.5540
vn 0.8047 -0.1407 0.5768
vn -0.4472 -0.1003 0.8888
vn 0.7071 -0.0793 0.7026
vn -0.7169 0.6366 -0.2843
vn -0.8944 -0.4458 0.0357
vn -0.4472 0.8912 -0.0762
vn -0.7179 -0.6742 0.1738
vn -0.7142 0.4517 -0.5347
vn -0.8632 0.4414 -0.2450
vn -0.9210 -0.2030 -0.3324
vn -0.5593 0.1914 -0.8066
vn -0.8944 0.0554 -0.4438
vn 0.7169 0.6754 -0.1727
vn -0.4472 0.8912 -0.0764
vn 0.7071 0.7045 -0.0603
vn 0.7142 0.5236 -0.4645
vn 0.6507 0.6645 -0.3674
vn 0.5593 0.2787 -0.7807
vn 0.9782 -0.1103 -0.1760
vn 0.7071 0.0874 -0.7017
vn -0.8944 0.0555 -0.4438
vn 0.6507 0.6646 -0.3674
vn -0.8632 0.4413 -0.2450
vn -0.7025 0.7116 -0.0016
vn -0.7154 -0.6987 0.0000
vn 0.4472 -0.8944 0.0000
vn 0.9782 -0.1103 -0.1761
vn -0.9211 -0.2030 -0.3323
vn -0.7025 0.7117 -0.0016
vn 0.8944 0.4472 0.0000
vn -0.1036 -0.7344 -0.6707
vn 0.6561 -0.3627 -0.6618
vn 0.7346 -0.6169 0.2825
vn 0.0966 -0.7338 0.6724
vn -0.7382 -0.6136 -0.2803
vn -0.6520 -0.3629 0.6657
vn 0.1012 0.7348 -0.6707
vn 0.7388 0.6132 -0.2797
vn -0.6563 0.3622 -0.6619
vn 0.6539 0.3625 0.6640
vn -0.0966 0.7337 0.6726
vn -0.7369 0.6145 0.2818
vn 0.6278 -0.7485 -0.2135
vn 0.0022 0.5036 -0.8640
vn 0.7071 -0.7062 0.0354
vn 0.7200 -0.6295 0.2921
vn 0.7071 -0.7062 0.0353
vn 0.7180 0.5073 -0.4765
vn 0.7153 -0.1655 0.6789
vn 0.7071 0.0894 -0.7015
vn 0.7071 0.0893 -0.7015
vn 0.7071 -0.7049 0.0564
vn 0.7169 0.6754 -0.1726
vn 0.7071 0.7046 -0.0603
vn 0.7179 -0.6328 0.2903
vn 0.7071 0.0877 -0.7017
vn 0.7071 -0.0793 0.7027
vn 0.8047 -0.1406 0.5768
vn 0.4472 -0.8944 0.0003
usemtl TEX_w2dsw04l_001

f 1/1/1 3/2/2 2/3/3
f 2/3/3 4/4/4 1/1/5
f 5/5/6 2/6/3 3/7/2
f 2/6/3 5/5/6 6/8/7
f 1/9/8 6/8/9 5/5/6
f 1/9/1 5/5/10 3/7/2
f 7/10/11 1/1/1 4/4/12
f 4/4/4 8/11/13 7/10/11
f 4/12/4 2/6/14 9/13/15
f 9/13/15 10/14/16 4/12/4
f 11/15/17 10/14/18 9/13/19
f 9/13/19 12/16/20 11/15/21
f 13/17/22 11/15/21 12/16/20
f 12/18/20 9/19/19 13/20/22
f 6/8/7 9/13/15 2/6/14
f 13/17/22 6/8/9 1/9/8
f 1/9/23 7/21/11 13/17/22
f 9/22/24 6/23/9 13/24/22
f 14/25/25 7/10/11 8/11/26
f 8/11/26 15/26/27 14/25/25
f 8/27/13 4/12/4 10/14/16
f 8/27/26 10/14/18 16/28/28
f 10/29/18 7/21/11 14/30/25
f 16/31/28 10/29/18 14/30/25
f 14/30/25 15/32/29 16/31/28
f 10/14/18 11/15/21 13/17/22
f 13/17/22 7/21/11 10/14/18
f 8/27/26 16/28/30 17/33/31
f 8/27/13 17/33/32 18/34/33
f 15/26/27 8/11/26 18/35/33
f 16/31/28 15/32/29 17/36/34
f 19/37/35 21/38/36 20/39/37
f 20/39/37 22/40/38 19/37/35
f 23/41/39 19/37/35 22/40/38
f 22/40/38 24/42/40 23/41/39
f 21/43/41 26/44/42 25/45/43
f 25/45/43 20/46/44 21/43/41
f 19/47/45 27/48/46 26/44/42
f 26/44/42 21/43/36 19/47/45
f 20/46/44 25/45/43 28/49/47
f 28/49/47 22/50/48 20/46/44
f 23/51/39 29/52/49 27/48/50
f 27/48/50 19/47/45 23/51/39
f 24/53/40 30/54/51 29/52/52
f 29/52/52 23/51/53 24/53/40
f 22/50/38 28/49/54 30/54/51
f 30/54/51 24/53/55 22/50/38
f 25/55/43 26/56/42 27/57/46
f 28/58/54 25/55/43 27/57/46
f 27/57/46 29/59/52 28/58/54
f 28/58/54 29/59/52 30/60/51
f 31/61/56 33/62/57 32/63/58
f 32/63/58 34/64/59 31/61/56
f 33/62/57 31/61/56 35/65/60
f 36/66/61 33/62/62 35/65/60
f 36/66/61 35/65/60 37/67/63
f 38/68/64 33/69/65 36/70/66
f 33/69/57 38/68/64 32/63/58
f 38/68/64 39/71/67 32/63/58
f 37/72/63 35/73/60 40/74/68
f 35/73/60 31/75/56 41/76/69
f 35/73/60 41/76/69 40/74/68
f 42/77/70 31/75/56 43/78/71
f 43/78/71 44/79/72 42/77/73
f 31/75/56 42/77/70 41/76/74
f 31/61/56 34/64/59 43/80/71
f 39/71/67 45/81/75 34/64/59
f 39/71/67 34/64/59 32/63/58
f 46/82/76 42/77/73 44/79/72
f 44/79/72 47/83/77 46/82/76
f 48/84/78 46/82/79 47/83/80
f 43/85/71 34/86/59 49/87/81
f 44/88/72 43/85/71 49/87/81
f 49/87/81 50/89/82 44/88/72
f 47/90/80 44/88/72 50/89/83
f 34/91/59 45/92/84 51/93/85
f 49/94/81 34/91/59 51/93/85
f 51/93/86 52/95/87 49/94/81
f 50/96/83 49/94/81 52/95/87
f 50/97/83 52/98/87 48/99/78
f 50/97/83 48/99/78 47/100/80
f 53/101/88 54/102/89 55/103/90
f 54/102/89 53/101/88 56/104/91
f 57/105/92 56/104/91 53/101/88
f 56/104/91 57/105/92 58/106/93
f 59/107/94 58/106/93 57/105/92
f 58/106/93 59/107/94 60/108/95
f 61/109/96 60/108/95 59/107/94
f 60/108/95 61/109/96 62/110/97
f 63/111/98 55/112/90 64/113/99
f 55/112/90 63/111/98 53/114/88
f 65/115/100 53/114/88 63/111/98
f 53/114/88 65/115/100 57/116/92
f 66/117/101 57/116/92 65/115/100
f 57/116/92 66/117/101 59/118/94
f 67/119/102 59/118/94 66/117/101
f 59/118/94 67/119/102 61/120/96
f 68/121/103 64/122/99 69/123/104
f 64/122/99 68/121/103 63/124/98
f 70/125/105 63/124/98 68/121/103
f 63/124/98 70/125/105 65/126/106
f 71/127/107 65/126/106 70/125/105
f 65/126/106 71/127/107 66/128/108
f 72/129/109 66/128/108 71/127/107
f 66/128/108 72/129/109 67/130/102
f 73/131/110 74/132/111 75/133/112
f 74/132/111 73/131/110 76/134/113
f 77/135/114 76/134/113 73/131/110
f 76/134/113 77/135/114 78/136/115
f 79/137/116 78/136/115 77/135/114
f 78/136/115 79/137/117 80/138/118
f 81/139/119 80/138/118 79/137/117
f 80/138/118 81/139/119 82/140/120
f 83/141/121 75/142/122 84/143/123
f 75/142/122 83/141/121 73/144/124
f 85/145/125 73/144/124 83/141/121
f 73/144/124 85/145/125 77/146/114
f 86/147/126 77/146/114 85/145/125
f 87/148/127 88/149/128 79/150/116
f 79/150/116 77/146/114 87/148/127
f 86/147/126 87/148/127 77/146/114
f 89/151/129 79/150/116 88/149/128
f 79/150/116 89/151/129 81/152/119
f 90/153/130 84/154/131 91/155/132
f 84/154/131 90/153/130 83/156/121
f 92/157/133 83/156/121 90/153/130
f 83/156/121 92/157/133 85/158/125
f 93/159/134 85/158/125 92/157/133
f 87/160/127 94/161/135 88/162/128
f 94/161/135 87/160/127 95/163/136
f 96/164/137 88/162/128 94/161/135
f 88/162/128 96/164/137 89/165/138
f 85/158/125 93/159/139 86/166/140
f 97/167/141 87/168/127 86/169/126
f 87/168/127 97/167/141 98/170/142
f 99/171/143 95/172/144 87/173/127
f 99/171/143 87/173/145 98/174/142
f 97/175/146 86/176/140 93/177/134
f 97/175/146 93/177/134 100/178/147
f 101/179/148 102/180/149 103/181/150
f 104/182/151 101/179/148 103/181/150
f 101/179/148 104/182/151 105/183/152
f 104/182/151 106/184/153 105/183/152
f 102/185/149 108/186/154 107/187/155
f 107/187/155 103/188/150 102/185/149
f 108/186/154 102/185/149 101/189/148
f 101/189/148 109/190/156 108/186/154
f 103/188/150 107/187/155 110/191/157
f 110/191/157 104/192/151 103/188/150
f 104/192/151 110/191/157 111/193/158
f 111/193/158 106/194/153 104/192/151
f 106/194/153 111/193/158 112/195/159
f 112/195/159 105/196/152 106/194/153
f 105/196/152 112/195/159 109/190/156
f 109/190/156 101/189/148 105/196/152
f 112/197/159 111/198/158 108/199/154
f 112/197/159 108/199/154 109/200/156
f 111/198/158 110/201/157 107/202/155
f 111/198/158 107/202/155 108/199/154
f 38/203/160 41/204/74 39/205/67
f 41/204/74 38/203/160 40/206/68
f 36/66/61 40/206/68 38/203/160
f 40/206/68 36/66/61 37/67/161
f 41/204/74 45/92/84 39/205/67
f 45/92/84 41/204/74 42/207/73
f 42/208/73 51/209/85 45/210/84
f 51/209/85 42/208/73 46/211/76
f 46/211/79 52/212/87 51/209/86
f 52/212/87 46/211/79 48/213/78
f 54/214/162 68/215/103 69/216/104
f 56/217/163 68/215/103 54/214/164
f 68/215/103 56/217/163 70/218/165
f 58/219/93 70/218/165 56/217/163
f 70/218/165 58/219/93 71/220/107
f 60/221/166 71/220/107 58/219/93
f 71/220/107 60/221/166 72/222/167
f 62/223/97 72/222/168 60/221/166
f 74/224/169 90/225/170 91/226/171
f 76/227/172 90/225/130 74/224/169
f 90/225/130 76/227/172 92/228/133
f 78/229/115 92/228/133 76/227/172
f 92/228/133 78/229/115 93/230/134
f 80/231/118 94/232/135 95/233/136
f 94/232/135 80/231/118 96/234/173
f 82/235/174 96/234/173 80/231/175
f 78/229/115 80/231/118 95/233/136
f 78/229/115 95/233/136 93/230/134
f 95/236/136 100/237/147 93/238/134
f 100/237/147 95/236/136 99/239/176
