# Blender v2.79 (sub 0) OBJ File: ''
# www.blender.org
mtllib dualswordsb2l.mtl
o MDL_w2dswb2l_bod01
v -0.004700 -0.615200 -0.055900
v 0.000900 -0.613100 -0.040300
v 0.000900 -0.684600 -0.020900
v -0.007500 -0.540600 -0.066900
v 0.000900 -0.543700 -0.042800
v -0.008800 -0.464300 -0.054700
v 0.000900 -0.471500 -0.025300
v -0.008800 -0.411500 -0.017200
v -0.008800 -0.387100 -0.053100
v -0.008800 -0.391500 0.008100
v -0.008400 -0.332400 -0.037500
v 0.000900 -0.424000 -0.004100
v 0.000900 -0.618100 -0.068100
v 0.000900 -0.540600 -0.090300
v 0.000900 -0.457100 -0.083400
v 0.000900 -0.397700 -0.073100
v -0.009100 -0.471800 0.119100
v -0.008800 -0.403100 0.071900
v -0.008800 -0.386200 0.149100
v 0.000900 -0.475900 0.071600
v 0.000900 -0.420600 0.057800
v -0.008800 -0.389300 0.037200
v -0.008400 -0.330200 0.050900
v 0.000900 -0.467400 0.168400
v 0.000900 -0.577100 0.150000
v 0.000900 -0.394900 0.168800
v -0.007200 -0.343400 0.192800
v -0.009100 -0.576200 0.107200
v 0.000900 -0.574900 0.065600
v -0.007800 -0.654900 0.089400
v 0.000900 -0.657400 0.122500
v 0.000900 -0.653400 0.056600
v -0.005300 -0.739000 0.090000
v 0.000900 -0.739900 0.113800
v 0.000900 -0.740600 0.068100
v 0.000900 -0.845200 0.109100
v -0.008400 -0.324900 0.065000
v 0.000900 -0.274600 0.083100
v 0.000900 -0.312400 0.053800
v -0.007800 -0.278100 0.113800
v -0.008400 -0.329600 0.134400
v 0.000900 -0.276800 0.149400
v 0.000900 -0.315600 0.147200
v -0.005900 -0.224900 0.115600
v 0.000900 -0.226200 0.096200
v 0.000900 -0.221500 0.139700
v -0.003700 -0.179000 0.111200
v 0.000900 -0.179300 0.098800
v 0.000900 -0.176200 0.125600
v 0.000900 -0.126800 0.091900
v 0.000900 -0.338700 -0.081200
v 0.000900 -0.380600 -0.134100
v -0.005900 -0.366500 -0.086600
v 0.000900 -0.388400 -0.086900
v 0.000900 -0.340200 0.224400
v 0.000900 -0.375600 0.192500
v 0.000900 -0.298100 0.244700
v 0.000900 -0.320900 0.194100
v 0.000900 -0.409900 0.039100
v 0.000900 -0.409300 0.019700
v -0.008400 -0.308100 0.022200
v 0.000600 -0.278400 0.020000
v -0.009100 -0.278400 -0.000300
v 0.000900 -0.299300 0.031600
v 0.000600 -0.278400 -0.020900
v -0.008400 -0.308400 -0.020000
v 0.000900 -0.303100 -0.029400
v 0.000900 -0.320600 -0.047500
v -0.008400 -0.326200 0.034400
v 0.000900 -0.311800 0.041300
v 0.006600 -0.615600 -0.055900
v 0.009400 -0.540600 -0.066900
v 0.010600 -0.464300 -0.054700
v 0.010600 -0.411500 -0.017200
v 0.010600 -0.387100 -0.053100
v 0.010600 -0.391500 0.008100
v 0.010300 -0.332400 -0.037500
v 0.010300 -0.308400 -0.020000
v 0.010900 -0.471800 0.119100
v 0.010600 -0.403100 0.071900
v 0.010600 -0.386200 0.149100
v 0.010900 -0.576200 0.107200
v 0.010000 -0.654900 0.089400
v 0.007200 -0.739000 0.090000
v 0.010300 -0.324900 0.065000
v 0.010000 -0.278100 0.113800
v 0.010300 -0.330200 0.050900
v 0.010600 -0.329600 0.134400
v 0.010600 -0.389300 0.037200
v 0.010300 -0.326200 0.034400
v 0.009100 -0.343400 0.192800
v 0.007800 -0.224900 0.115600
v 0.005600 -0.179000 0.111200
v 0.007800 -0.366500 -0.086600
v 0.010300 -0.308100 0.022200
v 0.010600 -0.278400 -0.000300
v 0.000600 -0.192100 0.020000
v -0.009100 -0.192100 -0.000300
v -0.011300 -0.044600 0.016600
v 0.000000 -0.036200 0.020000
v 0.010600 -0.192100 -0.000300
v 0.000600 -0.192100 -0.020900
v 0.013700 -0.044600 -0.016600
v 0.000000 -0.036200 -0.020000
v -0.011300 -0.044600 -0.016600
v 0.013700 -0.044600 0.016600
v 0.013700 -0.051500 -0.000000
v -0.014100 -0.051500 -0.000000
v 0.000000 -0.044600 0.016600
v 0.000000 -0.051500 -0.000000
v 0.000000 -0.044600 -0.016600
v 0.000000 -0.028100 -0.000000
v 0.000000 -0.028100 -0.023400
v 0.000000 -0.011500 -0.016600
v 0.000000 -0.004600 -0.000000
v 0.000000 -0.011500 0.016600
v 0.000000 -0.028100 0.023400
v 0.013700 -0.028100 0.023400
v 0.013700 -0.028100 -0.023400
v 0.013700 -0.011500 -0.016600
v 0.013700 -0.004600 -0.000000
v 0.013700 -0.011500 0.016600
v 0.013700 -0.028100 -0.000000
vt 0.164100 0.375000
vt 0.281300 0.265600
vt 0.226600 0.375000
vt 0.156300 0.480500
vt 0.226600 0.476600
vt 0.203100 0.574200
vt 0.281300 0.558600
vt 0.312500 0.636700
vt 0.218800 0.664100
vt 0.382800 0.660200
vt 0.250000 0.753900
vt 0.343800 0.613300
vt 0.125000 0.375000
vt 0.085900 0.480500
vt 0.125000 0.585900
vt 0.156300 0.652300
vt 0.656300 0.554700
vt 0.750000 0.660200
vt 0.539100 0.644500
vt 0.515600 0.554700
vt 0.492200 0.621100
vt 0.453100 0.664100
vt 0.492200 0.746100
vt 0.796900 0.558600
vt 0.742200 0.418000
vt 0.804700 0.652300
vt 0.859400 0.718800
vt 0.617200 0.414100
vt 0.500000 0.414100
vt 0.570300 0.304700
vt 0.664100 0.300800
vt 0.468800 0.304700
vt 0.562500 0.179700
vt 0.632800 0.175800
vt 0.484400 0.175800
vt 0.640600 0.023400
vt 0.531300 0.753900
vt 0.539100 0.808600
vt 0.492200 0.773400
vt 0.625000 0.804700
vt 0.710900 0.738300
vt 0.757800 0.757800
vt 0.718800 0.808600
vt 0.593800 0.882800
vt 0.531300 0.878900
vt 0.664100 0.886700
vt 0.539100 0.953100
vt 0.500000 0.949200
vt 0.585900 0.957000
vt 0.453100 1.000000
vt 0.156300 0.742200
vt 0.007800 0.668000
vt 0.140600 0.691400
vt 0.117200 0.664100
vt 0.867200 0.679700
vt 0.960900 0.730500
vt 0.984400 0.789100
vt 0.859400 0.750000
vt 0.414100 0.636700
vt 0.453100 0.636700
vt 0.937500 0.003900
vt 0.992200 0.082000
vt 0.875000 0.082000
vt 0.992200 0.003900
vt 0.757800 0.082000
vt 0.757800 0.003900
vt 0.804700 0.003900
vt 0.218800 0.769500
vt 0.250000 0.800800
vt 0.437500 0.753900
vt 0.460900 0.777300
vt 0.398400 0.793000
vt 0.296900 0.793000
vt 0.164100 0.375000
vt 0.156300 0.480500
vt 0.203100 0.574200
vt 0.312500 0.636700
vt 0.218800 0.664100
vt 0.382800 0.660200
vt 0.250000 0.753900
vt 0.296900 0.793000
vt 0.656300 0.554700
vt 0.539100 0.644500
vt 0.750000 0.660200
vt 0.617200 0.414100
vt 0.570300 0.304700
vt 0.562500 0.179700
vt 0.531300 0.753900
vt 0.625000 0.804700
vt 0.492200 0.746100
vt 0.710900 0.738300
vt 0.453100 0.664100
vt 0.437500 0.753900
vt 0.859400 0.718800
vt 0.593800 0.882800
vt 0.539100 0.953100
vt 0.140600 0.691400
vt 0.937500 0.003900
vt 0.875000 0.082000
vt 0.804700 0.003900
vt 0.398400 0.793000
vt 0.445300 0.796900
vt 0.992200 0.414100
vt 0.875000 0.003900
vt 0.992200 0.003900
vt 0.875000 0.003900
vt 0.875000 0.414100
vt 0.937500 0.062500
vt 0.992200 0.046900
vt 0.875000 0.414100
vt 0.757800 0.414100
vt 0.804700 0.062500
vt 0.757800 0.046900
vt 0.757800 0.003900
vt 0.804700 0.062500
vt 0.937500 0.062500
vt 0.875000 0.078100
vt 0.875000 0.078100
vt 0.875000 0.078100
vt 0.953100 0.128900
vt 0.875000 0.128900
vt 0.796900 0.062500
vt 0.796900 0.128900
vt 0.875000 0.078100
vt 0.875000 0.128900
vt 0.953100 0.128900
vt 0.046900 0.109400
vt 0.195300 0.187500
vt 0.226600 0.148400
vt 0.046900 0.214800
vt 0.195300 0.187500
vt 0.226600 0.148400
vt 0.257800 0.109400
vt 0.195300 0.031300
vt 0.046900 0.003900
vt 0.195300 0.031300
vt 0.257800 0.109400
vt 0.203100 0.886700
vt 0.015600 0.816400
vt 0.015600 0.886700
vt 0.203100 0.851600
vt 0.203100 0.851600
vt 0.203100 0.886700
vt 0.015600 0.886700
vt 0.015600 0.953100
vt 0.203100 0.953100
vt 0.015600 0.996100
vt 0.203100 0.996100
vt 0.015600 0.953100
vt 0.203100 0.953100
vt 0.046900 0.109400
vt 0.257800 0.109400
vt 0.195300 0.187500
vt 0.195300 0.031300
vt 0.046900 0.214800
vt 0.195300 0.187500
vt 0.257800 0.109400
vt 0.195300 0.031300
vt 0.046900 0.003900
vt 0.015600 0.816400
vn -0.9932 -0.0741 -0.0901
vn -0.0229 -0.9820 -0.1877
vn -0.0021 0.1149 0.9934
vn -0.9999 -0.0114 0.0001
vn -0.0021 0.1148 0.9934
vn -0.0013 -0.1323 0.9912
vn -0.9990 -0.0348 -0.0267
vn -0.9990 -0.0349 -0.0267
vn 0.0000 -0.4148 0.9099
vn -0.9654 -0.1570 0.2082
vn -0.9851 -0.0883 -0.1478
vn -0.9862 -0.1497 0.0701
vn -0.9521 0.2084 -0.2238
vn 0.0000 -0.6933 0.7207
vn -0.0064 -0.4383 -0.8988
vn -0.0230 -0.9820 -0.1877
vn -0.0031 -0.1566 -0.9877
vn -0.0031 -0.1567 -0.9876
vn -0.9932 -0.0741 -0.0902
vn -0.0006 0.1198 -0.9928
vn -0.0000 -0.2893 -0.9572
vn -0.9995 -0.0312 -0.0002
vn -0.9842 -0.0574 0.1675
vn -0.9917 -0.0766 -0.1034
vn -0.0000 -0.2592 -0.9658
vn 0.0000 -0.7335 -0.6796
vn -0.9917 -0.0766 -0.1033
vn -0.9673 -0.2477 -0.0550
vn -0.9808 0.1947 -0.0143
vn 0.0000 -0.1224 0.9925
vn -0.0015 -0.2264 0.9740
vn -0.0000 -0.1223 0.9925
vn -0.0006 -0.4890 0.8723
vn -0.9893 0.0349 0.1414
vn -0.9985 0.0004 -0.0550
vn -0.0000 0.0973 -0.9953
vn -0.9993 -0.0347 -0.0098
vn -0.0045 -0.1827 0.9832
vn -0.0041 0.0491 -0.9988
vn -0.9993 -0.0348 -0.0098
vn -0.9981 -0.0411 0.0457
vn -0.0020 -0.0748 0.9972
vn -0.0045 -0.1826 0.9832
vn -0.9993 -0.0347 -0.0099
vn -0.0033 -0.2089 -0.9779
vn -0.9993 -0.0348 -0.0099
vn -0.0041 0.0492 -0.9988
vn -0.0096 -0.9943 -0.1060
vn -0.0034 -0.2089 -0.9779
vn -0.0097 -0.9943 -0.1059
vn -0.9735 0.1820 -0.1382
vn -0.0040 0.4913 -0.8710
vn -0.0026 0.9709 -0.2394
vn -0.9957 0.0832 0.0401
vn -0.9736 0.1819 -0.1382
vn -0.9853 0.0849 0.1479
vn -0.9854 0.0849 0.1479
vn -0.0100 0.7002 0.7139
vn -0.0083 0.1026 0.9947
vn -0.0082 0.1027 0.9947
vn -0.9982 0.0571 -0.0201
vn -0.0028 0.1203 -0.9927
vn -0.9957 0.0832 0.0400
vn -0.0029 0.1928 0.9812
vn -0.9982 0.0571 -0.0202
vn -0.0030 0.1928 0.9812
vn -0.9938 0.0512 -0.0987
vn -0.0036 -0.0377 -0.9993
vn -0.9938 0.0511 -0.0988
vn -0.0028 0.1204 -0.9927
vn -0.0028 0.3803 0.9248
vn -0.0029 0.3803 0.9248
vn -0.0030 0.1927 0.9812
vn -0.0036 -0.0373 -0.9993
vn -0.0146 0.8641 -0.5031
vn -0.9938 0.0511 -0.0987
vn -0.0028 0.3804 0.9248
vn -0.0146 0.8641 -0.5030
vn -0.0022 0.8319 -0.5549
vn -0.0055 -0.0923 -0.9957
vn -0.9808 0.0666 -0.1831
vn -0.9808 0.0666 -0.1832
vn -0.0011 -0.8653 -0.5012
vn -0.0055 -0.0922 -0.9957
vn -0.9893 0.0350 0.1413
vn -0.0020 -0.7210 0.6929
vn -0.0019 -0.5701 0.8216
vn -0.0010 0.9027 0.4303
vn -0.0024 0.9856 -0.1688
vn -0.9842 -0.0573 0.1675
vn -0.9893 0.0349 0.1413
vn -0.0000 -0.9818 0.1898
vn -0.0000 -0.9571 -0.2899
vn -0.9215 0.2126 0.3249
vn -0.0053 0.3948 0.9187
vn -0.9923 0.0945 0.0795
vn -0.0015 0.5502 0.8350
vn -0.2542 0.2618 -0.9310
vn -0.0022 0.5408 -0.8412
vn -0.9634 0.1251 -0.2372
vn -0.9634 0.1250 -0.2372
vn -0.2543 0.2618 -0.9310
vn -0.0023 0.7831 -0.6220
vn -0.0022 0.5408 -0.8411
vn -0.0023 0.7830 -0.6220
vn -0.9767 0.1951 0.0894
vn -0.0026 0.9709 -0.2395
vn 0.0000 -0.6933 0.7206
vn -0.0027 0.7846 0.6200
vn -0.9735 0.1819 -0.1382
vn -0.0025 0.9709 -0.2395
vn -0.0011 -0.8654 -0.5012
vn 0.0000 -0.2894 -0.9572
vn 0.9927 -0.0762 -0.0936
vn 0.9999 -0.0109 0.0010
vn 0.9991 -0.0346 -0.0261
vn 0.9654 -0.1570 0.2082
vn 0.9850 -0.0895 -0.1475
vn 0.9861 -0.1504 0.0702
vn 0.9516 0.2093 -0.2250
vn 0.9621 0.1324 -0.2385
vn 0.9927 -0.0762 -0.0937
vn 0.9995 -0.0312 -0.0003
vn 0.9915 -0.0780 -0.1037
vn 0.9839 -0.0598 0.1682
vn 0.9915 -0.0781 -0.1037
vn 0.9984 0.0029 -0.0571
vn 0.9993 -0.0348 -0.0105
vn -0.0000 0.0974 -0.9952
vn 0.9979 -0.0430 0.0479
vn -0.0097 -0.9943 -0.1060
vn 0.9727 0.1832 -0.1423
vn 0.9954 0.0868 0.0397
vn -0.0025 0.9709 -0.2394
vn 0.9806 0.1955 -0.0146
vn 0.9846 0.0851 0.1528
vn 0.9671 -0.2484 -0.0551
vn 0.9764 0.1961 0.0901
vn -0.0082 0.1026 0.9947
vn 0.9890 0.0358 0.1438
vn 0.9980 0.0595 -0.0214
vn -0.0029 0.1927 0.9812
vn 0.9936 0.0519 -0.1003
vn -0.0027 0.1203 -0.9927
vn -0.0023 0.8319 -0.5549
vn 0.9806 0.0667 -0.1843
vn 0.9839 -0.0597 0.1682
vn -0.0006 -0.4889 0.8723
vn -0.0019 -0.7210 0.6929
vn -0.0053 0.3948 0.9188
vn -0.0016 0.5502 0.8350
vn 0.9190 0.2220 0.3259
vn 0.9960 0.0895 0.0016
vn -0.2543 0.2619 -0.9310
vn 0.9764 0.1962 0.0901
vn -0.0027 0.7845 0.6201
vn -0.0016 0.5503 0.8350
vn 0.0000 -0.7336 -0.6796
vn -0.0136 -0.0290 0.9995
vn -0.0136 -0.0291 0.9995
vn -0.9975 -0.0297 -0.0640
vn -0.9975 -0.0298 -0.0639
vn -0.8706 0.4810 0.1034
vn -0.7300 -0.0042 0.6834
vn 0.9995 -0.0323 0.0018
vn 0.9960 0.0895 0.0015
vn 0.2018 -0.0279 -0.9790
vn 0.9995 -0.0323 0.0019
vn 0.8664 -0.0971 -0.4898
vn -0.5812 -0.1082 -0.8066
vn -0.7139 0.6989 0.0434
vn -0.7139 0.6989 0.0435
vn 0.7739 -0.1610 0.6125
vn 0.9999 -0.0110 0.0000
vn -0.7300 -0.0043 0.6834
vn -0.5847 0.8032 -0.1141
vn -0.9975 -0.0297 -0.0639
vn -0.5820 0.6466 -0.4931
vn -0.5817 0.8057 0.1116
vn -0.8706 0.4811 0.1034
vn -0.7350 0.4772 0.4817
vn -1.0000 0.0000 0.0000
vn -0.5816 0.1079 -0.8063
vn -0.5817 0.6474 -0.4924
vn -0.5817 0.8057 0.1117
vn -0.5817 0.4891 0.6499
vn -0.5830 -0.1130 0.8046
vn -0.5830 -0.1129 0.8046
vn 0.5811 0.1095 0.8064
vn -0.5816 0.1080 -0.8063
vn 0.5806 -0.1132 -0.8063
vn 0.5817 0.4891 -0.6499
vn 0.5805 -0.1132 -0.8063
vn 0.5817 0.8057 -0.1116
vn 0.5817 0.4891 -0.6500
vn 0.5817 0.6474 0.4924
vn -0.5817 0.4891 0.6500
vn 0.5811 0.1096 0.8064
vn 1.0000 -0.0000 0.0000
vn 0.5817 0.8057 -0.1117
usemtl TEX_w2dswb2l

f 1/1/1 3/2/2 2/3/3
f 2/3/3 4/4/4 1/1/1
f 4/4/4 2/3/5 5/5/6
f 5/5/6 6/6/7 4/4/4
f 6/6/8 5/5/6 7/7/9
f 7/7/9 8/8/10 6/6/8
f 9/9/11 6/6/8 8/8/10
f 8/8/10 10/10/12 9/9/11
f 11/11/13 9/9/11 10/10/12
f 7/7/9 12/12/14 8/8/10
f 13/13/15 3/2/16 1/1/1
f 1/1/1 14/14/17 13/13/15
f 14/14/18 1/1/19 4/4/4
f 4/4/4 15/15/20 14/14/18
f 15/15/20 4/4/4 6/6/8
f 6/6/8 16/16/21 15/15/20
f 17/17/22 19/18/23 18/19/24
f 18/19/24 20/20/25 17/17/22
f 18/19/24 21/21/26 20/20/25
f 21/21/26 18/19/27 22/22/28
f 23/23/29 22/22/28 18/19/27
f 24/24/30 17/17/22 25/25/31
f 17/17/22 24/24/32 19/18/23
f 26/26/33 19/18/23 24/24/32
f 19/18/23 26/26/33 27/27/34
f 28/28/35 25/25/31 17/17/22
f 17/17/22 29/29/36 28/28/35
f 17/17/22 20/20/25 29/29/36
f 25/25/31 30/30/37 31/31/38
f 30/30/37 25/25/31 28/28/35
f 28/28/35 32/32/39 30/30/40
f 32/32/39 28/28/35 29/29/36
f 31/31/38 33/33/41 34/34/42
f 33/33/41 31/31/43 30/30/44
f 30/30/37 35/35/45 33/33/41
f 35/35/45 30/30/46 32/32/47
f 34/34/42 33/33/41 36/36/48
f 33/33/41 35/35/49 36/36/50
f 37/37/51 38/38/52 39/39/53
f 40/40/54 38/38/52 37/37/51
f 37/37/55 41/41/56 40/40/54
f 41/41/57 43/42/58 42/43/59
f 42/43/60 40/40/54 41/41/56
f 38/38/52 44/44/61 45/45/62
f 44/44/61 38/38/52 40/40/54
f 40/40/63 46/46/64 44/44/65
f 46/46/66 40/40/54 42/43/60
f 45/45/62 47/47/67 48/48/68
f 47/47/69 45/45/70 44/44/65
f 44/44/65 49/49/71 47/47/69
f 49/49/72 44/44/61 46/46/73
f 48/48/74 47/47/69 50/50/75
f 47/47/76 49/49/77 50/50/78
f 51/51/79 52/52/80 53/53/81
f 9/9/11 53/53/82 54/54/83
f 53/53/82 9/9/11 11/11/13
f 52/52/84 54/54/83 53/53/82
f 27/27/85 56/55/86 55/56/87
f 55/56/87 57/57/88 27/27/85
f 58/58/89 27/27/85 57/57/88
f 41/41/56 19/18/90 27/27/91
f 19/18/23 41/41/56 18/19/24
f 27/27/85 43/42/58 41/41/57
f 43/42/58 27/27/85 58/58/89
f 26/26/33 56/55/86 27/27/85
f 22/22/28 60/59/92 59/60/93
f 59/60/93 21/21/26 22/22/28
f 61/61/94 62/62/95 63/63/96
f 62/62/95 61/61/94 64/64/97
f 65/65/98 67/66/99 66/67/100
f 66/67/101 63/63/96 65/65/102
f 68/68/103 51/51/79 53/53/82
f 11/11/13 67/69/104 68/68/105
f 68/68/103 53/53/82 11/11/13
f 69/70/106 23/23/29 39/39/107
f 23/23/29 69/70/106 22/22/28
f 10/10/12 22/22/28 69/70/106
f 22/22/28 10/10/12 60/59/92
f 12/12/108 60/59/92 10/10/12
f 70/71/109 61/72/94 69/70/106
f 11/11/13 10/10/12 66/73/101
f 66/73/101 67/69/99 11/11/13
f 37/37/110 23/23/29 18/19/24
f 23/23/29 37/37/110 39/39/111
f 9/9/11 16/16/21 6/6/8
f 54/54/112 16/16/113 9/9/11
f 41/41/56 37/37/55 18/19/24
f 12/12/108 10/10/12 8/8/10
f 39/39/53 70/71/109 69/70/106
f 69/70/106 66/73/101 10/10/12
f 61/72/94 66/73/101 69/70/106
f 66/67/101 61/61/94 63/63/96
f 71/74/114 2/3/3 3/2/2
f 2/3/3 71/74/114 72/75/115
f 14/14/18 72/75/115 71/74/114
f 72/75/115 14/14/18 15/15/20
f 72/75/115 5/5/6 2/3/5
f 5/5/6 72/75/115 73/76/116
f 15/15/20 73/76/116 72/75/115
f 73/76/116 15/15/20 16/16/21
f 73/76/116 7/7/9 5/5/6
f 7/7/9 73/76/116 74/77/117
f 75/78/118 74/77/117 73/76/116
f 74/77/117 75/78/118 76/79/119
f 77/80/120 76/79/119 75/78/118
f 76/79/119 77/80/120 78/81/121
f 12/12/108 7/7/9 74/77/117
f 13/13/15 71/74/122 3/2/16
f 71/74/122 13/13/15 14/14/17
f 79/82/123 80/83/124 81/84/125
f 80/83/124 79/82/123 20/20/25
f 29/29/36 20/20/25 79/82/123
f 21/21/26 80/83/126 20/20/25
f 24/24/30 25/25/31 79/82/123
f 79/82/123 81/84/125 24/24/32
f 82/85/127 79/82/123 25/25/31
f 25/25/31 83/86/128 82/85/127
f 32/32/47 82/85/127 83/86/128
f 83/86/128 35/35/45 32/32/47
f 82/85/127 29/29/129 79/82/123
f 31/31/38 83/86/128 25/25/31
f 31/31/38 34/34/42 84/87/130
f 84/87/130 83/86/128 31/31/38
f 84/87/130 35/35/45 83/86/128
f 84/87/130 34/34/42 36/36/48
f 35/35/49 84/87/130 36/36/131
f 85/88/132 38/38/52 86/89/133
f 38/38/52 85/88/132 39/39/134
f 87/90/135 39/39/134 85/88/132
f 85/88/132 86/89/133 88/91/136
f 88/91/136 80/83/124 85/88/132
f 87/90/135 85/88/132 80/83/124
f 80/83/124 89/92/137 87/90/135
f 90/93/138 87/90/135 89/92/137
f 89/92/137 76/79/119 90/93/138
f 88/91/136 86/89/133 42/43/139
f 42/43/139 43/42/58 88/91/136
f 91/94/140 88/91/136 43/42/58
f 43/42/58 58/58/89 91/94/140
f 57/57/88 91/94/140 58/58/89
f 38/38/52 45/45/62 92/95/141
f 92/95/141 86/89/133 38/38/52
f 86/89/133 92/95/141 46/46/142
f 46/46/66 42/43/60 86/89/133
f 45/45/62 48/48/68 93/96/143
f 93/96/143 92/95/141 45/45/144
f 92/95/141 93/96/143 49/49/72
f 49/49/72 46/46/73 92/95/141
f 93/96/143 48/48/68 50/50/75
f 49/49/72 93/96/143 50/50/75
f 52/52/84 51/51/145 94/97/146
f 54/54/112 94/97/146 75/78/118
f 75/78/118 16/16/113 54/54/112
f 54/54/112 52/52/84 94/97/146
f 91/94/140 55/56/87 56/55/86
f 55/56/87 91/94/140 57/57/88
f 91/94/140 81/84/147 88/91/136
f 81/84/125 91/94/140 26/26/148
f 56/55/149 26/26/148 91/94/140
f 59/60/93 60/59/92 89/92/137
f 81/84/125 80/83/124 88/91/136
f 62/62/150 64/64/151 95/98/152
f 65/65/102 96/99/153 78/100/121
f 78/100/121 67/66/104 65/65/154
f 51/51/145 68/68/105 94/97/146
f 77/80/120 68/68/105 67/69/104
f 67/69/104 78/81/121 77/80/120
f 90/93/138 39/39/107 87/90/135
f 39/39/107 90/93/155 70/71/156
f 95/101/152 70/71/156 90/93/155
f 70/71/156 95/101/152 64/102/157
f 62/62/95 95/98/152 96/99/153
f 78/81/121 90/93/138 76/79/119
f 90/93/138 78/81/121 95/101/152
f 76/79/119 60/59/92 12/12/108
f 12/12/108 74/77/117 76/79/119
f 59/60/93 89/92/137 21/21/26
f 60/59/92 76/79/119 89/92/137
f 16/16/113 75/78/118 73/76/116
f 24/24/32 81/84/125 26/26/148
f 77/80/120 75/78/118 94/97/146
f 68/68/105 77/80/120 94/97/146
f 89/92/137 80/83/124 21/21/158
f 95/98/152 78/100/121 96/99/153
f 29/29/129 82/85/127 32/32/47
f 97/103/159 63/104/96 62/105/95
f 62/105/95 96/106/153 97/103/160
f 97/103/159 98/107/161 63/104/96
f 98/107/162 97/103/160 99/108/163
f 100/109/164 99/108/163 97/103/160
f 101/110/165 97/103/160 96/106/166
f 96/106/153 102/111/167 101/110/168
f 103/112/169 101/110/168 102/111/167
f 102/111/167 104/113/170 103/112/169
f 98/107/161 65/114/102 63/104/96
f 65/114/102 98/107/161 102/111/167
f 105/115/171 102/111/167 98/107/161
f 102/111/167 105/115/172 104/113/170
f 96/106/153 65/114/102 102/111/167
f 64/102/157 61/72/94 70/71/109
f 106/116/173 97/103/160 101/110/165
f 101/110/168 107/117/174 106/116/173
f 106/116/173 100/109/175 97/103/160
f 103/112/169 107/117/174 101/110/168
f 108/118/176 98/107/177 99/108/163
f 105/115/172 98/107/177 108/118/176
f 99/119/163 100/120/175 109/121/178
f 108/122/176 109/121/178 110/123/179
f 110/123/179 105/124/172 108/122/176
f 108/122/176 99/119/180 109/121/178
f 105/124/172 110/123/179 111/125/181
f 111/125/181 104/126/170 105/124/172
f 112/127/182 109/128/178 100/129/175
f 109/128/178 112/127/182 110/130/179
f 112/127/182 111/131/181 110/130/179
f 111/131/181 112/127/182 104/132/170
f 112/127/182 113/133/183 104/132/170
f 113/133/183 112/127/182 114/134/184
f 112/127/182 115/135/185 114/134/184
f 115/135/185 112/127/182 116/136/186
f 112/127/182 117/137/187 116/136/186
f 117/137/187 112/127/182 100/129/175
f 117/138/188 106/139/173 118/140/189
f 106/139/173 117/138/188 100/141/164
f 104/142/170 113/143/190 119/144/191
f 113/143/183 120/145/192 119/144/193
f 120/145/192 113/143/183 114/146/184
f 114/146/184 121/147/194 120/145/195
f 121/147/194 114/146/184 115/148/179
f 115/148/179 122/149/196 121/147/194
f 122/149/196 115/148/179 116/150/197
f 116/150/186 118/140/198 122/149/196
f 118/140/198 116/150/186 117/138/188
f 123/151/199 118/152/198 106/153/173
f 118/152/198 123/151/199 122/154/196
f 123/151/199 106/153/173 107/155/174
f 123/151/199 107/155/174 103/156/169
f 123/151/199 103/156/169 119/157/191
f 123/151/199 119/157/191 120/158/192
f 123/151/199 120/158/192 121/159/200
f 123/151/199 121/159/200 122/154/196
f 103/160/169 104/142/170 119/144/191
