# Blender v2.79 (sub 0) OBJ File: ''
# www.blender.org
mtllib dualswords09l.mtl
o MDL_w2dsw09_bld00_001
v 0.000000 -0.433100 -0.005200
v 0.000000 -0.392300 0.034000
v 0.008000 -0.365400 -0.034700
v -0.008100 -0.365400 -0.034700
v 0.000000 -0.434200 -0.061400
v 0.000000 -0.395000 -0.102200
v 0.000000 -0.338900 -0.103000
v 0.000000 -0.297900 -0.064200
v 0.000000 -0.296800 -0.007800
v 0.000000 -0.335900 0.032800
vt 0.984400 0.656300
vt 0.992200 0.812500
vt 0.773400 0.707000
vt 0.992200 0.812500
vt 0.773400 0.707000
vt 0.687500 0.812500
vt 0.773400 0.707000
vt 0.984400 0.656300
vt 0.773400 0.707000
vt 0.687500 0.812500
vn 0.0009 -0.9160 0.4013
vn 1.0000 0.0002 -0.0002
vn 0.0009 -0.3632 0.9317
vn -1.0000 0.0001 -0.0002
vn 0.0008 -0.9311 -0.3648
vn 0.0008 -0.3979 -0.9174
vn -1.0000 0.0001 -0.0001
vn 0.0008 0.3635 -0.9316
vn 0.0008 0.9143 -0.4050
vn 0.0009 0.9311 0.3649
vn 0.0009 0.4013 0.9159
usemtl TEX_w2dsw09_001

f 1/1/1 3/2/2 2/3/3
f 2/3/3 4/4/4 1/1/1
f 5/5/5 1/1/1 4/4/4
f 3/2/2 1/1/1 5/5/5
f 6/6/6 3/2/2 5/5/5
f 5/5/5 4/4/7 6/6/6
f 7/7/8 6/6/6 4/4/7
f 3/2/2 6/6/6 7/7/8
f 8/8/9 3/2/2 7/7/8
f 7/7/8 4/4/4 8/8/9
f 9/9/10 8/8/9 4/4/4
f 3/2/2 8/8/9 9/9/10
f 10/10/11 3/2/2 9/9/10
f 9/9/10 4/4/7 10/10/11
f 2/3/3 10/10/11 4/4/7
f 3/2/2 10/10/11 2/3/3
o MDL_w2dsw09_bld01_001
v 0.000000 -0.553300 -0.046100
v 0.000000 -0.521200 -0.015300
v 0.008000 -0.500100 -0.069400
v -0.008100 -0.500100 -0.069400
v 0.000000 -0.554100 -0.090500
v 0.000000 -0.523400 -0.122500
v 0.000000 -0.479100 -0.123100
v 0.000000 -0.446900 -0.092600
v 0.000000 -0.446000 -0.048300
v 0.000000 -0.476900 -0.016200
vt 0.984400 0.656300
vt 0.992200 0.812500
vt 0.773400 0.707000
vt 0.992200 0.812500
vt 0.773400 0.707000
vt 0.687500 0.812500
vt 0.773400 0.707000
vt 0.984400 0.656300
vt 0.773400 0.707000
vt 0.687500 0.812500
vn 0.0007 -0.9163 0.4006
vn 1.0000 0.0000 -0.0003
vn 0.0010 -0.3637 0.9315
vn -1.0000 0.0000 -0.0003
vn 0.0010 -0.9311 -0.3648
vn 0.0010 -0.3978 -0.9175
vn -1.0000 0.0000 -0.0002
vn 0.0012 0.3637 -0.9315
vn 0.0010 0.9142 -0.4053
vn 0.0009 0.9312 0.3645
vn 0.0010 0.4009 0.9161
usemtl TEX_w2dsw09_001

f 11/11/12 13/12/13 12/13/14
f 12/13/14 14/14/15 11/11/12
f 15/15/16 11/11/12 14/14/15
f 13/12/13 11/11/12 15/15/16
f 16/16/17 13/12/13 15/15/16
f 15/15/16 14/14/18 16/16/17
f 17/17/19 16/16/17 14/14/18
f 13/12/13 16/16/17 17/17/19
f 18/18/20 13/12/13 17/17/19
f 17/17/19 14/14/15 18/18/20
f 19/19/21 18/18/20 14/14/15
f 13/12/13 18/18/20 19/19/21
f 20/20/22 13/12/13 19/19/21
f 19/19/21 14/14/15 20/20/22
f 12/13/14 20/20/22 14/14/15
f 13/12/13 20/20/22 12/13/14
o MDL_w2dsw09_bod00_001
v 0.016200 -0.365700 -0.035900
v 0.016200 -0.331900 -0.098100
v 0.016200 -0.436900 -0.059000
v 0.009100 -0.280000 -0.017800
v 0.016200 -0.576000 -0.148400
v 0.016200 -0.553200 -0.075600
v 0.016200 -0.453200 -0.137500
v -0.016200 -0.365700 -0.035900
v -0.016200 -0.436900 -0.059000
v -0.016200 -0.553200 -0.075600
v 0.016200 -0.589400 -0.065000
v 0.016200 -0.318500 0.014700
v -0.016200 -0.318500 0.014700
v 0.009100 -0.239400 -0.041200
v -0.008800 -0.239400 0.052200
v 0.000000 -0.280400 0.061300
v 0.009100 -0.239400 0.052200
v 0.000000 -0.331300 0.081900
v 0.009100 -0.280000 0.028800
v -0.008800 -0.280000 0.028800
v -0.016200 -0.617500 -0.102500
v 0.016200 -0.617500 -0.102500
v -0.016200 -0.656000 -0.083400
v 0.016200 -0.656000 -0.083400
v 0.000000 -0.631300 -0.034000
v 0.016200 -0.709400 -0.182100
v -0.016200 -0.709400 -0.182100
v -0.016200 -0.576000 -0.148400
v 0.000000 -0.853800 -0.272100
v 0.000000 -0.774400 -0.143700
v 0.000000 -0.688500 -0.066800
v -0.016200 -0.331900 -0.098100
v -0.016200 -0.453200 -0.137500
v -0.008800 -0.280000 -0.017800
v -0.008800 -0.239400 -0.041200
v -0.016200 -0.589400 -0.065000
v 0.009100 -0.239400 0.005400
v 0.009100 -0.198800 0.028800
v -0.011300 -0.239400 0.005400
v -0.008800 -0.198800 -0.017800
v 0.009100 -0.198800 -0.017800
v -0.008800 -0.198800 0.028800
v 0.000000 -0.178800 0.014400
v 0.009100 -0.102500 -0.014000
v 0.000000 -0.000400 -0.005000
v 0.000000 -0.103500 0.007900
v -0.008800 -0.102500 -0.014000
v -0.008800 -0.040700 -0.031800
v 0.009100 -0.040700 -0.031800
v -0.013100 -0.239400 0.032500
v 0.013100 -0.262200 0.019100
v 0.013100 -0.239400 0.032500
v -0.013100 -0.262200 0.019100
v 0.013100 -0.262200 -0.008100
v -0.013100 -0.262200 -0.008100
v 0.013100 -0.239400 -0.021800
v -0.013100 -0.239400 -0.021800
v 0.013100 -0.216300 -0.008100
v -0.013100 -0.216300 -0.008100
v 0.013100 -0.216300 0.019100
v -0.013100 -0.216300 0.019100
v 0.012800 -0.260000 0.017500
v 0.012800 -0.260000 -0.006800
v 0.012800 -0.239400 0.029700
v 0.012800 -0.239400 -0.019000
v 0.012800 -0.218800 -0.006800
v 0.012800 -0.218800 0.017500
v 0.019700 -0.239400 0.005400
v -0.013100 -0.260000 0.017500
v -0.013100 -0.260000 -0.006800
v -0.013100 -0.239400 0.029700
v -0.013100 -0.239400 -0.019000
v -0.013100 -0.218800 -0.006800
v -0.013100 -0.218800 0.017500
v -0.019700 -0.239400 0.005400
v -0.027500 -0.330400 0.025400
v 0.027500 -0.301300 0.011900
v -0.027500 -0.301300 0.011900
v 0.027500 -0.330400 0.025400
v -0.027500 -0.573500 -0.056800
v 0.027500 -0.579100 -0.154000
v 0.027500 -0.573500 -0.056800
v -0.027500 -0.579100 -0.154000
v 0.027500 -0.343200 -0.054300
v 0.027500 -0.237200 -0.042800
v 0.027500 -0.316000 -0.088400
v 0.027500 -0.318500 -0.020300
v 0.027500 -0.388800 -0.068100
v 0.027500 -0.398800 -0.124600
v 0.027500 -0.436300 -0.048400
v 0.027500 -0.488800 -0.140900
v 0.027500 -0.455400 -0.075600
v 0.027500 -0.489400 -0.090300
v 0.000000 -0.484100 -0.163700
v 0.000000 -0.394400 -0.147500
v -0.027500 -0.488800 -0.140900
v -0.027500 -0.398800 -0.124600
v -0.027500 -0.455400 -0.075600
v 0.027500 -0.532900 -0.086500
v -0.027500 -0.343200 -0.054300
v -0.027500 -0.318500 -0.020300
v -0.027500 -0.388800 -0.068100
v -0.027500 -0.436300 -0.048400
v -0.027500 -0.489400 -0.090300
v -0.027500 -0.534100 -0.086200
v -0.027500 -0.237200 -0.042800
v -0.027500 -0.316000 -0.088400
v 0.000000 -0.308200 -0.110300
v 0.000000 -0.582500 -0.168700
v 0.000000 -0.229400 -0.051800
vt 0.257800 0.300800
vt 0.257800 0.238300
vt 0.015600 0.156300
vt 0.093800 0.386700
vt 0.484400 0.128900
vt 0.601600 0.203100
vt 0.703100 0.168000
vt 0.531300 0.043000
vt 0.406300 0.007800
vt 0.398400 0.539100
vt 0.273400 0.617200
vt 0.398400 0.617200
vt 0.273400 0.539100
vt 0.320300 0.539100
vt 0.140600 0.617200
vt 0.320300 0.617200
vt 0.531300 0.539100
vt 0.140600 0.539100
vt 0.171900 0.539100
vt 0.171900 0.617200
vt 0.015600 0.324200
vt 0.718800 0.035200
vt 0.687500 0.003900
vt 0.640600 0.035200
vt 0.007800 0.578100
vt 0.429700 0.527300
vt 0.304700 0.406300
vt 0.109400 0.472700
vt 0.179700 0.527300
vt 0.109400 0.472700
vt 0.046900 0.527300
vt 0.046900 0.527300
vt 0.375000 0.617200
vt 0.375000 0.539100
vt 0.140600 0.539100
vt 0.640600 0.441400
vt 0.531300 0.382800
vt 0.375000 0.449200
vt 0.570300 0.617200
vt 0.570300 0.539100
vt 0.718800 0.574200
vt 0.585900 0.320300
vt 0.296900 0.234400
vt 0.585900 0.527300
vt 0.078100 0.207000
vt 0.078100 0.324200
vt 0.015600 0.324200
vt 0.015600 0.207000
vt 0.031300 0.066400
vt 0.437500 0.132800
vt 0.656300 0.261700
vt 0.585900 0.320300
vt 0.718800 0.355500
vt 0.062500 0.007800
vt 0.296900 0.234400
vt 0.257800 0.238300
vt 0.257800 0.300800
vt 0.015600 0.156300
vt 0.484400 0.128900
vt 0.703100 0.168000
vt 0.601600 0.203100
vt 0.531300 0.043000
vt 0.406300 0.007800
vt 0.304700 0.406300
vt 0.093800 0.386700
vt 0.015600 0.324200
vt 0.375000 0.449200
vt 0.640600 0.441400
vt 0.585900 0.527300
vt 0.531300 0.382800
vt 0.875000 0.078100
vt 0.992200 0.078100
vt 0.929700 0.023400
vt 0.937500 0.136700
vt 0.812500 0.023400
vt 0.750000 0.078100
vt 0.875000 0.078100
vt 0.929700 0.023400
vt 0.992200 0.078100
vt 0.812500 0.023400
vt 0.750000 0.078100
vt 0.812500 0.136700
vt 0.640600 0.050800
vt 0.718800 0.105500
vt 0.718800 0.050800
vt 0.640600 0.105500
vt 0.640600 0.105500
vt 0.718800 0.035200
vt 0.718800 0.105500
vt 0.640600 0.035200
vt 0.812500 0.136700
vt 0.757800 0.156300
vt 0.945300 0.175800
vt 0.976600 0.156300
vt 0.820300 0.304700
vt 0.976600 0.156300
vt 0.867200 0.457000
vt 0.945300 0.289100
vt 0.820300 0.304700
vt 0.734400 0.421900
vt 0.734400 0.421900
vt 0.765600 0.421900
vt 0.781300 0.304700
vt 0.812500 0.304700
vt 0.226600 0.582000
vt 0.398400 0.566400
vt 0.226600 0.566400
vt 0.398400 0.582000
vt 0.226600 0.566400
vt 0.226600 0.582000
vt 0.398400 0.566400
vt 0.398400 0.582000
vt 0.226600 0.566400
vt 0.226600 0.582000
vt 0.398400 0.566400
vt 0.398400 0.582000
vt 0.445300 0.582000
vt 0.515600 0.566400
vt 0.515600 0.582000
vt 0.445300 0.566400
vt 0.445300 0.566400
vt 0.515600 0.582000
vt 0.515600 0.566400
vt 0.445300 0.582000
vt 0.515600 0.582000
vt 0.445300 0.566400
vt 0.515600 0.566400
vt 0.445300 0.582000
vt 0.976600 0.535200
vt 0.914100 0.480500
vt 0.859400 0.535200
vt 0.796900 0.480500
vt 0.734400 0.535200
vt 0.796900 0.593800
vt 0.914100 0.593800
vt 0.781300 0.156300
vt 0.750000 0.156300
vt 0.937500 0.136700
vt 0.757800 0.156300
vt 0.515600 0.582000
vt 0.515600 0.566400
vt 0.445300 0.582000
vt 0.445300 0.566400
vt 0.445300 0.566400
vt 0.515600 0.582000
vt 0.515600 0.566400
vt 0.445300 0.582000
vt 0.515600 0.582000
vt 0.445300 0.566400
vt 0.515600 0.566400
vt 0.445300 0.582000
vt 0.914100 0.480500
vt 0.976600 0.535200
vt 0.859400 0.535200
vt 0.796900 0.480500
vt 0.734400 0.535200
vt 0.796900 0.593800
vt 0.914100 0.593800
vt 0.531300 0.617200
vt 0.140600 0.617200
vt 0.656300 0.664100
vt 0.492200 0.660200
vt 0.656300 0.660200
vt 0.492200 0.664100
vt 0.656300 0.664100
vt 0.492200 0.648400
vt 0.492200 0.664100
vt 0.656300 0.648400
vt 0.351600 0.808600
vt 0.132800 0.804700
vt 0.085900 0.996100
vt 0.375000 0.902300
vt 0.851600 0.882800
vt 0.609400 0.996100
vt 0.828100 0.984400
vt 0.609400 0.820300
vt 0.984400 0.820300
vt 0.609400 0.820300
vt 0.867200 0.914100
vt 0.828100 0.839800
vt 0.609400 0.996100
vt 0.492200 0.820300
vt 0.492200 0.996100
vt 0.609400 0.820300
vt 0.609400 0.996100
vt 0.867200 0.914100
vt 0.093800 0.625000
vt 0.382800 0.718800
vt 0.460900 0.625000
vt 0.132800 0.800800
vt 0.351600 0.804700
vt 0.656300 0.707000
vt 0.492200 0.785200
vt 0.656300 0.785200
vt 0.492200 0.707000
vt 0.656300 0.683600
vt 0.492200 0.785200
vt 0.656300 0.785200
vt 0.492200 0.683600
vt 0.656300 0.703100
vt 0.492200 0.703100
vt 0.492200 0.765600
vt 0.656300 0.714800
vt 0.492200 0.769500
vt 0.656300 0.769500
vt 0.492200 0.714800
vt 0.656300 0.726600
vt 0.492200 0.726600
vt 0.492200 0.793000
vt 0.656300 0.710900
vt 0.492200 0.781300
vt 0.656300 0.781300
vt 0.492200 0.710900
vt 0.656300 0.683600
vt 0.492200 0.683600
vt 0.492200 0.773400
vt 0.351600 0.808600
vt 0.085900 0.996100
vt 0.132800 0.804700
vt 0.375000 0.902300
vt 0.328100 0.996100
vt 0.460900 0.996100
vt 0.609400 0.820300
vt 0.851600 0.882800
vt 0.609400 0.996100
vt 0.492200 0.996100
vt 0.492200 0.820300
vt 0.984400 0.820300
vt 0.828100 0.839800
vt 0.382800 0.718800
vt 0.351600 0.804700
vt 0.132800 0.800800
vt 0.093800 0.625000
vt 0.460900 0.625000
vt 0.492200 0.652300
vt 0.656300 0.652300
vt 0.492200 0.761700
vt 0.656300 0.691400
vt 0.492200 0.691400
vt 0.656300 0.761700
vt 0.328100 0.996100
vt 0.460900 0.996100
vt 0.570300 0.621100
vt 0.015600 0.804700
vt 0.015600 0.996100
vt 0.015600 0.800800
vt 0.015600 0.625000
vt 0.570300 0.621100
vt 0.656300 0.765600
vt 0.828100 0.984400
vt 0.656300 0.773400
vt 0.984400 0.968800
vt 0.656300 0.793000
vt 0.984400 0.968800
vn 0.7336 -0.3918 0.5552
vn 0.8009 -0.1519 0.5792
vn 0.9993 0.0278 0.0261
vn 0.9978 0.0660 0.0016
vn 0.5625 -0.0004 0.8268
vn 0.9487 0.0775 -0.3066
vn 1.0000 0.0000 0.0000
vn -0.7315 -0.2854 0.6192
vn -0.8010 -0.1184 0.5869
vn -0.8009 -0.1184 0.5869
vn -0.5625 0.1183 0.8183
vn 0.5198 -0.2699 0.8105
vn 0.7336 -0.3918 0.5553
vn 0.8916 -0.4077 0.1969
vn -0.7680 -0.5380 0.3475
vn -0.7315 -0.2855 0.6192
vn 0.9519 0.1704 -0.2547
vn -0.7916 0.1524 0.5917
vn -0.0027 0.0643 0.9979
vn 0.6829 0.2458 0.6879
vn 0.8917 -0.4077 0.1969
vn -0.0016 -0.5719 0.8203
vn 0.9905 0.0380 0.1324
vn -0.9900 0.0250 0.1389
vn -0.6413 -0.3707 0.6718
vn 0.6413 0.0284 0.7668
vn 0.5198 -0.2699 0.8106
vn -0.8913 0.2018 0.4060
vn 0.6413 0.0284 0.7667
vn 0.9581 0.1277 0.2563
vn 0.0001 0.7611 0.6486
vn 0.9581 0.1276 0.2564
vn 0.8719 0.1212 -0.4744
vn -0.7433 0.1649 -0.6483
vn -0.9864 0.0399 -0.1595
vn 0.9487 0.0774 -0.3066
vn -0.7434 0.1649 -0.6482
vn 0.0001 0.2642 -0.9645
vn 0.0000 -0.7746 0.6324
vn 0.0000 -0.5818 0.8134
vn -0.8913 0.2019 0.4061
vn 0.0000 0.7611 0.6487
vn -0.0000 -0.7747 0.6324
vn -0.9992 0.0290 0.0273
vn -0.9864 0.0403 -0.1594
vn -1.0000 0.0000 0.0000
vn -0.9985 0.0534 -0.0074
vn -0.9900 0.0250 0.1388
vn -0.9985 0.0533 -0.0074
vn -0.8245 0.2858 -0.4884
vn -0.7726 -0.2006 0.6024
vn 0.6829 0.2459 0.6879
vn 0.7912 0.4072 0.4562
vn 0.9978 0.0660 0.0015
vn 0.9519 0.1703 -0.2547
vn -1.0000 -0.0000 -0.0001
vn -0.9985 0.0534 -0.0073
vn -0.8245 0.2857 -0.4884
vn -0.8052 0.2208 -0.5504
vn -0.9992 0.0290 0.0272
vn 0.8057 0.3000 -0.5108
vn 0.9519 0.1703 -0.2548
vn -0.8051 0.2209 -0.5504
vn -0.6586 0.4700 0.5876
vn -0.0047 0.5636 0.8261
vn 0.8171 -0.0731 -0.5718
vn -0.0047 0.5635 0.8261
vn -0.0073 0.8990 0.4380
vn -0.0059 0.1051 0.9944
vn -0.0059 0.1052 0.9944
vn -0.9821 -0.0271 -0.1865
vn -0.3586 0.0237 -0.9332
vn 0.5186 0.1833 -0.8351
vn -0.3585 0.0238 -0.9332
vn -0.9821 -0.0272 -0.1864
vn -0.7508 -0.1280 0.6480
vn 0.7864 -0.4448 0.4286
vn 0.7857 0.1474 0.6008
vn -0.7494 -0.6262 0.2153
vn 0.7863 -0.5944 -0.1683
vn 0.7864 -0.4448 0.4287
vn -0.7486 -0.5066 -0.4278
vn 0.7876 -0.1541 -0.5966
vn 0.7864 -0.5944 -0.1683
vn -0.7524 0.1267 -0.6464
vn 0.7841 0.4525 -0.4248
vn 0.7876 -0.1542 -0.5966
vn -0.7491 0.6267 -0.2147
vn 0.7840 0.5958 0.1742
vn -0.7498 0.5008 0.4324
vn 0.7857 0.1474 0.6007
vn 0.9989 -0.0448 0.0124
vn 0.9991 -0.0285 -0.0317
vn 0.9988 -0.0115 0.0471
vn 0.9990 0.0140 -0.0431
vn 0.9988 0.0473 -0.0114
vn 0.9988 0.0473 -0.0113
vn 0.9987 0.0372 0.0354
vn 1.0000 -0.0000 0.0003
vn 1.0000 -0.0000 0.0004
vn -0.8051 0.2208 -0.5504
vn 0.8171 -0.0732 -0.5718
vn 0.8057 0.3001 -0.5108
vn -0.7916 0.1523 0.5917
vn -0.6586 0.4701 0.5876
vn -0.9943 -0.0929 0.0525
vn -0.9943 -0.0928 -0.0523
vn -0.9945 0.0000 0.1050
vn -0.9945 -0.0000 -0.1046
vn -0.9943 0.0928 -0.0523
vn -0.9943 0.0929 0.0525
vn -1.0000 0.0000 0.0003
vn -0.7726 -0.2006 0.6023
vn -0.5378 -0.0678 0.8403
vn 0.5579 0.4158 0.7182
vn -0.5579 0.4795 0.6774
vn 0.5378 -0.8147 0.2168
vn -0.4682 -0.3751 0.8000
vn 0.7083 -0.6410 -0.2956
vn 0.7229 -0.2948 0.6249
vn -0.8081 -0.4721 -0.3522
vn 0.7236 -0.3349 0.6035
vn 0.9059 0.1834 -0.3817
vn 0.7945 0.5879 0.1523
vn 0.7377 -0.6358 0.2271
vn 0.7256 0.1153 0.6784
vn 0.9332 0.0913 -0.3474
vn 0.6366 -0.3991 0.6599
vn 0.9608 0.0446 -0.2736
vn 0.7190 -0.3863 0.5777
vn 0.5660 -0.0617 0.8221
vn 0.1152 0.1276 -0.9851
vn 0.9332 0.0914 -0.3474
vn -0.0003 0.2901 -0.9570
vn -0.9331 0.0599 -0.3547
vn -0.9332 0.1176 -0.3397
vn -0.7190 -0.4874 0.4954
vn 0.7184 0.3060 0.6248
vn 0.7228 -0.2949 0.6250
vn -0.7236 -0.4601 0.5144
vn -0.7377 -0.6748 0.0206
vn -0.7236 -0.4602 0.5144
vn -0.7256 -0.0475 0.6864
vn 0.7236 -0.3348 0.6035
vn 0.7256 0.1152 0.6784
vn -0.6367 -0.0166 0.7710
vn 0.6367 -0.3990 0.6599
vn 0.7256 0.1153 0.6783
vn 0.6367 -0.3991 0.6598
vn 0.7190 -0.3864 0.5777
vn -0.5654 -0.1986 0.8005
vn 0.5660 -0.0618 0.8221
vn -0.7196 0.1859 0.6690
vn -0.7197 0.1859 0.6690
vn 0.7184 0.3059 0.6248
vn -0.4682 -0.3752 0.8000
vn 0.7229 -0.2949 0.6249
vn -0.8654 0.5011 0.0028
vn -0.9417 0.1520 -0.3003
vn -0.5379 -0.0678 0.8403
vn -0.7256 -0.0475 0.6865
vn -0.1122 0.4891 -0.8650
vn -0.0004 0.2901 -0.9570
vn -0.6366 -0.0166 0.7710
vn 0.7945 0.5879 0.1522
vn -0.8653 0.5012 0.0027
vn 0.5379 -0.8147 0.2168
vn 0.0001 -0.4978 -0.8673
vn 0.0000 0.9144 -0.4049
vn 0.0000 -0.4977 -0.8673
vn -0.8654 0.5011 0.0027
vn -0.0001 0.9144 -0.4049
vn -0.7256 -0.0474 0.6864
vn -0.7190 -0.4874 0.4955
usemtl TEX_w2dsw09_001

f 21/21/23 23/22/24 22/23/25
f 22/23/25 24/24/26 21/21/23
f 23/25/24 26/26/27 25/27/28
f 25/27/28 27/28/29 23/25/24
f 22/29/25 23/25/24 27/28/29
f 23/30/24 28/31/30 29/32/31
f 28/31/30 23/30/24 21/33/23
f 26/34/27 29/35/32 30/36/33
f 30/36/33 31/37/34 26/34/27
f 26/34/27 23/38/24 29/35/32
f 21/33/35 32/39/36 33/40/37
f 21/33/35 33/40/37 28/31/38
f 22/23/25 34/41/39 24/24/26
f 35/42/40 36/43/41 37/44/42
f 32/39/43 38/45/44 33/40/37
f 38/46/44 32/47/43 39/48/45
f 39/48/45 36/49/41 38/46/44
f 40/50/46 38/46/44 36/49/41
f 36/49/41 35/51/40 40/50/46
f 36/49/41 39/48/45 37/52/42
f 41/53/47 42/54/48 31/55/49
f 31/56/49 42/57/48 25/58/28
f 43/59/50 42/54/51 41/53/47
f 42/54/51 43/59/50 44/60/52
f 45/61/53 44/60/52 43/59/50
f 42/57/48 44/62/54 25/58/28
f 44/62/54 46/63/55 25/58/28
f 26/64/27 31/56/34 25/58/28
f 47/65/56 48/66/57 25/67/58
f 46/68/55 47/65/56 25/67/28
f 47/65/59 46/68/55 49/69/60
f 50/70/61 46/63/55 44/62/54
f 44/62/54 51/71/62 50/70/61
f 43/72/63 50/70/61 51/71/62
f 51/71/62 44/62/54 45/73/64
f 49/74/60 46/63/55 50/70/65
f 50/70/61 47/75/59 49/74/60
f 29/76/32 28/77/30 52/78/66
f 29/79/32 48/80/67 30/81/33
f 48/80/67 29/79/32 53/82/68
f 52/83/66 53/82/68 29/79/32
f 28/77/30 33/84/37 54/85/69
f 33/84/37 40/50/70 54/85/71
f 40/50/46 33/84/37 38/46/44
f 54/85/69 55/86/72 52/78/66
f 48/87/67 56/88/73 30/89/33
f 47/75/56 43/72/63 48/87/67
f 43/72/63 47/75/59 50/70/61
f 48/87/67 43/72/63 41/90/47
f 51/71/62 45/73/64 43/72/63
f 57/91/29 37/92/74 39/93/45
f 37/92/74 57/91/29 58/94/75
f 57/91/29 39/93/45 24/95/76
f 57/91/29 24/95/76 34/96/77
f 59/97/78 40/98/46 35/99/40
f 40/98/46 59/97/78 54/100/79
f 59/97/78 55/101/80 54/100/79
f 55/101/80 59/97/78 60/102/81
f 28/77/30 54/85/69 52/78/82
f 32/47/43 24/24/76 39/48/45
f 21/21/23 24/24/26 32/47/36
f 55/103/72 61/104/83 34/105/84
f 61/104/83 55/103/80 60/106/85
f 62/107/86 37/108/74 58/109/75
f 37/108/74 62/107/86 35/110/40
f 57/91/29 34/96/77 61/111/83
f 57/91/29 61/111/83 58/94/75
f 61/112/83 63/113/87 58/114/75
f 63/113/87 61/112/83 64/115/88
f 62/116/86 58/114/75 63/113/89
f 65/117/90 66/118/91 64/115/88
f 66/118/92 65/117/90 67/119/93
f 68/120/94 67/119/93 65/117/90
f 65/117/90 64/115/88 69/121/95
f 69/121/95 68/122/94 65/117/90
f 68/122/96 64/123/88 67/124/97
f 64/123/88 68/122/94 69/121/95
f 70/125/98 71/126/99 72/127/100
f 71/126/99 70/125/98 73/128/101
f 73/128/101 74/129/102 71/126/103
f 74/129/102 73/128/101 75/130/104
f 75/130/104 76/131/105 74/129/106
f 76/131/105 75/130/104 77/132/107
f 77/132/107 78/133/108 76/131/109
f 78/133/108 77/132/107 79/134/110
f 79/134/110 80/135/111 78/133/108
f 80/135/111 79/134/110 81/136/112
f 81/136/112 72/127/113 80/135/111
f 72/127/113 81/136/112 70/125/98
f 82/137/114 72/138/100 71/139/99
f 71/139/99 83/140/115 82/137/114
f 72/138/113 82/137/114 84/141/116
f 84/141/116 80/142/111 72/138/113
f 83/140/115 71/139/103 74/143/102
f 74/143/102 85/144/117 83/140/115
f 85/144/117 74/143/106 76/145/105
f 76/145/105 86/146/118 85/144/117
f 86/146/119 76/145/109 78/147/108
f 78/147/108 87/148/120 86/146/119
f 87/148/120 78/147/108 80/142/111
f 80/142/111 84/141/116 87/148/120
f 84/149/116 82/150/114 88/151/121
f 82/150/114 83/152/115 88/151/121
f 83/152/115 85/153/117 88/151/121
f 85/153/117 86/154/118 88/151/121
f 86/154/119 87/155/120 88/151/121
f 87/155/120 84/149/116 88/151/122
f 60/156/123 67/124/93 64/123/124
f 60/156/123 64/123/124 61/157/125
f 63/113/89 64/115/88 66/118/92
f 59/97/78 62/158/86 60/102/81
f 62/158/86 59/97/78 35/99/126
f 60/159/123 62/116/127 63/113/89
f 67/119/93 60/159/123 63/113/89
f 63/113/89 66/118/92 67/119/93
f 73/160/101 70/161/98 89/162/128
f 89/162/128 90/163/129 73/160/101
f 91/164/130 89/162/128 70/161/98
f 70/161/98 81/165/112 91/164/130
f 75/166/104 73/160/101 90/163/129
f 90/163/129 92/167/131 75/166/104
f 77/168/107 75/166/104 92/167/131
f 92/167/131 93/169/132 77/168/107
f 79/170/110 77/168/107 93/169/132
f 93/169/132 94/171/133 79/170/110
f 81/165/112 79/170/110 94/171/133
f 94/171/133 91/164/130 81/165/112
f 89/172/128 91/173/130 95/174/134
f 95/174/134 90/175/129 89/172/128
f 92/176/131 90/175/129 95/174/134
f 95/174/134 93/177/132 92/176/131
f 94/178/133 93/177/132 95/174/134
f 95/174/134 91/173/130 94/178/133
f 31/37/34 30/36/33 56/179/73
f 56/180/135 41/53/47 31/55/49
f 56/88/73 48/87/67 41/90/47
f 96/181/136 97/182/137 98/183/138
f 97/182/137 96/181/136 99/184/139
f 100/185/140 101/186/141 102/187/142
f 101/186/141 100/185/140 103/188/143
f 104/189/144 106/190/145 105/191/146
f 105/191/146 107/192/147 104/189/144
f 108/193/148 106/194/145 104/195/144
f 106/194/145 108/193/148 109/196/149
f 110/197/150 109/196/149 108/193/148
f 111/198/151 112/199/152 113/200/153
f 109/201/149 112/199/152 111/198/151
f 111/198/151 114/202/154 109/201/155
f 115/203/156 109/201/155 114/202/154
f 114/202/154 116/204/157 115/203/156
f 117/205/158 115/203/156 116/204/157
f 116/204/157 118/206/159 117/205/158
f 101/207/141 119/208/160 102/209/161
f 111/210/151 119/208/160 101/207/141
f 119/208/160 111/210/151 113/211/153
f 120/212/162 107/213/147 121/214/163
f 107/213/147 120/212/164 104/215/144
f 122/216/165 104/217/166 120/218/164
f 104/217/166 122/216/165 108/219/167
f 123/220/168 110/221/169 108/222/170
f 118/223/159 110/224/171 123/225/168
f 110/224/171 118/223/159 112/226/172
f 124/227/173 113/228/174 112/229/172
f 125/230/175 113/231/153 124/232/173
f 113/231/153 125/230/176 119/233/177
f 100/234/178 102/235/179 119/236/177
f 120/237/162 126/238/180 127/239/181
f 121/240/163 126/238/180 120/237/162
f 126/238/180 121/240/163 98/241/138
f 96/242/182 98/241/138 121/240/163
f 117/243/158 122/244/183 127/245/181
f 127/245/181 128/246/184 117/243/158
f 115/247/185 117/243/158 128/246/184
f 128/246/184 106/194/145 115/247/185
f 109/196/149 115/247/185 106/194/145
f 117/243/158 123/248/186 122/244/183
f 116/204/157 124/249/173 118/206/159
f 125/250/175 124/251/173 116/252/157
f 116/252/157 103/253/143 125/250/175
f 100/254/140 125/250/175 103/253/143
f 98/183/138 105/255/187 126/256/188
f 105/255/187 98/183/138 97/182/137
f 99/257/139 121/258/163 107/259/147
f 121/258/163 99/257/139 96/260/136
f 97/261/137 107/192/147 105/191/146
f 107/192/147 97/261/137 99/262/189
f 101/186/141 103/188/143 129/263/190
f 128/264/184 105/191/146 106/190/145
f 105/191/146 128/264/184 130/265/191
f 114/266/154 101/207/141 129/267/192
f 101/207/141 114/266/154 111/210/151
f 128/264/184 126/238/193 130/265/191
f 126/238/180 128/264/184 127/239/181
f 114/266/154 103/253/143 116/252/157
f 103/253/143 114/266/154 129/267/192
f 126/256/188 105/255/146 130/268/194
f 123/220/168 108/222/170 122/269/195
f 127/245/181 122/244/183 120/270/162
f 100/234/140 119/236/177 125/271/175
f 109/201/149 110/272/150 112/199/152
f 124/227/173 112/229/172 118/273/196
f 117/205/158 118/206/159 123/274/186
o MDL_w2dsw09_bld02_001
v 0.000000 -0.654400 -0.082400
v 0.000000 -0.633000 -0.061700
v 0.008000 -0.618800 -0.098000
v -0.008100 -0.618800 -0.098000
v 0.000000 -0.655000 -0.112000
v 0.000000 -0.634400 -0.133600
v 0.000000 -0.604700 -0.133900
v 0.000000 -0.583100 -0.113400
v 0.000000 -0.582500 -0.083800
v 0.000000 -0.603300 -0.062400
vt 0.984400 0.656300
vt 0.992200 0.812500
vt 0.773400 0.707000
vt 0.992200 0.812500
vt 0.773400 0.707000
vt 0.687500 0.812500
vt 0.773400 0.707000
vt 0.984400 0.656300
vt 0.773400 0.707000
vt 0.687500 0.812500
vn 0.0014 -0.9168 0.3994
vn 1.0000 0.0000 -0.0002
vn 0.0014 -0.3640 0.9314
vn -1.0000 -0.0000 -0.0003
vn 0.0015 -0.9319 -0.3627
vn 0.0015 -0.3976 -0.9176
vn 0.0014 0.3659 -0.9306
vn 0.0014 0.9142 -0.4053
vn 0.0014 0.9302 0.3670
vn 0.0013 0.4001 0.9165
usemtl TEX_w2dsw09_001

f 131/275/197 133/276/198 132/277/199
f 132/277/199 134/278/200 131/275/197
f 135/279/201 131/275/197 134/278/200
f 133/276/198 131/275/197 135/279/201
f 136/280/202 133/276/198 135/279/201
f 135/279/201 134/278/200 136/280/202
f 137/281/203 136/280/202 134/278/200
f 133/276/198 136/280/202 137/281/203
f 138/282/204 133/276/198 137/281/203
f 137/281/203 134/278/200 138/282/204
f 139/283/205 138/282/204 134/278/200
f 133/276/198 138/282/204 139/283/205
f 140/284/206 133/276/198 139/283/205
f 139/283/205 134/278/200 140/284/206
f 132/277/199 140/284/206 134/278/200
f 133/276/198 140/284/206 132/277/199
