# Blender v2.79 (sub 0) OBJ File: ''
# www.blender.org
mtllib bladebrandier01.mtl
o MDL_w21kt01_bod00
v -0.014400 0.119700 -0.012500
v 0.000000 0.399700 0.018100
v -0.014400 0.399700 -0.012500
v 0.000000 0.119700 0.028100
v 0.014400 0.119700 -0.012500
v 0.014400 0.399700 -0.012500
v -0.016900 0.468400 0.105600
v 0.016900 0.500900 0.108800
v -0.016900 0.500900 0.108800
v 0.016900 0.468400 0.105600
v -0.016900 0.463400 0.091900
v 0.016900 0.463400 0.091900
v -0.016900 0.425900 0.078700
v 0.016900 0.425900 0.078700
v 0.016900 0.397200 0.051900
v -0.016900 0.397200 0.051900
v -0.016900 0.387800 0.018800
v 0.016900 0.387800 0.018800
v -0.016900 0.394700 -0.066900
v 0.016900 0.394700 -0.066900
v 0.016900 0.513400 0.079400
v -0.016900 0.513400 0.079400
v 0.016900 0.532200 0.071200
v -0.016900 0.532200 0.071200
v -0.016900 0.542800 0.031900
v 0.016900 0.542800 0.031900
v 0.016900 0.540300 -0.025000
v -0.016900 0.540300 -0.025000
v 0.021900 0.504700 -0.023100
v 0.021900 0.372800 -0.070000
v 0.021900 0.350300 -0.088700
v 0.021900 0.338400 -0.118100
v 0.021900 0.352800 -0.125600
v 0.021900 0.353400 -0.156300
v 0.021900 0.370300 -0.176200
v 0.021900 0.400900 -0.185600
v 0.021900 0.401600 -0.167500
v 0.021900 0.419100 -0.160000
v 0.021900 0.425300 -0.143700
v 0.021900 0.454100 -0.117500
v 0.021900 0.554700 -0.071200
v 0.021900 0.563400 -0.054400
v 0.021900 0.560900 -0.033100
v 0.021900 0.544100 -0.020000
v -0.022500 0.544100 -0.020000
v -0.022500 0.504700 -0.023100
v -0.022500 0.372800 -0.070000
v -0.022500 0.350300 -0.088700
v -0.022500 0.338400 -0.118100
v -0.022500 0.352800 -0.125600
v -0.022500 0.353400 -0.156300
v -0.022500 0.370300 -0.176200
v -0.022500 0.400900 -0.185600
v -0.022500 0.401600 -0.167500
v -0.022500 0.419100 -0.160000
v -0.022500 0.425300 -0.143700
v -0.022500 0.454100 -0.117500
v -0.022500 0.554700 -0.071200
v -0.022500 0.563400 -0.054400
v -0.022500 0.560900 -0.033100
v 0.010600 0.662800 -0.020600
v -0.010600 0.661600 -0.047500
v -0.010600 0.662800 -0.020600
v 0.010600 0.661600 -0.047500
v -0.010600 0.644100 -0.062500
v 0.010600 0.644100 -0.062500
v -0.010600 0.611600 -0.062500
v 0.010600 0.611600 -0.062500
v -0.010600 0.579700 -0.045000
v 0.010600 0.579700 -0.045000
v -0.010600 0.524700 -0.002500
v 0.010600 0.524700 -0.002500
v 0.000000 0.524700 0.067500
v -0.004400 1.510900 -0.008800
v 0.004400 1.510900 -0.008800
v 0.000000 1.629700 -0.023100
v -0.006900 1.373400 0.003700
v 0.010600 0.682800 -0.003700
v -0.010600 0.682800 -0.003700
v 0.007500 1.373400 0.003700
v 0.008100 1.220900 0.008100
v -0.008100 1.220900 0.008100
v 0.010000 0.882800 0.003100
v -0.009400 0.882800 0.003100
v 0.000000 0.664100 0.056200
v 0.000000 1.577200 0.010000
v 0.000000 1.459700 0.035600
v -0.016900 0.359100 -0.014400
v 0.000000 0.396600 0.046900
v -0.016900 0.396600 -0.020600
v 0.000000 0.359100 0.022500
v 0.016900 0.360300 -0.014400
v 0.016900 0.396600 -0.021300
v 0.000000 0.882800 0.061900
v 0.000000 1.220900 0.055600
vt 0.058600 0.750000
vt 0.003900 0.007800
vt 0.058600 0.007800
vt 0.003900 0.750000
vt 0.062500 0.750000
vt 0.105500 0.007800
vt 0.062500 0.007800
vt 0.105500 0.750000
vt 0.058600 0.007800
vt 0.058600 0.750000
vt 0.152300 0.507800
vt 0.175800 0.648400
vt 0.128900 0.648400
vt 0.261700 0.820300
vt 0.343800 0.671900
vt 0.343800 0.820300
vt 0.261700 0.671900
vt 0.316400 0.820300
vt 0.316400 0.671900
vt 0.414100 0.820300
vt 0.414100 0.671900
vt 0.511700 0.671900
vt 0.511700 0.820300
vt 0.574200 0.820300
vt 0.574200 0.671900
vt 0.371100 0.820300
vt 0.371100 0.671900
vt 0.464800 0.820300
vt 0.511700 0.671900
vt 0.511700 0.820300
vt 0.464800 0.671900
vt 0.546900 0.820300
vt 0.648400 0.671900
vt 0.648400 0.820300
vt 0.546900 0.671900
vt 0.457000 0.820300
vt 0.457000 0.671900
vt 0.226600 0.671900
vt 0.226600 0.820300
vt 0.796900 0.335900
vt 0.777300 0.492200
vt 0.710900 0.617200
vt 0.640600 0.648400
vt 0.468800 0.640600
vt 0.550800 0.046900
vt 0.675800 0.015600
vt 0.753900 0.062500
vt 0.773400 0.140600
vt 0.828100 0.179700
vt 0.828100 0.320300
vt 0.765600 0.125000
vt 0.753900 0.062500
vt 0.675800 0.015600
vt 0.550800 0.046900
vt 0.468800 0.640600
vt 0.640600 0.648400
vt 0.710900 0.617200
vt 0.777300 0.492200
vt 0.796900 0.335900
vt 0.828100 0.320300
vt 0.828100 0.179700
vt 0.992200 0.289100
vt 0.906300 0.820300
vt 0.867200 0.914100
vt 0.804700 0.968800
vt 0.789100 0.914100
vt 0.726600 0.914100
vt 0.683600 0.851600
vt 0.664100 0.726600
vt 0.699200 0.726600
vt 0.714800 0.656300
vt 0.750000 0.625000
vt 0.800800 0.500000
vt 0.886700 0.085900
vt 0.925800 0.054700
vt 0.968800 0.062500
vt 0.992200 0.132800
vt 0.109400 0.820300
vt 0.152300 0.671900
vt 0.109400 0.671900
vt 0.152300 0.820300
vt 0.152300 0.671900
vt 0.109400 0.820300
vt 0.152300 0.820300
vt 0.109400 0.671900
vt 0.152300 0.820300
vt 0.109400 0.671900
vt 0.109400 0.820300
vt 0.152300 0.671900
vt 0.152300 0.671900
vt 0.109400 0.820300
vt 0.152300 0.820300
vt 0.109400 0.671900
vt 0.160200 0.671900
vt 0.214800 0.824200
vt 0.214800 0.671900
vt 0.160200 0.824200
vt 0.160200 0.824200
vt 0.214800 0.671900
vt 0.160200 0.671900
vt 0.214800 0.824200
vt 0.839800 0.007800
vt 0.808600 0.164100
vt 0.839800 0.164100
vt 0.808600 0.007800
vt 0.261700 0.671900
vt 0.222700 0.816400
vt 0.261700 0.816400
vt 0.296900 0.816400
vt 0.296900 0.671900
vt 0.363300 0.816400
vt 0.363300 0.671900
vt 0.550800 0.671900
vt 0.222700 0.671900
vt 0.550800 0.816400
vt 0.585900 0.816400
vt 0.585900 0.671900
vt 0.621100 0.816400
vt 0.621100 0.671900
vt 0.656300 0.671900
vt 0.656300 0.816400
vt 0.867200 0.914100
vt 0.906300 0.820300
vt 0.992200 0.289100
vt 0.992200 0.132800
vt 0.968800 0.062500
vt 0.925800 0.054700
vt 0.886700 0.085900
vt 0.800800 0.500000
vt 0.750000 0.625000
vt 0.714800 0.656300
vt 0.699200 0.726600
vt 0.664100 0.726600
vt 0.683600 0.851600
vt 0.726600 0.914100
vt 0.789100 0.914100
vt 0.804700 0.968800
vt 0.152300 0.820300
vt 0.109400 0.671900
vt 0.109400 0.820300
vt 0.152300 0.671900
vt 0.160200 0.671900
vt 0.214800 0.824200
vt 0.214800 0.671900
vt 0.160200 0.824200
vt 0.652300 0.671900
vt 0.554700 0.820300
vt 0.652300 0.820300
vt 0.554700 0.671900
vt 0.488300 0.820300
vt 0.488300 0.671900
vt 0.382800 0.820300
vt 0.382800 0.671900
vt 0.281300 0.820300
vt 0.281300 0.671900
vt 0.128900 0.804700
vt 0.128900 0.671900
vt 1 0.675800
vt 0.089800 0.679700
vt 0.089800 0.679700
vt 0.125000 0.089800
vt 0.121100 0.027300
vt 0.117200 0.089800
vt 0.128900 0.164100
vt 0.132800 0.543000
vt 0.113300 0.574200
vt 0.113300 0.543000
vt 0.132800 0.574200
vt 0.117200 0.164100
vt 0.113300 0.250000
vt 0.128900 0.250000
vt 0.113300 0.437500
vt 0.128900 0.437500
vt 0.113300 0.543000
vt 0.132800 0.543000
vt 0.390600 0.023400
vt 0.304700 0.125000
vt 0.304700 0.632800
vt 0.433600 0.589800
vt 0.421900 0.093800
vt 0.492200 0.382800
vt 0.511700 0.257800
vt 0.500000 0.132800
vt 0.476600 0.078100
vt 0.683600 0.890600
vt 0.765600 0.992200
vt 0.632800 0.992200
vt 0.589800 0.832000
vt 0.515600 0.992200
vt 0.390600 0.023400
vt 0.433600 0.589800
vt 0.492200 0.382800
vt 0.421900 0.093800
vt 0.476600 0.078100
vt 0.500000 0.132800
vt 0.511700 0.257800
vt 0.273400 0.644500
vt 0.164100 0.503900
vt 0.285200 0.503900
vt 0.207000 0.644500
vt 0.156300 0.343800
vt 0.156300 0.503900
vt 0.285200 0.343800
vt 0.195300 0.269500
vt 0.277300 0.214800
vt 0.277300 0.324200
vt 0.273400 0.644500
vt 0.285200 0.503900
vt 0.003900 0.992200
vt 0.003900 0.832000
vt 0.187500 0.832000
vt 0.187500 0.992200
vt 0.386700 0.832000
vt 0.386700 0.992200
vt 0.632800 0.992200
vt 0.515600 0.992200
vt 0.386700 0.992200
vt 0.187500 0.992200
vt 0.003900 0.992200
vn -0.8760 -0.4686 -0.1138
vn -0.6221 0.0179 0.7827
vn -0.4983 0.0000 -0.8670
vn 0.5256 -0.5652 0.6358
vn 0.4365 -0.4631 -0.7714
vn 0.9916 0.0082 -0.1288
vn -0.3596 -0.4083 0.8390
vn 0.3728 0.2700 0.8878
vn -0.7696 0.4470 0.4560
vn 0.6105 -0.6034 0.5131
vn -0.8765 -0.3876 0.2856
vn 0.8244 -0.3305 0.4595
vn -0.2475 -0.5021 0.8286
vn 0.4549 -0.4615 0.7616
vn 0.4607 -0.7575 0.4625
vn -0.7202 -0.5922 0.3615
vn -0.7121 -0.6933 0.1107
vn 0.8041 -0.5941 0.0226
vn -0.4472 -0.8916 -0.0718
vn 0.7071 -0.7048 -0.0567
vn 0.9055 0.3381 0.2564
vn -0.7296 0.4183 0.5410
vn 0.2673 0.7298 0.6292
vn -0.4851 0.6623 0.5710
vn -0.4515 0.8869 0.0977
vn 0.7113 0.6987 0.0770
vn 0.8320 0.5542 -0.0243
vn -0.9806 0.1959 -0.0086
vn 0.7098 -0.1164 0.6947
vn 0.2461 -0.4795 0.8423
vn 0.9229 -0.3287 0.2003
vn 0.5598 -0.7775 -0.2865
vn 0.6573 -0.6405 -0.3972
vn 0.3315 -0.8368 -0.4356
vn 0.9336 -0.1971 -0.2994
vn 0.4484 0.1847 -0.8745
vn 0.7567 0.6035 -0.2513
vn 0.2621 0.6964 -0.6681
vn 0.8070 0.4601 -0.3702
vn 0.8351 0.3037 -0.4587
vn 0.4674 0.6104 -0.6395
vn 0.3277 0.9419 -0.0743
vn 0.9381 0.3017 0.1698
vn 0.3342 0.3848 0.8604
vn -0.3342 0.1531 0.9300
vn -0.7098 -0.1771 0.6818
vn -0.4528 -0.4411 0.7748
vn -0.8636 -0.3809 0.3304
vn -0.3200 -0.8890 -0.3275
vn -0.8675 -0.4227 -0.2621
vn -0.3315 -0.9156 -0.2275
vn -0.8768 -0.2645 -0.4016
vn -0.4484 0.7644 -0.4633
vn -0.7567 0.4508 -0.4734
vn -0.4773 0.6341 -0.6084
vn -0.7158 0.6065 -0.3461
vn -0.6045 0.4397 -0.6642
vn -0.7265 0.4745 -0.4970
vn -0.3277 0.9074 -0.2632
vn -0.8517 0.4566 0.2570
vn 0.5843 0.7723 -0.2492
vn -0.3383 0.8962 -0.2870
vn -0.7338 0.5601 -0.3845
vn 0.7333 0.5624 -0.3821
vn -0.7268 0.3153 -0.6102
vn 0.3326 0.2165 -0.9179
vn -0.3243 -0.1560 -0.9330
vn 0.7170 -0.2299 -0.6581
vn -0.8008 -0.3150 -0.5094
vn 0.3170 -0.5401 -0.7796
vn -0.6011 -0.6716 -0.4331
vn 0.9446 -0.3049 -0.1215
vn -0.0000 -0.8278 0.5611
vn -0.8740 -0.0310 -0.4850
vn 0.0001 -0.0334 -0.9994
vn 0.7470 -0.0480 -0.6631
vn -0.6436 -0.0394 -0.7643
vn 0.8420 0.2329 -0.4867
vn -0.9768 0.1136 -0.1814
vn 0.8916 -0.0181 -0.4525
vn 0.7643 -0.0072 -0.6449
vn -0.5950 0.0044 -0.8037
vn 0.5948 0.0193 -0.8036
vn -0.7620 0.0225 -0.6472
vn -0.0000 0.0283 0.9996
vn 0.0000 0.3425 0.9395
vn -0.0040 0.1678 0.9858
vn -0.7840 -0.6009 -0.1556
vn 0.0034 -0.3204 0.9473
vn -0.4893 -0.1545 -0.8583
vn 0.0232 -0.8890 0.4574
vn 0.6720 -0.5602 -0.4843
vn 0.7826 -0.1163 -0.6116
vn 0.6447 -0.0014 0.7644
vn -0.6384 0.0380 0.7687
usemtl MDL_w21kt01_bod00_TEX_w21kt01

f 1/1/1 2/2/2 3/3/3
f 2/2/2 1/1/1 4/4/4
f 5/5/5 3/6/3 6/7/6
f 3/6/3 5/5/5 1/8/1
f 4/4/4 6/9/6 2/2/2
f 6/9/6 4/4/4 5/10/5
f 4/11/4 1/12/1 5/13/5
f 7/14/7 8/15/8 9/16/9
f 8/15/8 7/14/7 10/17/10
f 11/18/11 10/17/10 7/14/7
f 10/17/10 11/18/11 12/19/12
f 13/20/13 12/19/12 11/18/11
f 12/19/12 13/20/13 14/21/14
f 15/22/15 14/21/14 13/20/13
f 15/22/15 13/20/13 16/23/16
f 16/23/16 17/24/17 15/22/15
f 18/25/18 15/22/15 17/24/17
f 17/24/17 19/26/19 18/25/18
f 20/27/20 18/25/18 19/26/19
f 9/28/9 21/29/21 22/30/22
f 21/29/21 9/28/9 8/31/8
f 22/32/22 23/33/23 24/34/24
f 23/33/23 22/32/22 21/35/21
f 25/36/25 23/33/23 26/37/26
f 26/37/26 27/38/27 25/36/25
f 28/39/28 25/36/25 27/38/27
f 25/36/25 24/34/24 23/33/23
f 12/40/12 14/41/14 15/42/15
f 12/40/12 15/42/15 18/43/18
f 18/43/18 20/44/20 27/45/27
f 26/46/26 23/47/23 21/48/21
f 27/45/27 26/46/26 21/48/21
f 18/43/18 27/45/27 21/48/21
f 12/40/12 18/43/18 21/48/21
f 21/48/21 8/49/8 10/50/10
f 12/40/12 21/48/21 10/50/10
f 22/51/22 24/52/24 25/53/25
f 22/51/22 25/53/25 28/54/28
f 28/54/28 19/55/19 17/56/17
f 16/57/16 13/58/13 11/59/11
f 17/56/17 16/57/16 11/59/11
f 28/54/28 17/56/17 11/59/11
f 11/59/11 7/60/7 9/61/9
f 28/54/28 11/59/11 9/61/9
f 22/51/22 28/54/28 9/61/9
f 29/62/29 30/63/30 31/64/31
f 31/64/31 32/65/32 33/66/33
f 33/66/33 34/67/34 35/68/35
f 31/64/31 33/66/33 35/68/35
f 35/68/35 36/69/36 37/70/37
f 37/70/37 38/71/38 39/72/39
f 35/68/35 37/70/37 39/72/39
f 31/64/31 35/68/35 39/72/39
f 31/64/31 39/72/39 40/73/40
f 41/74/41 42/75/42 43/76/43
f 40/73/40 41/74/41 43/76/43
f 31/64/31 40/73/40 43/76/43
f 29/62/29 31/64/31 43/76/43
f 29/62/29 43/76/43 44/77/44
f 29/78/29 45/79/45 46/80/46
f 45/79/45 29/78/29 44/81/44
f 30/82/30 46/83/46 47/84/47
f 46/83/46 30/82/30 29/85/29
f 48/86/48 30/87/30 47/88/47
f 30/87/30 48/86/48 31/89/31
f 33/90/33 49/91/49 50/92/50
f 49/91/49 33/90/33 32/93/32
f 51/94/51 33/95/33 50/96/50
f 33/95/33 51/94/51 34/97/34
f 36/98/36 52/99/52 53/100/53
f 52/99/52 36/98/36 35/101/35
f 37/102/37 53/103/53 54/104/54
f 53/103/53 37/102/37 36/105/36
f 38/106/38 54/107/54 55/108/55
f 55/108/55 56/109/56 38/106/38
f 39/110/39 38/106/38 56/109/56
f 56/109/56 57/111/57 39/110/39
f 40/112/40 39/110/39 57/111/57
f 57/111/57 41/113/41 40/112/40
f 38/106/38 37/114/37 54/107/54
f 41/113/41 57/111/57 58/115/58
f 58/115/58 59/116/59 41/113/41
f 42/117/42 41/113/41 59/116/59
f 59/116/59 60/118/60 42/117/42
f 43/119/43 42/117/42 60/118/60
f 60/118/60 44/120/44 43/119/43
f 60/118/60 45/121/45 44/120/44
f 48/122/48 47/123/47 46/124/46
f 46/124/46 45/125/45 60/126/60
f 48/122/48 46/124/46 60/126/60
f 60/126/60 59/127/59 58/128/58
f 60/126/60 58/128/58 57/129/57
f 56/130/56 55/131/55 54/132/54
f 54/132/54 53/133/53 52/134/52
f 56/130/56 54/132/54 52/134/52
f 57/129/57 56/130/56 52/134/52
f 60/126/60 57/129/57 52/134/52
f 48/122/48 60/126/60 52/134/52
f 52/134/52 51/135/51 50/136/50
f 48/122/48 52/134/52 50/136/50
f 48/122/48 50/136/50 49/137/49
f 49/138/49 31/139/31 48/140/48
f 31/139/31 49/138/49 32/141/32
f 52/142/52 34/143/34 51/144/51
f 34/143/34 52/142/52 35/145/35
f 61/146/61 62/147/62 63/148/63
f 62/147/62 61/146/61 64/149/64
f 64/149/64 65/150/65 62/147/62
f 65/150/65 64/149/64 66/151/66
f 66/151/66 67/152/67 65/150/65
f 67/152/67 66/151/66 68/153/68
f 68/153/68 69/154/69 67/152/67
f 69/154/69 68/153/68 70/155/70
f 70/155/70 71/156/71 69/154/69
f 71/156/71 70/155/70 72/157/72
f 73/158/73 71/159/71 72/160/72
f 74/161/74 76/162/75 75/163/76
f 75/163/76 77/164/77 74/161/74
f 78/165/78 63/166/63 79/167/79
f 63/166/63 78/165/78 61/168/61
f 77/164/77 75/163/76 80/169/80
f 80/169/80 81/170/81 77/164/77
f 82/171/82 77/164/77 81/170/81
f 81/170/81 83/172/83 82/171/82
f 84/173/84 82/171/82 83/172/83
f 83/172/83 78/174/78 84/173/84
f 79/175/79 84/173/84 78/174/78
f 78/176/78 85/177/85 73/178/73
f 73/178/73 72/179/72 78/176/78
f 61/180/61 78/176/78 72/179/72
f 72/179/72 70/181/70 68/182/68
f 68/182/68 66/183/66 64/184/64
f 72/179/72 68/182/68 64/184/64
f 61/180/61 72/179/72 64/184/64
f 86/185/86 76/186/75 74/187/74
f 74/187/74 87/188/87 86/185/86
f 87/188/87 74/187/74 77/189/77
f 79/190/79 73/178/73 85/177/85
f 73/178/73 79/190/79 71/191/71
f 69/192/69 71/191/71 79/190/79
f 69/192/69 79/190/79 63/193/63
f 63/193/63 62/194/62 65/195/65
f 69/192/69 63/193/63 65/195/65
f 69/192/69 65/195/65 67/196/67
f 88/197/88 89/198/89 90/199/90
f 89/198/89 88/197/88 91/200/91
f 92/201/92 90/199/90 93/202/93
f 90/199/90 92/201/92 88/203/88
f 91/204/91 88/205/88 92/206/92
f 89/198/89 91/200/91 92/207/92
f 93/208/93 89/198/89 92/207/92
f 79/209/79 85/210/85 94/211/94
f 94/211/94 84/212/84 79/209/79
f 84/212/84 94/211/94 95/213/95
f 95/213/95 82/214/82 84/212/84
f 77/189/77 82/214/82 95/213/95
f 95/213/95 87/188/87 77/189/77
f 76/186/75 86/185/86 75/215/76
f 86/185/86 87/188/87 75/215/76
f 75/215/76 87/188/87 80/216/80
f 95/213/95 81/217/81 80/216/80
f 80/216/80 87/188/87 95/213/95
f 94/211/94 83/218/83 81/217/81
f 81/217/81 95/213/95 94/211/94
f 94/211/94 85/210/85 78/219/78
f 78/219/78 83/218/83 94/211/94
