# Blender v2.79 (sub 0) OBJ File: ''
# www.blender.org
mtllib bladebrandier17.mtl
o MDL_w21kt17_bod00
v 0.000000 0.366600 0.066600
v -0.020000 0.339400 0.057800
v 0.000000 0.339400 0.066600
v -0.020000 0.366600 0.057800
v -0.034700 0.339400 0.033100
v -0.034700 0.366600 0.033100
v -0.040300 0.339400 -0.000300
v -0.040000 0.366600 -0.000300
v -0.034700 0.339400 -0.033800
v -0.034700 0.366600 -0.033800
v -0.020000 0.339400 -0.058400
v -0.020000 0.366600 -0.058400
v 0.000000 0.339400 -0.067500
v 0.000000 0.366600 -0.067500
v 0.020000 0.339400 -0.058400
v 0.020000 0.366600 -0.058400
v 0.034700 0.339400 -0.033800
v 0.034700 0.366600 -0.033800
v 0.040300 0.339400 -0.000300
v 0.040300 0.366600 -0.000300
v 0.034700 0.339400 0.033100
v 0.034700 0.366600 0.033100
v 0.020000 0.339400 0.057800
v 0.020000 0.366600 0.057800
v 0.007800 0.366600 -0.025600
v 0.007800 0.366600 -0.013700
v 0.000000 0.366600 0.026600
v -0.007500 0.366600 -0.025600
v 0.016900 0.339400 0.019700
v 0.024700 0.339400 -0.000300
v 0.000000 0.339400 0.034400
v -0.016600 0.339400 0.019700
v -0.024400 0.339400 -0.000300
v 0.016900 0.339400 -0.020600
v 0.000000 0.339400 -0.035300
v -0.016600 0.339400 -0.020600
v 0.012800 0.324700 0.014100
v 0.019100 0.324700 -0.000300
v 0.019100 0.188700 -0.000300
v 0.012800 0.188700 0.014100
v 0.012800 0.324700 -0.015000
v 0.000000 0.324700 0.025000
v 0.000000 0.188700 0.025000
v -0.012800 0.324700 0.014100
v -0.012800 0.188700 0.014100
v -0.012800 0.017200 0.014100
v 0.000000 0.023100 0.025000
v -0.018800 0.324700 -0.000300
v -0.018800 0.188700 -0.000300
v 0.012800 0.188700 -0.015000
v 0.000000 0.324700 -0.025900
v 0.000000 0.188700 -0.025900
v -0.012800 0.324700 -0.015000
v -0.012800 0.188700 -0.015000
v 0.012800 0.017200 0.014100
v 0.019100 0.014700 -0.000300
v -0.018800 0.014700 -0.000300
v -0.012800 0.017200 -0.015000
v 0.000000 0.023100 -0.025900
v 0.012800 0.017200 -0.015000
v 0.007800 0.366600 -0.001600
v 0.007800 0.366600 0.010000
v 0.003400 0.366600 0.010000
v -0.007500 0.366600 -0.013700
v -0.007500 0.366600 -0.001600
v -0.003400 0.366600 0.010000
v -0.007500 0.366600 0.010000
v 0.000000 0.610300 0.026600
v 0.003400 0.610300 0.010000
v 0.003400 0.970300 0.009100
v 0.000000 0.970300 0.025300
v 0.007800 0.610300 0.010000
v 0.007800 0.610300 -0.001600
v 0.003400 0.610300 -0.001600
v 0.007800 0.790300 -0.001600
v 0.003400 0.790300 -0.001600
v 0.003400 0.790300 -0.013700
v 0.007800 0.790300 -0.013700
v 0.003400 0.970300 -0.013700
v 0.007800 0.970300 -0.013700
v 0.003400 0.970300 -0.021600
v 0.007800 0.970300 -0.025600
v -0.003400 0.610300 0.010000
v -0.003400 0.970300 0.009100
v -0.003400 0.970300 -0.021600
v -0.007500 0.970300 -0.013700
v -0.003400 0.970300 -0.013700
v -0.007500 0.970300 -0.025600
v -0.003400 0.790300 -0.001600
v -0.003400 0.790300 -0.013700
v -0.003400 1.301900 -0.021600
v -0.003400 1.301900 0.005000
v 0.003400 1.301900 -0.021600
v 0.003400 1.301900 0.005000
v 0.003400 1.347500 0.001900
v 0.000000 1.301900 0.021600
v 0.000000 1.370600 0.013700
v 0.000000 1.483100 -0.025300
v 0.000000 1.432800 -0.003700
v -0.003400 1.347500 0.001900
v 0.003400 1.405600 -0.007800
v -0.003400 1.405600 -0.007800
v -0.003400 0.610300 -0.001600
v -0.007500 0.610300 0.010000
v -0.007500 0.610300 -0.001600
v -0.007500 0.790300 -0.001600
v -0.007500 0.790300 -0.013700
vt 0.414100 0.109400
vt 0.257800 0.148400
vt 0.257800 0.109400
vt 0.414100 0.148400
vt 0.257800 0.191400
vt 0.414100 0.191400
vt 0.257800 0.234400
vt 0.414100 0.234400
vt 0.257800 0.277300
vt 0.414100 0.277300
vt 0.257800 0.316400
vt 0.414100 0.316400
vt 0.257800 0.351600
vt 0.414100 0.351600
vt 0.257800 0.316400
vt 0.414100 0.316400
vt 0.257800 0.277300
vt 0.414100 0.277300
vt 0.257800 0.234400
vt 0.414100 0.234400
vt 0.257800 0.191400
vt 0.414100 0.191400
vt 0.257800 0.148400
vt 0.414100 0.148400
vt 0.781300 0.207000
vt 0.664100 0.203100
vt 0.726600 0.117200
vt 0.781300 0.246100
vt 0.820300 0.199200
vt 0.726600 0.117200
vt 0.664100 0.207000
vt 0.812500 0.085900
vt 0.859400 0.207000
vt 0.906300 0.117200
vt 0.968800 0.203100
vt 0.968800 0.207000
vt 0.906300 0.117200
vt 0.992200 0.324200
vt 0.968800 0.203100
vt 0.898400 0.257800
vt 0.929700 0.324200
vt 0.820300 0.203100
vt 0.906300 0.113300
vt 0.820300 0.085900
vt 0.726600 0.113300
vt 0.664100 0.203100
vt 0.734400 0.257800
vt 0.703100 0.324200
vt 0.632800 0.324200
vt 0.898400 0.257800
vt 0.968800 0.203100
vt 0.906300 0.113300
vt 0.820300 0.203100
vt 0.820300 0.085900
vt 0.726600 0.113300
vt 0.734400 0.257800
vt 0.664100 0.203100
vt 0.429700 0.281300
vt 0.429700 0.316400
vt 0.585900 0.316400
vt 0.882800 0.332000
vt 0.820300 0.628900
vt 0.882800 0.628900
vt 0.945300 0.332000
vt 0.429700 0.351600
vt 0.585900 0.351600
vt 0.820300 0.332000
vt 0.773400 0.628900
vt 0.429700 0.316400
vt 0.585900 0.316400
vt 0.820300 0.628900
vt 0.773400 0.332000
vt 0.820300 0.332000
vt 0.820300 0.992200
vt 0.773400 0.976600
vt 0.429700 0.281300
vt 0.585900 0.281300
vt 0.882800 0.628900
vt 0.882800 0.332000
vt 0.429700 0.242200
vt 0.585900 0.281300
vt 0.945300 0.628900
vt 0.992200 0.332000
vt 0.429700 0.203100
vt 0.585900 0.242200
vt 0.992200 0.628900
vt 0.945300 0.332000
vt 0.429700 0.242200
vt 0.585900 0.203100
vt 0.945300 0.628900
vt 0.585900 0.242200
vt 0.820300 0.992200
vt 0.882800 1.000000
vt 0.882800 1.000000
vt 0.945300 0.992200
vt 0.992200 0.976600
vt 0.945300 0.992200
vt 0.812500 0.996100
vt 0.812500 0.992200
vt 0.773400 0.992200
vt 0.882800 0.992200
vt 0.882800 0.996100
vt 0.953100 0.992200
vt 0.953100 0.996100
vt 0.992200 0.992200
vt 0.820300 0.085900
vt 0.640600 0.324200
vt 0.773400 0.324200
vt 0.773400 0.257800
vt 0.789100 0.257800
vt 0.859400 0.246100
vt 0.992200 0.324200
vt 0.851600 0.324200
vt 0.835900 0.257800
vt 0.851600 0.257800
vt 0.007800 0.562500
vt 0.093800 0.996100
vt 0.093800 0.562500
vt 0.093800 0.003900
vt 0.007800 0.003900
vt 0.007800 0.996100
vt 0.765600 0.753900
vt 0.765600 0.996100
vt 0.734400 0.996100
vt 0.734400 0.753900
vt 0.656300 0.753900
vt 0.656300 0.996100
vt 0.671900 0.726600
vt 0.750000 0.726600
vt 0.750000 0.746100
vt 0.671900 0.746100
vt 0.617200 0.351600
vt 0.656300 0.351600
vt 0.656300 0.562500
vt 0.617200 0.562500
vt 0.671900 0.726600
vt 0.750000 0.726600
vt 0.750000 0.746100
vt 0.671900 0.746100
vt 0.656300 0.351600
vt 0.656300 0.562500
vt 0.617200 0.562500
vt 0.617200 0.351600
vt 0.312500 0.082000
vt 0.257800 0.082000
vt 0.257800 0.101600
vt 0.351600 0.101600
vt 0.578100 0.996100
vt 0.578100 0.574200
vt 0.656300 0.574200
vt 0.507800 0.359400
vt 0.578100 0.550800
vt 0.578100 0.359400
vt 0.507800 0.996100
vt 0.148400 0.285200
vt 0.203100 0.003900
vt 0.203100 0.285200
vt 0.093800 0.562500
vt 0.093800 0.996100
vt 0.093800 0.003900
vt 0.312500 0.050800
vt 0.257800 0.031300
vt 0.257800 0.050800
vt 0.351600 0.031300
vt 0.148400 0.285200
vt 0.203100 0.003900
vt 0.203100 0.285200
vt 0.718800 0.332000
vt 0.671900 0.332000
vt 0.671900 0.718800
vt 0.718800 0.718800
vt 0.492200 0.585900
vt 0.492200 0.996100
vt 0.453100 0.996100
vt 0.343800 0.585900
vt 0.453100 0.996100
vt 0.492200 0.996100
vt 0.492200 0.585900
vt 0.343800 0.585900
vt 0.343800 0.996100
vt 0.343800 0.527300
vt 0.257800 0.003900
vt 0.992200 0.023400
vt 0.992200 0.003900
vt 0.257800 0.023400
vt 0.257800 0.585900
vt 0.343800 0.996100
vt 0.257800 0.996100
vt 0.273400 0.496100
vt 0.539100 0.039100
vt 0.992200 0.050800
vt 0.992200 0.031300
vt 0.351600 0.418000
vt 0.343800 0.527300
vt 0.382800 0.453100
vt 0.492200 0.359400
vt 0.382800 0.453100
vt 0.148400 0.562500
vt 0.148400 0.562500
vt 0.765600 0.753900
vt 0.734400 0.996100
vt 0.765600 0.996100
vt 0.734400 0.753900
vt 0.656300 0.753900
vt 0.656300 0.996100
vt 0.578100 0.996100
vt 0.671900 0.726600
vt 0.750000 0.746100
vt 0.750000 0.726600
vt 0.671900 0.746100
vt 0.617200 0.351600
vt 0.656300 0.562500
vt 0.656300 0.351600
vt 0.617200 0.562500
vt 0.671900 0.726600
vt 0.750000 0.746100
vt 0.750000 0.726600
vt 0.671900 0.746100
vt 0.656300 0.351600
vt 0.617200 0.562500
vt 0.656300 0.562500
vt 0.617200 0.351600
vt 0.578100 0.574200
vt 0.656300 0.574200
vt 0.507800 0.359400
vt 0.578100 0.550800
vt 0.507800 0.996100
vt 0.578100 0.359400
vn -0.1178 0.5846 0.8027
vn -0.4755 -0.5713 0.6690
vn 0.1178 -0.5846 0.8027
vn -0.6060 0.5712 0.5536
vn -0.5439 -0.8044 0.2389
vn -0.6718 0.7139 0.1976
vn -0.8306 -0.5551 0.0441
vn -0.5927 0.8048 -0.0329
vn -0.6741 -0.7114 -0.1985
vn -0.6426 0.7128 -0.2809
vn -0.5125 -0.7215 -0.4656
vn -0.4811 0.5705 -0.6656
vn -0.1214 -0.5865 -0.8008
vn 0.1016 0.7357 -0.6697
vn 0.4056 -0.7215 -0.5612
vn 0.6079 0.5705 -0.5523
vn 0.7578 -0.5607 -0.3338
vn 0.6724 0.7126 -0.2001
vn 0.5944 -0.8035 -0.0330
vn 0.5943 0.8035 0.0333
vn 0.6725 -0.7125 0.2000
vn 0.6424 0.7125 0.2822
vn 0.6059 -0.5713 0.5536
vn 0.4755 0.5713 0.6690
vn 0.2182 0.8729 -0.4364
vn 0.8000 0.6000 0.0000
vn 0.0000 0.9987 0.0501
vn -0.2357 0.9428 -0.2357
vn 0.4088 -0.8464 0.3413
vn 0.6492 -0.7548 0.0940
vn -0.0783 -0.9598 0.2694
vn -0.5670 -0.7526 0.3346
vn -0.4624 -0.8846 -0.0616
vn 0.4004 -0.8847 -0.2386
vn 0.1015 -0.9282 -0.3580
vn -0.4138 -0.8437 -0.3420
vn 0.7902 -0.1963 0.5806
vn 0.9815 -0.1911 0.0153
vn 0.8028 -0.0000 0.5963
vn 1.0000 -0.0000 0.0038
vn 0.7897 -0.2169 -0.5739
vn -0.0118 -0.2868 0.9579
vn -0.0000 -0.0000 1.0000
vn -0.7943 -0.2120 0.5693
vn -0.8080 -0.0000 0.5892
vn -0.4905 -0.6298 0.6023
vn 0.2184 -0.2963 0.9298
vn -0.9823 -0.1872 -0.0048
vn -1.0000 -0.0000 0.0036
vn 0.8050 0.0000 -0.5933
vn 0.0097 -0.2843 -0.9587
vn -0.0000 0.0000 -1.0000
vn -0.7961 -0.1925 -0.5737
vn -0.8101 0.0000 -0.5863
vn 0.6511 -0.4894 0.5801
vn 0.6807 -0.7306 -0.0525
vn -0.6829 -0.7284 0.0559
vn -0.6589 -0.4916 -0.5695
vn -0.2184 -0.2963 -0.9298
vn 0.4896 -0.6300 -0.6028
vn 0.7071 0.7071 0.0000
vn 0.4082 0.8165 0.4083
vn 0.7512 0.3834 0.5373
vn -0.8000 0.6000 0.0000
vn -0.7071 0.7071 0.0000
vn -0.7512 0.3834 0.5373
vn -0.4082 0.8165 0.4083
vn 0.5704 0.0012 0.8214
vn 0.8358 0.2112 0.5069
vn 0.9961 0.0005 0.0878
vn 0.0000 0.0074 1.0000
vn 0.9623 0.1924 0.1925
vn 0.3333 0.6667 0.6667
vn 0.3334 0.6667 0.6667
vn 0.9428 0.2357 0.2357
vn 0.8729 0.2182 0.4364
vn 0.8018 0.5345 -0.2673
vn -0.8705 0.1765 0.4595
vn -0.9948 0.0009 0.1023
vn -0.3015 0.9045 -0.3015
vn -0.9129 0.1826 0.3652
vn -0.6396 0.6396 -0.4264
vn -0.9428 0.2357 0.2357
vn -0.8479 -0.0007 -0.5301
vn -0.9941 0.0071 0.1086
vn 0.9427 -0.0006 -0.3337
vn 0.9897 0.0075 0.1429
vn 0.9867 0.0261 0.1607
vn -0.6961 0.0378 0.7169
vn -0.5148 0.1318 0.8471
vn 0.0001 0.2273 -0.9738
vn 0.5914 0.2297 0.7729
vn -0.9932 0.0131 0.1154
vn 0.9924 0.0426 0.1156
vn -0.9921 0.0444 0.1171
vn -0.3333 0.6667 0.6667
vn -0.4083 0.8165 0.4082
vn -0.9623 0.1925 0.1924
vn -0.8729 0.2182 0.4364
usemtl MDL_w21kt17_bod00_TEX_w21kt17

f 1/1/1 2/2/2 3/3/3
f 2/2/2 1/1/1 4/4/4
f 4/4/4 5/5/5 2/2/2
f 5/5/5 4/4/4 6/6/6
f 6/6/6 7/7/7 5/5/5
f 7/7/7 6/6/6 8/8/8
f 8/8/8 9/9/9 7/7/7
f 9/9/9 8/8/8 10/10/10
f 10/10/10 11/11/11 9/9/9
f 11/11/11 10/10/10 12/12/12
f 12/12/12 13/13/13 11/11/11
f 13/13/13 12/12/12 14/14/14
f 14/14/14 15/15/15 13/13/13
f 15/15/15 14/14/14 16/16/16
f 16/16/16 17/17/17 15/15/15
f 17/17/17 16/16/16 18/18/18
f 18/18/18 19/19/19 17/17/17
f 19/19/19 18/18/18 20/20/20
f 20/20/20 21/21/21 19/19/19
f 21/21/21 20/20/20 22/22/22
f 22/22/22 23/23/23 21/21/21
f 23/23/23 22/22/22 24/24/24
f 24/24/24 3/3/3 23/23/23
f 3/3/3 24/24/24 1/1/1
f 25/25/25 18/26/18 16/27/16
f 18/26/18 25/25/25 26/28/26
f 27/29/27 24/30/24 22/31/22
f 24/30/24 27/29/27 1/32/1
f 28/33/28 12/34/12 10/35/10
f 27/29/27 6/36/6 4/37/4
f 19/38/19 21/39/21 29/40/29
f 19/38/19 29/40/29 30/41/30
f 31/42/31 21/39/21 23/43/23
f 23/43/23 3/44/3 31/42/31
f 2/45/2 31/42/31 3/44/3
f 21/39/21 31/42/31 29/40/29
f 31/42/31 2/45/2 5/46/5
f 32/47/32 31/42/31 5/46/5
f 5/46/5 33/48/33 32/47/32
f 33/48/33 5/46/5 7/49/7
f 34/50/34 17/51/17 19/38/19
f 17/51/17 34/50/34 15/52/15
f 34/50/34 19/38/19 30/41/30
f 15/52/15 34/50/34 35/53/35
f 35/53/35 13/54/13 15/52/15
f 11/55/11 13/54/13 35/53/35
f 35/53/35 36/56/36 11/55/11
f 9/57/9 11/55/11 36/56/36
f 36/56/36 33/48/33 9/57/9
f 9/57/9 33/48/33 7/49/7
f 30/58/30 29/59/29 37/60/37
f 38/61/38 40/62/39 39/63/40
f 39/63/40 41/64/41 38/61/38
f 29/59/29 31/65/31 42/66/42
f 37/67/37 43/68/43 40/62/39
f 40/62/39 38/61/38 37/67/37
f 31/65/31 32/69/32 44/70/44
f 45/71/45 42/72/42 44/73/44
f 42/72/42 45/71/45 43/68/43
f 46/74/46 43/68/43 45/71/45
f 43/68/43 46/74/46 47/75/47
f 32/69/32 33/76/33 48/77/48
f 44/73/44 49/78/49 45/71/45
f 49/78/49 44/73/44 48/79/48
f 34/80/34 30/58/30 38/81/38
f 41/64/41 39/63/40 50/82/50
f 50/82/50 51/83/51 41/64/41
f 35/84/35 34/80/34 41/85/41
f 51/83/51 50/82/50 52/86/52
f 52/86/52 53/87/53 51/83/51
f 36/88/36 35/84/35 51/89/51
f 53/87/53 52/86/52 54/90/54
f 54/90/54 48/79/48 53/87/53
f 33/76/33 36/88/36 53/91/53
f 54/90/54 49/78/49 48/79/48
f 55/92/55 39/63/40 40/62/39
f 40/62/39 47/75/47 55/92/55
f 39/63/40 55/92/55 56/93/56
f 56/93/56 50/82/50 39/63/40
f 40/62/39 43/68/43 47/75/47
f 57/94/57 45/71/45 49/78/49
f 49/78/49 58/95/58 57/94/57
f 57/94/57 46/74/46 45/71/45
f 58/95/58 49/78/49 54/90/54
f 54/90/54 59/96/59 58/95/58
f 59/96/59 54/90/54 52/86/52
f 52/86/52 60/97/60 59/96/59
f 60/97/60 52/86/52 50/82/50
f 50/82/50 56/93/56 60/97/60
f 60/98/60 58/99/58 59/100/59
f 58/99/58 60/98/60 57/101/57
f 57/101/57 60/98/60 56/102/56
f 56/102/56 46/103/46 57/101/57
f 55/104/55 46/103/46 56/102/56
f 46/103/46 55/104/55 47/105/47
f 14/106/14 28/33/28 25/25/25
f 28/33/28 14/106/14 12/34/12
f 25/25/25 16/27/16 14/106/14
f 20/107/20 18/26/18 26/28/26
f 26/28/26 61/108/61 20/107/20
f 27/29/27 62/109/62 63/110/63
f 22/31/22 62/109/62 27/29/27
f 62/109/62 22/31/22 20/107/20
f 62/109/62 20/107/20 61/108/61
f 27/29/27 4/37/4 1/32/1
f 28/33/28 10/35/10 64/111/64
f 10/35/10 8/112/8 64/111/64
f 8/112/8 65/113/65 64/111/64
f 27/29/27 66/114/66 67/115/67
f 67/115/67 6/36/6 27/29/27
f 6/36/6 67/115/67 8/112/8
f 67/115/67 65/113/65 8/112/8
f 29/59/29 42/66/42 37/60/37
f 37/67/37 42/72/42 43/68/43
f 30/58/30 37/60/37 38/81/38
f 34/80/34 38/81/38 41/85/41
f 35/84/35 41/85/41 51/89/51
f 36/88/36 51/89/51 53/91/53
f 33/76/33 53/91/53 48/77/48
f 32/69/32 48/77/48 44/70/44
f 31/65/31 44/70/44 42/66/42
f 68/116/68 63/117/63 69/118/69
f 69/118/69 70/119/70 68/116/68
f 71/120/71 68/116/68 70/119/70
f 68/116/68 27/121/27 63/117/63
f 69/122/69 63/123/63 62/124/62
f 69/122/69 62/124/62 72/125/62
f 73/126/72 72/125/62 62/124/62
f 73/126/72 62/124/62 61/127/61
f 74/128/73 69/129/69 72/130/62
f 74/128/73 72/130/62 73/131/72
f 75/132/74 76/133/75 74/134/73
f 75/132/74 74/134/73 73/135/72
f 77/136/62 76/137/75 75/138/74
f 77/136/62 75/138/74 78/139/76
f 79/140/76 77/141/62 78/142/76
f 79/140/76 78/142/76 80/143/62
f 81/144/25 79/145/76 80/146/62
f 81/144/25 80/146/62 82/147/77
f 73/126/72 26/148/26 78/149/76
f 78/149/76 75/150/74 73/126/72
f 26/148/26 73/126/72 61/127/61
f 82/151/77 78/152/76 26/148/26
f 78/152/76 82/151/77 80/153/62
f 82/151/77 26/148/26 25/154/25
f 76/155/75 70/119/70 69/118/69
f 70/119/70 76/155/75 79/156/76
f 77/157/62 79/156/76 76/155/75
f 83/158/78 66/159/66 68/116/68
f 68/116/68 71/120/71 83/158/78
f 84/160/79 83/158/78 71/120/71
f 68/116/68 66/159/66 27/121/27
f 85/161/80 86/162/67 87/163/81
f 86/162/67 85/161/80 88/164/82
f 81/144/25 88/164/82 85/161/80
f 89/165/83 83/158/78 84/160/79
f 89/165/83 87/166/81 90/167/67
f 87/166/81 89/165/83 84/160/79
f 88/168/82 82/169/77 25/170/25
f 88/168/82 25/170/25 28/171/28
f 88/164/82 81/144/25 82/147/77
f 91/172/84 85/173/80 87/174/81
f 87/174/81 92/175/85 91/172/84
f 79/176/76 81/177/25 93/178/86
f 93/178/86 94/179/87 70/180/70
f 94/179/87 93/178/86 95/181/88
f 91/182/84 81/183/25 85/184/80
f 81/183/25 91/182/84 93/185/86
f 96/186/89 84/187/79 71/188/71
f 84/187/79 96/186/89 92/175/85
f 97/189/90 92/175/85 96/186/89
f 94/179/87 71/188/71 70/180/70
f 71/188/71 94/179/87 96/186/89
f 98/190/91 93/191/86 91/192/84
f 97/189/90 94/179/87 95/181/88
f 95/181/88 99/193/92 97/189/90
f 94/179/87 97/189/90 96/186/89
f 92/175/85 100/194/93 91/172/84
f 100/194/93 92/175/85 97/189/90
f 95/181/88 93/178/86 101/195/94
f 101/195/94 99/193/92 95/181/88
f 98/196/91 101/195/94 93/178/86
f 101/195/94 98/196/91 99/193/92
f 97/189/90 99/193/92 102/197/95
f 97/189/90 102/197/95 100/194/93
f 102/197/95 99/193/92 98/196/91
f 98/196/91 91/172/84 102/197/95
f 102/197/95 91/172/84 100/194/93
f 70/180/70 79/176/76 93/178/86
f 87/174/81 84/187/79 92/175/85
f 76/155/75 69/118/69 74/198/73
f 83/158/78 89/165/83 103/199/96
f 83/200/78 67/201/67 66/202/66
f 67/201/67 83/200/78 104/203/97
f 105/204/98 67/201/67 104/203/97
f 67/201/67 105/204/98 65/205/65
f 64/206/64 65/205/65 105/204/98
f 103/207/96 104/208/97 83/209/78
f 104/208/97 103/207/96 105/210/98
f 106/211/96 103/212/96 89/213/83
f 103/212/96 106/211/96 105/214/98
f 90/215/67 106/216/96 89/217/83
f 106/216/96 90/215/67 107/218/99
f 87/219/81 107/220/99 90/221/67
f 107/220/99 87/219/81 86/222/67
f 64/206/64 105/204/98 107/223/99
f 105/204/98 106/224/96 107/223/99
f 88/225/82 64/206/64 107/226/99
f 64/206/64 88/225/82 28/227/28
f 88/225/82 107/226/99 86/228/67
