# Blender v2.79 (sub 0) OBJ File: ''
# www.blender.org
mtllib tribalgrapplerx1l.mtl
o MDL_w2dknx1_bod01
v 0.001300 0.088600 0.033300
v 0.001300 0.113100 -0.058600
v -0.022500 0.107000 -0.035600
v 0.025200 0.107000 -0.035600
v -0.104800 0.096300 -0.009800
v -0.037800 0.115900 -0.074500
v -0.071400 0.113900 -0.075000
v -0.037700 0.108100 -0.041700
v -0.148800 0.114700 -0.114500
v -0.053900 0.122800 -0.113100
v -0.077700 0.124800 -0.136900
v -0.077700 0.116600 -0.090000
v -0.104800 0.133100 -0.219100
v -0.037800 0.129500 -0.151600
v -0.037700 0.133400 -0.185000
v -0.071400 0.127500 -0.151900
v 0.001300 0.140600 -0.262300
v 0.001300 0.132300 -0.167500
v 0.025200 0.134500 -0.191200
v -0.022500 0.134500 -0.191200
v 0.107500 0.133100 -0.219100
v 0.040500 0.129500 -0.151600
v 0.074100 0.127500 -0.151900
v 0.040300 0.133400 -0.185000
v 0.151600 0.114700 -0.114500
v 0.056600 0.122800 -0.113100
v 0.080300 0.116600 -0.090000
v 0.080300 0.124800 -0.136900
v 0.107500 0.096300 -0.009800
v 0.040500 0.115900 -0.074500
v 0.040300 0.108100 -0.041700
v 0.074100 0.113900 -0.075000
vt 0.500000 0.031300
vt 0.500000 0.960900
vt 0.953100 0.718800
vt 0.031300 0.726600
vt 0.500000 0.031300
vt 0.500000 0.960900
vt 0.953100 0.718800
vt 0.031300 0.726600
vt 0.500000 0.031300
vt 0.500000 0.960900
vt 0.953100 0.718800
vt 0.031300 0.726600
vt 0.500000 0.031300
vt 0.500000 0.960900
vt 0.953100 0.718800
vt 0.031300 0.726600
vt 0.500000 0.031300
vt 0.500000 0.960900
vt 0.953100 0.718800
vt 0.031300 0.726600
vt 0.500000 0.031300
vt 0.500000 0.960900
vt 0.953100 0.718800
vt 0.031300 0.726600
vt 0.500000 0.031300
vt 0.500000 0.960900
vt 0.953100 0.718800
vt 0.031300 0.726600
vt 0.500000 0.031300
vt 0.500000 0.960900
vt 0.953100 0.718800
vt 0.031300 0.726600
vn 0.0000 0.9663 0.2576
vn 0.0013 0.9663 0.2576
vn -0.0013 0.9663 0.2576
vn -0.0611 0.9711 0.2309
vn -0.0612 0.9711 0.2308
vn -0.0609 0.9710 0.2311
vn -0.0863 0.9814 0.1716
vn -0.0863 0.9819 0.1688
vn -0.0863 0.9809 0.1744
vn -0.0616 0.9916 0.1140
vn -0.0632 0.9913 0.1156
vn -0.0600 0.9918 0.1125
vn 0.0000 0.9962 0.0872
vn -0.0052 0.9962 0.0872
vn 0.0052 0.9962 0.0872
vn 0.0615 0.9916 0.1139
vn 0.0600 0.9918 0.1125
vn 0.0630 0.9913 0.1154
vn 0.0862 0.9814 0.1716
vn 0.0862 0.9808 0.1748
vn 0.0862 0.9819 0.1684
vn 0.0610 0.9710 0.2310
vn 0.0607 0.9710 0.2313
vn 0.0612 0.9711 0.2308
usemtl TEX_w2dknx1_1

f 1/1/1 2/2/1 3/3/2
f 2/2/1 1/1/1 4/4/3
f 5/5/4 6/6/4 7/7/5
f 6/6/4 5/5/4 8/8/6
f 9/9/7 10/10/7 11/11/8
f 10/10/7 9/9/7 12/12/9
f 13/13/10 14/14/10 15/15/11
f 14/14/10 13/13/10 16/16/12
f 17/17/13 18/18/13 19/19/14
f 18/18/13 17/17/13 20/20/15
f 21/21/16 22/22/16 23/23/17
f 22/22/16 21/21/16 24/24/18
f 25/25/19 26/26/19 27/27/20
f 26/26/19 25/25/19 28/28/21
f 29/29/22 30/30/22 31/31/23
f 30/30/22 29/29/22 32/32/24
o MDL_w2dknx1_bod00
v -0.031700 0.118700 -0.178300
v -0.029700 0.105600 -0.148300
v -0.029700 0.111200 -0.179500
v -0.031700 0.113300 -0.147000
v -0.077700 0.106600 -0.180300
v -0.083300 0.091600 -0.150800
v -0.075600 0.099100 -0.181700
v -0.085300 0.099100 -0.149500
v -0.113900 0.079400 -0.128700
v -0.115900 0.086900 -0.127500
v -0.031700 0.074700 0.071700
v -0.100600 0.059200 0.053000
v -0.039400 0.056300 0.165200
v -0.115900 0.064800 -0.002300
v -0.031700 0.085800 0.009400
v -0.084400 0.040300 0.162300
v -0.098600 0.051700 0.051600
v -0.047000 0.100900 -0.100800
v -0.030600 0.097800 -0.081200
v -0.045000 0.093400 -0.102200
v -0.045000 0.098900 -0.133400
v -0.047000 0.106400 -0.132000
v -0.030600 0.095000 -0.065600
v -0.045000 0.083800 -0.047500
v -0.047000 0.091300 -0.046100
v -0.121600 0.069100 -0.082200
v -0.129200 0.064400 -0.067000
v -0.123600 0.076700 -0.080900
v -0.131200 0.071900 -0.065600
v -0.147700 0.070000 -0.127200
v -0.151600 0.063100 -0.094500
v -0.153600 0.070600 -0.093300
v -0.149700 0.077500 -0.125900
v -0.047000 0.085800 -0.014800
v -0.045000 0.078300 -0.016100
v -0.029700 0.078300 0.008000
v -0.007700 0.083900 0.033100
v -0.121600 0.056700 -0.011900
v -0.123600 0.064200 -0.010600
v -0.177300 0.057700 -0.056100
v -0.169700 0.052800 -0.016600
v -0.222300 0.037700 -0.035500
v -0.113900 0.057300 -0.003700
v -0.175300 0.050200 -0.057300
v -0.167700 0.045300 -0.018000
v -0.029700 0.067200 0.070500
v -0.037300 0.048600 0.163900
v -0.026600 0.025600 0.240300
v -0.160000 0.041100 0.017500
v -0.144500 0.038300 0.057200
v -0.146700 0.045800 0.058600
v -0.162000 0.048600 0.018800
v -0.183900 0.062200 -0.115600
v -0.199200 0.027800 0.055500
v -0.007700 0.081100 0.048700
v 0.029500 0.105600 -0.148300
v 0.031600 0.118700 -0.178300
v 0.029500 0.111200 -0.179500
v 0.031600 0.113300 -0.147000
v 0.077700 0.106600 -0.180300
v 0.083300 0.091600 -0.150800
v 0.075500 0.099100 -0.181700
v 0.085300 0.099100 -0.149500
v 0.113900 0.079400 -0.128700
v 0.115900 0.086900 -0.127500
v 0.039200 0.056300 0.165200
v 0.100600 0.059200 0.053000
v 0.031600 0.074700 0.071700
v 0.084200 0.040300 0.162300
v 0.026400 0.025600 0.240300
v 0.030600 0.097800 -0.081200
v 0.046900 0.100900 -0.100800
v 0.044800 0.093400 -0.102200
v 0.030600 0.095000 -0.065600
v 0.044800 0.083800 -0.047500
v 0.046900 0.091300 -0.046100
v 0.046900 0.106400 -0.132000
v 0.044800 0.098900 -0.133400
v 0.123600 0.076700 -0.080900
v 0.129200 0.064400 -0.067000
v 0.121600 0.069100 -0.082200
v 0.131200 0.071900 -0.065600
v 0.147700 0.070000 -0.127200
v 0.151400 0.063100 -0.094500
v 0.153400 0.070600 -0.093300
v 0.183900 0.062200 -0.115600
v 0.149700 0.077500 -0.125900
v 0.046900 0.085800 -0.014800
v 0.044800 0.078300 -0.016100
v 0.031600 0.085800 0.009400
v 0.029500 0.078300 0.008000
v 0.007700 0.083900 0.033100
v 0.121600 0.056700 -0.011900
v 0.175200 0.050200 -0.057300
v 0.167500 0.045300 -0.018000
v 0.123600 0.064200 -0.010600
v 0.113900 0.057300 -0.003700
v 0.115900 0.064800 -0.002300
v 0.029500 0.067200 0.070500
v 0.098600 0.051700 0.051600
v 0.169500 0.052800 -0.016600
v 0.222200 0.037700 -0.035500
v 0.177200 0.057700 -0.056100
v 0.037200 0.048600 0.163900
v 0.007700 0.081100 0.048700
v 0.159800 0.041100 0.017500
v 0.144500 0.038300 0.057200
v 0.146600 0.045800 0.058600
v 0.199200 0.027800 0.055500
v 0.161900 0.048600 0.018800
v 0.001300 0.130200 -0.080900
v -0.033000 0.116300 -0.094100
v 0.001300 0.112800 -0.074500
v 0.027700 0.132800 -0.095900
v -0.024800 0.132800 -0.095900
v -0.033000 0.123100 -0.133100
v -0.024800 0.138000 -0.125800
v 0.001300 0.126600 -0.152700
v 0.001300 0.140600 -0.140800
v 0.035600 0.123100 -0.133100
v 0.027700 0.138000 -0.125800
v 0.035600 0.116300 -0.094100
v 0.001300 0.135300 -0.110800
vt 0.054700 0.003900
vt 0.007800 0.085900
vt 0.007800 0.003900
vt 0.054700 0.085900
vt 0.242200 0.003900
vt 0.335900 0.078100
vt 0.289100 0.003900
vt 0.289100 0.085900
vt 0.460900 0.132800
vt 0.429700 0.148400
vt 0.515600 0.664100
vt 0.679700 0.613300
vt 0.539100 0.597700
vt 0.687500 0.679700
vt 0.101600 0.585900
vt 0.460900 0.550800
vt 0.187500 0.804700
vt 0.500000 0.433600
vt 0.093800 0.441400
vt 0.414100 0.804700
vt 0.507800 0.585900
vt 0.906300 0.550800
vt 0.992200 0.410200
vt 0.906300 0.410200
vt 0.992200 0.550800
vt 0.109400 0.187500
vt 0.054700 0.234400
vt 0.046900 0.187500
vt 0.039100 0.117200
vt 0.101600 0.117200
vt 0.453100 0.835900
vt 0.500000 0.761700
vt 0.460900 0.796900
vt 0.484400 0.878900
vt 0.132800 0.316400
vt 0.515600 0.695300
vt 0.718800 0.738300
vt 0.726600 0.839800
vt 0.570300 0.296900
vt 0.507800 0.253900
vt 0.554700 0.253900
vt 0.523400 0.296900
vt 0.812500 0.753900
vt 0.812500 0.824200
vt 0.507800 0.585900
vt 0.640600 0.574200
vt 0.640600 0.601600
vt 0.460900 0.550800
vt 0.585900 0.156300
vt 0.617200 0.234400
vt 0.500000 0.433600
vt 0.718800 0.457000
vt 0.679700 0.480500
vt 0.531300 0.418000
vt 0.132800 0.390600
vt 0.070300 0.320300
vt 0.070300 0.390600
vt 0.046900 0.433600
vt 0.007800 0.492200
vt 0.468800 0.945300
vt 0.742200 0.871100
vt 0.695300 0.980500
vt 0.523400 0.414100
vt 0.742200 0.324200
vt 0.734400 0.410200
vt 0.914100 0.375000
vt 0.562500 0.437500
vt 0.570300 0.421900
vt 0.671900 0.992200
vt 0.429700 0.988300
vt 0.875000 0.910200
vt 0.835900 0.988300
vt 0.507800 0.585900
vt 0.640600 0.574200
vt 0.640600 0.601600
vt 0.460900 0.550800
vt 0.500000 0.433600
vt 0.718800 0.457000
vt 0.679700 0.480500
vt 0.531300 0.418000
vt 0.437500 0.875000
vt 0.640600 0.890600
vt 0.515600 0.730500
vt 0.187500 0.996100
vt 0.156300 0.808600
vt 0.562500 0.621100
vt 0.648400 0.718800
vt 0.867200 0.960900
vt 0.812500 0.882800
vt 0.640600 0.574200
vt 0.640600 0.601600
vt 0.679700 0.480500
vt 0.718800 0.457000
vt 0.531300 0.418000
vt 0.921900 0.789100
vt 0.859400 0.570300
vt 0.742200 0.187500
vt 0.992200 0.972700
vt 0.859400 0.570300
vt 0.984400 0.886700
vt 0.859400 0.570300
vt 0.007800 0.535200
vt 0.070300 0.597700
vt 0.375000 0.929700
vt 0.382800 0.964800
vt 0.054700 0.277300
vt 0.007800 0.085900
vt 0.054700 0.003900
vt 0.007800 0.003900
vt 0.054700 0.085900
vt 0.242200 0.003900
vt 0.335900 0.078100
vt 0.289100 0.003900
vt 0.289100 0.085900
vt 0.460900 0.132800
vt 0.429700 0.148400
vt 0.679700 0.613300
vt 0.515600 0.664100
vt 0.539100 0.597700
vt 0.687500 0.679700
vt 0.187500 0.804700
vt 0.460900 0.550800
vt 0.101600 0.585900
vt 0.414100 0.804700
vt 0.187500 0.996100
vt 0.992200 0.410200
vt 0.906300 0.550800
vt 0.906300 0.410200
vt 0.992200 0.550800
vt 0.054700 0.234400
vt 0.109400 0.187500
vt 0.046900 0.187500
vt 0.500000 0.761700
vt 0.453100 0.835900
vt 0.460900 0.796900
vt 0.484400 0.878900
vt 0.718800 0.738300
vt 0.132800 0.316400
vt 0.101600 0.117200
vt 0.039100 0.117200
vt 0.515600 0.695300
vt 0.507800 0.253900
vt 0.570300 0.296900
vt 0.554700 0.253900
vt 0.523400 0.296900
vt 0.812500 0.753900
vt 0.726600 0.839800
vt 0.812500 0.824200
vt 0.640600 0.601600
vt 0.640600 0.574200
vt 0.507800 0.585900
vt 0.859400 0.570300
vt 0.460900 0.550800
vt 0.617200 0.234400
vt 0.585900 0.156300
vt 0.742200 0.187500
vt 0.679700 0.480500
vt 0.718800 0.457000
vt 0.500000 0.433600
vt 0.531300 0.418000
vt 0.070300 0.320300
vt 0.132800 0.390600
vt 0.054700 0.277300
vt 0.070300 0.390600
vt 0.093800 0.441400
vt 0.046900 0.433600
vt 0.007800 0.492200
vt 0.742200 0.871100
vt 0.468800 0.945300
vt 0.695300 0.980500
vt 0.875000 0.910200
vt 0.835900 0.988300
vt 0.523400 0.414100
vt 0.562500 0.437500
vt 0.570300 0.421900
vt 0.500000 0.433600
vt 0.671900 0.992200
vt 0.429700 0.988300
vt 0.437500 0.875000
vt 0.640600 0.890600
vt 0.640600 0.601600
vt 0.640600 0.574200
vt 0.507800 0.585900
vt 0.859400 0.570300
vt 0.460900 0.550800
vt 0.734400 0.410200
vt 0.742200 0.324200
vt 0.914100 0.375000
vt 0.679700 0.480500
vt 0.718800 0.457000
vt 0.500000 0.433600
vt 0.531300 0.418000
vt 0.156300 0.808600
vt 0.070300 0.597700
vt 0.007800 0.535200
vt 0.507800 0.585900
vt 0.515600 0.730500
vt 0.648400 0.718800
vt 0.562500 0.621100
vt 0.867200 0.960900
vt 0.812500 0.882800
vt 0.640600 0.601600
vt 0.640600 0.574200
vt 0.859400 0.570300
vt 0.679700 0.480500
vt 0.718800 0.457000
vt 0.531300 0.418000
vt 0.921900 0.789100
vt 0.992200 0.972700
vt 0.984400 0.886700
vt 0.375000 0.929700
vt 0.382800 0.964800
vt 0.804700 0.003900
vt 0.992200 0.109400
vt 0.992200 0.003900
vt 0.804700 0.109400
vt 0.804700 0.109400
vt 0.992200 0.210900
vt 0.804700 0.210900
vt 0.992200 0.320300
vt 0.804700 0.320300
vt 0.992200 0.210900
vt 0.804700 0.210900
vt 0.992200 0.109400
vt 0.429700 0.109400
vt 0.546900 0.003900
vt 0.679700 0.109400
vt 0.304700 0.003900
vt 0.429700 0.109400
vt 0.679700 0.109400
vt 0.789100 0.003900
vt 0.984400 0.597700
vt 0.859400 0.625000
vt 0.859400 0.707000
vt 0.984400 0.742200
vt 0.859400 0.625000
vt 0.859400 0.707000
vn 0.5603 0.5972 -0.5739
vn 0.8542 -0.4726 0.2170
vn 0.7054 -0.3098 -0.6376
vn 0.2499 0.8980 0.3621
vn -0.7569 0.5289 -0.3840
vn -0.2906 -0.8615 -0.4164
vn -0.1328 -0.5590 -0.8185
vn -0.6389 0.7269 -0.2517
vn -0.0422 -0.7475 -0.6629
vn -0.3612 0.8268 -0.4313
vn 0.1723 0.9236 0.3424
vn -0.4170 0.8282 0.3744
vn 0.4773 0.8457 0.2386
vn -0.5297 0.8463 -0.0564
vn 0.3076 0.9314 -0.1948
vn -0.9309 -0.3032 0.2038
vn 0.1039 -0.9681 0.2279
vn 0.3147 0.9473 0.0604
vn 0.8643 0.3085 -0.3973
vn 0.6326 -0.7344 -0.2459
vn 0.9087 -0.3934 0.1395
vn 0.5310 0.6572 0.5349
vn 0.9099 0.1763 0.3754
vn 0.7166 -0.6974 -0.0138
vn 0.1252 0.9502 0.2853
vn -0.1086 -0.9826 0.1506
vn -0.1944 -0.8223 -0.5348
vn -0.6807 0.7194 0.1385
vn -0.4875 0.7969 -0.3568
vn 0.0416 -0.5889 -0.8071
vn -0.1565 -0.8601 0.4855
vn -0.4958 0.3082 0.8119
vn -0.3581 0.8438 -0.3998
vn 0.3464 0.9367 0.0509
vn 0.7308 -0.5954 -0.3337
vn 0.6192 -0.6752 -0.4008
vn 0.7962 0.3104 -0.5194
vn 0.0385 -0.9175 0.3959
vn -0.5061 0.6130 0.6067
vn -0.4192 0.8250 -0.3791
vn -0.2803 0.3437 0.8963
vn -0.9542 -0.2934 0.0579
vn -0.0949 -0.9924 -0.0784
vn -0.0457 -0.6194 -0.7837
vn 0.0348 -0.8309 0.5553
vn 0.7624 -0.6440 0.0636
vn 0.7249 -0.6723 -0.1499
vn 0.9723 0.2270 0.0549
vn -0.1991 -0.6723 -0.7130
vn 0.2147 -0.7864 0.5792
vn -0.0729 0.3944 0.9160
vn -0.5432 0.7816 -0.3068
vn -0.9628 -0.2209 -0.1556
vn -0.8906 -0.3104 0.3323
vn 0.8559 0.1498 0.4949
vn -0.8565 -0.4671 0.2195
vn -0.5566 0.6032 -0.5713
vn -0.7063 -0.3044 -0.6392
vn -0.2475 0.8990 0.3613
vn 0.7571 0.5268 -0.3863
vn 0.2898 -0.8617 -0.4166
vn 0.1316 -0.5608 -0.8174
vn 0.6387 0.7271 -0.2516
vn 0.0426 -0.7474 -0.6630
vn 0.3611 0.8269 -0.4312
vn -0.4790 0.8449 0.2381
vn 0.4170 0.8280 0.3748
vn -0.1710 0.9243 0.3411
vn 0.9305 -0.3034 0.2051
vn -0.9756 0.2139 0.0487
vn -0.8643 0.3157 -0.3916
vn -0.3123 0.9480 0.0617
vn -0.6356 -0.7320 -0.2453
vn -0.9096 0.1838 0.3727
vn -0.7194 -0.6945 -0.0134
vn -0.1243 0.9507 0.2843
vn -0.5263 0.6619 0.5337
vn -0.9112 -0.3867 0.1417
vn 0.6812 0.7189 0.1386
vn 0.1947 -0.8223 -0.5348
vn 0.1092 -0.9827 0.1499
vn 0.4876 0.7969 -0.3567
vn -0.0420 -0.5885 -0.8074
vn 0.1558 -0.8604 0.4853
vn 0.4961 0.3076 0.8120
vn 0.9631 -0.2212 -0.1534
vn 0.3587 0.8439 -0.3990
vn -0.3428 0.9380 0.0516
vn -0.7328 -0.5927 -0.3343
vn -0.3051 0.9326 -0.1926
vn -0.6217 -0.6730 -0.4007
vn -0.7963 0.3173 -0.5150
vn -0.0385 -0.9175 0.3959
vn 0.0456 -0.6192 -0.7839
vn -0.0351 -0.8311 0.5551
vn 0.5063 0.6128 0.6068
vn 0.0955 -0.9924 -0.0781
vn 0.5301 0.8460 -0.0565
vn -0.7631 -0.6431 0.0635
vn -0.1040 -0.9680 0.2282
vn 0.2805 0.3434 0.8963
vn 0.9542 -0.2934 0.0585
vn 0.4198 0.8249 -0.3786
vn -0.7224 -0.6748 -0.1509
vn -0.8559 0.1569 0.4928
vn 0.1978 -0.6742 -0.7116
vn -0.2147 -0.7864 0.5793
vn 0.0727 0.3941 0.9162
vn 0.8880 -0.3194 0.3308
vn 0.5438 0.7804 -0.3086
vn -0.1101 0.7092 0.6964
vn -0.7485 0.0370 0.6621
vn 0.1550 -0.7040 0.6930
vn 0.4369 0.7394 0.5123
vn -0.5411 0.7758 0.3245
vn -0.9128 -0.2002 -0.3561
vn -0.4336 0.8717 -0.2283
vn -0.1562 -0.4239 -0.8921
vn 0.1089 0.9032 -0.4151
vn 0.7487 0.2532 -0.6127
vn 0.5464 0.8362 -0.0463
vn 0.9101 -0.3205 0.2627
vn 0.0000 0.9852 0.1711
usemtl TEX_w2dknx1

f 33/33/25 34/34/26 35/35/27
f 34/34/26 33/33/25 36/36/28
f 37/37/29 36/36/28 33/33/25
f 38/38/30 37/37/29 39/39/31
f 37/37/29 38/38/30 40/40/32
f 41/41/33 40/40/32 38/38/30
f 40/40/32 41/41/33 42/42/34
f 34/43/26 39/44/31 35/45/27
f 39/44/31 34/43/26 38/46/30
f 43/47/35 44/48/36 45/49/37
f 44/48/36 43/47/35 46/50/38
f 47/51/39 46/50/38 43/47/35
f 48/52/40 45/49/37 44/48/36
f 44/48/36 49/53/41 48/52/40
f 33/54/25 39/55/31 37/56/29
f 39/55/31 33/54/25 35/57/27
f 50/58/42 51/59/43 52/60/44
f 52/60/44 53/61/45 50/58/42
f 54/62/46 50/58/42 53/61/45
f 53/61/45 34/34/26 54/62/46
f 36/36/28 54/62/46 34/34/26
f 55/63/47 52/64/44 51/65/43
f 52/64/44 55/63/47 56/66/48
f 50/58/42 40/40/32 42/42/34
f 42/42/34 57/67/49 50/58/42
f 50/58/42 54/62/46 40/40/32
f 38/46/30 34/43/26 53/68/45
f 53/68/45 52/64/44 38/46/30
f 41/69/33 38/46/30 52/64/44
f 52/64/44 56/66/48 41/69/33
f 58/70/50 41/69/33 56/66/48
f 36/36/28 37/37/29 40/40/32
f 59/71/51 60/72/52 58/73/50
f 60/72/52 59/71/51 61/74/53
f 58/70/50 62/75/54 41/69/33
f 62/75/54 58/70/50 63/76/55
f 58/77/50 64/78/56 63/79/55
f 64/78/56 58/77/50 60/80/52
f 60/72/52 65/81/57 64/82/56
f 65/81/57 60/72/52 42/42/34
f 57/67/49 42/42/34 60/72/52
f 42/83/34 62/84/54 65/85/57
f 62/84/54 42/83/34 41/86/33
f 66/87/58 56/88/48 57/67/49
f 56/88/48 66/87/58 67/89/59
f 47/51/39 67/89/59 66/87/58
f 67/89/59 47/51/39 68/90/60
f 69/91/61 68/90/60 47/51/39
f 67/92/59 59/93/51 56/66/48
f 59/93/51 67/92/59 70/94/62
f 61/74/53 66/87/58 57/67/49
f 71/95/63 66/87/58 61/74/53
f 61/74/53 72/96/64 71/95/63
f 73/97/65 71/95/63 72/96/64
f 72/96/64 74/98/66 73/97/65
f 75/99/67 71/95/63 70/100/62
f 71/95/63 75/99/67 46/50/38
f 75/101/67 67/92/59 68/102/60
f 67/92/59 75/101/67 70/94/62
f 70/94/62 76/103/68 59/93/51
f 76/103/68 70/94/62 77/104/69
f 70/105/62 73/106/65 77/107/69
f 73/106/65 70/105/62 71/108/63
f 61/109/53 76/110/68 72/111/64
f 76/110/68 61/109/53 59/112/51
f 66/87/58 46/50/38 47/51/39
f 46/50/38 66/87/58 71/95/63
f 78/113/70 75/101/67 68/102/60
f 75/101/67 78/113/70 49/114/41
f 79/115/71 49/114/41 78/113/70
f 45/49/37 80/116/72 79/117/71
f 79/115/71 80/118/72 48/119/40
f 49/114/41 81/120/73 75/101/67
f 81/120/73 49/114/41 82/121/74
f 49/53/41 83/122/75 82/123/74
f 83/122/75 49/53/41 44/48/36
f 44/48/36 84/124/76 83/122/75
f 84/124/76 44/48/36 46/50/38
f 46/50/38 81/125/73 84/124/76
f 81/125/73 46/50/38 75/126/67
f 62/75/54 63/76/55 85/127/77
f 63/79/55 64/78/56 85/128/77
f 64/82/56 65/81/57 85/129/77
f 65/85/57 62/84/54 85/128/77
f 76/103/68 77/104/69 74/130/66
f 77/107/69 73/106/65 74/131/66
f 72/111/64 76/110/68 74/131/66
f 81/120/73 82/121/74 86/132/78
f 82/123/74 83/122/75 86/133/78
f 83/122/75 84/124/76 86/133/78
f 84/124/76 81/125/73 86/133/78
f 47/51/39 87/134/79 69/91/61
f 87/134/79 47/51/39 43/47/35
f 43/47/35 78/135/70 87/134/79
f 68/102/60 87/136/79 78/113/70
f 87/136/79 68/102/60 69/137/61
f 49/114/41 79/115/71 48/119/40
f 78/135/70 45/49/37 79/117/71
f 45/49/37 78/135/70 43/47/35
f 48/52/40 80/116/72 45/49/37
f 57/67/49 56/88/48 55/138/47
f 50/58/42 55/138/47 51/59/43
f 55/138/47 50/58/42 57/67/49
f 56/66/48 59/93/51 58/70/50
f 60/72/52 61/74/53 57/67/49
f 54/62/46 36/36/28 40/40/32
f 88/139/80 89/140/81 90/141/82
f 89/140/81 88/139/80 91/142/83
f 92/143/84 93/144/85 94/145/86
f 95/146/87 93/144/85 92/143/84
f 93/144/85 95/146/87 96/147/88
f 97/148/89 96/147/88 95/146/87
f 94/149/86 88/150/80 90/151/82
f 88/150/80 94/149/86 93/152/85
f 98/153/90 99/154/91 100/155/92
f 99/154/91 98/153/90 101/156/93
f 102/157/94 101/156/93 98/153/90
f 94/158/86 89/159/81 92/160/84
f 89/159/81 94/158/86 90/161/82
f 103/162/95 104/163/96 105/164/97
f 105/165/97 106/166/98 103/167/95
f 107/168/99 106/166/98 105/165/97
f 105/165/97 96/169/88 107/168/99
f 97/148/89 95/146/87 104/163/96
f 104/163/96 108/170/100 97/148/89
f 109/171/101 104/163/96 95/146/87
f 95/146/87 91/142/83 109/171/101
f 88/139/80 109/171/101 91/142/83
f 110/172/102 109/171/101 88/139/80
f 109/171/101 110/172/102 104/163/96
f 105/164/97 104/163/96 110/172/102
f 88/150/80 93/152/85 110/173/102
f 91/142/83 92/143/84 89/140/81
f 92/143/84 91/142/83 95/146/87
f 111/174/103 112/175/104 113/176/105
f 112/175/104 111/174/103 114/177/106
f 115/178/107 113/179/105 96/169/88
f 113/179/105 115/178/107 116/180/108
f 116/181/108 117/182/109 113/183/105
f 117/182/109 116/181/108 118/184/110
f 113/183/105 117/182/109 111/185/103
f 117/186/109 119/187/111 111/174/103
f 119/187/111 117/186/109 118/188/110
f 97/148/89 111/174/103 119/187/111
f 111/174/103 97/148/89 108/170/100
f 119/189/111 115/190/107 97/191/89
f 115/190/107 119/189/111 118/184/110
f 97/191/89 115/190/107 96/192/88
f 108/170/100 107/193/99 120/194/112
f 107/193/99 108/170/100 106/195/98
f 104/163/96 106/195/98 108/170/100
f 121/196/113 120/194/112 107/193/99
f 120/194/112 121/196/113 122/197/114
f 123/198/115 122/197/114 121/196/113
f 122/197/114 123/198/115 124/199/116
f 107/168/99 112/200/104 121/201/113
f 112/200/104 107/168/99 113/179/105
f 125/202/117 121/201/113 112/200/104
f 112/200/104 126/203/118 125/202/117
f 127/204/119 125/202/117 126/203/118
f 120/194/112 114/177/106 108/170/100
f 114/177/106 120/194/112 128/205/120
f 128/205/120 129/206/121 125/207/117
f 130/208/122 129/206/121 128/205/120
f 128/205/120 120/194/112 130/208/122
f 129/209/121 123/210/115 121/201/113
f 123/210/115 129/209/121 131/211/123
f 132/212/124 131/211/123 129/209/121
f 121/201/113 125/202/117 129/209/121
f 127/213/119 133/214/125 125/215/117
f 133/214/125 127/213/119 134/216/126
f 125/215/117 133/214/125 128/217/120
f 133/218/125 135/219/127 128/205/120
f 135/219/127 133/218/125 134/220/126
f 128/205/120 135/219/127 114/177/106
f 135/221/127 126/222/118 114/223/106
f 126/222/118 135/221/127 134/216/126
f 114/223/106 126/222/118 112/224/104
f 130/208/122 120/194/112 122/197/114
f 100/155/92 130/208/122 122/197/114
f 130/208/122 100/155/92 99/154/91
f 98/153/90 136/225/128 102/157/94
f 136/225/128 98/153/90 131/226/123
f 100/155/92 131/226/123 98/153/90
f 131/226/123 100/155/92 137/227/129
f 122/197/114 137/227/129 100/155/92
f 101/156/93 132/228/124 99/154/91
f 136/229/128 101/230/93 102/231/94
f 138/232/130 132/212/124 129/209/121
f 132/212/124 138/232/130 139/233/131
f 139/234/131 140/235/132 132/228/124
f 140/235/132 139/234/131 141/236/133
f 99/154/91 132/228/124 140/235/132
f 140/235/132 142/237/134 99/154/91
f 130/208/122 99/154/91 142/237/134
f 142/237/134 138/238/130 130/208/122
f 130/208/122 138/238/130 129/239/121
f 115/178/107 118/240/110 116/180/108
f 126/203/118 134/241/126 127/204/119
f 138/232/130 141/242/133 139/233/131
f 142/237/134 140/235/132 141/236/133
f 141/236/133 138/238/130 142/237/134
f 137/227/129 122/197/114 124/199/116
f 137/243/129 123/210/115 131/211/123
f 123/210/115 137/243/129 124/244/116
f 136/229/128 132/212/124 101/230/93
f 132/212/124 136/229/128 131/211/123
f 106/195/98 104/163/96 103/162/95
f 107/168/99 96/169/88 113/179/105
f 111/174/103 108/170/100 114/177/106
f 93/152/85 105/165/97 110/173/102
f 105/165/97 93/152/85 96/169/88
f 143/245/135 144/246/136 145/247/137
f 145/247/137 146/248/138 143/245/135
f 144/246/136 143/245/135 147/249/139
f 147/249/139 148/250/140 144/246/136
f 148/250/140 147/249/139 149/251/141
f 149/251/141 150/252/142 148/250/140
f 150/252/142 149/251/141 151/253/143
f 151/253/143 152/254/144 150/252/142
f 152/254/144 151/253/143 153/255/145
f 153/255/145 154/256/146 152/254/144
f 154/256/146 153/255/145 146/248/138
f 146/248/138 145/247/137 154/256/146
f 153/257/145 155/258/147 146/259/138
f 155/258/147 153/257/145 151/260/143
f 155/258/147 151/260/143 149/261/141
f 155/258/147 147/262/139 143/263/135
f 145/264/137 144/265/136 148/266/140
f 150/267/142 145/264/137 148/266/140
f 145/264/137 150/267/142 154/268/146
f 150/267/142 152/269/144 154/268/146
f 147/262/139 155/258/147 149/261/141
f 146/259/138 155/258/147 143/263/135
