# Blender v2.79 (sub 0) OBJ File: ''
# www.blender.org
mtllib tribalgrappler02l.mtl
o MDL_w2dkn02_bod00
v -0.101100 0.041300 0.012500
v -0.060600 0.093100 -0.012500
v -0.094200 0.050200 -0.028100
v -0.117300 0.036100 0.054100
v -0.074800 0.090300 0.072000
v -0.072000 0.099700 0.031600
v -0.064800 0.089800 0.029400
v 0.000000 0.117500 -0.005200
v 0.000000 0.127200 0.039500
v 0.000000 0.118100 0.080300
v 0.074800 0.090300 0.072000
v 0.071900 0.099700 0.031600
v 0.117200 0.036100 0.054100
v 0.111700 0.045200 0.013300
v -0.111700 0.045200 0.013300
v 0.000000 0.115300 0.037000
v 0.064800 0.089800 0.029400
v -0.099500 0.030600 0.052800
v -0.065200 0.077500 0.069200
v 0.000000 0.100900 0.076400
v 0.065000 0.077500 0.069200
v 0.000000 0.124100 -0.007200
v -0.065000 0.097800 -0.015000
v -0.056600 0.098300 -0.068600
v -0.100800 0.053000 -0.030900
v -0.088600 0.062800 -0.082500
v 0.000000 0.122800 -0.061100
v 0.056400 0.098300 -0.068600
v 0.000000 0.129200 -0.062500
v -0.061400 0.103400 -0.070200
v -0.095200 0.065600 -0.084700
v -0.053100 0.104400 -0.123900
v -0.081200 0.074400 -0.136700
v 0.000000 0.127000 -0.116900
v 0.000000 0.134200 -0.117500
v -0.055900 0.109500 -0.125000
v -0.046300 0.115900 -0.199800
v -0.087300 0.077000 -0.138300
v 0.000000 0.133000 -0.193900
v 0.046300 0.115900 -0.199800
v -0.075000 0.089500 -0.211700
v -0.066200 0.087500 -0.212200
v -0.042200 0.106900 -0.201700
v 0.000000 0.123100 -0.196300
v 0.042000 0.106900 -0.201700
v 0.075000 0.089500 -0.211700
v 0.066200 0.087500 -0.212200
v -0.083300 0.135000 -0.179800
v -0.125000 0.135500 -0.239800
v -0.083300 0.135500 -0.239800
v -0.125000 0.135000 -0.179800
v -0.066200 0.135300 -0.226100
v -0.059500 0.134700 -0.140600
v -0.041700 0.135000 -0.188700
v -0.041700 0.134700 -0.129800
v -0.041700 0.135200 -0.189800
v 0.000000 0.134700 -0.129800
v 0.000000 0.135200 -0.189800
v 0.041600 0.135200 -0.189800
v -0.083300 0.147500 -0.179700
v -0.125000 0.148000 -0.239700
v -0.125000 0.147500 -0.179700
v -0.083300 0.148000 -0.239700
v -0.066200 0.147800 -0.225900
v -0.059500 0.147200 -0.140500
v -0.041700 0.147700 -0.189700
v -0.041700 0.147200 -0.129700
v 0.000000 0.147200 -0.129700
v 0.000000 0.147700 -0.189700
v 0.041600 0.147700 -0.189700
v 0.041600 0.147200 -0.129700
v 0.059500 0.147200 -0.140500
v -0.016600 0.137700 -0.009800
v -0.025600 0.107800 -0.030500
v 0.000000 0.126100 0.028400
v 0.000000 0.157500 -0.069500
v 0.016400 0.137700 -0.009800
v 0.000000 0.111600 0.027500
v 0.025500 0.107800 -0.030500
v -0.008100 0.117500 0.210800
v -0.006600 0.108300 0.225900
v 0.000000 0.129100 0.223600
v 0.000000 0.211600 0.153600
v -0.012700 0.182300 0.141700
v 0.000000 0.224700 0.044400
v -0.012500 0.195600 0.058700
v 0.000000 0.155000 0.069500
v 0.000000 0.146900 0.129800
v 0.000000 0.097700 0.195900
v 0.000000 0.087300 0.222000
v 0.006400 0.108300 0.225900
v 0.008000 0.117500 0.210800
v 0.012500 0.195600 0.058700
v 0.012500 0.182300 0.141700
v 0.000000 0.109200 0.035600
v -0.062200 0.082800 0.027800
v -0.094500 0.039700 0.012200
v 0.000000 0.110300 -0.006700
v 0.062200 0.082800 0.027800
v -0.058100 0.085800 -0.015500
v -0.088400 0.049200 -0.028300
v -0.081600 0.061100 -0.082800
v -0.052700 0.091200 -0.070000
v 0.000000 0.115300 -0.062700
v 0.058000 0.085800 -0.015500
v 0.000000 0.122300 -0.118000
v 0.052700 0.091200 -0.070000
v -0.048600 0.099400 -0.125000
v -0.075500 0.072800 -0.137000
v 0.000000 0.095800 0.296200
v 0.083300 0.135500 -0.239800
v 0.124800 0.135500 -0.239800
v 0.083300 0.135000 -0.179800
v 0.066100 0.135300 -0.226100
v 0.124800 0.135000 -0.179800
v 0.041600 0.134700 -0.129800
v 0.041600 0.135000 -0.188700
v 0.059500 0.134700 -0.140600
v 0.124800 0.148000 -0.239700
v 0.083300 0.147500 -0.179700
v 0.124800 0.147500 -0.179700
v 0.083300 0.148000 -0.239700
v 0.066100 0.147800 -0.225900
v 0.101100 0.041300 0.012500
v 0.094200 0.050200 -0.028100
v 0.060500 0.093100 -0.012500
v 0.099500 0.030600 0.052800
v 0.094500 0.039700 0.012200
v 0.065000 0.097800 -0.015000
v 0.100600 0.053000 -0.030900
v 0.088600 0.062800 -0.082500
v 0.061300 0.103400 -0.070200
v 0.095000 0.065600 -0.084700
v 0.081200 0.074400 -0.136700
v 0.053000 0.104400 -0.123900
v 0.055900 0.109500 -0.125000
v 0.087200 0.077000 -0.138300
v 0.088300 0.049200 -0.028300
v 0.081600 0.061100 -0.082800
v 0.048600 0.099400 -0.125000
v 0.075500 0.072800 -0.137000
vt 0.007800 0.097700
vt 0.234400 0.003900
vt 0.007800 0.003900
vt 0.007800 0.414100
vt 0.281300 0.414100
vt 0.281300 0.480500
vt 0.234400 0.097700
vt 0.492200 0.003900
vt 0.546900 0.480500
vt 0.546900 0.414100
vt 0.281300 0.414100
vt 0.281300 0.480500
vt 0.007800 0.414100
vt 0.007800 0.480500
vt 0.007800 0.480500
vt 0.492200 0.097700
vt 0.234400 0.097700
vt 0.281300 0.515600
vt 0.007800 0.535200
vt 0.281300 0.535200
vt 0.546900 0.515600
vt 0.007800 0.515600
vt 0.546900 0.535200
vt 0.281300 0.535200
vt 0.546900 0.500000
vt 0.281300 0.488300
vt 0.546900 0.488300
vt 0.281300 0.500000
vt 0.562500 0.480500
vt 0.593800 0.414100
vt 0.609400 0.480500
vt 0.562500 0.414100
vt 0.007800 0.488300
vt 0.007800 0.500000
vt 0.492200 0.105500
vt 0.234400 0.105500
vt 0.234400 0.121100
vt 0.234400 0.003900
vt 0.492200 0.121100
vt 0.007800 0.105500
vt 0.007800 0.121100
vt 0.007800 0.003900
vt 0.492200 0.003900
vt 0.234400 0.003900
vt 0.234400 0.121100
vt 0.492200 0.105500
vt 0.234400 0.105500
vt 0.007800 0.105500
vt 0.492200 0.121100
vt 0.007800 0.121100
vt 0.234400 0.003900
vt 0.007800 0.003900
vt 0.492200 0.003900
vt 0.492200 0.105500
vt 0.250000 0.105500
vt 0.250000 0.121100
vt 0.250000 0.015600
vt 0.492200 0.121100
vt 0.007800 0.105500
vt 0.007800 0.121100
vt 0.492200 0.015600
vt 0.250000 0.015600
vt 0.007800 0.015600
vt 0.765600 0.082000
vt 0.765600 0.121100
vt 0.507800 0.121100
vt 0.507800 0.082000
vt 0.507800 0.082000
vt 0.593800 0.082000
vt 0.593800 0.121100
vt 0.507800 0.121100
vt 0.679700 0.121100
vt 0.679700 0.082000
vt 0.593800 0.082000
vt 0.593800 0.121100
vt 0.507800 0.082000
vt 0.507800 0.121100
vt 0.257800 0.406300
vt 0.007800 0.296900
vt 0.226600 0.296900
vt 0.007800 0.406300
vt 0.304700 0.296900
vt 0.406300 0.406300
vt 0.437500 0.296900
vt 0.492200 0.406300
vt 0.437500 0.296900
vt 0.664100 0.406300
vt 0.664100 0.296900
vt 0.437500 0.296900
vt 0.257800 0.257800
vt 0.007800 0.148400
vt 0.007800 0.257800
vt 0.007800 0.285200
vt 0.257800 0.285200
vt 0.226600 0.148400
vt 0.226600 0.128900
vt 0.007800 0.128900
vt 0.304700 0.148400
vt 0.406300 0.257800
vt 0.437500 0.148400
vt 0.492200 0.257800
vt 0.664100 0.257800
vt 0.492200 0.285200
vt 0.664100 0.285200
vt 0.664100 0.148400
vt 0.437500 0.148400
vt 0.492200 0.257800
vt 0.406300 0.257800
vt 0.679700 0.257800
vt 0.726600 0.148400
vt 0.726600 0.257800
vt 0.679700 0.148400
vt 0.406300 0.285200
vt 0.664100 0.128900
vt 0.437500 0.128900
vt 0.304700 0.128900
vt 0.851600 0.003900
vt 0.507800 0.074200
vt 0.851600 0.074200
vt 0.960900 0.003900
vt 0.507800 0.003900
vt 0.851600 0.003900
vt 0.992200 0.043000
vt 0.851600 0.074200
vt 0.875000 0.562500
vt 0.875000 0.531300
vt 0.796900 0.543000
vt 0.789100 0.660200
vt 0.875000 0.660200
vt 0.781300 0.789100
vt 0.875000 0.789100
vt 0.757800 0.996100
vt 0.875000 0.996100
vt 0.968800 0.789100
vt 0.992200 0.996100
vt 0.953100 0.660200
vt 0.945300 0.574200
vt 0.937500 0.523400
vt 0.875000 0.531300
vt 0.875000 0.562500
vt 0.875000 0.996100
vt 0.875000 0.789100
vt 0.875000 0.660200
vt 0.546900 0.609400
vt 0.546900 0.543000
vt 0.281300 0.543000
vt 0.281300 0.543000
vt 0.281300 0.609400
vt 0.007800 0.543000
vt 0.007800 0.609400
vt 0.609400 0.414100
vt 0.562500 0.589800
vt 0.562500 0.687500
vt 0.656300 0.687500
vt 0.656300 0.687500
vt 0.656300 0.589800
vt 0.742200 0.687500
vt 0.781300 0.121100
vt 0.507800 0.121100
vt 0.507800 0.082000
vt 0.781300 0.082000
vt 0.992200 0.101600
vt 0.742200 0.589800
vt 0.656300 0.488300
vt 0.562500 0.488300
vt 0.656300 0.589800
vt 0.562500 0.488300
vt 0.562500 0.589800
vt 0.656300 0.589800
vt 0.656300 0.589800
vt 0.656300 0.488300
vt 0.742200 0.589800
vt 0.742200 0.488300
vt 0.742200 0.488300
vt 0.507800 0.082000
vt 0.789100 0.082000
vt 0.789100 0.121100
vt 0.507800 0.121100
vt 0.796900 0.121100
vt 0.507800 0.082000
vt 0.796900 0.082000
vt 0.992200 0.101600
vt 0.507800 0.121100
vt 0.992200 0.101600
vt 0.562500 0.609400
vt 0.656300 0.609400
vt 0.656300 0.488300
vt 0.562500 0.488300
vt 0.742200 0.609400
vt 0.742200 0.488300
vt 0.875000 0.425800
vt 0.226600 0.296900
vt 0.007800 0.296900
vt 0.257800 0.406300
vt 0.304700 0.296900
vt 0.007800 0.406300
vt 0.492200 0.406300
vt 0.437500 0.296900
vt 0.406300 0.406300
vt 0.007800 0.148400
vt 0.257800 0.257800
vt 0.007800 0.257800
vt 0.226600 0.148400
vt 0.304700 0.148400
vt 0.726600 0.148400
vt 0.679700 0.257800
vt 0.726600 0.257800
vt 0.679700 0.148400
vt 0.257800 0.285200
vt 0.007800 0.285200
vt 0.492200 0.285200
vt 0.406300 0.285200
vt 0.437500 0.128900
vt 0.226600 0.128900
vt 0.304700 0.128900
vt 0.007800 0.128900
vt 0.007800 0.097700
vt 0.007800 0.003900
vt 0.234400 0.003900
vt 0.007800 0.535200
vt 0.281300 0.515600
vt 0.007800 0.515600
vt 0.281300 0.488300
vt 0.546900 0.500000
vt 0.546900 0.488300
vt 0.281300 0.500000
vt 0.609400 0.480500
vt 0.593800 0.414100
vt 0.562500 0.480500
vt 0.609400 0.414100
vt 0.562500 0.414100
vt 0.234400 0.121100
vt 0.234400 0.105500
vt 0.007800 0.121100
vt 0.007800 0.105500
vt 0.007800 0.003900
vt 0.234400 0.121100
vt 0.234400 0.105500
vt 0.007800 0.105500
vt 0.007800 0.121100
vt 0.007800 0.003900
vt 0.234400 0.003900
vt 0.250000 0.121100
vt 0.250000 0.105500
vt 0.007800 0.105500
vt 0.007800 0.121100
vt 0.007800 0.015600
vt 0.765600 0.082000
vt 0.507800 0.121100
vt 0.765600 0.121100
vt 0.507800 0.082000
vt 0.281300 0.609400
vt 0.007800 0.543000
vt 0.007800 0.609400
vt 0.781300 0.121100
vt 0.507800 0.082000
vt 0.507800 0.121100
vt 0.781300 0.082000
vt 0.992200 0.101600
vt 0.742200 0.687500
vt 0.742200 0.589800
vt 0.656300 0.488300
vt 0.656300 0.488300
vt 0.742200 0.589800
vt 0.742200 0.488300
vt 0.742200 0.488300
vt 0.507800 0.082000
vt 0.789100 0.121100
vt 0.789100 0.082000
vt 0.507800 0.121100
vt 0.507800 0.082000
vt 0.796900 0.121100
vt 0.796900 0.082000
vt 0.507800 0.121100
vt 0.992200 0.101600
vt 0.656300 0.488300
vt 0.656300 0.609400
vt 0.742200 0.488300
vt 0.742200 0.609400
vt 0.992200 0.101600
vn -0.5965 -0.6569 -0.4611
vn -0.5937 0.5688 0.5692
vn -0.6809 -0.6562 0.3251
vn -0.9004 -0.3714 0.2264
vn -0.4059 0.3966 0.8234
vn -0.4346 0.6573 -0.6157
vn -0.3093 0.7179 -0.6236
vn 0.0002 0.9031 0.4294
vn 0.0001 0.9602 -0.2792
vn 0.0000 0.2089 0.9779
vn 0.4062 0.3967 0.8232
vn 0.4346 0.6571 -0.6159
vn 0.9005 -0.3710 0.2267
vn 0.4369 0.1052 -0.8933
vn -0.4367 0.1052 -0.8934
vn -0.0000 0.5831 -0.8124
vn 0.3091 0.7176 -0.6241
vn 0.2423 -0.9056 0.3481
vn 0.3287 -0.7259 0.6042
vn -0.0003 -0.8223 0.5691
vn -0.3292 -0.7265 0.6031
vn 0.0000 0.8025 0.5967
vn -0.6328 0.5522 0.5428
vn -0.4909 0.5300 0.6915
vn -0.7932 -0.5833 0.1749
vn -0.8610 -0.5082 0.0207
vn 0.0007 0.7708 0.6371
vn 0.4912 0.5307 0.6907
vn 0.0001 0.5566 0.8308
vn -0.5936 0.7207 0.3582
vn -0.7380 -0.4691 0.4850
vn -0.4628 0.3680 0.8065
vn -0.7539 -0.6564 -0.0271
vn 0.0004 0.9781 0.2083
vn -0.0002 0.7197 0.6943
vn -0.6053 0.6287 0.4882
vn -0.2623 0.7257 -0.6360
vn -0.7158 -0.1463 0.6828
vn 0.0000 0.7658 -0.6431
vn 0.2627 0.7260 -0.6355
vn -0.6048 0.0914 -0.7911
vn 0.2649 -0.8700 -0.4158
vn 0.4423 -0.4491 -0.7763
vn -0.0004 -0.2355 -0.9719
vn -0.4416 -0.4495 -0.7765
vn 0.6068 0.0921 -0.7895
vn -0.2637 -0.8706 -0.4154
vn -0.3570 -0.8357 0.4174
vn -0.6666 -0.6639 -0.3389
vn 0.1782 -0.5681 -0.8034
vn -0.4083 -0.4148 0.8132
vn 0.4549 -0.7672 -0.4522
vn -0.4514 -0.7199 0.5272
vn 0.0996 -0.9923 -0.0736
vn -0.1461 -0.5733 0.8062
vn 0.4919 -0.6609 -0.5668
vn -0.0001 -0.9644 0.2645
vn 0.0000 -0.4400 -0.8980
vn -0.4920 -0.6609 -0.5668
vn -0.1767 0.8287 0.5311
vn -0.3334 0.6721 -0.6612
vn -0.8165 0.4049 0.4116
vn 0.3610 0.5814 -0.7292
vn 0.5401 0.7154 -0.4433
vn -0.5339 0.7116 0.4567
vn 0.1694 0.8343 -0.5246
vn -0.2956 0.5610 0.7732
vn 0.0000 0.7013 0.7129
vn 0.0000 0.7129 -0.7013
vn -0.1694 0.8343 -0.5246
vn 0.2944 0.5609 0.7738
vn 0.5334 0.7117 0.4571
vn -0.9958 0.0595 0.0697
vn -0.9665 0.1310 0.2209
vn 0.0018 -0.3523 0.9359
vn 0.0013 0.8488 -0.5287
vn 0.9958 0.0598 0.0691
vn 0.0008 -0.0619 0.9981
vn 0.9664 0.1334 0.2199
vn -0.9884 0.0626 0.1384
vn -0.9969 -0.0565 0.0540
vn 0.0033 0.7678 0.6407
vn 0.0029 0.8048 0.5935
vn -0.9992 0.0400 -0.0015
vn 0.0007 0.9979 -0.0641
vn -0.9993 0.0272 -0.0248
vn 0.0013 -0.8876 0.4606
vn 0.0017 -0.9501 -0.3121
vn -0.3937 -0.8030 -0.4475
vn 0.5439 -0.8290 -0.1300
vn 0.9946 0.0105 0.1033
vn 0.9951 0.0037 0.0985
vn 0.9993 0.0272 -0.0240
vn 0.9992 0.0405 -0.0006
vn -0.0002 -0.9941 -0.1083
vn 0.6206 -0.7837 -0.0268
vn 0.4519 -0.8832 -0.1257
vn -0.0002 -0.9989 -0.0478
vn -0.6204 -0.7838 -0.0275
vn 0.6091 -0.7927 -0.0243
vn 0.3282 -0.9317 -0.1554
vn 0.2051 -0.9611 -0.1849
vn 0.5978 -0.7994 -0.0602
vn -0.0001 -0.9960 -0.0893
vn -0.6092 -0.7927 -0.0239
vn -0.0001 -0.9971 -0.0758
vn -0.5979 -0.7992 -0.0608
vn 0.6185 -0.7837 -0.0581
vn 0.0636 -0.9781 -0.1984
vn 0.0171 0.0462 0.9988
vn -0.1775 -0.5679 -0.8037
vn 0.6666 -0.6639 -0.3389
vn 0.3570 -0.8357 0.4174
vn -0.4541 -0.7672 -0.4530
vn 0.4083 -0.4148 0.8132
vn 0.1455 -0.5732 0.8064
vn -0.0997 -0.9923 -0.0736
vn 0.4504 -0.7200 0.5279
vn 0.3334 0.6721 -0.6612
vn 0.1767 0.8287 0.5311
vn 0.8165 0.4049 0.4117
vn -0.3596 0.5812 -0.7300
vn -0.5396 0.7155 -0.4438
vn 0.5963 -0.6569 -0.4614
vn 0.6823 -0.6549 0.3249
vn 0.5931 0.5684 0.5702
vn -0.2419 -0.9061 0.3472
vn -0.4518 -0.8833 -0.1249
vn 0.6332 0.5520 0.5425
vn 0.7977 -0.5777 0.1732
vn 0.8638 -0.5035 0.0198
vn 0.5938 0.7199 0.3594
vn 0.7408 -0.4657 0.4841
vn 0.7556 -0.6545 -0.0263
vn 0.4625 0.3674 0.8069
vn 0.6054 0.6275 0.4896
vn 0.7166 -0.1462 0.6820
vn -0.3291 -0.9314 -0.1554
vn -0.2045 -0.9612 -0.1851
vn -0.6178 -0.7843 -0.0571
vn -0.0622 -0.9781 -0.1986
usemtl TEX_w2dkn02

f 1/1/1 2/2/2 3/3/3
f 4/4/4 5/5/5 6/6/6
f 7/7/7 8/8/8 2/2/2
f 9/9/9 5/5/5 10/10/10
f 10/10/10 11/11/11 9/9/9
f 12/12/12 9/9/9 11/11/11
f 11/11/11 13/13/13 12/12/12
f 14/14/14 12/12/12 13/13/13
f 7/7/7 2/2/2 1/1/1
f 4/4/4 6/6/6 15/15/15
f 16/16/16 8/8/8 7/7/7
f 8/8/8 16/16/16 17/17/17
f 5/5/5 9/9/9 6/6/6
f 5/18/5 18/19/18 19/20/19
f 19/20/19 10/21/10 5/18/5
f 5/18/5 4/22/4 18/19/18
f 10/21/10 19/20/19 20/23/20
f 20/23/20 21/24/21 10/21/10
f 15/25/15 7/26/7 1/27/1
f 7/26/7 15/25/15 6/28/6
f 4/29/4 1/30/1 18/31/18
f 1/30/1 4/29/4 15/32/15
f 6/28/6 16/33/16 7/26/7
f 16/33/16 6/28/6 9/34/9
f 22/35/22 23/36/23 2/37/2
f 23/36/23 22/35/22 24/38/24
f 22/35/22 2/37/2 8/39/8
f 23/36/23 25/40/25 3/41/3
f 25/40/25 23/36/23 26/42/26
f 23/36/23 3/41/3 2/37/2
f 22/35/22 27/43/27 24/38/24
f 27/43/27 22/35/22 28/44/28
f 23/36/23 24/38/24 26/42/26
f 24/45/24 29/46/29 30/47/30
f 30/47/30 31/48/31 24/45/24
f 29/46/29 24/45/24 27/49/27
f 24/45/24 31/48/31 26/50/26
f 30/47/30 32/51/32 33/52/33
f 30/47/30 33/52/33 31/48/31
f 34/53/34 32/51/32 30/47/30
f 34/53/34 30/47/30 29/46/29
f 35/54/35 36/55/36 32/56/32
f 36/55/36 35/54/35 37/57/37
f 35/54/35 32/56/32 34/58/34
f 32/56/32 36/55/36 38/59/38
f 32/56/32 38/59/38 33/60/33
f 35/54/35 39/61/39 37/57/37
f 39/61/39 35/54/35 40/62/40
f 36/55/36 37/57/37 41/63/41
f 36/55/36 41/63/41 38/59/38
f 41/64/41 42/65/42 33/66/33
f 41/64/41 33/66/33 38/67/38
f 41/68/41 37/69/37 43/70/43
f 41/68/41 43/70/43 42/71/42
f 44/72/44 37/69/37 39/73/39
f 39/73/39 40/74/40 44/72/44
f 45/75/45 44/72/44 40/74/40
f 40/74/40 46/76/46 45/75/45
f 47/77/47 45/75/45 46/76/46
f 37/69/37 44/72/44 43/70/43
f 48/78/48 49/79/49 50/80/50
f 49/79/49 48/78/48 51/81/51
f 48/78/48 50/80/50 52/82/52
f 52/82/52 53/83/53 48/78/48
f 54/84/54 55/85/55 53/83/53
f 53/83/53 52/82/52 54/84/54
f 56/86/56 54/84/54 52/82/52
f 57/87/57 56/86/56 58/88/58
f 58/88/58 59/89/59 57/87/57
f 57/87/57 55/85/55 54/84/54
f 60/90/60 61/91/61 62/92/62
f 62/92/62 51/93/51 60/90/60
f 48/94/48 60/90/60 51/93/51
f 61/91/61 60/90/60 63/95/63
f 63/95/63 50/96/50 61/91/61
f 49/97/49 61/91/61 50/96/50
f 64/98/64 63/95/63 60/90/60
f 60/90/60 65/99/65 64/98/64
f 66/100/66 64/98/64 65/99/65
f 65/99/65 67/101/67 66/100/66
f 68/102/68 66/100/66 67/101/67
f 67/101/67 55/103/55 68/102/68
f 57/104/57 68/102/68 55/103/55
f 68/102/68 69/105/69 66/100/66
f 69/105/69 68/102/68 70/106/70
f 71/107/71 70/106/70 68/102/68
f 70/106/70 71/107/71 72/108/72
f 62/109/62 49/110/49 51/111/51
f 49/110/49 62/109/62 61/112/61
f 67/101/67 53/113/53 55/103/55
f 53/113/53 67/101/67 65/99/65
f 66/100/66 58/114/58 56/115/56
f 56/115/56 64/98/64 66/100/66
f 58/114/58 66/100/66 69/105/69
f 69/105/69 70/106/70 58/114/58
f 63/95/63 52/116/52 50/96/50
f 52/116/52 63/95/63 64/98/64
f 56/115/56 52/116/52 64/98/64
f 48/94/48 65/99/65 60/90/60
f 65/99/65 48/94/48 53/113/53
f 57/87/57 54/84/54 56/86/56
f 73/117/73 34/118/34 74/119/74
f 74/119/74 75/120/75 73/117/73
f 34/118/34 73/117/73 76/121/76
f 76/121/76 77/122/77 34/118/34
f 75/120/75 74/119/74 78/123/78
f 78/123/78 79/124/79 75/120/75
f 80/125/80 81/126/81 82/127/82
f 82/127/82 83/128/83 80/125/80
f 84/129/84 80/125/80 83/128/83
f 83/128/83 85/130/85 84/129/84
f 86/131/86 84/129/84 85/130/85
f 85/130/85 76/132/76 86/131/86
f 73/133/73 86/131/86 76/132/76
f 87/134/87 73/133/73 75/135/75
f 73/133/73 87/134/87 86/131/86
f 88/136/88 86/131/86 87/134/87
f 86/131/86 88/136/88 84/129/84
f 89/137/89 84/129/84 88/136/88
f 84/129/84 89/137/89 80/125/80
f 89/137/89 81/126/81 80/125/80
f 81/126/81 89/137/89 90/138/90
f 79/124/79 34/118/34 77/122/77
f 77/122/77 75/120/75 79/124/79
f 91/139/91 92/140/92 82/127/82
f 77/141/77 76/132/76 93/142/93
f 93/142/93 87/134/87 77/141/77
f 85/130/85 93/142/93 76/132/76
f 93/142/93 85/130/85 94/143/94
f 83/128/83 94/143/94 85/130/85
f 94/143/94 83/128/83 92/140/92
f 82/127/82 92/140/92 83/128/83
f 77/141/77 87/134/87 75/135/75
f 93/142/93 88/136/88 87/134/87
f 94/143/94 88/136/88 93/142/93
f 88/136/88 94/143/94 89/137/89
f 92/140/92 89/137/89 94/143/94
f 90/138/90 89/137/89 92/140/92
f 92/140/92 91/139/91 90/138/90
f 95/144/95 20/145/20 19/146/19
f 20/145/20 95/144/95 21/147/21
f 96/148/96 95/144/95 19/146/19
f 19/146/19 18/149/18 96/148/96
f 96/148/96 18/149/18 97/150/97
f 18/31/18 1/30/1 97/151/97
f 98/152/98 95/153/95 96/154/96
f 95/153/95 98/152/98 99/155/99
f 100/156/100 98/152/98 96/154/96
f 96/154/96 97/157/97 100/156/100
f 101/158/101 97/159/97 1/160/1
f 3/161/3 101/158/101 1/160/1
f 101/158/101 3/161/3 102/162/102
f 101/163/101 100/156/100 97/157/97
f 100/156/100 101/163/101 103/164/103
f 104/165/104 98/152/98 100/156/100
f 98/152/98 104/165/104 105/166/105
f 104/165/104 100/156/100 103/164/103
f 106/167/106 104/168/104 103/169/103
f 104/168/104 106/167/106 107/170/107
f 108/171/108 106/167/106 103/169/103
f 103/169/103 102/172/102 108/171/108
f 109/173/109 108/171/108 102/172/102
f 101/163/101 102/174/102 103/164/103
f 25/175/25 26/176/26 102/177/102
f 25/175/25 102/177/102 3/178/3
f 109/179/109 31/180/31 33/181/33
f 33/181/33 42/182/42 109/179/109
f 31/180/31 109/179/109 26/183/26
f 26/176/26 109/184/109 102/177/102
f 106/185/106 108/186/108 43/187/43
f 106/185/106 43/187/43 44/188/44
f 108/186/108 109/189/109 42/190/42
f 108/186/108 42/190/42 43/187/43
f 110/191/110 82/127/82 81/126/81
f 82/127/82 110/191/110 91/139/91
f 90/138/90 91/139/91 110/191/110
f 90/138/90 110/191/110 81/126/81
f 111/192/111 112/193/112 113/194/113
f 113/194/113 114/195/114 111/192/111
f 113/194/113 112/193/112 115/196/115
f 116/197/116 117/198/117 118/199/118
f 57/87/57 117/198/117 116/197/116
f 117/198/117 57/87/57 59/89/59
f 119/200/119 120/201/120 121/202/121
f 122/203/122 120/201/120 119/200/119
f 120/201/120 122/203/122 123/204/123
f 112/205/112 121/206/121 115/207/115
f 121/206/121 112/205/112 119/208/119
f 113/209/113 115/210/115 120/201/120
f 120/201/120 72/108/72 113/209/113
f 120/201/120 115/210/115 121/202/121
f 116/211/116 118/212/118 71/107/71
f 71/107/71 68/102/68 116/211/116
f 72/108/72 71/107/71 118/212/118
f 118/212/118 113/209/113 72/108/72
f 116/211/116 68/102/68 57/104/57
f 59/213/59 58/114/58 70/106/70
f 70/106/70 123/204/123 59/213/59
f 111/214/111 114/215/114 122/203/122
f 122/203/122 119/200/119 111/214/111
f 123/204/123 122/203/122 114/215/114
f 114/215/114 59/213/59 123/204/123
f 111/214/111 119/200/119 112/216/112
f 123/204/123 72/108/72 120/201/120
f 114/195/114 117/198/117 59/89/59
f 72/108/72 123/204/123 70/106/70
f 118/199/118 114/195/114 113/194/113
f 117/198/117 114/195/114 118/199/118
f 124/217/124 125/218/125 126/219/126
f 17/17/17 126/219/126 8/8/8
f 126/219/126 17/17/17 124/217/124
f 21/24/21 127/220/127 11/221/11
f 11/221/11 10/21/10 21/24/21
f 11/221/11 127/220/127 13/222/13
f 17/223/17 14/224/14 124/225/124
f 12/226/12 14/224/14 17/223/17
f 17/223/17 16/33/16 12/226/12
f 127/227/127 124/228/124 13/229/13
f 124/228/124 127/227/127 128/230/128
f 13/229/13 124/228/124 14/231/14
f 12/226/12 16/33/16 9/34/9
f 22/35/22 126/232/126 129/233/129
f 126/232/126 22/35/22 8/39/8
f 129/233/129 125/234/125 130/235/130
f 125/234/125 129/233/129 126/232/126
f 22/35/22 129/233/129 28/44/28
f 129/233/129 131/236/131 28/44/28
f 131/236/131 129/233/129 130/235/130
f 29/46/29 28/237/28 132/238/132
f 28/237/28 29/46/29 27/49/27
f 28/237/28 133/239/133 132/238/132
f 133/239/133 28/237/28 131/240/131
f 132/238/132 134/241/134 135/242/135
f 134/241/134 132/238/132 133/239/133
f 34/53/34 132/238/132 135/242/135
f 132/238/132 34/53/34 29/46/29
f 35/54/35 135/243/135 136/244/136
f 135/243/135 35/54/35 34/58/34
f 135/243/135 137/245/137 136/244/136
f 137/245/137 135/243/135 134/246/134
f 35/54/35 136/244/136 40/62/40
f 136/244/136 46/247/46 40/62/40
f 46/247/46 136/244/136 137/245/137
f 46/248/46 134/249/134 47/250/47
f 134/249/134 46/248/46 137/251/137
f 95/144/95 99/252/99 21/147/21
f 99/252/99 127/253/127 21/147/21
f 127/253/127 99/252/99 128/254/128
f 98/152/98 105/166/105 99/155/99
f 138/255/138 124/256/124 128/257/128
f 124/256/124 138/255/138 125/258/125
f 139/259/139 125/258/125 138/255/138
f 105/166/105 128/260/128 99/155/99
f 128/260/128 105/166/105 138/261/138
f 107/262/107 138/261/138 105/166/105
f 104/165/104 107/262/107 105/166/105
f 107/170/107 106/167/106 140/263/140
f 140/263/140 139/264/139 107/170/107
f 138/261/138 107/262/107 139/265/139
f 139/264/139 140/263/140 141/266/141
f 130/267/130 139/268/139 131/269/131
f 139/268/139 130/267/130 125/270/125
f 133/271/133 141/272/141 134/273/134
f 141/272/141 133/271/133 131/274/131
f 131/269/131 139/268/139 141/275/141
f 106/185/106 45/276/45 140/277/140
f 45/276/45 106/185/106 44/188/44
f 140/277/140 47/278/47 141/279/141
f 47/278/47 140/277/140 45/276/45
f 141/272/141 47/280/47 134/273/134
