# Blender v2.79 (sub 0) OBJ File: ''
# www.blender.org
mtllib tribalgrappler04l.mtl
o MDL_w2dkn04l_bod00
v -0.000000 -0.030200 -0.066400
v -0.000000 -0.045800 -0.031300
v -0.040000 -0.036100 -0.028800
v 0.039800 -0.036100 -0.028800
v -0.032700 -0.022300 -0.064400
v -0.070000 0.009800 0.077800
v -0.027000 0.058600 -0.007500
v -0.055000 0.042800 -0.011700
v -0.070000 0.010900 0.015900
v -0.027000 0.033900 0.084200
v 0.026900 0.058600 -0.007500
v 0.026900 0.033900 0.084200
v -0.054500 0.007500 -0.056400
v -0.064800 -0.002300 -0.019700
v 0.032500 -0.022300 -0.064400
v 0.055500 -0.014800 -0.023000
v 0.070000 0.009800 0.077800
v 0.055000 0.042800 -0.011700
v 0.070000 0.010900 0.015900
v 0.064700 -0.002300 -0.019700
v 0.054500 0.007500 -0.056400
v -0.042000 -0.038400 -0.018000
v -0.000000 -0.048600 -0.020600
v 0.041900 -0.038400 -0.018000
v -0.055600 -0.014800 -0.023000
v -0.053800 -0.022500 -0.013700
v 0.053600 -0.022500 -0.013700
v -0.066700 0.002800 -0.038800
v -0.066700 -0.004100 -0.012800
v -0.064700 0.015500 -0.015200
v -0.064700 -0.020000 -0.024700
v -0.060000 0.027300 -0.030300
v -0.055300 0.024700 -0.049400
v -0.053300 0.008800 -0.061300
v -0.055300 -0.010800 -0.058900
v -0.060000 -0.022800 -0.043700
v -0.004100 0.103700 0.032500
v 0.000000 0.039400 0.063900
v 0.000000 0.083100 0.074500
v 0.000000 0.089200 0.090800
v 0.000000 0.102500 0.079800
v -0.004100 0.052800 0.013900
v 0.003900 0.103700 0.032500
v 0.003900 0.052800 0.013900
v 0.003900 0.178300 0.028600
v 0.003900 0.239400 0.044100
v 0.003900 0.154700 0.116600
v 0.003900 0.226100 0.001100
v 0.000000 0.154700 0.085500
v -0.004100 0.239400 0.044100
v 0.000000 0.251600 0.114500
v 0.000000 0.283000 0.063000
v 0.000000 0.214200 0.145300
v -0.004100 0.154700 0.116600
v -0.004100 0.178300 0.028600
v -0.004100 0.226100 0.001100
v -0.004100 0.109700 0.184200
v -0.004100 0.115800 0.149700
v 0.000000 0.078700 0.149100
v 0.000000 0.025200 0.348900
v 0.000000 0.153400 0.221900
v 0.003900 0.115800 0.149700
v 0.003900 0.109700 0.184200
v 0.000000 0.120500 0.174700
v 0.000000 0.171100 0.167500
v 0.003900 0.138600 0.138100
v 0.066700 0.002800 -0.038800
v 0.064700 0.015500 -0.015200
v 0.066700 -0.004100 -0.012800
v 0.060000 0.027300 -0.030300
v 0.055200 0.024700 -0.049400
v 0.053100 0.008800 -0.061300
v 0.055200 -0.010800 -0.058900
v 0.060000 -0.022800 -0.043700
v 0.064700 -0.020000 -0.024700
v -0.004100 0.138600 0.138100
v -0.004100 0.158400 0.025500
v 0.000000 0.134800 0.070900
v 0.003900 0.142200 0.012800
v 0.003900 0.158400 0.025500
v -0.004100 0.142200 0.012800
v -0.075300 0.084800 0.027200
v -0.044700 0.029500 0.060900
v -0.067300 0.067300 0.070200
v -0.072300 0.072000 0.085900
v -0.077300 0.084100 0.074500
v -0.048300 0.040900 0.010500
v -0.068400 0.088700 0.028300
v -0.041300 0.044800 0.011600
v -0.104100 0.153900 0.021900
v -0.135800 0.206900 0.035000
v -0.104100 0.130500 0.109800
v -0.123800 0.196600 -0.007000
v -0.103600 0.129500 0.078400
v -0.142700 0.203000 0.033900
v -0.154400 0.213100 0.103900
v -0.162800 0.242300 0.051700
v -0.140300 0.179500 0.135800
v -0.111100 0.126600 0.108800
v -0.111100 0.150000 0.020800
v -0.130600 0.192700 -0.008000
v -0.098000 0.084800 0.177300
v -0.096400 0.091400 0.142800
v -0.074800 0.060900 0.143900
v -0.074800 0.007300 0.343900
v -0.120600 0.123800 0.213600
v -0.089500 0.095300 0.143900
v -0.091100 0.088700 0.178300
v -0.098600 0.096600 0.168000
v -0.122200 0.141100 0.159200
v -0.099100 0.115600 0.131700
v -0.105900 0.111700 0.130600
v -0.100900 0.132800 0.018300
v -0.092000 0.112700 0.064700
v -0.084500 0.123000 0.007300
v -0.094100 0.136700 0.019400
v -0.091400 0.119100 0.006300
v 0.044700 0.029500 0.060900
v 0.048100 0.040900 0.010500
v 0.075300 0.084800 0.027200
v 0.067300 0.067300 0.070200
v 0.068300 0.088700 0.028300
v 0.041300 0.044800 0.011600
v 0.104100 0.153900 0.021900
v 0.103400 0.129500 0.078400
v 0.104100 0.130500 0.109800
v 0.135800 0.206900 0.035000
v 0.140200 0.179500 0.135800
v 0.142700 0.203000 0.033900
v 0.162800 0.242300 0.051700
v 0.154200 0.213100 0.103900
v 0.110900 0.126600 0.108800
v 0.096400 0.091400 0.142800
v 0.097800 0.084800 0.177300
v 0.074800 0.060900 0.143900
v 0.074800 0.007300 0.343900
v 0.090900 0.088700 0.178300
v 0.089500 0.095300 0.143900
v 0.098400 0.096600 0.168000
v 0.120600 0.123800 0.213600
v 0.099100 0.115600 0.131700
v 0.105900 0.111700 0.130600
v 0.122000 0.141100 0.159200
v 0.110900 0.150000 0.020800
v 0.100900 0.132800 0.018300
v 0.091900 0.112700 0.064700
v 0.130600 0.192700 -0.008000
v 0.123600 0.196600 -0.007000
v 0.094100 0.136700 0.019400
v 0.091400 0.119100 0.006300
v 0.084400 0.123000 0.007300
v 0.077300 0.084100 0.074500
v 0.072300 0.072000 0.085900
vt 0.007800 0.511700
vt 0.007800 0.644500
vt 0.203100 0.644500
vt 0.203100 0.644500
vt 0.203100 0.511700
vt 0.507800 0.691400
vt 0.234400 0.914100
vt 0.421900 0.914100
vt 0.609400 0.843800
vt 0.234400 0.691400
vt 0.007800 0.914100
vt 0.007800 0.691400
vt 0.523400 0.996100
vt 0.679700 0.941400
vt 0.203100 0.511700
vt 0.437500 0.644500
vt 0.234400 0.914100
vt 0.234400 0.691400
vt 0.507800 0.691400
vt 0.421900 0.914100
vt 0.609400 0.843800
vt 0.679700 0.941400
vt 0.523400 0.996100
vt 0.203100 0.679700
vt 0.007800 0.679700
vt 0.203100 0.679700
vt 0.437500 0.644500
vt 0.476600 0.644500
vt 0.375000 0.511700
vt 0.398400 0.679700
vt 0.375000 0.511700
vt 0.476600 0.644500
vt 0.398400 0.679700
vt 0.992200 0.890600
vt 0.992200 0.996100
vt 0.820300 0.968800
vt 0.820300 0.968800
vt 0.750000 0.890600
vt 0.828100 0.808600
vt 0.992200 0.785200
vt 0.828100 0.808600
vt 0.750000 0.890600
vt 0.757800 0.117200
vt 0.984400 0.226600
vt 0.812500 0.226600
vt 0.757800 0.261700
vt 0.718800 0.230500
vt 0.984400 0.105500
vt 0.757800 0.117200
vt 0.984400 0.105500
vt 0.453100 0.070300
vt 0.179700 0.070300
vt 0.492200 0.285200
vt 0.296900 0.003900
vt 0.515600 0.214800
vt 0.835900 0.613300
vt 0.835900 0.773400
vt 0.906300 0.773400
vt 0.906300 0.613300
vt 0.179700 0.070300
vt 0.070300 0.214800
vt 0.007800 0.105500
vt 0.187500 0.304700
vt 0.492200 0.285200
vt 0.453100 0.070300
vt 0.296900 0.003900
vt 0.570300 0.421900
vt 0.601600 0.343800
vt 0.804700 0.371100
vt 0.804700 0.800800
vt 0.375000 0.472700
vt 0.601600 0.343800
vt 0.570300 0.421900
vt 0.539100 0.402300
vt 0.359400 0.367200
vt 0.867200 0.515600
vt 0.906300 0.578100
vt 0.835900 0.578100
vt 0.921900 0.609400
vt 0.953100 0.738300
vt 0.992200 0.609400
vt 0.921900 0.496100
vt 0.921900 0.378900
vt 0.992200 0.378900
vt 0.953100 0.289100
vt 0.835900 0.378900
vt 0.906300 0.378900
vt 0.867200 0.261700
vt 0.906300 0.500000
vt 0.523400 0.316400
vt 0.992200 0.890600
vt 0.820300 0.968800
vt 0.992200 0.996100
vt 0.750000 0.890600
vt 0.828100 0.808600
vt 0.992200 0.785200
vt 0.828100 0.808600
vt 0.750000 0.890600
vt 0.820300 0.968800
vt 0.523400 0.316400
vt 0.992200 0.496100
vt 0.867200 0.652300
vt 0.562500 0.070300
vt 0.906300 0.589800
vt 0.835900 0.500000
vt 0.835900 0.589800
vt 0.906300 0.648400
vt 0.601600 0.199200
vt 0.632800 0.050800
vt 0.562500 0.070300
vt 0.835900 0.523400
vt 0.906300 0.523400
vt 0.835900 0.648400
vt 0.906300 0.714800
vt 0.835900 0.714800
vt 0.632800 0.050800
vt 0.757800 0.117200
vt 0.984400 0.226600
vt 0.812500 0.226600
vt 0.757800 0.261700
vt 0.718800 0.230500
vt 0.984400 0.105500
vt 0.757800 0.117200
vt 0.984400 0.105500
vt 0.453100 0.070300
vt 0.179700 0.070300
vt 0.492200 0.285200
vt 0.296900 0.003900
vt 0.515600 0.214800
vt 0.835900 0.613300
vt 0.835900 0.773400
vt 0.906300 0.773400
vt 0.906300 0.613300
vt 0.179700 0.070300
vt 0.070300 0.214800
vt 0.007800 0.105500
vt 0.187500 0.304700
vt 0.492200 0.285200
vt 0.453100 0.070300
vt 0.296900 0.003900
vt 0.570300 0.421900
vt 0.601600 0.343800
vt 0.804700 0.371100
vt 0.804700 0.800800
vt 0.375000 0.472700
vt 0.601600 0.343800
vt 0.570300 0.421900
vt 0.539100 0.402300
vt 0.359400 0.367200
vt 0.867200 0.515600
vt 0.906300 0.578100
vt 0.835900 0.578100
vt 0.921900 0.609400
vt 0.953100 0.738300
vt 0.992200 0.609400
vt 0.921900 0.496100
vt 0.921900 0.378900
vt 0.992200 0.378900
vt 0.953100 0.289100
vt 0.835900 0.378900
vt 0.906300 0.378900
vt 0.867200 0.261700
vt 0.906300 0.500000
vt 0.523400 0.316400
vt 0.523400 0.316400
vt 0.992200 0.496100
vt 0.867200 0.652300
vt 0.562500 0.070300
vt 0.906300 0.589800
vt 0.835900 0.500000
vt 0.835900 0.589800
vt 0.906300 0.648400
vt 0.601600 0.199200
vt 0.632800 0.050800
vt 0.562500 0.070300
vt 0.835900 0.523400
vt 0.906300 0.523400
vt 0.835900 0.648400
vt 0.906300 0.714800
vt 0.835900 0.714800
vt 0.632800 0.050800
vt 0.984400 0.226600
vt 0.984400 0.105500
vt 0.757800 0.117200
vt 0.812500 0.226600
vt 0.757800 0.117200
vt 0.984400 0.105500
vt 0.453100 0.070300
vt 0.515600 0.214800
vt 0.492200 0.285200
vt 0.179700 0.070300
vt 0.187500 0.304700
vt 0.835900 0.613300
vt 0.906300 0.613300
vt 0.906300 0.773400
vt 0.835900 0.773400
vt 0.179700 0.070300
vt 0.007800 0.105500
vt 0.070300 0.214800
vt 0.492200 0.285200
vt 0.601600 0.343800
vt 0.570300 0.421900
vt 0.804700 0.371100
vt 0.804700 0.800800
vt 0.570300 0.421900
vt 0.601600 0.343800
vt 0.835900 0.578100
vt 0.867200 0.515600
vt 0.906300 0.578100
vt 0.867200 0.652300
vt 0.921900 0.609400
vt 0.953100 0.738300
vt 0.992200 0.609400
vt 0.992200 0.496100
vt 0.921900 0.496100
vt 0.992200 0.378900
vt 0.953100 0.289100
vt 0.921900 0.378900
vt 0.835900 0.378900
vt 0.867200 0.261700
vt 0.906300 0.378900
vt 0.539100 0.402300
vt 0.359400 0.367200
vt 0.523400 0.316400
vt 0.523400 0.316400
vt 0.375000 0.472700
vt 0.453100 0.070300
vt 0.562500 0.070300
vt 0.601600 0.199200
vt 0.296900 0.003900
vt 0.296900 0.003900
vt 0.835900 0.500000
vt 0.906300 0.500000
vt 0.906300 0.589800
vt 0.835900 0.589800
vt 0.906300 0.648400
vt 0.835900 0.648400
vt 0.906300 0.714800
vt 0.562500 0.070300
vt 0.632800 0.050800
vt 0.718800 0.230500
vt 0.835900 0.523400
vt 0.906300 0.523400
vt 0.835900 0.714800
vt 0.632800 0.050800
vt 0.757800 0.261700
vn 0.0007 -0.9141 -0.4056
vn -0.0497 -0.9478 -0.3148
vn -0.5993 -0.7218 -0.3462
vn 0.5155 -0.7905 -0.3307
vn -0.5518 -0.7332 -0.3974
vn -0.6639 0.7308 0.1586
vn -0.3459 0.9061 0.2436
vn -0.8818 0.4686 -0.0534
vn -0.9330 0.3420 -0.1117
vn -0.1725 0.9511 0.2562
vn 0.2599 0.9325 0.2507
vn 0.2594 0.9325 0.2512
vn -0.8847 -0.3250 -0.3342
vn -0.9599 -0.0016 -0.2804
vn 0.6450 -0.6588 -0.3872
vn 0.7998 -0.5002 -0.3319
vn 0.6632 0.7314 0.1588
vn 0.8821 0.4680 -0.0533
vn 0.9332 0.3412 -0.1128
vn 0.9601 -0.0033 -0.2798
vn 0.9080 -0.2663 -0.3235
vn -0.4566 -0.8491 -0.2656
vn 0.0838 -0.9639 -0.2528
vn 0.5621 -0.7799 -0.2754
vn -0.8018 -0.5002 -0.3269
vn -0.8088 -0.5237 -0.2675
vn 0.8090 -0.5231 -0.2681
vn -0.9663 0.0668 -0.2487
vn -1.0000 0.0003 0.0001
vn -0.9802 0.1967 -0.0228
vn -0.9804 -0.1586 -0.1173
vn -0.9335 0.3148 -0.1715
vn -0.8870 0.2864 -0.3623
vn -0.8667 0.1287 -0.4819
vn -0.8866 -0.0667 -0.4577
vn -0.9337 -0.1858 -0.3060
vn -0.9309 -0.0924 -0.3533
vn 0.0021 -0.2867 0.9580
vn 0.0034 -0.7187 0.6953
vn 0.0049 -0.2899 0.9571
vn 0.0029 0.4839 0.8751
vn -0.4606 0.3047 -0.8337
vn 0.9308 0.0323 -0.3641
vn 0.7333 0.2334 -0.6386
vn 0.7966 -0.1271 -0.5910
vn 0.8710 0.4293 -0.2387
vn 0.7749 -0.5831 -0.2440
vn 0.4420 -0.0186 -0.8968
vn 0.0048 -0.9999 0.0145
vn -0.9376 0.2842 -0.2002
vn 0.0016 0.7702 0.6378
vn 0.0005 0.5473 -0.8369
vn 0.0019 0.6229 0.7823
vn -0.8670 -0.4782 -0.1400
vn -0.7861 -0.2611 -0.5602
vn -0.4420 0.6241 -0.6443
vn -0.9280 0.3722 0.0167
vn -0.8373 -0.1129 -0.5350
vn 0.0009 -0.3402 -0.9403
vn 0.0066 -0.9082 0.4185
vn 0.0002 0.7518 -0.6594
vn 0.9244 -0.0201 -0.3810
vn 0.9291 0.3696 0.0159
vn 0.0046 0.7819 0.6234
vn 0.0024 0.3200 0.9474
vn 0.7438 -0.3914 -0.5418
vn 0.9656 0.0674 -0.2513
vn 0.9801 0.1971 -0.0231
vn 1.0000 0.0003 0.0001
vn 0.9329 0.3154 -0.1739
vn 0.8847 0.2865 -0.3678
vn 0.8635 0.1301 -0.4873
vn 0.8844 -0.0646 -0.4622
vn 0.9331 -0.1852 -0.3083
vn 0.9804 -0.1586 -0.1173
vn -0.7446 -0.4767 -0.4673
vn -0.7431 0.2028 -0.6377
vn 0.0024 -0.1210 0.9926
vn 0.6306 -0.0965 -0.7701
vn 0.7424 0.3187 -0.5893
vn -0.6313 0.2429 -0.7365
vn -0.7136 -0.5205 -0.4688
vn 0.0147 -0.2813 0.9595
vn 0.2602 -0.6530 0.7112
vn 0.0185 -0.2799 0.9599
vn -0.3448 0.3930 0.8525
vn -0.4342 0.0745 -0.8977
vn 0.8376 0.4914 -0.2386
vn 0.6068 0.5809 -0.5426
vn 0.8280 0.2945 -0.4772
vn 0.5748 0.8065 -0.1385
vn 0.9999 0.0068 -0.0096
vn 0.5058 0.2273 -0.8321
vn 0.4791 -0.8765 0.0472
vn -0.9218 -0.2000 -0.3321
vn -0.4592 0.6517 0.6037
vn -0.1522 0.5102 -0.8465
vn -0.4032 0.5117 0.7587
vn -0.3548 -0.8775 -0.3227
vn -0.4817 -0.5886 -0.6492
vn -0.6014 0.3494 -0.7185
vn -0.9844 -0.1303 -0.1183
vn -0.5950 -0.4862 -0.6400
vn 0.2924 -0.2592 -0.9205
vn 0.3925 -0.8031 0.4483
vn -0.2826 0.6751 -0.6814
vn 0.8580 0.4473 -0.2525
vn 0.6208 0.7738 0.1261
vn -0.4607 0.6590 0.5945
vn -0.2819 0.2483 0.9268
vn 0.8696 -0.1065 -0.4821
vn -0.5422 -0.6929 -0.4753
vn -0.6557 -0.1594 -0.7380
vn -0.0743 -0.1315 0.9885
vn 0.6930 0.2484 -0.6768
vn 0.5630 0.6612 -0.4959
vn -0.5687 -0.0701 -0.8196
vn -0.0204 -0.2932 0.9558
vn 0.4332 0.0734 -0.8983
vn 0.7138 -0.5203 -0.4687
vn -0.2591 -0.6538 0.7109
vn -0.8381 0.4907 -0.2381
vn -0.6071 0.5800 -0.5432
vn -0.8281 0.2987 -0.4743
vn -0.4884 -0.8710 0.0524
vn -0.9855 -0.1208 -0.1194
vn -0.5761 0.8055 -0.1385
vn 0.4030 0.5175 0.7548
vn 0.9219 -0.2008 -0.3313
vn 0.1522 0.5104 -0.8464
vn 0.4564 0.6529 0.6045
vn 0.4999 -0.8334 -0.2356
vn 0.5978 -0.4861 -0.6375
vn 0.9848 -0.1289 -0.1160
vn -0.2915 -0.2597 -0.9206
vn -0.3867 -0.8089 0.4429
vn -0.6221 0.7730 0.1241
vn -0.8578 0.4456 -0.2562
vn 0.4578 0.6603 0.5954
vn 0.2828 0.6743 -0.6822
vn -0.9045 0.0427 -0.4244
vn 0.3465 -0.7617 -0.5475
vn 0.2771 0.2509 0.9275
vn 0.4820 -0.5886 -0.6490
vn 0.6574 -0.1576 -0.7369
vn 0.0784 -0.1223 0.9894
vn 0.6004 0.3491 -0.7195
vn -0.5096 0.2287 -0.8294
vn -0.5626 0.6611 -0.4964
vn 0.5692 -0.0706 -0.8192
vn -0.6916 0.2490 -0.6780
vn 0.3455 0.3928 0.8522
vn -0.0171 -0.2815 0.9594
usemtl TEX_w2dkn04

f 1/1/1 2/2/2 3/3/3
f 2/2/2 1/1/1 4/4/4
f 1/1/1 3/3/3 5/5/5
f 6/6/6 7/7/7 8/8/8
f 8/8/8 9/9/9 6/6/6
f 10/10/10 7/7/7 6/6/6
f 7/7/7 10/10/10 11/11/11
f 10/10/10 12/12/12 11/11/11
f 8/8/8 13/13/13 14/14/14
f 8/8/8 14/14/14 9/9/9
f 4/4/4 1/1/1 15/15/15
f 15/15/15 16/16/16 4/4/4
f 11/17/11 12/18/12 17/19/17
f 18/20/18 11/17/11 17/19/17
f 17/19/17 19/21/19 18/20/18
f 20/22/20 21/23/21 18/20/18
f 20/22/20 18/20/18 19/21/19
f 22/24/22 3/3/3 2/2/2
f 23/25/23 22/24/22 2/2/2
f 2/2/2 4/4/4 23/25/23
f 23/25/23 4/4/4 24/26/24
f 25/27/25 14/28/14 13/29/13
f 3/3/3 25/27/25 13/29/13
f 25/27/25 3/3/3 26/30/26
f 3/3/3 13/29/13 5/5/5
f 16/16/16 21/31/21 20/32/20
f 21/31/21 16/16/16 15/15/15
f 3/3/3 22/24/22 26/30/26
f 4/4/4 16/16/16 27/33/27
f 4/4/4 27/33/27 24/26/24
f 28/34/28 29/35/29 30/36/30
f 29/35/29 28/34/28 31/37/31
f 28/34/28 30/36/30 32/38/32
f 28/34/28 32/38/32 33/39/33
f 28/34/28 33/39/33 34/40/34
f 28/34/28 34/40/34 35/41/35
f 28/34/28 35/41/35 36/42/36
f 28/34/28 36/42/36 31/37/31
f 37/43/37 38/44/38 39/45/39
f 39/45/39 40/46/40 37/43/37
f 41/47/41 37/43/37 40/46/40
f 38/44/38 37/43/37 42/48/42
f 43/49/43 39/45/39 38/44/38
f 43/49/43 38/44/38 44/50/44
f 45/51/45 46/52/46 47/53/47
f 46/52/46 45/51/45 48/54/48
f 45/51/45 47/53/47 49/55/49
f 43/56/43 44/57/44 42/58/42
f 43/56/43 42/58/42 37/59/37
f 50/60/50 51/61/51 52/62/52
f 51/61/51 50/60/50 53/63/53
f 50/60/50 54/64/54 53/63/53
f 54/64/54 50/60/50 55/65/55
f 56/66/56 55/65/55 50/60/50
f 57/67/57 58/68/58 59/69/59
f 59/69/59 60/70/60 57/67/57
f 61/71/61 57/67/57 60/70/60
f 51/61/51 46/52/46 52/62/52
f 46/52/46 51/61/51 53/63/53
f 62/72/62 63/73/63 59/69/59
f 63/73/63 62/72/62 64/74/64
f 65/75/65 64/74/64 62/72/62
f 63/73/63 60/70/60 59/69/59
f 60/70/60 63/73/63 61/71/61
f 64/76/64 57/77/57 63/78/63
f 62/79/62 59/80/59 58/81/58
f 58/81/58 66/82/66 62/79/62
f 47/83/47 54/84/54 49/85/49
f 46/86/46 50/87/50 52/88/52
f 50/87/50 46/86/46 56/89/56
f 58/68/58 57/67/57 64/74/64
f 64/74/64 65/75/65 58/68/58
f 47/53/47 46/52/46 53/63/53
f 53/63/53 66/90/66 47/53/47
f 67/91/67 68/92/68 69/93/69
f 68/92/68 67/91/67 70/94/70
f 67/91/67 71/95/71 70/94/70
f 71/95/71 67/91/67 72/96/72
f 67/91/67 73/97/73 72/96/72
f 73/97/73 67/91/67 74/98/74
f 67/91/67 75/99/75 74/98/74
f 75/99/75 67/91/67 69/93/69
f 65/75/65 76/100/76 58/68/58
f 76/100/76 65/75/65 53/63/53
f 76/100/76 53/63/53 54/64/54
f 65/75/65 66/90/66 53/63/53
f 66/90/66 65/75/65 62/72/62
f 76/101/76 66/82/66 58/81/58
f 66/82/66 76/101/76 47/83/47
f 76/101/76 54/84/54 47/83/47
f 57/77/57 61/102/61 63/78/63
f 49/55/49 54/64/54 55/65/55
f 55/65/55 77/103/77 49/55/49
f 55/104/55 48/105/48 45/106/45
f 45/106/45 77/107/77 55/104/55
f 48/105/48 55/104/55 56/89/56
f 46/86/46 48/105/48 56/89/56
f 78/108/78 79/109/79 80/110/80
f 79/109/79 78/108/78 43/49/43
f 80/110/80 45/51/45 49/55/49
f 80/110/80 49/55/49 78/108/78
f 43/49/43 78/108/78 41/47/41
f 41/47/41 40/46/40 43/49/43
f 39/45/39 43/49/43 40/46/40
f 79/111/79 43/56/43 37/59/37
f 79/111/79 37/59/37 81/112/81
f 80/113/80 77/107/77 45/106/45
f 77/107/77 80/113/80 81/114/81
f 80/113/80 79/115/79 81/114/81
f 78/108/78 77/103/77 81/116/81
f 77/103/77 78/108/78 49/55/49
f 78/108/78 37/43/37 41/47/41
f 81/116/81 37/43/37 78/108/78
f 82/117/82 83/118/83 84/119/84
f 84/119/84 85/120/85 82/117/82
f 86/121/86 82/117/82 85/120/85
f 83/118/83 82/117/82 87/122/87
f 88/123/88 84/119/84 83/118/83
f 88/123/88 83/118/83 89/124/89
f 90/125/90 91/126/91 92/127/92
f 91/126/91 90/125/90 93/128/93
f 90/125/90 92/127/92 94/129/94
f 88/130/88 89/131/89 87/132/87
f 88/130/88 87/132/87 82/133/82
f 95/134/95 96/135/96 97/136/97
f 96/135/96 95/134/95 98/137/98
f 95/134/95 99/138/99 98/137/98
f 99/138/99 95/134/95 100/139/100
f 101/140/101 100/139/100 95/134/95
f 102/141/102 103/142/103 104/143/104
f 104/143/104 105/144/105 102/141/102
f 106/145/106 102/141/102 105/144/105
f 96/135/96 91/126/91 97/136/97
f 91/126/91 96/135/96 98/137/98
f 107/146/107 108/147/108 104/143/104
f 108/147/108 107/146/107 109/148/109
f 110/149/110 109/148/109 107/146/107
f 108/147/108 105/144/105 104/143/104
f 105/144/105 108/147/108 106/145/106
f 109/150/109 102/151/102 108/152/108
f 107/153/107 104/154/104 103/155/103
f 103/155/103 111/156/111 107/153/107
f 92/157/92 99/158/99 94/159/94
f 91/160/91 95/161/95 97/162/97
f 95/161/95 91/160/91 101/163/101
f 103/142/103 102/141/102 109/148/109
f 109/148/109 110/149/110 103/142/103
f 92/127/92 91/126/91 98/137/98
f 98/137/98 111/164/111 92/127/92
f 110/149/110 112/165/112 103/142/103
f 112/165/112 110/149/110 98/137/98
f 112/165/112 98/137/98 99/138/99
f 110/149/110 111/164/111 98/137/98
f 111/164/111 110/149/110 107/146/107
f 112/166/112 111/156/111 103/155/103
f 111/156/111 112/166/112 99/158/99
f 111/156/111 99/158/99 92/157/92
f 102/151/102 106/167/106 108/152/108
f 94/129/94 99/138/99 100/139/100
f 100/139/100 113/168/113 94/129/94
f 100/169/100 93/170/93 90/171/90
f 90/171/90 113/172/113 100/169/100
f 93/170/93 100/169/100 101/163/101
f 91/160/91 93/170/93 101/163/101
f 114/173/114 115/174/115 116/175/116
f 115/174/115 114/173/114 88/123/88
f 116/175/116 90/125/90 94/129/94
f 116/175/116 94/129/94 114/173/114
f 88/123/88 114/173/114 86/121/86
f 86/121/86 85/120/85 88/123/88
f 84/119/84 88/123/88 85/120/85
f 115/176/115 88/130/88 82/133/82
f 115/176/115 82/133/82 117/177/117
f 116/178/116 113/172/113 90/171/90
f 113/172/113 116/178/116 117/179/117
f 116/178/116 115/180/115 117/179/117
f 114/173/114 113/168/113 117/181/117
f 113/168/113 114/173/114 94/129/94
f 114/173/114 82/117/82 86/121/86
f 117/181/117 82/117/82 114/173/114
f 118/182/118 119/183/119 120/184/120
f 118/182/118 120/184/120 121/185/121
f 122/186/122 123/187/123 118/182/118
f 122/186/122 118/182/118 121/185/121
f 124/188/124 125/189/125 126/190/126
f 127/191/127 124/188/124 126/190/126
f 126/190/126 128/192/128 127/191/127
f 122/193/122 120/194/120 119/195/119
f 122/193/122 119/195/119 123/196/123
f 129/197/129 130/198/130 131/199/131
f 129/197/129 128/192/128 132/200/132
f 128/192/128 129/197/129 131/199/131
f 133/201/133 134/202/134 135/203/135
f 134/202/134 136/204/136 135/203/135
f 131/199/131 130/198/130 127/191/127
f 137/205/137 138/206/138 135/203/135
f 137/205/137 135/203/135 136/204/136
f 134/207/134 139/208/139 137/209/137
f 137/209/137 140/210/140 134/207/134
f 133/211/133 135/212/135 138/213/138
f 138/213/138 141/214/141 133/211/133
f 142/215/142 133/211/133 141/214/141
f 141/214/141 126/216/126 142/215/142
f 126/216/126 125/217/125 132/218/132
f 127/219/127 130/220/130 129/221/129
f 138/206/138 137/205/137 139/222/139
f 134/202/134 133/201/133 139/222/139
f 133/201/133 143/223/143 139/222/139
f 142/224/142 143/223/143 133/201/133
f 128/192/128 142/224/142 132/200/132
f 143/223/143 142/224/142 128/192/128
f 141/225/141 143/223/143 128/192/128
f 141/225/141 128/192/128 126/190/126
f 143/223/143 141/225/141 138/206/138
f 143/223/143 138/206/138 139/222/139
f 142/215/142 126/216/126 132/218/132
f 136/204/136 134/202/134 140/226/140
f 137/205/137 136/204/136 140/226/140
f 125/189/125 144/227/144 132/200/132
f 144/227/144 125/189/125 145/228/145
f 146/229/146 145/228/145 125/189/125
f 144/227/144 129/197/129 132/200/132
f 129/197/129 144/227/144 147/230/147
f 124/188/124 127/191/127 148/231/148
f 148/232/148 147/233/147 144/234/144
f 124/235/124 148/232/148 144/234/144
f 144/234/144 145/236/145 124/235/124
f 149/237/149 124/235/124 145/236/145
f 145/236/145 150/238/150 149/237/149
f 127/219/127 129/221/129 147/233/147
f 127/219/127 147/233/147 148/232/148
f 131/199/131 127/191/127 128/192/128
f 146/229/146 149/239/149 151/240/151
f 149/239/149 146/229/146 125/189/125
f 149/239/149 125/189/125 124/188/124
f 146/229/146 151/240/151 122/186/122
f 146/229/146 122/186/122 152/241/152
f 151/242/151 150/243/150 120/194/120
f 151/242/151 120/194/120 122/193/122
f 149/237/149 150/238/150 151/244/151
f 150/245/150 145/228/145 146/229/146
f 146/229/146 120/184/120 150/245/150
f 120/184/120 146/229/146 152/241/152
f 153/246/153 120/184/120 152/241/152
f 120/184/120 153/246/153 121/185/121
f 153/246/153 122/186/122 121/185/121
f 122/186/122 153/246/153 152/241/152
