# Blender v2.79 (sub 0) OBJ File: ''
# www.blender.org
mtllib tribalgrappler09l.mtl
o MDL_w2dkn09l_bod00
v 0.075900 0.027000 -0.061900
v 0.076100 0.043300 -0.108900
v 0.116900 0.033400 -0.119400
v 0.105300 0.019400 -0.072200
v 0.002700 0.034200 -0.054100
v 0.002700 0.050900 -0.104500
v 0.078900 0.047800 -0.059200
v 0.111900 0.035900 -0.071700
v 0.002700 0.055300 -0.054400
v -0.070800 0.043300 -0.108900
v 0.083900 0.131700 0.214200
v 0.071200 0.114800 0.259700
v 0.068800 0.079100 0.245800
v 0.081200 0.090300 0.205800
v 0.059100 0.100300 0.205600
v 0.052800 0.085900 0.245600
v 0.046600 0.050000 0.329800
v 0.090500 0.146600 0.117000
v 0.085800 0.095300 0.124100
v 0.061400 0.109200 0.120900
v 0.084400 0.139400 0.016200
v 0.081100 0.089100 0.046600
v 0.065300 0.045200 -0.013400
v 0.055600 0.100000 0.046400
v 0.068300 0.096700 -0.049700
v 0.038300 0.055000 -0.013300
v 0.064200 0.048900 -0.054400
v 0.038900 0.058900 -0.058300
v 0.064400 0.066700 -0.102500
v 0.069800 0.102800 -0.094400
v 0.051900 0.071700 -0.104400
v 0.072500 0.110500 -0.145800
v 0.085500 0.018000 0.011100
v 0.002700 0.025500 0.016900
v 0.002700 0.045800 0.023100
v -0.073600 0.047800 -0.059200
v 0.087800 0.038800 0.013600
v 0.116300 0.014100 0.001700
v 0.120200 0.015000 0.065200
v 0.137700 0.011700 0.052000
v 0.002700 0.025000 0.121100
v -0.080200 0.018000 0.011100
v -0.088100 0.020200 0.096700
v 0.093600 0.020200 0.096700
v 0.128700 0.046100 0.010900
v 0.092200 0.068400 0.036900
v 0.002700 0.079500 0.050200
v -0.086900 0.068400 0.036900
v -0.082500 0.038800 0.013600
v 0.192500 0.019400 0.137800
v 0.172300 0.027000 0.198900
v 0.137200 0.020300 0.185000
v 0.151900 0.011100 0.129400
v 0.155800 0.035200 0.129200
v 0.139700 0.037300 0.184800
v 0.103900 0.034200 0.253600
v 0.208000 0.016700 0.065600
v 0.157200 0.008100 0.072700
v 0.164400 0.035200 0.069500
v 0.199500 0.020800 -0.035000
v 0.150000 0.010900 -0.004700
v 0.105600 0.014800 -0.068800
v 0.154100 0.038400 -0.004800
v 0.156300 0.025300 -0.105000
v 0.108100 0.043600 -0.068600
v 0.108900 0.016900 -0.109700
v 0.112000 0.043900 -0.113400
v 0.126200 0.021300 -0.157800
v 0.158400 0.025500 -0.153900
v 0.127800 0.034800 -0.159700
v 0.170500 0.024800 -0.201100
v -0.111400 0.033400 -0.119400
v -0.070600 0.027000 -0.061900
v -0.100000 0.019400 -0.072200
v -0.106600 0.035900 -0.071700
v -0.065900 0.114800 0.259700
v -0.078600 0.131700 0.214200
v -0.063400 0.079100 0.245800
v -0.075900 0.090300 0.205800
v -0.085200 0.146600 0.117000
v -0.053800 0.100300 0.205600
v -0.056100 0.109200 0.120900
v -0.047500 0.085900 0.245600
v -0.080500 0.095300 0.124100
v -0.079100 0.139400 0.016200
v -0.050200 0.100000 0.046400
v -0.075800 0.089100 0.046600
v -0.060000 0.045200 -0.013400
v -0.041100 0.050000 0.329800
v -0.063000 0.096700 -0.049700
v -0.058900 0.048900 -0.054400
v -0.064500 0.102800 -0.094400
v -0.059100 0.066700 -0.102500
v -0.032800 0.055000 -0.013300
v -0.033600 0.058900 -0.058300
v -0.046400 0.071700 -0.104400
v -0.067200 0.110500 -0.145800
v -0.114800 0.015000 0.065200
v -0.110800 0.014100 0.001700
v -0.132200 0.011700 0.052000
v -0.123400 0.046100 0.010900
v -0.167000 0.027000 0.198900
v -0.187200 0.019400 0.137800
v -0.131900 0.020300 0.185000
v -0.146400 0.011100 0.129400
v -0.202700 0.016700 0.065600
v -0.150500 0.035200 0.129200
v -0.159100 0.035200 0.069500
v -0.134400 0.037300 0.184800
v -0.151900 0.008100 0.072700
v -0.194200 0.020800 -0.035000
v -0.148800 0.038400 -0.004800
v -0.144700 0.010900 -0.004700
v -0.100300 0.014800 -0.068800
v -0.098600 0.034200 0.253600
v -0.150800 0.025300 -0.105000
v -0.103600 0.016900 -0.109700
v -0.153100 0.025500 -0.153900
v -0.120900 0.021300 -0.157800
v -0.102800 0.043600 -0.068600
v -0.106700 0.043900 -0.113400
v -0.122500 0.034800 -0.159700
v -0.165200 0.024800 -0.201100
vt 0.187500 0.183600
vt 0.015600 0.183600
vt 0.015600 0.347700
vt 0.187500 0.347700
vt 0.187500 0.007800
vt 0.015600 0.007800
vt 0.687500 0.210900
vt 0.687500 0.375000
vt 0.992200 0.375000
vt 0.992200 0.210900
vt 0.687500 0.003900
vt 0.992200 0.003900
vt 0.992200 0.210900
vt 0.671900 0.375000
vt 0.515600 0.375000
vt 0.515600 0.269500
vt 0.671900 0.269500
vt 0.578100 0.695300
vt 0.601600 0.570300
vt 0.851600 0.570300
vt 0.882800 0.695300
vt 0.898400 0.570300
vt 0.992200 0.695300
vt 0.898400 0.695300
vt 0.992200 0.570300
vt 0.945300 0.398400
vt 0.851600 0.570300
vt 0.882800 0.695300
vt 0.726600 0.394500
vt 0.578100 0.863300
vt 0.882800 0.863300
vt 0.992200 0.863300
vt 0.898400 0.863300
vt 0.882800 0.863300
vt 0.578100 0.992200
vt 0.882800 0.992200
vt 0.882800 0.863300
vt 0.992200 0.992200
vt 0.898400 0.992200
vt 0.882800 0.992200
vt 0.578100 0.929700
vt 0.882800 0.863300
vt 0.898400 0.863300
vt 0.992200 0.863300
vt 0.882800 0.929700
vt 0.992200 0.781300
vt 0.898400 0.781300
vt 0.898400 0.726600
vt 0.882800 0.929700
vt 0.578100 0.843800
vt 0.882800 0.843800
vt 0.742200 0.726600
vt 0.882800 0.843800
vt 0.992200 0.726600
vt 0.945300 0.867200
vt 0.210900 0.210900
vt 0.671900 0.003900
vt 0.671900 0.210900
vt 0.210900 0.003900
vt 0.210900 0.003900
vt 0.671900 0.210900
vt 0.671900 0.003900
vt 0.671900 0.210900
vt 0.210900 0.210900
vt 0.671900 0.222700
vt 0.515600 0.222700
vt 0.382800 0.605500
vt 0.007800 0.718800
vt 0.382800 0.773400
vt 0.023400 0.578100
vt 0.031300 0.988300
vt 0.351600 0.988300
vt 0.375000 0.785200
vt 0.375000 0.785200
vt 0.007800 0.820300
vt 0.007800 0.820300
vt 0.382800 0.605500
vt 0.382800 0.812500
vt 0.007800 0.871100
vt 0.007800 0.988300
vt 0.375000 0.988300
vt 0.382800 0.812500
vt 0.554700 0.773400
vt 0.460900 0.796900
vt 0.554700 0.621100
vt 0.187500 0.375000
vt 0.375000 0.996100
vt 0.460900 0.996100
vt 0.460900 0.796900
vt 0.375000 0.820300
vt 0.007800 0.925800
vt 0.539100 0.492200
vt 0.382800 0.578100
vt 0.156300 0.449200
vt 0.578100 0.695300
vt 0.601600 0.570300
vt 0.851600 0.570300
vt 0.882800 0.695300
vt 0.898400 0.570300
vt 0.992200 0.695300
vt 0.898400 0.695300
vt 0.992200 0.570300
vt 0.945300 0.398400
vt 0.851600 0.570300
vt 0.882800 0.695300
vt 0.726600 0.394500
vt 0.578100 0.863300
vt 0.882800 0.863300
vt 0.992200 0.863300
vt 0.898400 0.863300
vt 0.882800 0.863300
vt 0.578100 0.992200
vt 0.882800 0.992200
vt 0.882800 0.863300
vt 0.992200 0.992200
vt 0.898400 0.992200
vt 0.882800 0.992200
vt 0.578100 0.929700
vt 0.882800 0.863300
vt 0.898400 0.863300
vt 0.992200 0.863300
vt 0.882800 0.929700
vt 0.992200 0.781300
vt 0.898400 0.781300
vt 0.898400 0.726600
vt 0.882800 0.929700
vt 0.578100 0.843800
vt 0.882800 0.843800
vt 0.742200 0.726600
vt 0.882800 0.843800
vt 0.992200 0.726600
vt 0.945300 0.867200
vt 0.015600 0.347700
vt 0.015600 0.183600
vt 0.187500 0.183600
vt 0.187500 0.347700
vt 0.992200 0.375000
vt 0.687500 0.375000
vt 0.687500 0.210900
vt 0.515600 0.269500
vt 0.515600 0.375000
vt 0.671900 0.375000
vt 0.671900 0.269500
vt 0.601600 0.570300
vt 0.578100 0.695300
vt 0.851600 0.570300
vt 0.882800 0.695300
vt 0.578100 0.863300
vt 0.882800 0.695300
vt 0.882800 0.863300
vt 0.898400 0.570300
vt 0.898400 0.695300
vt 0.992200 0.695300
vt 0.992200 0.570300
vt 0.851600 0.570300
vt 0.882800 0.863300
vt 0.578100 0.992200
vt 0.882800 0.992200
vt 0.898400 0.863300
vt 0.992200 0.863300
vt 0.882800 0.992200
vt 0.992200 0.992200
vt 0.898400 0.992200
vt 0.898400 0.863300
vt 0.726600 0.394500
vt 0.945300 0.398400
vt 0.578100 0.929700
vt 0.882800 0.863300
vt 0.882800 0.929700
vt 0.578100 0.843800
vt 0.882800 0.843800
vt 0.992200 0.863300
vt 0.992200 0.781300
vt 0.898400 0.781300
vt 0.898400 0.726600
vt 0.882800 0.863300
vt 0.882800 0.929700
vt 0.882800 0.843800
vt 0.742200 0.726600
vt 0.945300 0.867200
vt 0.992200 0.726600
vt 0.210900 0.210900
vt 0.671900 0.210900
vt 0.210900 0.210900
vt 0.671900 0.222700
vt 0.515600 0.222700
vt 0.007800 0.718800
vt 0.382800 0.605500
vt 0.382800 0.773400
vt 0.023400 0.578100
vt 0.382800 0.605500
vt 0.007800 0.871100
vt 0.554700 0.773400
vt 0.554700 0.621100
vt 0.375000 0.820300
vt 0.187500 0.375000
vt 0.007800 0.925800
vt 0.539100 0.492200
vt 0.156300 0.449200
vt 0.382800 0.578100
vt 0.601600 0.570300
vt 0.578100 0.695300
vt 0.851600 0.570300
vt 0.882800 0.695300
vt 0.578100 0.863300
vt 0.882800 0.695300
vt 0.882800 0.863300
vt 0.898400 0.570300
vt 0.898400 0.695300
vt 0.992200 0.695300
vt 0.992200 0.570300
vt 0.851600 0.570300
vt 0.882800 0.863300
vt 0.578100 0.992200
vt 0.882800 0.992200
vt 0.898400 0.863300
vt 0.992200 0.863300
vt 0.882800 0.992200
vt 0.992200 0.992200
vt 0.898400 0.992200
vt 0.898400 0.863300
vt 0.726600 0.394500
vt 0.945300 0.398400
vt 0.578100 0.929700
vt 0.882800 0.863300
vt 0.882800 0.929700
vt 0.578100 0.843800
vt 0.882800 0.843800
vt 0.992200 0.863300
vt 0.992200 0.781300
vt 0.898400 0.781300
vt 0.898400 0.726600
vt 0.882800 0.863300
vt 0.882800 0.929700
vt 0.882800 0.843800
vt 0.742200 0.726600
vt 0.945300 0.867200
vt 0.992200 0.726600
vn 0.3180 -0.9430 -0.0980
vn -0.1143 0.1390 -0.9837
vn 0.7627 -0.2148 -0.6100
vn 0.4560 -0.6098 0.6483
vn -0.0001 -0.9757 -0.2192
vn -0.0001 0.1208 -0.9927
vn 0.4496 0.8297 0.3308
vn 0.8108 0.2190 0.5428
vn 0.0001 0.9998 -0.0205
vn 0.1145 0.1392 -0.9836
vn 0.3053 0.8691 0.3892
vn 0.2477 0.7853 0.5674
vn 0.5127 -0.8498 -0.1222
vn 0.4979 -0.8657 -0.0515
vn -0.9603 -0.2145 -0.1784
vn -0.9853 -0.0238 -0.1691
vn -0.4414 -0.8944 -0.0721
vn 0.3630 0.9281 0.0828
vn 0.4811 -0.8761 0.0318
vn -0.9777 -0.2099 -0.0011
vn 0.3303 0.8816 -0.3371
vn 0.5429 -0.8106 0.2195
vn 0.4045 -0.8958 0.1839
vn -0.7797 -0.5281 0.3363
vn 0.3524 0.9286 -0.1159
vn -0.9945 -0.0132 0.1039
vn 0.7288 -0.6690 -0.1462
vn -0.8730 -0.4483 -0.1921
vn 0.3637 -0.8304 -0.4220
vn 0.3480 0.9375 -0.0060
vn -0.8684 -0.2218 -0.4436
vn -0.0605 -0.4580 -0.8869
vn 0.0176 -0.9786 -0.2049
vn -0.0001 -0.9980 -0.0633
vn -0.0000 0.9786 -0.2056
vn -0.4496 0.8298 0.3305
vn 0.2581 0.5588 -0.7881
vn 0.0749 -0.6145 -0.7854
vn 0.6104 -0.4654 0.6410
vn 0.9208 -0.3791 0.0915
vn 0.0000 -0.3430 0.9393
vn -0.0173 -0.9786 -0.2049
vn -0.4588 -0.4300 0.7776
vn 0.4594 -0.4298 0.7773
vn 0.6098 0.6860 -0.3969
vn 0.3556 0.9252 0.1325
vn 0.0000 0.9034 -0.4289
vn -0.3557 0.9251 0.1332
vn -0.2578 0.5590 -0.7881
vn 0.9391 -0.0801 0.3342
vn 0.8071 -0.0383 0.5892
vn -0.6897 -0.7147 -0.1163
vn -0.7059 -0.7064 -0.0517
vn -0.4676 0.8727 -0.1407
vn -0.2797 0.9472 -0.1566
vn -0.9754 0.2025 -0.0874
vn 0.9870 -0.1101 0.1171
vn -0.7229 -0.6903 0.0305
vn -0.4536 0.8911 -0.0125
vn 0.9451 -0.0919 -0.3136
vn -0.6523 -0.7296 0.2054
vn -0.7688 -0.6176 0.1660
vn -0.7216 0.6170 0.3141
vn 0.9850 -0.0996 -0.1408
vn -0.2748 0.9566 0.0972
vn -0.4547 -0.8777 -0.1516
vn -0.6549 0.7290 -0.1990
vn -0.7066 -0.5699 -0.4194
vn 0.9953 -0.0964 0.0020
vn -0.4274 0.7922 -0.4357
vn -0.4322 -0.0751 -0.8986
vn -0.7610 -0.2147 -0.6122
vn -0.3179 -0.9431 -0.0976
vn -0.4565 -0.6102 0.6475
vn -0.8120 0.2194 0.5408
vn -0.2485 0.7848 0.5677
vn -0.3052 0.8686 0.3905
vn -0.5113 -0.8507 -0.1223
vn -0.4978 -0.8658 -0.0512
vn -0.3630 0.9281 0.0828
vn 0.9604 -0.2140 -0.1785
vn 0.9778 -0.2094 -0.0008
vn 0.9852 -0.0230 -0.1696
vn -0.4813 -0.8759 0.0320
vn -0.3310 0.8816 -0.3366
vn 0.7799 -0.5299 0.3330
vn -0.5434 -0.8103 0.2193
vn -0.4054 -0.8955 0.1834
vn 0.4437 -0.8930 -0.0756
vn -0.3527 0.9282 -0.1189
vn -0.7288 -0.6689 -0.1462
vn -0.3487 0.9372 -0.0017
vn -0.3651 -0.8303 -0.4211
vn 0.9947 -0.0123 0.1021
vn 0.8727 -0.4488 -0.1920
vn 0.8689 -0.2210 -0.4429
vn 0.0543 -0.4547 -0.8890
vn -0.6097 -0.4660 0.6412
vn -0.0734 -0.6157 -0.7845
vn -0.9190 -0.3834 0.0918
vn -0.6113 0.6846 -0.3970
vn -0.8071 -0.0383 0.5892
vn -0.9391 -0.0804 0.3340
vn 0.6908 -0.7137 -0.1160
vn 0.7080 -0.7043 -0.0522
vn -0.9870 -0.1102 0.1174
vn 0.4655 0.8740 -0.1396
vn 0.4525 0.8917 -0.0132
vn 0.2797 0.9472 -0.1566
vn 0.7228 -0.6904 0.0297
vn -0.9449 -0.0920 -0.3142
vn 0.7222 0.6171 0.3125
vn 0.6523 -0.7296 0.2054
vn 0.7687 -0.6177 0.1659
vn 0.9754 0.2025 -0.0874
vn -0.9851 -0.1000 -0.1396
vn 0.4544 -0.8778 -0.1514
vn -0.9953 -0.0965 0.0036
vn 0.7066 -0.5699 -0.4194
vn 0.2743 0.9567 0.0969
vn 0.6548 0.7292 -0.1987
vn 0.4274 0.7922 -0.4356
vn 0.4322 -0.0750 -0.8987
usemtl TEX_w2dkn09l

f 1/1/1 2/2/2 3/3/3
f 3/3/3 4/4/4 1/1/1
f 5/5/5 6/6/6 2/2/2
f 2/2/2 1/1/1 5/5/5
f 7/7/7 8/8/8 3/9/3
f 3/9/3 2/10/2 7/7/7
f 9/11/9 7/7/7 2/10/2
f 2/10/2 6/12/6 9/11/9
f 10/13/10 9/11/9 6/12/6
f 7/14/7 1/15/1 4/16/4
f 4/16/4 8/17/8 7/14/7
f 11/18/11 12/19/12 13/20/13
f 13/20/13 14/21/14 11/18/11
f 13/22/13 15/23/15 14/24/14
f 15/23/15 13/22/13 16/25/16
f 17/26/17 16/25/16 13/22/13
f 16/27/16 11/18/11 15/28/15
f 11/18/11 16/27/16 12/19/12
f 17/29/17 12/19/12 16/27/16
f 12/19/12 17/29/17 13/20/13
f 18/30/18 11/18/11 14/21/14
f 14/21/14 19/31/19 18/30/18
f 14/24/14 20/32/20 19/33/19
f 20/32/20 14/24/14 15/23/15
f 15/28/15 18/30/18 20/34/20
f 18/30/18 15/28/15 11/18/11
f 21/35/21 18/30/18 19/31/19
f 19/31/19 22/36/22 21/35/21
f 23/37/23 21/35/21 22/36/22
f 19/33/19 24/38/24 22/39/22
f 24/38/24 19/33/19 20/32/20
f 20/34/20 21/35/21 24/40/24
f 21/35/21 20/34/20 18/30/18
f 21/35/21 23/37/23 25/41/25
f 25/41/25 26/42/26 21/35/21
f 24/38/24 23/43/23 22/39/22
f 26/44/26 23/43/23 24/38/24
f 25/41/25 23/37/23 27/45/27
f 28/46/28 23/43/23 26/44/26
f 23/43/23 28/46/28 27/47/27
f 29/48/29 27/47/27 28/46/28
f 25/41/25 28/49/28 26/42/26
f 30/50/30 25/41/25 27/45/27
f 31/51/31 30/50/30 32/52/32
f 30/50/30 31/51/31 28/49/28
f 30/50/30 27/45/27 29/53/29
f 29/48/29 31/54/31 32/55/32
f 31/54/31 29/48/29 28/46/28
f 30/50/30 29/53/29 32/52/32
f 28/49/28 25/41/25 30/50/30
f 21/35/21 26/42/26 24/40/24
f 33/56/33 5/57/5 1/58/1
f 5/57/5 33/56/33 34/59/34
f 35/60/35 7/61/7 9/62/9
f 9/62/9 36/63/36 35/60/35
f 35/60/35 37/64/37 7/61/7
f 37/65/37 1/15/1 7/14/7
f 1/15/1 37/65/37 33/66/33
f 38/67/38 39/68/39 33/69/33
f 39/68/39 38/67/38 40/70/40
f 41/71/41 34/72/34 33/73/33
f 34/72/34 41/71/41 42/74/42
f 43/75/43 42/74/42 41/71/41
f 33/73/33 44/76/44 41/71/41
f 39/68/39 45/77/45 46/78/46
f 46/78/46 44/79/44 39/68/39
f 39/68/39 40/70/40 45/77/45
f 41/80/41 46/78/46 47/81/47
f 47/81/47 48/82/48 41/80/41
f 41/80/41 44/79/44 46/78/46
f 33/83/33 37/84/37 38/85/38
f 8/86/8 4/4/4 3/3/3
f 47/87/47 37/84/37 35/88/35
f 35/88/35 49/89/49 47/87/47
f 37/84/37 47/87/47 46/90/46
f 46/90/46 45/77/45 37/84/37
f 37/84/37 45/77/45 38/85/38
f 44/91/44 33/69/33 39/68/39
f 38/92/38 45/93/45 40/94/40
f 50/95/50 51/96/51 52/97/52
f 52/97/52 53/98/53 50/95/50
f 52/99/52 54/100/54 53/101/53
f 54/100/54 52/99/52 55/102/55
f 56/103/56 55/102/55 52/99/52
f 55/104/55 50/95/50 54/105/54
f 50/95/50 55/104/55 51/96/51
f 56/106/56 51/96/51 55/104/55
f 51/96/51 56/106/56 52/97/52
f 57/107/57 50/95/50 53/98/53
f 53/98/53 58/108/58 57/107/57
f 53/101/53 59/109/59 58/110/58
f 59/109/59 53/101/53 54/100/54
f 54/105/54 57/107/57 59/111/59
f 57/107/57 54/105/54 50/95/50
f 60/112/60 57/107/57 58/108/58
f 58/108/58 61/113/61 60/112/60
f 62/114/62 60/112/60 61/113/61
f 58/110/58 63/115/63 61/116/61
f 63/115/63 58/110/58 59/109/59
f 59/111/59 60/112/60 63/117/63
f 60/112/60 59/111/59 57/107/57
f 60/112/60 62/114/62 64/118/64
f 64/118/64 65/119/65 60/112/60
f 63/115/63 62/120/62 61/116/61
f 65/121/65 62/120/62 63/115/63
f 64/118/64 62/114/62 66/122/66
f 67/123/67 62/120/62 65/121/65
f 62/120/62 67/123/67 66/124/66
f 68/125/68 66/124/66 67/123/67
f 64/118/64 67/126/67 65/119/65
f 69/127/69 64/118/64 66/122/66
f 70/128/70 69/127/69 71/129/71
f 69/127/69 70/128/70 67/126/67
f 69/127/69 66/122/66 68/130/68
f 68/125/68 70/131/70 71/132/71
f 70/131/70 68/125/68 67/123/67
f 69/127/69 68/130/68 71/129/71
f 67/126/67 64/118/64 69/127/69
f 60/112/60 65/119/65 63/117/63
f 72/133/72 10/134/10 73/135/73
f 73/135/73 74/136/74 72/133/72
f 10/134/10 6/6/6 5/5/5
f 5/5/5 73/135/73 10/134/10
f 72/137/72 75/138/75 36/139/36
f 36/139/36 10/13/10 72/137/72
f 36/139/36 9/11/9 10/13/10
f 74/140/74 73/141/73 36/142/36
f 36/142/36 75/143/75 74/140/74
f 76/144/76 77/145/77 78/146/78
f 77/145/77 79/147/79 78/146/78
f 79/147/79 77/145/77 80/148/80
f 81/149/81 80/148/80 77/145/77
f 80/148/80 81/149/81 82/150/82
f 78/151/78 79/152/79 81/153/81
f 78/151/78 81/153/81 83/154/83
f 83/155/83 81/149/81 77/145/77
f 83/155/83 77/145/77 76/144/76
f 80/148/80 84/156/84 79/147/79
f 84/156/84 80/148/80 85/157/85
f 82/150/82 85/157/85 80/148/80
f 85/157/85 82/150/82 86/158/86
f 79/152/79 84/159/84 82/160/82
f 79/152/79 82/160/82 81/153/81
f 85/157/85 87/161/87 84/156/84
f 86/162/86 84/159/84 87/163/87
f 87/163/87 88/164/88 86/162/86
f 84/159/84 86/162/86 82/160/82
f 89/165/89 76/144/76 78/146/78
f 76/144/76 89/165/89 83/155/83
f 89/166/89 78/151/78 83/154/83
f 90/167/90 88/168/88 85/157/85
f 88/168/88 90/167/90 91/169/91
f 92/170/92 91/169/91 90/167/90
f 91/169/91 92/170/92 93/171/93
f 88/164/88 94/172/94 86/162/86
f 94/172/94 88/164/88 95/173/95
f 91/174/91 95/173/95 88/164/88
f 95/173/95 91/174/91 93/175/93
f 90/167/90 85/157/85 94/176/94
f 94/176/94 95/177/95 90/167/90
f 92/170/92 90/167/90 95/177/95
f 95/177/95 96/178/96 92/170/92
f 97/179/97 92/170/92 96/178/96
f 93/175/93 97/180/97 96/181/96
f 92/170/92 97/179/97 93/171/93
f 93/175/93 96/181/96 95/173/95
f 85/157/85 86/158/86 94/176/94
f 87/161/87 85/157/85 88/168/88
f 5/57/5 42/182/42 73/183/73
f 42/182/42 5/57/5 34/59/34
f 35/60/35 36/63/36 49/184/49
f 73/141/73 49/185/49 36/142/36
f 49/185/49 73/141/73 42/186/42
f 98/187/98 99/188/99 42/189/42
f 99/188/99 98/187/98 100/190/100
f 48/82/48 101/191/101 98/187/98
f 98/187/98 43/192/43 48/82/48
f 100/190/100 98/187/98 101/191/101
f 41/80/41 48/82/48 43/192/43
f 49/89/49 42/193/42 99/194/99
f 99/194/99 101/191/101 49/89/49
f 48/195/48 49/89/49 101/191/101
f 75/196/75 72/133/72 74/136/74
f 47/87/47 49/89/49 48/195/48
f 43/197/43 98/187/98 42/189/42
f 99/198/99 100/199/100 101/200/101
f 102/201/102 103/202/103 104/203/104
f 103/202/103 105/204/105 104/203/104
f 105/204/105 103/202/103 106/205/106
f 107/206/107 106/205/106 103/202/103
f 106/205/106 107/206/107 108/207/108
f 104/208/104 105/209/105 107/210/107
f 104/208/104 107/210/107 109/211/109
f 109/212/109 107/206/107 103/202/103
f 109/212/109 103/202/103 102/201/102
f 106/205/106 110/213/110 105/204/105
f 110/213/110 106/205/106 111/214/111
f 108/207/108 111/214/111 106/205/106
f 111/214/111 108/207/108 112/215/112
f 105/209/105 110/216/110 108/217/108
f 105/209/105 108/217/108 107/210/107
f 111/214/111 113/218/113 110/213/110
f 112/219/112 110/216/110 113/220/113
f 113/220/113 114/221/114 112/219/112
f 110/216/110 112/219/112 108/217/108
f 115/222/115 102/201/102 104/203/104
f 102/201/102 115/222/115 109/212/109
f 115/223/115 104/208/104 109/211/109
f 116/224/116 114/225/114 111/214/111
f 114/225/114 116/224/116 117/226/117
f 118/227/118 117/226/117 116/224/116
f 117/226/117 118/227/118 119/228/119
f 114/221/114 120/229/120 112/219/112
f 120/229/120 114/221/114 121/230/121
f 117/231/117 121/230/121 114/221/114
f 121/230/121 117/231/117 119/232/119
f 116/224/116 111/214/111 120/233/120
f 120/233/120 121/234/121 116/224/116
f 118/227/118 116/224/116 121/234/121
f 121/234/121 122/235/122 118/227/118
f 123/236/123 118/227/118 122/235/122
f 119/232/119 123/237/123 122/238/122
f 118/227/118 123/236/123 119/228/119
f 119/232/119 122/238/122 121/230/121
f 111/214/111 112/215/112 120/233/120
f 113/218/113 111/214/111 114/225/114
