# Blender v2.79 (sub 0) OBJ File: ''
# www.blender.org
mtllib tribalgrappler03l.mtl
o MDL_w2dkn03l_bod00
v 0.000000 0.038400 -0.079100
v 0.060900 0.024500 0.037500
v 0.000000 0.032200 0.048300
v 0.046400 0.030800 -0.079100
v 0.060900 0.042000 0.062700
v 0.000000 0.049700 -0.079100
v 0.000000 0.049700 0.073400
v 0.046400 0.042000 -0.079100
v 0.060900 -0.028900 0.061300
v -0.000000 -0.028900 0.074100
v -0.000000 -0.028900 0.053300
v 0.060900 -0.028900 0.040500
v 0.039800 0.027500 -0.078700
v 0.042500 0.037500 -0.106600
v 0.079100 0.023300 -0.106600
v 0.074500 0.015300 -0.078700
v 0.000000 0.034800 -0.078700
v 0.000000 0.044800 -0.106600
v 0.045200 0.047500 -0.078700
v 0.083400 0.031100 -0.078700
v 0.000000 0.054800 -0.078700
v 0.021900 0.041400 0.078100
v 0.048000 0.003100 0.153600
v 0.043300 0.070500 0.129500
v 0.023700 0.003100 0.088100
v 0.021900 -0.038100 0.078100
v 0.051600 0.041400 0.073000
v 0.053300 0.003100 0.083000
v 0.051600 -0.038100 0.073000
v 0.017300 -0.065300 0.030900
v 0.039700 -0.065300 0.027200
v 0.017000 -0.075600 -0.035800
v 0.043100 -0.062500 0.125800
v 0.028800 -0.090000 0.033600
v 0.017000 0.069400 0.050500
v 0.033900 0.114100 0.063100
v 0.046700 0.069400 0.045300
v 0.010200 0.085800 0.000500
v 0.025300 0.125200 0.015600
v 0.036900 0.085600 -0.004100
v 0.011100 0.130900 -0.029400
v 0.021600 0.151700 -0.008000
v 0.025900 0.130900 -0.031900
v 0.018300 0.213100 -0.028800
v 0.078400 0.040900 0.039700
v 0.128600 0.008400 0.072000
v 0.102800 0.065200 0.046400
v 0.088600 0.004100 0.049800
v 0.084700 -0.032500 0.045900
v 0.096100 0.040800 0.022500
v 0.106100 0.003900 0.032800
v 0.102200 -0.032500 0.028800
v 0.062300 -0.062300 0.018800
v 0.075500 -0.062300 0.005800
v 0.035600 -0.069200 -0.021600
v 0.117200 -0.047500 0.060300
v 0.073300 -0.082000 0.016200
v 0.053400 0.069700 0.009800
v 0.071700 0.085900 0.014700
v 0.066900 0.069700 -0.003100
v 0.048900 0.089700 0.000300
v 0.058100 0.089700 -0.008400
v 0.050900 0.143600 -0.005900
v 0.109400 0.006400 0.054100
v 0.131200 0.006400 -0.017300
v 0.117500 0.014400 -0.022300
v 0.096100 0.019200 0.034700
v 0.096100 -0.006300 0.034700
v 0.117500 -0.001400 -0.022300
v 0.166100 0.006400 -0.092200
v 0.065600 0.006400 0.099800
v 0.051900 0.019200 0.070200
v 0.051900 -0.006300 0.073600
v 0.000000 0.006400 0.115800
v 0.000000 0.019200 0.080200
v 0.000000 -0.006300 0.080200
v -0.060900 0.024500 0.037500
v -0.046600 0.030800 -0.079100
v -0.060900 0.042000 0.062700
v -0.046600 0.042000 -0.079100
v -0.060900 -0.028900 0.061300
v -0.060900 -0.028900 0.040500
v -0.040000 0.027500 -0.078700
v -0.079100 0.023300 -0.106600
v -0.042700 0.037500 -0.106600
v -0.074700 0.015300 -0.078700
v -0.045200 0.047500 -0.078700
v -0.083600 0.031100 -0.078700
v -0.048100 0.003100 0.153600
v -0.022000 0.041400 0.078100
v -0.043300 0.070500 0.129500
v -0.023700 0.003100 0.088300
v -0.022000 -0.038100 0.078100
v -0.051600 0.041400 0.072800
v -0.053400 0.003100 0.083000
v -0.051600 -0.038100 0.072800
v -0.017500 -0.065300 0.031100
v -0.039800 -0.065300 0.027000
v -0.017200 -0.075600 -0.035800
v -0.046700 0.069400 0.045300
v -0.017200 0.069400 0.050500
v -0.034100 0.114100 0.063100
v -0.025500 0.125200 0.015600
v -0.010300 0.085600 0.000600
v -0.021600 0.151700 -0.008000
v -0.037000 0.085800 -0.004100
v -0.028900 -0.090000 0.033600
v -0.043300 -0.062500 0.125800
v -0.011100 0.130900 -0.029200
v -0.025900 0.130900 -0.031900
v -0.018400 0.213100 -0.028800
v -0.128600 0.008400 0.072000
v -0.078600 0.040800 0.039700
v -0.103000 0.065200 0.046400
v -0.088600 0.003900 0.050000
v -0.084700 -0.032500 0.045900
v -0.096100 0.040900 0.022500
v -0.106100 0.004100 0.032700
v -0.102200 -0.032500 0.028800
v -0.062300 -0.062300 0.018800
v -0.075600 -0.062300 0.005800
v -0.035800 -0.069200 -0.021600
v -0.071900 0.085900 0.014700
v -0.053400 0.069700 0.010000
v -0.049100 0.089700 0.000500
v -0.067000 0.069700 -0.003300
v -0.058100 0.089700 -0.008400
v -0.073400 -0.082000 0.016200
v -0.117300 -0.047500 0.060300
v -0.051100 0.143600 -0.005900
v -0.117500 0.014400 -0.022300
v -0.131400 0.006400 -0.017300
v -0.109500 0.006400 0.054100
v -0.166300 0.006400 -0.092200
v -0.096100 0.019200 0.034700
v -0.065600 0.006400 0.099800
v -0.096100 -0.006300 0.034700
v -0.117500 -0.001400 -0.022300
v -0.051900 0.019200 0.070200
v -0.051900 -0.006300 0.073600
vt 0.992200 0.242200
vt 0.648400 0.316400
vt 0.648400 0.242200
vt 0.992200 0.316400
vt 0.593800 0.476600
vt 0.992200 0.980500
vt 0.992200 0.476600
vt 0.593800 0.996100
vt 0.992200 0.027300
vt 0.546900 0.074200
vt 0.992200 0.054700
vt 0.375000 0.027300
vt 0.375000 0.226600
vt 0.015600 0.226600
vt 0.015600 0.011700
vt 0.648400 0.242200
vt 0.484400 0.242200
vt 0.484400 0.316400
vt 0.648400 0.316400
vt 0.546900 0.226600
vt 0.742200 0.070300
vt 0.984400 0.070300
vt 0.984400 0.125000
vt 0.742200 0.125000
vt 0.726600 0.367200
vt 0.726600 0.328100
vt 0.484400 0.328100
vt 0.484400 0.367200
vt 0.992200 0.367200
vt 0.992200 0.328100
vt 0.726600 0.468800
vt 0.484400 0.468800
vt 0.484400 0.375000
vt 0.726600 0.375000
vt 0.992200 0.468800
vt 0.992200 0.375000
vt 0.500000 0.367200
vt 0.578100 0.347700
vt 0.500000 0.328100
vt 0.726600 0.375000
vt 0.726600 0.324200
vt 0.484400 0.324200
vt 0.484400 0.375000
vt 0.992200 0.375000
vt 0.992200 0.324200
vt 0.289100 0.574200
vt 0.007800 0.695300
vt 0.007800 0.574200
vt 0.289100 0.695300
vt 0.289100 0.793000
vt 0.367200 0.574200
vt 0.468800 0.695300
vt 0.468800 0.574200
vt 0.367200 0.695300
vt 0.468800 0.793000
vt 0.367200 0.793000
vt 0.460900 0.882800
vt 0.375000 0.882800
vt 0.414100 0.992200
vt 0.289100 0.574200
vt 0.289100 0.695300
vt 0.289100 0.793000
vt 0.007800 0.793000
vt 0.257800 0.882800
vt 0.031300 0.882800
vt 0.203100 0.984400
vt 0.289100 0.496100
vt 0.015600 0.496100
vt 0.367200 0.496100
vt 0.468800 0.496100
vt 0.289100 0.496100
vt 0.289100 0.398400
vt 0.031300 0.398400
vt 0.468800 0.398400
vt 0.367200 0.398400
vt 0.468800 0.320300
vt 0.289100 0.398400
vt 0.054700 0.320300
vt 0.273400 0.320300
vt 0.257800 0.882800
vt 0.367200 0.320300
vt 0.421900 0.242200
vt 0.273400 0.320300
vt 0.195300 0.242200
vt 0.304700 0.621100
vt 0.046900 0.695300
vt 0.054700 0.589800
vt 0.304700 0.714800
vt 0.304700 0.808600
vt 0.367200 0.621100
vt 0.468800 0.714800
vt 0.468800 0.621100
vt 0.367200 0.714800
vt 0.468800 0.808600
vt 0.367200 0.808600
vt 0.460900 0.898400
vt 0.375000 0.898400
vt 0.421900 0.992200
vt 0.304700 0.621100
vt 0.304700 0.714800
vt 0.304700 0.808600
vt 0.054700 0.828100
vt 0.304700 0.898400
vt 0.101600 0.918000
vt 0.203100 0.988300
vt 0.304700 0.535200
vt 0.093800 0.472700
vt 0.468800 0.539100
vt 0.367200 0.539100
vt 0.460900 0.445300
vt 0.304700 0.535200
vt 0.289100 0.445300
vt 0.304700 0.898400
vt 0.375000 0.445300
vt 0.414100 0.324200
vt 0.289100 0.445300
vt 0.195300 0.324200
vt 0.054700 0.710900
vt 0.078100 0.570300
vt 0.304700 0.570300
vt 0.328100 0.710900
vt 0.367200 0.570300
vt 0.468800 0.710900
vt 0.367200 0.710900
vt 0.468800 0.570300
vt 0.414100 0.398400
vt 0.304700 0.570300
vt 0.328100 0.710900
vt 0.195300 0.394500
vt 0.054700 0.863300
vt 0.328100 0.863300
vt 0.468800 0.863300
vt 0.367200 0.863300
vt 0.328100 0.863300
vt 0.054700 0.992200
vt 0.328100 0.992200
vt 0.468800 0.992200
vt 0.367200 0.992200
vt 0.328100 0.992200
vt 0.648400 0.316400
vt 0.992200 0.316400
vt 0.593800 0.476600
vt 0.593800 0.996100
vt 0.992200 0.027300
vt 0.992200 0.054700
vt 0.546900 0.074200
vt 0.375000 0.027300
vt 0.375000 0.226600
vt 0.546900 0.226600
vt 0.484400 0.316400
vt 0.648400 0.316400
vt 0.984400 0.125000
vt 0.742200 0.125000
vt 0.726600 0.367200
vt 0.484400 0.328100
vt 0.726600 0.328100
vt 0.484400 0.367200
vt 0.726600 0.468800
vt 0.484400 0.375000
vt 0.484400 0.468800
vt 0.726600 0.375000
vt 0.578100 0.347700
vt 0.500000 0.367200
vt 0.500000 0.328100
vt 0.726600 0.375000
vt 0.484400 0.324200
vt 0.726600 0.324200
vt 0.484400 0.375000
vt 0.007800 0.695300
vt 0.289100 0.574200
vt 0.007800 0.574200
vt 0.289100 0.695300
vt 0.289100 0.793000
vt 0.468800 0.695300
vt 0.367200 0.574200
vt 0.468800 0.574200
vt 0.367200 0.695300
vt 0.468800 0.793000
vt 0.367200 0.793000
vt 0.460900 0.882800
vt 0.375000 0.882800
vt 0.414100 0.992200
vt 0.289100 0.574200
vt 0.289100 0.496100
vt 0.289100 0.695300
vt 0.289100 0.496100
vt 0.015600 0.496100
vt 0.367200 0.496100
vt 0.468800 0.496100
vt 0.031300 0.398400
vt 0.289100 0.398400
vt 0.054700 0.320300
vt 0.367200 0.398400
vt 0.468800 0.398400
vt 0.289100 0.398400
vt 0.031300 0.882800
vt 0.203100 0.984400
vt 0.257800 0.882800
vt 0.257800 0.882800
vt 0.007800 0.793000
vt 0.289100 0.793000
vt 0.468800 0.320300
vt 0.367200 0.320300
vt 0.421900 0.242200
vt 0.273400 0.320300
vt 0.195300 0.242200
vt 0.273400 0.320300
vt 0.046900 0.695300
vt 0.304700 0.621100
vt 0.054700 0.589800
vt 0.304700 0.714800
vt 0.304700 0.808600
vt 0.468800 0.714800
vt 0.367200 0.621100
vt 0.468800 0.621100
vt 0.367200 0.714800
vt 0.468800 0.808600
vt 0.367200 0.808600
vt 0.460900 0.898400
vt 0.375000 0.898400
vt 0.421900 0.992200
vt 0.304700 0.621100
vt 0.093800 0.472700
vt 0.304700 0.714800
vt 0.304700 0.535200
vt 0.289100 0.445300
vt 0.367200 0.539100
vt 0.468800 0.539100
vt 0.304700 0.535200
vt 0.289100 0.445300
vt 0.101600 0.918000
vt 0.203100 0.988300
vt 0.304700 0.898400
vt 0.054700 0.828100
vt 0.304700 0.898400
vt 0.304700 0.808600
vt 0.460900 0.445300
vt 0.375000 0.445300
vt 0.414100 0.324200
vt 0.195300 0.324200
vt 0.304700 0.570300
vt 0.078100 0.570300
vt 0.054700 0.710900
vt 0.195300 0.394500
vt 0.328100 0.710900
vt 0.054700 0.863300
vt 0.468800 0.710900
vt 0.367200 0.570300
vt 0.367200 0.710900
vt 0.468800 0.570300
vt 0.414100 0.398400
vt 0.304700 0.570300
vt 0.328100 0.710900
vt 0.328100 0.863300
vt 0.468800 0.863300
vt 0.367200 0.863300
vt 0.328100 0.863300
vn -0.0002 -0.9992 -0.0412
vn 0.7394 -0.4417 -0.5081
vn -0.0000 -0.7212 -0.6928
vn 0.6396 -0.7592 -0.1206
vn 0.6871 0.5472 0.4780
vn 0.0002 1.0000 -0.0084
vn -0.0000 0.7129 0.7013
vn 0.8797 0.4650 -0.0990
vn 0.8421 -0.3891 0.3735
vn 0.0000 -0.7155 0.6986
vn -0.0000 -0.5018 -0.8650
vn 0.3297 -0.8526 -0.4054
vn -0.2386 -0.7801 0.5784
vn -0.0096 0.0018 -1.0000
vn 0.5544 -0.3047 -0.7744
vn 0.2460 -0.6143 0.7497
vn -0.0006 -0.9854 0.1702
vn 0.0000 0.0000 -1.0000
vn 0.2504 0.7749 0.5804
vn 0.8420 0.2599 0.4727
vn 0.0001 0.8147 0.5799
vn -0.8551 -0.3784 -0.3543
vn 0.1327 -0.0185 0.9910
vn 0.0924 0.6727 0.7341
vn -0.7348 -0.0838 -0.6731
vn -0.9553 0.1207 -0.2700
vn 0.7035 -0.2370 -0.6700
vn 0.4814 0.0729 -0.8735
vn 0.7491 0.4134 -0.5176
vn -0.6889 0.6736 -0.2677
vn 0.9182 0.2236 -0.3271
vn -0.1928 0.3658 -0.9105
vn 0.5580 -0.7388 0.3779
vn -0.4186 -0.8941 0.1591
vn -0.9219 -0.3836 -0.0552
vn 0.0525 0.9197 0.3890
vn 0.8486 -0.3048 -0.4324
vn -0.9609 -0.2628 -0.0868
vn 0.0481 0.9069 0.4185
vn 0.6182 -0.5510 -0.5606
vn -0.7342 -0.2500 -0.6312
vn 0.1017 0.6430 0.7591
vn 0.6890 -0.0866 -0.7195
vn -0.1793 0.3415 -0.9226
vn -0.8659 -0.2425 0.4374
vn 0.7061 0.1403 0.6941
vn 0.4692 0.7531 0.4612
vn -0.9801 -0.1713 -0.1002
vn -0.9642 0.1729 0.2010
vn 0.3805 -0.1404 -0.9141
vn -0.0979 -0.0027 -0.9952
vn 0.2725 0.3579 -0.8931
vn -0.8435 0.4156 0.3404
vn 0.5528 0.2285 -0.8014
vn -0.6531 0.2472 -0.7158
vn 0.4865 -0.7399 0.4646
vn 0.0937 -0.9931 0.0707
vn -0.9291 -0.2790 0.2429
vn 0.4404 0.7826 0.4399
vn -0.1155 -0.5163 -0.8486
vn -0.9764 -0.1823 -0.1155
vn 0.1749 -0.0469 -0.9835
vn -0.6350 0.3683 -0.6791
vn 0.9118 -0.0017 0.4107
vn 0.9337 -0.0053 0.3581
vn -0.4165 0.8693 -0.2661
vn -0.3626 0.8529 -0.3755
vn -0.4491 -0.8650 -0.2237
vn -0.1181 -0.9787 -0.1679
vn 0.2588 -0.0293 -0.9655
vn 0.5655 0.0102 0.8247
vn -0.1744 0.8129 -0.5557
vn -0.2869 -0.8597 -0.4227
vn -0.0000 0.0084 1.0000
vn -0.0000 0.8246 -0.5658
vn -0.0000 -0.5496 -0.8354
vn -0.7396 -0.4421 -0.5075
vn -0.6400 -0.7591 -0.1195
vn -0.6871 0.5467 0.4785
vn -0.8802 0.4645 -0.0976
vn -0.8420 -0.3892 0.3735
vn -0.3297 -0.8526 -0.4055
vn 0.2388 -0.7798 0.5787
vn -0.5525 -0.3043 -0.7760
vn 0.0082 0.0019 -1.0000
vn -0.2462 -0.6154 0.7488
vn -0.2503 0.7748 0.5805
vn -0.8440 0.2609 0.4687
vn -0.1339 -0.0181 0.9908
vn 0.8563 -0.3767 -0.3534
vn -0.0926 0.6736 0.7333
vn 0.7386 -0.0852 -0.6688
vn 0.9559 0.1206 -0.2677
vn -0.7011 -0.2387 -0.6719
vn -0.4778 0.0745 -0.8753
vn -0.7461 0.4169 -0.5192
vn 0.6917 0.6712 -0.2665
vn -0.9175 0.2254 -0.3277
vn 0.2050 0.3683 -0.9068
vn -0.8477 -0.3062 -0.4332
vn 0.9216 -0.3839 -0.0565
vn -0.0542 0.9197 0.3888
vn -0.0510 0.9058 0.4206
vn 0.9606 -0.2647 -0.0843
vn -0.1035 0.6425 0.7593
vn -0.6188 -0.5497 -0.5612
vn 0.4194 -0.8938 0.1590
vn -0.5605 -0.7375 0.3767
vn 0.7379 -0.2497 -0.6271
vn -0.6848 -0.0887 -0.7233
vn 0.2023 0.3421 -0.9176
vn -0.7073 0.1404 0.6928
vn 0.8653 -0.2399 0.4401
vn -0.4707 0.7525 0.4606
vn 0.9811 -0.1684 -0.0957
vn 0.9639 0.1710 0.2040
vn -0.3809 -0.1419 -0.9137
vn 0.1009 -0.0015 -0.9949
vn -0.2724 0.3576 -0.8933
vn 0.8444 0.4145 0.3395
vn -0.5528 0.2291 -0.8012
vn 0.6492 0.2386 -0.7222
vn -0.4441 0.7821 0.4372
vn 0.9295 -0.2709 0.2502
vn 0.9792 -0.1755 -0.1017
vn 0.1239 -0.5159 -0.8477
vn -0.1607 -0.0462 -0.9859
vn -0.0948 -0.9931 0.0691
vn -0.4864 -0.7395 0.4654
vn 0.6594 0.3677 -0.6557
vn 0.4182 0.8683 -0.2668
vn -0.9334 -0.0053 0.3588
vn -0.9114 -0.0027 0.4115
vn -0.2130 -0.0282 -0.9767
vn 0.3632 0.8527 -0.3755
vn -0.5650 0.0102 0.8251
vn 0.4496 -0.8647 -0.2239
vn 0.1213 -0.9781 -0.1694
vn 0.1744 0.8129 -0.5557
vn 0.2870 -0.8597 -0.4227
usemtl TEX_w2dkn03

f 1/1/1 2/2/2 3/3/3
f 2/2/2 1/1/1 4/4/4
f 5/5/5 6/6/6 7/7/7
f 6/6/6 5/5/5 8/8/8
f 8/9/8 2/10/2 4/11/4
f 2/10/2 8/9/8 5/12/5
f 9/13/9 2/10/2 5/12/5
f 10/14/10 5/12/5 7/15/7
f 5/12/5 10/14/10 9/13/9
f 11/16/11 3/17/3 2/18/2
f 2/18/2 12/19/12 11/16/11
f 12/20/12 2/10/2 9/13/9
f 10/21/10 11/22/11 12/23/12
f 12/23/12 9/24/9 10/21/10
f 13/25/13 14/26/14 15/27/15
f 15/27/15 16/28/16 13/25/13
f 17/29/17 18/30/18 14/26/14
f 14/26/14 13/25/13 17/29/17
f 19/31/19 20/32/20 15/33/15
f 15/33/15 14/34/14 19/31/19
f 21/35/21 19/31/19 14/34/14
f 14/34/14 18/36/18 21/35/21
f 16/37/16 15/38/15 20/39/20
f 19/40/19 13/41/13 16/42/16
f 16/42/16 20/43/20 19/40/19
f 21/44/21 17/45/17 13/41/13
f 13/41/13 19/40/19 21/44/21
f 22/46/22 23/47/23 24/48/24
f 25/49/25 23/47/23 22/46/22
f 23/47/23 25/49/25 26/50/26
f 27/51/27 25/52/25 22/53/22
f 28/54/28 25/52/25 27/51/27
f 25/52/25 28/54/28 26/55/26
f 29/56/29 26/55/26 28/54/28
f 26/55/26 29/56/29 30/57/30
f 31/58/31 30/57/30 29/56/29
f 30/57/30 31/58/31 32/59/32
f 24/48/24 23/47/23 27/60/27
f 23/47/23 28/61/28 27/60/27
f 28/61/28 23/47/23 29/62/29
f 33/63/33 29/62/29 23/47/23
f 29/62/29 33/63/33 31/64/31
f 34/65/34 31/64/31 33/63/33
f 31/64/31 34/65/34 32/66/32
f 35/67/35 24/48/24 36/68/36
f 22/46/22 24/48/24 35/67/35
f 37/69/37 22/53/22 35/70/35
f 27/51/27 22/53/22 37/69/37
f 36/68/36 24/48/24 37/71/37
f 24/48/24 27/60/27 37/71/37
f 38/72/38 35/67/35 39/73/39
f 35/67/35 36/68/36 39/73/39
f 38/74/38 40/75/40 35/70/35
f 40/75/40 38/74/38 41/76/41
f 37/69/37 35/70/35 40/75/40
f 39/73/39 37/71/37 40/77/40
f 36/68/36 37/71/37 39/73/39
f 42/78/42 39/73/39 40/77/40
f 40/77/40 43/79/43 42/78/42
f 30/80/30 32/66/32 34/65/34
f 26/50/26 34/65/34 33/63/33
f 30/80/30 34/65/34 26/50/26
f 26/50/26 33/63/33 23/47/23
f 43/81/43 41/76/41 44/82/44
f 41/83/41 38/72/38 42/78/42
f 41/83/41 42/78/42 44/84/44
f 42/78/42 43/79/43 44/84/44
f 40/75/40 41/76/41 43/81/43
f 38/72/38 39/73/39 42/78/42
f 45/85/45 46/86/46 47/87/47
f 48/88/48 46/86/46 45/85/45
f 46/86/46 48/88/48 49/89/49
f 50/90/50 48/91/48 45/92/45
f 51/93/51 48/91/48 50/90/50
f 48/91/48 51/93/51 49/94/49
f 52/95/52 49/94/49 51/93/51
f 49/94/49 52/95/52 53/96/53
f 54/97/54 53/96/53 52/95/52
f 53/96/53 54/97/54 55/98/55
f 47/87/47 46/86/46 50/99/50
f 46/86/46 51/100/51 50/99/50
f 51/100/51 46/86/46 52/101/52
f 56/102/56 52/101/52 46/86/46
f 52/101/52 56/102/56 54/103/54
f 57/104/57 54/103/54 56/102/56
f 54/103/54 57/104/57 55/105/55
f 58/106/58 45/85/45 59/107/59
f 45/85/45 47/87/47 59/107/59
f 58/108/58 60/109/60 45/92/45
f 60/109/60 58/108/58 61/110/61
f 50/90/50 45/92/45 60/109/60
f 60/111/60 59/107/59 50/99/50
f 59/107/59 60/111/60 62/112/62
f 47/87/47 50/99/50 59/107/59
f 53/113/53 55/105/55 57/104/57
f 49/89/49 53/113/53 56/102/56
f 53/113/53 57/104/57 56/102/56
f 49/89/49 56/102/56 46/86/46
f 62/114/62 61/110/61 63/115/63
f 61/116/61 59/107/59 63/117/63
f 59/107/59 62/112/62 63/117/63
f 60/109/60 61/110/61 62/114/62
f 58/106/58 59/107/59 61/116/61
f 64/118/64 65/119/65 66/120/66
f 66/120/66 67/121/67 64/118/64
f 66/122/66 68/123/68 67/124/67
f 68/123/68 66/122/66 69/125/69
f 70/126/70 69/125/69 66/122/66
f 69/127/69 64/118/64 68/128/68
f 64/118/64 69/127/69 65/119/65
f 70/129/70 65/119/65 69/127/69
f 71/130/71 64/118/64 67/121/67
f 67/121/67 72/131/72 71/130/71
f 67/124/67 73/132/73 72/133/72
f 73/132/73 67/124/67 68/123/68
f 68/128/68 71/130/71 73/134/73
f 71/130/71 68/128/68 64/118/64
f 74/135/74 71/130/71 72/131/72
f 72/131/72 75/136/75 74/135/74
f 72/133/72 76/137/76 75/138/75
f 76/137/76 72/133/72 73/132/73
f 73/134/73 74/135/74 76/139/76
f 74/135/74 73/134/73 71/130/71
f 70/129/70 66/120/66 65/119/65
f 77/140/77 1/1/1 3/3/3
f 1/1/1 77/140/77 78/141/78
f 6/6/6 79/142/79 7/7/7
f 79/142/79 6/6/6 80/143/80
f 80/144/80 78/145/78 77/146/77
f 77/146/77 79/147/79 80/144/80
f 77/146/77 81/148/81 79/147/79
f 81/148/81 77/146/77 82/149/82
f 79/147/79 10/14/10 7/15/7
f 10/14/10 79/147/79 81/148/81
f 11/16/11 77/150/77 3/17/3
f 77/150/77 11/16/11 82/151/82
f 10/21/10 82/152/82 11/22/11
f 82/152/82 10/21/10 81/153/81
f 83/154/83 84/155/84 85/156/85
f 85/156/85 17/29/17 83/154/83
f 83/154/83 86/157/86 84/155/84
f 85/156/85 18/30/18 17/29/17
f 87/158/87 84/159/84 88/160/88
f 84/159/84 87/158/87 85/161/85
f 21/35/21 85/161/85 87/158/87
f 85/161/85 21/35/21 18/36/18
f 84/162/84 86/163/86 88/164/88
f 87/165/87 86/166/86 83/167/83
f 83/167/83 21/44/21 87/165/87
f 87/165/87 88/168/88 86/166/86
f 83/167/83 17/45/17 21/44/21
f 89/169/89 90/170/90 91/171/91
f 90/170/90 89/169/89 92/172/92
f 93/173/93 92/172/92 89/169/89
f 92/174/92 94/175/94 90/176/90
f 94/175/94 92/174/92 95/177/95
f 93/178/93 95/177/95 92/174/92
f 95/177/95 93/178/93 96/179/96
f 97/180/97 96/179/96 93/178/93
f 96/179/96 97/180/97 98/181/98
f 99/182/99 98/181/98 97/180/97
f 94/183/94 89/169/89 91/171/91
f 91/171/91 100/184/100 94/183/94
f 95/185/95 89/169/89 94/183/94
f 91/171/91 101/186/101 102/187/102
f 101/186/101 91/171/91 90/170/90
f 90/176/90 100/188/100 101/189/101
f 100/188/100 90/176/90 94/175/94
f 100/184/100 91/171/91 102/187/102
f 102/187/102 103/190/103 100/184/100
f 103/190/103 101/186/101 104/191/104
f 104/191/104 105/192/105 103/190/103
f 102/187/102 101/186/101 103/190/103
f 101/189/101 106/193/106 104/194/104
f 106/193/106 101/189/101 100/188/100
f 106/195/106 100/184/100 103/190/103
f 103/190/103 105/192/105 106/195/106
f 107/196/107 99/197/99 97/198/97
f 97/198/97 93/173/93 107/196/107
f 98/199/98 99/197/99 107/196/107
f 107/196/107 108/200/108 98/199/98
f 108/200/108 107/196/107 93/173/93
f 93/173/93 89/169/89 108/200/108
f 96/201/96 98/199/98 108/200/108
f 108/200/108 89/169/89 96/201/96
f 96/201/96 89/169/89 95/185/95
f 109/202/109 110/203/110 111/204/111
f 110/203/110 109/202/109 106/193/106
f 105/192/105 104/191/104 109/205/109
f 109/205/109 111/206/111 105/192/105
f 109/202/109 104/194/104 106/193/106
f 110/207/110 105/192/105 111/206/111
f 106/195/106 105/192/105 110/207/110
f 112/208/112 113/209/113 114/210/114
f 113/209/113 112/208/112 115/211/115
f 116/212/116 115/211/115 112/208/112
f 115/213/115 117/214/117 113/215/113
f 117/214/117 115/213/115 118/216/118
f 116/217/116 118/216/118 115/213/115
f 118/216/118 116/217/116 119/218/119
f 120/219/120 119/218/119 116/217/116
f 119/218/119 120/219/120 121/220/121
f 122/221/122 121/220/121 120/219/120
f 117/222/117 112/208/112 114/210/114
f 114/210/114 123/223/123 117/222/117
f 118/224/118 112/208/112 117/222/117
f 123/223/123 113/209/113 124/225/124
f 124/225/124 125/226/125 123/223/123
f 114/210/114 113/209/113 123/223/123
f 113/215/113 126/227/126 124/228/124
f 126/227/126 113/215/113 117/214/117
f 126/229/126 117/222/117 123/223/123
f 123/223/123 127/230/127 126/229/126
f 128/231/128 122/232/122 120/233/120
f 120/233/120 129/234/129 128/231/128
f 121/235/121 122/232/122 128/231/128
f 128/231/128 129/234/129 121/235/121
f 129/234/129 120/233/120 116/212/116
f 116/212/116 112/208/112 129/234/129
f 119/236/119 121/235/121 129/234/129
f 129/234/129 112/208/112 119/236/119
f 119/236/119 112/208/112 118/224/118
f 125/237/125 127/238/127 130/239/130
f 127/238/127 125/237/125 126/227/126
f 125/237/125 124/228/124 126/227/126
f 123/223/123 125/226/125 130/240/130
f 127/230/127 123/223/123 130/240/130
f 131/241/131 132/242/132 133/243/133
f 132/242/132 131/241/131 134/244/134
f 135/245/135 131/241/131 133/243/133
f 133/243/133 136/246/136 135/245/135
f 137/247/137 131/248/131 135/249/135
f 138/250/138 131/248/131 137/247/137
f 131/248/131 138/250/138 134/251/134
f 133/243/133 138/252/138 137/253/137
f 132/242/132 138/252/138 133/243/133
f 138/252/138 132/242/132 134/244/134
f 139/254/139 135/245/135 136/246/136
f 136/246/136 74/135/74 139/254/139
f 140/255/140 135/249/135 139/256/139
f 137/247/137 135/249/135 140/255/140
f 136/246/136 137/253/137 140/257/140
f 133/243/133 137/253/137 136/246/136
f 139/254/139 74/135/74 75/136/75
f 76/137/76 139/256/139 75/138/75
f 140/255/140 139/256/139 76/137/76
f 74/135/74 140/257/140 76/139/76
f 136/246/136 140/257/140 74/135/74
