# Blender v2.79 (sub 0) OBJ File: ''
# www.blender.org
mtllib tribalgrappler07l.mtl
o MDL_w2dkn07l_bod00
v 0.018000 -0.000000 0.079200
v 0.012700 -0.045300 0.079200
v -0.004200 -0.000000 0.053600
v 0.035900 -0.000000 0.109800
v 0.012700 0.045500 0.079200
v 0.029500 -0.035600 0.119700
v 0.018900 -0.067700 0.114200
v -0.018400 -0.057800 0.053400
v 0.002800 -0.068100 -0.034100
v -0.063900 -0.069400 0.083300
v -0.016200 -0.077300 0.091700
v 0.006900 0.000000 -0.087700
v -0.000300 -0.022300 -0.126200
v 0.009700 0.000000 -0.032500
v 0.002800 0.068300 -0.034100
v -0.018400 0.057800 0.053400
v 0.006700 -0.064500 0.083600
v 0.008100 -0.080300 0.125800
v -0.113800 -0.000000 0.117000
v -0.134200 0.000000 -0.005800
v -0.104200 -0.037300 0.110200
v -0.089200 -0.000000 0.165800
v -0.117000 -0.047000 -0.032000
v -0.062700 -0.080900 -0.037000
v -0.102200 -0.059100 -0.091900
v -0.080900 -0.041100 0.155000
v -0.060500 -0.074500 0.131200
v -0.042000 -0.000000 0.197300
v -0.035200 -0.042200 0.186300
v -0.014700 -0.019500 0.220600
v -0.002500 -0.039400 0.203600
v 0.022500 -0.018800 0.225300
v 0.028100 -0.037700 0.212800
v -0.011100 -0.053600 -0.119800
v -0.020600 -0.075500 0.164500
v -0.013000 -0.059500 0.195800
v 0.059100 -0.018300 0.204800
v 0.075000 -0.027300 0.173300
v 0.075600 -0.010600 0.175500
v 0.027300 -0.000000 0.217300
v 0.064100 -0.000000 0.166400
v 0.018900 -0.057300 0.198000
v 0.023400 -0.071900 0.183300
v 0.043400 -0.056100 0.183400
v 0.059100 -0.065900 0.154400
v 0.061700 -0.048300 0.157500
v 0.025500 -0.041100 0.192200
v 0.055800 -0.039400 0.155300
v 0.050600 -0.057000 0.132500
v 0.038800 -0.078700 0.145300
v 0.065600 -0.019500 0.145600
v 0.041100 -0.000000 0.132700
v -0.007000 -0.000000 0.210500
v 0.004800 -0.040500 0.196300
v 0.093900 -0.016700 0.190600
v 0.077300 -0.055000 0.170800
v -0.134500 -0.005800 -0.044700
v -0.135600 0.000000 -0.040900
v -0.102800 -0.026200 -0.128700
v -0.063900 -0.066400 -0.096200
v -0.119400 -0.033800 -0.121900
v -0.129200 -0.027300 -0.088300
v -0.015000 -0.020900 -0.123600
v -0.011900 0.000000 -0.087700
v -0.055200 -0.049200 -0.107500
v -0.023000 -0.040500 -0.119800
v -0.049200 0.000000 -0.058900
v -0.096200 0.000000 -0.129700
v 0.030500 0.037200 0.120600
v 0.065600 0.019700 0.145600
v 0.075600 0.010600 0.175500
v -0.000300 0.022300 -0.126200
v -0.011100 0.053600 -0.119800
v -0.016200 0.077300 0.091700
v 0.006700 0.064500 0.083600
v -0.063900 0.069500 0.083300
v -0.062700 0.081100 -0.037000
v -0.063900 0.066600 -0.096200
v 0.018800 0.067700 0.114100
v 0.010000 0.080500 0.127700
v -0.104200 0.037500 0.110200
v -0.117000 0.047200 -0.032000
v -0.102200 0.059100 -0.091900
v -0.080900 0.041300 0.155000
v -0.035200 0.042200 0.186300
v -0.014700 0.019700 0.220600
v -0.002500 0.039500 0.203600
v 0.022500 0.018800 0.225300
v -0.060500 0.074500 0.131200
v -0.020600 0.075600 0.164500
v 0.059100 0.018300 0.204800
v 0.028100 0.037700 0.212800
v 0.075000 0.027500 0.173300
v 0.055800 0.039500 0.155300
v 0.004800 0.040500 0.196300
v 0.025500 0.041100 0.192200
v 0.043400 0.056200 0.183400
v 0.023400 0.071900 0.183300
v 0.018900 0.057500 0.198000
v 0.061700 0.048400 0.157500
v 0.059100 0.066100 0.154400
v 0.038800 0.078700 0.145300
v 0.050600 0.057200 0.132500
v -0.013000 0.059700 0.195800
v 0.093900 0.016700 0.190600
v 0.077300 0.055000 0.170800
v -0.134500 0.005900 -0.044700
v -0.129200 0.027500 -0.088300
v -0.102800 0.026400 -0.128700
v -0.119400 0.033900 -0.121900
v -0.015000 0.021100 -0.123600
v -0.023000 0.040600 -0.119800
v -0.055200 0.049400 -0.107500
v -0.147800 -0.022800 -0.126200
v -0.147500 -0.018600 -0.091400
v -0.158400 0.000000 -0.128000
v -0.155000 0.000000 -0.092700
v -0.133100 -0.011600 -0.154500
v -0.114800 -0.018000 -0.151400
v -0.111900 0.000000 -0.159200
v -0.140600 0.000000 -0.155800
v -0.147800 0.023000 -0.126200
v -0.147500 0.018800 -0.091400
v -0.133100 0.011700 -0.154500
v -0.114800 0.018100 -0.151400
vt 0.992200 0.285200
vt 0.734400 0.300800
vt 0.992200 0.421900
vt 0.992200 0.214800
vt 0.734400 0.300800
vt 0.789100 0.214800
vt 0.609400 0.234400
vt 0.640600 0.421900
vt 0.609400 0.601600
vt 0.445300 0.418000
vt 0.539100 0.328100
vt 0.992200 0.691400
vt 0.867200 0.773400
vt 0.992200 0.601600
vt 0.609400 0.601600
vt 0.640600 0.421900
vt 0.632800 0.312500
vt 0.539100 0.238300
vt 0.007800 0.414100
vt 0.007800 0.515600
vt 0.203100 0.418000
vt 0.007800 0.312500
vt 0.250000 0.605500
vt 0.429700 0.609400
vt 0.289100 0.734400
vt 0.210900 0.320300
vt 0.414100 0.328100
vt 0.007800 0.179700
vt 0.234400 0.191400
vt 0.101600 0.113300
vt 0.187500 0.109400
vt 0.101600 0.078100
vt 0.171900 0.058600
vt 0.609400 0.761700
vt 0.421900 0.207000
vt 0.320300 0.140600
vt 0.101600 0.027300
vt 0.156300 0.003900
vt 0.062500 0.003900
vt 0.007800 0.062500
vt 0.015600 0.003900
vt 0.343800 0.105500
vt 0.421900 0.132800
vt 0.359400 0.070300
vt 0.617200 0.070300
vt 0.312500 0.039100
vt 0.289100 0.074200
vt 0.242200 0.003900
vt 0.789100 0.070300
vt 0.687500 0.136700
vt 0.546900 0.136700
vt 0.734400 0.058600
vt 0.890600 0.097700
vt 0.992200 0.171900
vt 0.992200 0.058600
vt 0.843800 0.027300
vt 0.945300 0.027300
vt 0.007800 0.117200
vt 0.250000 0.109400
vt 0.453100 0.964800
vt 0.453100 0.906300
vt 0.343800 0.929700
vt 0.453100 0.890600
vt 0.453100 0.843800
vt 0.250000 0.843800
vt 0.453100 0.800800
vt 0.453100 0.964800
vt 0.453100 0.906300
vt 0.343800 0.929700
vt 0.453100 0.890600
vt 0.453100 0.843800
vt 0.250000 0.843800
vt 0.453100 0.800800
vt 0.046900 0.648400
vt 0.007800 0.636700
vt 0.085900 0.851600
vt 0.007800 0.894500
vt 0.023400 0.847700
vt 0.429700 0.765600
vt 0.187500 0.800800
vt 0.132800 0.726600
vt 0.085900 0.964800
vt 0.031300 0.964800
vt 0.007800 0.937500
vt 0.031300 0.996100
vt 0.093800 0.996100
vt 0.085900 0.894500
vt 0.109400 0.937500
vt 0.367200 0.996100
vt 0.203100 0.875000
vt 0.789100 0.214800
vt 0.890600 0.097700
vt 0.945300 0.027300
vt 0.867200 0.773400
vt 0.609400 0.761700
vt 0.539100 0.328100
vt 0.632800 0.312500
vt 0.445300 0.418000
vt 0.429700 0.609400
vt 0.429700 0.765600
vt 0.609400 0.234400
vt 0.539100 0.238300
vt 0.203100 0.418000
vt 0.250000 0.605500
vt 0.289100 0.734400
vt 0.210900 0.320300
vt 0.234400 0.191400
vt 0.101600 0.113300
vt 0.187500 0.109400
vt 0.101600 0.078100
vt 0.414100 0.328100
vt 0.421900 0.207000
vt 0.101600 0.027300
vt 0.171900 0.058600
vt 0.062500 0.003900
vt 0.156300 0.003900
vt 0.242200 0.003900
vt 0.250000 0.109400
vt 0.289100 0.074200
vt 0.359400 0.070300
vt 0.421900 0.132800
vt 0.343800 0.105500
vt 0.312500 0.039100
vt 0.617200 0.070300
vt 0.546900 0.136700
vt 0.687500 0.136700
vt 0.789100 0.070300
vt 0.734400 0.058600
vt 0.320300 0.140600
vt 0.843800 0.027300
vt 0.453100 0.906300
vt 0.453100 0.964800
vt 0.343800 0.929700
vt 0.453100 0.843800
vt 0.453100 0.890600
vt 0.250000 0.843800
vt 0.453100 0.800800
vt 0.453100 0.906300
vt 0.453100 0.964800
vt 0.343800 0.929700
vt 0.453100 0.843800
vt 0.453100 0.890600
vt 0.250000 0.843800
vt 0.453100 0.800800
vt 0.046900 0.648400
vt 0.132800 0.726600
vt 0.007800 0.894500
vt 0.085900 0.851600
vt 0.023400 0.847700
vt 0.187500 0.800800
vt 0.031300 0.964800
vt 0.085900 0.964800
vt 0.007800 0.937500
vt 0.109400 0.937500
vt 0.085900 0.894500
vt 0.742200 0.949200
vt 0.757800 0.996100
vt 0.617200 0.980500
vt 0.625000 0.945300
vt 0.742200 0.894500
vt 0.625000 0.894500
vt 0.859400 0.929700
vt 0.906300 0.953100
vt 0.898400 0.894500
vt 0.859400 0.894500
vt 0.984400 0.894500
vt 0.976600 0.984400
vt 0.476600 0.925800
vt 0.468800 0.894500
vt 0.609400 0.804700
vt 0.757800 0.796900
vt 0.742200 0.839800
vt 0.625000 0.843800
vt 0.859400 0.859400
vt 0.906300 0.832000
vt 0.976600 0.800800
vt 0.476600 0.863300
vn 0.8151 -0.0002 -0.5793
vn 0.8039 -0.2403 -0.5440
vn 0.9572 -0.0002 -0.2893
vn 0.9406 -0.0093 -0.3394
vn 0.8006 0.2425 -0.5479
vn 0.8235 -0.1212 -0.5542
vn 0.6247 -0.5845 -0.5179
vn 0.6277 -0.7585 -0.1754
vn 0.7330 -0.6801 0.0065
vn -0.3331 -0.9420 -0.0412
vn 0.0996 -0.9586 -0.2668
vn 0.9410 -0.0001 -0.3384
vn 0.5487 0.2289 -0.8041
vn 0.9984 -0.0001 0.0558
vn 0.7329 0.6803 0.0062
vn 0.6292 0.7574 -0.1743
vn 0.6195 -0.6405 -0.4539
vn 0.1478 -0.9720 -0.1824
vn -0.9480 -0.0007 0.3183
vn -0.9946 -0.0008 0.1039
vn -0.8201 -0.5299 0.2161
vn -0.7444 -0.0007 0.6677
vn -0.7577 -0.6491 0.0681
vn -0.1485 -0.9886 -0.0253
vn -0.4820 -0.8373 -0.2582
vn -0.6727 -0.4838 0.5599
vn -0.4210 -0.8858 0.1951
vn -0.6086 -0.0003 0.7935
vn -0.5276 -0.4643 0.7114
vn -0.3605 -0.1273 0.9241
vn -0.1071 -0.8755 0.4712
vn 0.1064 -0.0917 0.9901
vn 0.1870 -0.7961 0.5755
vn 0.3541 -0.6156 -0.7040
vn -0.2630 -0.8991 0.3499
vn -0.3289 -0.4255 0.8431
vn 0.6670 -0.0233 0.7447
vn 0.7591 -0.6393 -0.1227
vn 0.7493 0.6451 -0.1498
vn 0.2832 0.0000 0.9591
vn 0.9788 0.0014 -0.2050
vn 0.2225 -0.2672 0.9376
vn 0.2054 -0.8375 0.5063
vn 0.6370 -0.1434 0.7574
vn 0.7362 -0.6625 -0.1383
vn 0.8312 0.5331 -0.1578
vn 0.3349 0.6948 0.6364
vn 0.9604 -0.1958 -0.1983
vn 0.7571 -0.1185 -0.6424
vn 0.3840 -0.9132 -0.1363
vn 0.8053 -0.0179 -0.5926
vn 0.8070 -0.0012 -0.5906
vn -0.2417 0.0018 0.9704
vn 0.0013 -0.6516 0.7586
vn 0.9444 0.0709 0.3211
vn 0.9412 0.0509 0.3340
vn -0.9036 -0.3887 0.1799
vn -0.9896 -0.0021 0.1439
vn 0.5022 -0.4817 -0.7182
vn -0.0529 -0.8613 -0.5053
vn -0.2775 -0.8786 -0.3887
vn -0.6515 -0.7537 0.0864
vn -0.5176 0.4631 -0.7195
vn -0.5246 0.0007 -0.8513
vn -0.0190 -0.0314 -0.9993
vn -0.4424 0.0920 -0.8921
vn 0.0453 0.0008 -0.9990
vn 0.8467 -0.0008 -0.5321
vn 0.8141 0.1108 -0.5700
vn 0.8062 0.0178 -0.5914
vn 0.7493 -0.6450 -0.1503
vn 0.5470 -0.2314 -0.8045
vn 0.3548 0.6148 -0.7044
vn 0.1000 0.9585 -0.2671
vn 0.6188 0.6418 -0.4530
vn -0.3312 0.9427 -0.0399
vn -0.1485 0.9886 -0.0259
vn -0.0531 0.8618 -0.5045
vn 0.6248 0.5883 -0.5134
vn 0.1485 0.9722 -0.1812
vn -0.8200 0.5300 0.2163
vn -0.7578 0.6490 0.0676
vn -0.4829 0.8370 -0.2574
vn -0.6724 0.4842 0.5598
vn -0.5278 0.4635 0.7117
vn -0.3606 0.1314 0.9234
vn -0.1045 0.8784 0.4663
vn 0.1069 0.0912 0.9901
vn -0.4203 0.8863 0.1944
vn -0.2630 0.8994 0.3492
vn 0.6657 0.0216 0.7459
vn 0.1872 0.7957 0.5760
vn 0.7587 0.6404 -0.1199
vn 0.9602 0.2009 -0.1938
vn 0.0038 0.6550 0.7556
vn 0.3348 -0.6954 0.6359
vn 0.6364 0.1447 0.7577
vn 0.2057 0.8386 0.5043
vn 0.2226 0.2714 0.9364
vn 0.8306 -0.5335 -0.1595
vn 0.7350 0.6642 -0.1365
vn 0.3827 0.9137 -0.1365
vn 0.7553 0.1175 -0.6448
vn -0.3291 0.4282 0.8416
vn 0.9443 -0.0733 0.3209
vn 0.9410 -0.0562 0.3338
vn -0.9048 0.3858 0.1803
vn -0.6507 0.7544 0.0861
vn 0.4999 0.4823 -0.7194
vn -0.2770 0.8789 -0.3884
vn -0.5201 -0.4583 -0.7207
vn -0.4422 -0.0915 -0.8922
vn -0.0188 0.0333 -0.9993
vn -0.6510 -0.7257 -0.2224
vn -0.7270 -0.6491 0.2237
vn -0.9711 -0.0016 -0.2387
vn -0.9764 -0.0017 0.2162
vn -0.3185 -0.5502 -0.7719
vn 0.3224 -0.6476 -0.6904
vn 0.4816 -0.0010 -0.8764
vn -0.5846 -0.0016 -0.8113
vn -0.6510 0.7255 -0.2235
vn -0.7280 0.6479 0.2241
vn -0.3188 0.5489 -0.7727
vn 0.3226 0.6465 -0.6913
usemtl TEX_w2dkn07
f 1/1/1 2/2/2 3/3/3
f 2/2/2 1/1/1 4/4/4
f 5/5/5 4/4/4 1/1/1
f 6/6/6 2/2/2 4/4/4
f 2/2/2 6/6/6 7/7/7
f 8/8/8 9/9/9 3/3/3
f 9/9/9 8/8/8 10/10/10
f 11/11/11 10/10/10 8/8/8
f 12/12/12 9/9/9 13/13/13
f 9/9/9 12/12/12 14/14/14
f 15/15/15 14/14/14 12/12/12
f 14/14/14 15/15/15 3/3/3
f 16/16/16 3/3/3 15/15/15
f 8/8/8 3/3/3 2/2/2
f 17/17/17 11/11/11 8/8/8
f 8/8/8 2/2/2 17/17/17
f 11/11/11 7/7/7 18/18/18
f 7/7/7 11/11/11 17/17/17
f 19/19/19 20/20/20 21/21/21
f 21/21/21 22/22/22 19/19/19
f 23/23/23 21/21/21 20/20/20
f 21/21/21 23/23/23 24/24/24
f 25/25/25 24/24/24 23/23/23
f 21/21/21 26/26/26 22/22/22
f 26/26/26 21/21/21 27/27/27
f 10/10/10 27/27/27 21/21/21
f 28/28/28 22/22/22 26/26/26
f 26/26/26 29/29/29 28/28/28
f 30/30/30 28/28/28 29/29/29
f 29/29/29 31/31/31 30/30/30
f 32/32/32 30/30/30 31/31/31
f 31/31/31 33/33/33 32/32/32
f 24/24/24 10/10/10 21/21/21
f 10/10/10 24/24/24 9/9/9
f 34/34/34 9/9/9 24/24/24
f 9/9/9 34/34/34 13/13/13
f 35/35/35 29/29/29 26/26/26
f 29/29/29 35/35/35 36/36/36
f 35/35/35 26/26/26 27/27/27
f 27/27/27 11/11/11 35/35/35
f 37/37/37 32/32/32 33/33/33
f 33/33/33 38/38/38 37/37/37
f 39/39/39 40/40/40 37/37/37
f 40/40/40 39/39/39 41/41/41
f 32/32/32 37/37/37 40/40/40
f 42/42/42 43/43/43 44/44/44
f 43/43/43 42/42/42 36/36/36
f 45/45/45 44/44/44 43/43/43
f 46/46/46 47/47/47 44/44/44
f 47/47/47 46/46/46 48/48/48
f 42/42/42 44/44/44 47/47/47
f 35/35/35 11/11/11 18/18/18
f 27/27/27 10/10/10 11/11/11
f 6/6/6 48/49/48 49/50/49
f 49/50/49 7/7/7 6/6/6
f 7/7/7 50/51/50 18/18/18
f 50/51/50 7/7/7 49/50/49
f 49/50/49 46/52/46 45/45/45
f 46/52/46 49/50/49 48/49/48
f 35/35/35 43/43/43 36/36/36
f 43/43/43 35/35/35 50/51/50
f 18/18/18 50/51/50 35/35/35
f 51/53/51 6/6/6 52/54/52
f 52/54/52 41/55/41 51/53/51
f 48/49/48 6/6/6 51/53/51
f 38/56/38 48/49/48 51/53/51
f 51/53/51 39/57/39 38/56/38
f 39/57/39 51/53/51 41/55/41
f 53/58/53 28/28/28 30/30/30
f 32/32/32 53/58/53 30/30/30
f 53/58/53 32/32/32 40/40/40
f 48/48/48 38/38/38 33/33/33
f 33/33/33 54/59/54 48/48/48
f 47/47/47 48/48/48 54/59/54
f 31/31/31 54/59/54 33/33/33
f 38/60/38 39/61/39 55/62/55
f 39/63/39 37/64/37 55/65/55
f 37/64/37 38/66/38 55/65/55
f 45/67/45 46/68/46 56/69/56
f 46/70/46 44/71/44 56/72/56
f 44/71/44 45/73/45 56/72/56
f 57/74/57 23/23/23 20/20/20
f 20/20/20 58/75/58 57/74/57
f 59/76/59 60/77/60 61/78/61
f 60/79/60 24/24/24 25/25/25
f 24/24/24 60/79/60 34/34/34
f 3/3/3 9/9/9 14/14/14
f 25/25/25 61/80/61 60/79/60
f 61/80/61 25/25/25 62/81/62
f 63/82/63 13/83/13 34/84/34
f 12/85/12 13/83/13 64/86/64
f 60/77/60 65/87/65 66/88/66
f 66/88/66 34/84/34 60/77/60
f 65/87/65 60/77/60 59/76/59
f 59/76/59 67/89/67 65/87/65
f 59/76/59 68/90/68 67/89/67
f 64/86/64 66/88/66 67/89/67
f 66/88/66 65/87/65 67/89/67
f 25/25/25 23/23/23 62/81/62
f 23/23/23 57/74/57 62/81/62
f 13/83/13 63/82/63 64/86/64
f 63/82/63 66/88/66 64/86/64
f 66/88/66 63/82/63 34/84/34
f 54/59/54 29/29/29 36/36/36
f 42/42/42 54/59/54 36/36/36
f 54/59/54 42/42/42 47/47/47
f 29/29/29 54/59/54 31/31/31
f 45/45/45 43/43/43 50/51/50
f 45/45/45 50/51/50 49/50/49
f 7/7/7 17/17/17 2/2/2
f 3/3/3 5/5/5 1/1/1
f 5/5/5 3/3/3 16/16/16
f 52/54/52 4/4/4 69/91/69
f 69/91/69 70/92/70 52/54/52
f 41/55/41 52/54/52 70/92/70
f 70/92/70 71/93/71 41/55/41
f 72/94/72 15/15/15 12/12/12
f 15/15/15 72/94/72 73/95/73
f 16/16/16 74/96/74 75/97/75
f 74/96/74 16/16/16 76/98/76
f 15/15/15 76/98/76 16/16/16
f 76/98/76 15/15/15 77/99/77
f 73/95/73 77/99/77 15/15/15
f 77/99/77 73/95/73 78/100/78
f 79/101/79 74/96/74 80/102/80
f 75/97/75 74/96/74 79/101/79
f 79/101/79 5/5/5 75/97/75
f 81/103/81 20/20/20 19/19/19
f 82/104/82 20/20/20 81/103/81
f 81/103/81 77/99/77 82/104/82
f 83/105/83 82/104/82 77/99/77
f 77/99/77 78/100/78 83/105/83
f 22/22/22 81/103/81 19/19/19
f 81/103/81 22/22/22 84/106/84
f 28/28/28 84/106/84 22/22/22
f 84/106/84 28/28/28 85/107/85
f 86/108/86 85/107/85 28/28/28
f 85/107/85 86/108/86 87/109/87
f 88/110/88 87/109/87 86/108/86
f 81/103/81 76/98/76 77/99/77
f 76/98/76 81/103/81 89/111/89
f 84/106/84 89/111/89 81/103/81
f 84/106/84 85/107/85 90/112/90
f 90/112/90 89/111/89 84/106/84
f 91/113/91 92/114/92 88/110/88
f 88/110/88 40/40/40 91/113/91
f 71/115/71 91/113/91 40/40/40
f 40/40/40 41/41/41 71/115/71
f 92/114/92 91/113/91 93/116/93
f 93/116/93 94/117/94 92/114/92
f 95/118/95 92/114/92 94/117/94
f 94/117/94 96/119/96 95/118/95
f 97/120/97 98/121/98 99/122/99
f 99/122/99 96/119/96 97/120/97
f 100/123/100 97/120/97 96/119/96
f 96/119/96 94/117/94 100/123/100
f 98/121/98 97/120/97 101/124/101
f 101/124/101 102/125/102 98/121/98
f 90/112/90 98/121/98 102/125/102
f 102/125/102 80/102/80 90/112/90
f 74/96/74 90/112/90 80/102/80
f 89/111/89 90/112/90 74/96/74
f 74/96/74 76/98/76 89/111/89
f 69/91/69 103/126/103 94/127/94
f 94/127/94 70/92/70 69/91/69
f 102/125/102 79/101/79 80/102/80
f 103/126/103 79/101/79 102/125/102
f 79/101/79 103/126/103 69/91/69
f 103/126/103 101/124/101 100/128/100
f 100/128/100 94/127/94 103/126/103
f 85/107/85 104/129/104 90/112/90
f 104/129/104 85/107/85 95/118/95
f 87/109/87 95/118/95 85/107/85
f 104/129/104 98/121/98 90/112/90
f 98/121/98 104/129/104 99/122/99
f 95/118/95 99/122/99 104/129/104
f 94/127/94 93/130/93 70/92/70
f 93/130/93 71/93/71 70/92/70
f 28/28/28 53/58/53 86/108/86
f 53/58/53 88/110/88 86/108/86
f 88/110/88 53/58/53 40/40/40
f 87/109/87 88/110/88 92/114/92
f 95/118/95 87/109/87 92/114/92
f 71/131/71 93/132/93 105/133/105
f 91/134/91 71/135/71 105/136/105
f 93/137/93 91/134/91 105/136/105
f 100/138/100 101/139/101 106/140/106
f 97/141/97 100/142/100 106/143/106
f 101/144/101 97/141/97 106/143/106
f 107/145/107 20/20/20 82/104/82
f 82/104/82 108/146/108 107/145/107
f 20/20/20 107/145/107 58/75/58
f 78/147/78 109/148/109 110/149/110
f 110/150/110 83/105/83 78/100/78
f 83/105/83 110/150/110 108/146/108
f 72/151/72 111/152/111 73/153/73
f 72/151/72 12/85/12 64/86/64
f 78/147/78 112/154/112 113/155/113
f 113/155/113 109/148/109 78/147/78
f 112/154/112 78/147/78 73/153/73
f 73/153/73 111/152/111 112/154/112
f 68/90/68 109/148/109 67/89/67
f 112/154/112 64/86/64 67/89/67
f 64/86/64 112/154/112 111/152/111
f 113/155/113 112/154/112 67/89/67
f 109/148/109 113/155/113 67/89/67
f 82/104/82 83/105/83 108/146/108
f 111/152/111 72/151/72 64/86/64
f 99/122/99 95/118/95 96/119/96
f 102/125/102 101/124/101 103/126/103
f 79/101/79 69/91/69 5/5/5
f 16/16/16 75/97/75 5/5/5
f 114/156/114 61/157/61 62/158/62
f 62/158/62 115/159/115 114/156/114
f 116/160/116 114/156/114 115/159/115
f 115/159/115 117/161/117 116/160/116
f 118/162/118 119/163/119 61/157/61
f 119/163/119 118/162/118 120/164/120
f 121/165/121 120/164/120 118/162/118
f 118/162/118 61/157/61 114/156/114
f 121/165/121 118/162/118 114/156/114
f 114/156/114 116/160/116 121/165/121
f 119/163/119 68/166/68 59/167/59
f 59/167/59 61/157/61 119/163/119
f 119/163/119 120/164/120 68/166/68
f 115/159/115 62/158/62 57/168/57
f 57/168/57 117/161/117 115/159/115
f 57/168/57 58/169/58 117/161/117
f 108/170/108 110/171/110 122/172/122
f 123/173/123 108/170/108 122/172/122
f 122/172/122 116/160/116 123/173/123
f 123/173/123 116/160/116 117/161/117
f 124/174/124 110/171/110 125/175/125
f 125/175/125 120/164/120 124/174/124
f 121/165/121 124/174/124 120/164/120
f 122/172/122 110/171/110 124/174/124
f 124/174/124 121/165/121 122/172/122
f 122/172/122 121/165/121 116/160/116
f 125/175/125 109/176/109 68/166/68
f 68/166/68 120/164/120 125/175/125
f 125/175/125 110/171/110 109/176/109
f 107/177/107 108/170/108 123/173/123
f 107/177/107 123/173/123 117/161/117
f 58/169/58 107/177/107 117/161/117
f 69/91/69 4/4/4 5/5/5
f 4/4/4 52/54/52 6/6/6
