# Blender v2.79 (sub 0) OBJ File: ''
# www.blender.org
mtllib tribalgrappler06l.mtl
o MDL_w2dkn06l_bod00
v -0.073300 0.032700 -0.061900
v -0.117000 0.035500 -0.119400
v -0.073600 0.048900 -0.108900
v 0.000000 0.039800 -0.054100
v -0.115900 0.021400 -0.073000
v 0.000000 0.056600 -0.104500
v -0.076300 0.053400 -0.059200
v -0.125300 0.038100 -0.071700
v 0.000000 0.060900 -0.054400
v 0.073400 0.048900 -0.108900
v -0.073400 0.058600 0.188600
v -0.068000 0.070900 0.197200
v -0.076400 0.116700 0.142700
v -0.060500 0.029200 0.264100
v -0.084200 0.092800 0.136900
v -0.078900 0.130800 0.083600
v -0.060200 0.097200 0.136900
v -0.058400 0.061400 0.188600
v -0.085300 0.098000 0.087800
v -0.075000 0.110200 0.022300
v -0.061700 0.105200 0.086100
v -0.081700 0.079500 0.040800
v -0.074400 0.046900 0.004200
v -0.056700 0.084100 0.040800
v -0.068300 0.091100 -0.019400
v -0.050900 0.049500 0.001900
v -0.049400 0.053000 -0.028100
v -0.028900 0.069800 0.223000
v -0.022200 0.083700 0.232700
v -0.030000 0.135900 0.170800
v -0.015000 0.035900 0.308400
v -0.038100 0.109100 0.165000
v -0.032500 0.152000 0.103700
v -0.014100 0.113100 0.164800
v -0.011900 0.072300 0.223000
v -0.041300 0.115000 0.108600
v -0.028400 0.128400 0.034100
v -0.014100 0.122200 0.106400
v -0.038300 0.094100 0.055000
v -0.034400 0.049700 0.010900
v -0.010800 0.098100 0.055000
v -0.024100 0.100200 -0.014100
v -0.005600 0.052200 0.010900
v -0.005300 0.056100 -0.020000
v -0.072700 0.050300 -0.025800
v -0.032300 0.053000 -0.017300
v -0.023700 0.102500 -0.047800
v -0.028000 0.070300 -0.050500
v -0.014500 0.071900 -0.051900
v -0.024400 0.114500 -0.080500
v -0.068400 0.098600 -0.053800
v -0.070900 0.068600 -0.058100
v -0.059200 0.070300 -0.059200
v -0.070200 0.115300 -0.086900
v -0.082800 0.023600 0.011100
v 0.000000 0.031100 0.016900
v 0.000000 0.051400 0.023100
v -0.085200 0.044400 0.013600
v -0.140900 0.020600 0.042800
v -0.119500 0.019700 -0.029700
v -0.090900 0.025800 0.089200
v 0.000000 0.030600 0.105500
v -0.165000 0.017300 -0.005300
v -0.089500 0.074100 0.036900
v -0.132000 0.051700 -0.020600
v 0.000000 0.085200 0.050200
v -0.134400 0.016400 -0.073100
v -0.165000 0.012800 -0.088100
v -0.134800 0.010200 -0.135800
v -0.172500 0.013900 -0.053000
v -0.145900 0.033800 -0.071200
v 0.073100 0.032700 -0.061900
v 0.117000 0.035500 -0.119400
v 0.115900 0.021400 -0.073000
v 0.076300 0.053400 -0.059200
v 0.125200 0.038100 -0.071700
v 0.076300 0.116700 0.142700
v 0.068000 0.070900 0.197200
v 0.073400 0.058600 0.188600
v 0.084200 0.092800 0.136900
v 0.060200 0.097200 0.136900
v 0.058400 0.061400 0.188600
v 0.060300 0.029200 0.264100
v 0.078700 0.130800 0.083600
v 0.085200 0.098000 0.087800
v 0.061600 0.105200 0.086100
v 0.074800 0.110200 0.022300
v 0.081600 0.079500 0.040800
v 0.074200 0.046900 0.004200
v 0.056600 0.084100 0.040800
v 0.068300 0.091100 -0.019400
v 0.050800 0.049500 0.001900
v 0.029800 0.135900 0.170800
v 0.022000 0.083700 0.232700
v 0.028900 0.069800 0.223000
v 0.038100 0.109100 0.165000
v 0.013900 0.113100 0.164800
v 0.011700 0.072300 0.223000
v 0.014800 0.035900 0.308400
v 0.032500 0.152000 0.103700
v 0.041100 0.115000 0.108600
v 0.014100 0.122200 0.106400
v 0.028300 0.128400 0.034100
v 0.038300 0.094100 0.055000
v 0.034400 0.049700 0.010900
v 0.010600 0.098100 0.055000
v 0.023900 0.100200 -0.014100
v 0.005600 0.052200 0.010900
v 0.072700 0.050300 -0.025800
v 0.049200 0.053000 -0.028100
v 0.070900 0.068600 -0.058100
v 0.032300 0.053000 -0.017300
v 0.005200 0.056100 -0.020000
v 0.028000 0.070300 -0.050500
v 0.023700 0.102500 -0.047800
v 0.014400 0.071900 -0.051900
v 0.024400 0.114500 -0.080500
v 0.068300 0.098600 -0.053800
v 0.059200 0.070300 -0.059200
v 0.070200 0.115300 -0.086900
v 0.082800 0.023600 0.011100
v 0.085200 0.044400 0.013600
v 0.119400 0.019700 -0.029700
v 0.140900 0.020600 0.042800
v 0.164800 0.017300 -0.005300
v 0.090800 0.025800 0.089200
v 0.132000 0.051700 -0.020600
v 0.089400 0.074100 0.036900
v 0.165000 0.012800 -0.088100
v 0.134400 0.016400 -0.073100
v 0.134800 0.010200 -0.135800
v 0.145900 0.033800 -0.071200
v 0.172300 0.013900 -0.053000
vt 0.187500 0.183600
vt 0.015600 0.347700
vt 0.015600 0.183600
vt 0.187500 0.007800
vt 0.187500 0.347700
vt 0.015600 0.007800
vt 0.687500 0.210900
vt 0.992200 0.375000
vt 0.687500 0.375000
vt 0.992200 0.210900
vt 0.687500 0.003900
vt 0.992200 0.003900
vt 0.992200 0.210900
vt 0.671900 0.375000
vt 0.515600 0.269500
vt 0.515600 0.375000
vt 0.671900 0.269500
vt 0.851600 0.570300
vt 0.601600 0.570300
vt 0.578100 0.695300
vt 0.726600 0.394500
vt 0.882800 0.695300
vt 0.578100 0.863300
vt 0.992200 0.695300
vt 0.898400 0.570300
vt 0.898400 0.695300
vt 0.992200 0.570300
vt 0.945300 0.398400
vt 0.851600 0.570300
vt 0.882800 0.695300
vt 0.882800 0.863300
vt 0.578100 0.992200
vt 0.992200 0.863300
vt 0.898400 0.863300
vt 0.882800 0.863300
vt 0.882800 0.992200
vt 0.882800 0.863300
vt 0.992200 0.992200
vt 0.898400 0.992200
vt 0.882800 0.992200
vt 0.578100 0.929700
vt 0.898400 0.863300
vt 0.992200 0.863300
vt 0.992200 0.781300
vt 0.882800 0.863300
vt 0.851600 0.570300
vt 0.601600 0.570300
vt 0.578100 0.695300
vt 0.726600 0.394500
vt 0.882800 0.695300
vt 0.578100 0.863300
vt 0.992200 0.695300
vt 0.898400 0.570300
vt 0.898400 0.695300
vt 0.992200 0.570300
vt 0.945300 0.398400
vt 0.851600 0.570300
vt 0.882800 0.695300
vt 0.882800 0.863300
vt 0.578100 0.992200
vt 0.992200 0.863300
vt 0.898400 0.863300
vt 0.882800 0.863300
vt 0.882800 0.992200
vt 0.882800 0.863300
vt 0.992200 0.992200
vt 0.898400 0.992200
vt 0.882800 0.992200
vt 0.578100 0.929700
vt 0.898400 0.863300
vt 0.992200 0.863300
vt 0.992200 0.781300
vt 0.882800 0.863300
vt 0.882800 0.929700
vt 0.898400 0.781300
vt 0.882800 0.929700
vt 0.882800 0.929700
vt 0.898400 0.781300
vt 0.882800 0.929700
vt 0.578100 0.843800
vt 0.898400 0.726600
vt 0.882800 0.843800
vt 0.742200 0.726600
vt 0.578100 0.843800
vt 0.898400 0.726600
vt 0.882800 0.843800
vt 0.742200 0.726600
vt 0.882800 0.843800
vt 0.882800 0.843800
vt 0.992200 0.726600
vt 0.945300 0.867200
vt 0.992200 0.726600
vt 0.945300 0.867200
vt 0.210900 0.210900
vt 0.671900 0.210900
vt 0.671900 0.003900
vt 0.210900 0.003900
vt 0.210900 0.003900
vt 0.671900 0.003900
vt 0.671900 0.210900
vt 0.210900 0.210900
vt 0.671900 0.222700
vt 0.515600 0.222700
vt 0.367200 0.773400
vt 0.007800 0.718800
vt 0.367200 0.605500
vt 0.007800 0.925800
vt 0.007800 0.996100
vt 0.023400 0.578100
vt 0.367200 0.996100
vt 0.367200 0.820300
vt 0.367200 0.605500
vt 0.367200 0.996100
vt 0.007800 0.878900
vt 0.460900 0.796900
vt 0.554700 0.773400
vt 0.554700 0.621100
vt 0.187500 0.375000
vt 0.367200 0.503900
vt 0.234400 0.414100
vt 0.367200 0.382800
vt 0.140600 0.468800
vt 0.367200 0.503900
vt 0.460900 0.996100
vt 0.554700 0.621100
vt 0.187500 0.183600
vt 0.015600 0.183600
vt 0.015600 0.347700
vt 0.187500 0.347700
vt 0.687500 0.210900
vt 0.687500 0.375000
vt 0.992200 0.375000
vt 0.671900 0.375000
vt 0.515600 0.375000
vt 0.515600 0.269500
vt 0.671900 0.269500
vt 0.578100 0.695300
vt 0.601600 0.570300
vt 0.851600 0.570300
vt 0.882800 0.695300
vt 0.898400 0.570300
vt 0.992200 0.695300
vt 0.898400 0.695300
vt 0.992200 0.570300
vt 0.945300 0.398400
vt 0.851600 0.570300
vt 0.882800 0.695300
vt 0.726600 0.394500
vt 0.578100 0.863300
vt 0.882800 0.863300
vt 0.992200 0.863300
vt 0.898400 0.863300
vt 0.882800 0.863300
vt 0.578100 0.992200
vt 0.882800 0.992200
vt 0.882800 0.863300
vt 0.992200 0.992200
vt 0.898400 0.992200
vt 0.882800 0.992200
vt 0.578100 0.929700
vt 0.882800 0.863300
vt 0.898400 0.863300
vt 0.992200 0.863300
vt 0.578100 0.695300
vt 0.601600 0.570300
vt 0.851600 0.570300
vt 0.882800 0.695300
vt 0.898400 0.570300
vt 0.992200 0.695300
vt 0.898400 0.695300
vt 0.992200 0.570300
vt 0.945300 0.398400
vt 0.851600 0.570300
vt 0.882800 0.695300
vt 0.726600 0.394500
vt 0.578100 0.863300
vt 0.882800 0.863300
vt 0.992200 0.863300
vt 0.898400 0.863300
vt 0.882800 0.863300
vt 0.578100 0.992200
vt 0.882800 0.992200
vt 0.882800 0.863300
vt 0.992200 0.992200
vt 0.898400 0.992200
vt 0.882800 0.992200
vt 0.578100 0.929700
vt 0.882800 0.863300
vt 0.898400 0.863300
vt 0.992200 0.863300
vt 0.882800 0.929700
vt 0.992200 0.781300
vt 0.898400 0.781300
vt 0.898400 0.726600
vt 0.882800 0.929700
vt 0.882800 0.929700
vt 0.992200 0.781300
vt 0.898400 0.781300
vt 0.898400 0.726600
vt 0.882800 0.929700
vt 0.578100 0.843800
vt 0.882800 0.843800
vt 0.742200 0.726600
vt 0.578100 0.843800
vt 0.882800 0.843800
vt 0.742200 0.726600
vt 0.882800 0.843800
vt 0.882800 0.843800
vt 0.992200 0.726600
vt 0.945300 0.867200
vt 0.992200 0.726600
vt 0.945300 0.867200
vt 0.210900 0.210900
vt 0.671900 0.210900
vt 0.671900 0.210900
vt 0.210900 0.210900
vt 0.671900 0.222700
vt 0.515600 0.222700
vt 0.367200 0.605500
vt 0.007800 0.718800
vt 0.367200 0.773400
vt 0.023400 0.578100
vt 0.007800 0.925800
vt 0.367200 0.605500
vt 0.367200 0.820300
vt 0.007800 0.878900
vt 0.554700 0.773400
vt 0.460900 0.796900
vt 0.554700 0.621100
vt 0.187500 0.375000
vt 0.234400 0.414100
vt 0.367200 0.503900
vt 0.367200 0.382800
vt 0.367200 0.503900
vt 0.140600 0.468800
vt 0.554700 0.621100
vn -0.2981 -0.9514 -0.0776
vn -0.6069 -0.2886 -0.7405
vn 0.1038 0.1400 -0.9847
vn -0.0001 -0.9756 -0.2196
vn -0.3832 -0.6923 0.6114
vn -0.0001 0.1227 -0.9924
vn -0.4232 0.8437 0.3304
vn -0.8580 0.1906 0.4770
vn 0.0000 0.9998 -0.0199
vn -0.1041 0.1397 -0.9847
vn -0.7602 -0.6170 -0.2038
vn -0.1510 0.7904 0.5937
vn -0.1597 0.8302 0.5341
vn 0.1034 -0.6528 0.7505
vn -0.7351 -0.6684 -0.1136
vn -0.1957 0.9801 0.0319
vn 0.9255 -0.2851 -0.2494
vn 0.9992 -0.0384 -0.0111
vn -0.6961 -0.7011 0.1546
vn -0.1658 0.8683 -0.4676
vn 0.9409 -0.3384 -0.0116
vn -0.7198 -0.6296 0.2924
vn -0.5997 -0.7839 0.1606
vn 0.6488 -0.6043 0.4625
vn -0.1617 0.9866 -0.0221
vn 0.9787 -0.1623 0.1259
vn 0.7420 -0.6114 -0.2752
vn -0.7776 -0.5905 -0.2159
vn -0.1141 0.7956 0.5949
vn -0.1296 0.8370 0.5317
vn 0.1177 -0.6981 0.7063
vn -0.7484 -0.6529 -0.1168
vn -0.1583 0.9863 0.0471
vn 0.9120 -0.3239 -0.2518
vn 0.9958 -0.0853 -0.0334
vn -0.7244 -0.6710 0.1580
vn -0.1115 0.8681 -0.4837
vn 0.9249 -0.3801 -0.0073
vn -0.7573 -0.5692 0.3201
vn -0.6487 -0.7364 0.1922
vn 0.6154 -0.6273 0.4772
vn -0.1025 0.9853 -0.1365
vn 0.9723 -0.2107 0.1010
vn 0.7262 -0.6298 -0.2756
vn -0.8600 -0.4739 -0.1892
vn -0.8749 -0.4361 -0.2105
vn -0.0993 0.9950 0.0040
vn -0.5722 -0.6298 -0.5253
vn 0.7743 -0.3471 -0.5292
vn -0.0739 -0.2245 -0.9717
vn -0.1461 0.9801 0.1344
vn -0.5620 -0.6337 -0.5316
vn 0.7805 -0.3050 -0.5457
vn -0.0661 -0.2378 -0.9691
vn 0.0373 -0.9868 -0.1578
vn 0.0000 -0.9980 -0.0637
vn 0.0000 0.9785 -0.2060
vn -0.0292 0.6483 -0.7608
vn -0.7443 -0.4286 0.5122
vn 0.7234 -0.5448 -0.4241
vn -0.3908 -0.4196 0.8193
vn 0.0001 -0.3795 0.9252
vn -0.8612 -0.4070 0.3044
vn -0.2493 0.9515 0.1804
vn -0.1598 0.9495 -0.2702
vn 0.0000 0.9122 -0.4097
vn 0.7014 -0.7097 -0.0661
vn -0.8544 -0.4063 -0.3239
vn 0.6279 0.5498 -0.5509
vn -0.9119 -0.4098 -0.0235
vn 0.1498 0.9296 -0.3367
vn 0.2972 -0.9516 -0.0783
vn 0.6096 -0.2859 -0.7394
vn 0.3843 -0.6913 0.6119
vn 0.4234 0.8434 0.3307
vn 0.8577 0.1929 0.4766
vn 0.1571 0.8308 0.5339
vn 0.1511 0.7903 0.5939
vn 0.7605 -0.6167 -0.2033
vn 0.7362 -0.6671 -0.1139
vn -0.9252 -0.2867 -0.2486
vn -0.9992 -0.0389 -0.0120
vn -0.1024 -0.6534 0.7500
vn 0.1932 0.9807 0.0316
vn 0.6972 -0.7002 0.1540
vn -0.9405 -0.3396 -0.0105
vn 0.1641 0.8683 -0.4681
vn 0.7206 -0.6293 0.2912
vn 0.5995 -0.7837 0.1625
vn -0.6487 -0.6043 0.4626
vn 0.1645 0.9863 -0.0147
vn -0.9787 -0.1618 0.1261
vn 0.1256 0.8376 0.5317
vn 0.1090 0.7965 0.5947
vn 0.7806 -0.5876 -0.2128
vn 0.7491 -0.6522 -0.1158
vn -0.9114 -0.3240 -0.2538
vn -0.9958 -0.0855 -0.0335
vn -0.1314 -0.6597 0.7400
vn 0.1588 0.9863 0.0457
vn 0.7235 -0.6720 0.1577
vn -0.9254 -0.3788 -0.0070
vn 0.1115 0.8684 -0.4831
vn 0.7584 -0.5675 0.3204
vn 0.6496 -0.7358 0.1915
vn -0.6156 -0.6271 0.4773
vn 0.0994 0.9860 -0.1338
vn -0.9720 -0.2121 0.1016
vn 0.8607 -0.4733 -0.1879
vn -0.7419 -0.6112 -0.2758
vn 0.5630 -0.6333 -0.5310
vn 0.8762 -0.4345 -0.2088
vn -0.7261 -0.6299 -0.2757
vn 0.5723 -0.6298 -0.5252
vn 0.0989 0.9951 0.0062
vn -0.7750 -0.3456 -0.5291
vn 0.0751 -0.2211 -0.9724
vn 0.1457 0.9807 0.1304
vn -0.7783 -0.3056 -0.5485
vn 0.0637 -0.2374 -0.9693
vn -0.0376 -0.9867 -0.1580
vn 0.0286 0.6471 -0.7619
vn -0.7236 -0.5443 -0.4243
vn 0.7444 -0.4288 0.5119
vn 0.8611 -0.4083 0.3029
vn 0.3905 -0.4194 0.8195
vn 0.1615 0.9492 -0.2702
vn 0.2490 0.9515 0.1805
vn 0.8552 -0.4068 -0.3212
vn -0.7013 -0.7097 -0.0670
vn -0.6280 0.5498 -0.5508
vn -0.1484 0.9300 -0.3363
vn 0.9114 -0.4109 -0.0212
usemtl TEX_w2dkn06

f 1/1/1 2/2/2 3/3/3
f 3/3/3 4/4/4 1/1/1
f 1/1/1 5/5/5 2/2/2
f 3/3/3 6/6/6 4/4/4
f 7/7/7 2/8/2 8/9/8
f 2/8/2 7/7/7 3/10/3
f 9/11/9 3/10/3 7/7/7
f 3/10/3 9/11/9 6/12/6
f 10/13/10 6/12/6 9/11/9
f 7/14/7 5/15/5 1/16/1
f 5/15/5 7/14/7 8/17/8
f 11/18/11 12/19/12 13/20/13
f 12/19/12 11/18/11 14/21/14
f 15/22/15 11/18/11 13/20/13
f 13/20/13 16/23/16 15/22/15
f 17/24/17 11/25/11 15/26/15
f 18/27/18 11/25/11 17/24/17
f 11/25/11 18/27/18 14/28/14
f 13/20/13 18/29/18 17/30/17
f 12/19/12 18/29/18 13/20/13
f 18/29/18 12/19/12 14/21/14
f 19/31/19 15/22/15 16/23/16
f 16/23/16 20/32/20 19/31/19
f 21/33/21 15/26/15 19/34/19
f 17/24/17 15/26/15 21/33/21
f 16/23/16 17/30/17 21/35/21
f 13/20/13 17/30/17 16/23/16
f 22/36/22 19/31/19 20/32/20
f 20/32/20 23/37/23 22/36/22
f 24/38/24 19/34/19 22/39/22
f 21/33/21 19/34/19 24/38/24
f 20/32/20 21/35/21 24/40/24
f 16/23/16 21/35/21 20/32/20
f 25/41/25 23/37/23 20/32/20
f 23/42/23 24/38/24 22/39/22
f 24/38/24 23/42/23 26/43/26
f 27/44/27 26/43/26 23/42/23
f 26/45/26 25/41/25 20/32/20
f 20/32/20 24/40/24 26/45/26
f 28/46/28 29/47/29 30/48/30
f 29/47/29 28/46/28 31/49/31
f 32/50/32 28/46/28 30/48/30
f 30/48/30 33/51/33 32/50/32
f 34/52/34 28/53/28 32/54/32
f 35/55/35 28/53/28 34/52/34
f 28/53/28 35/55/35 31/56/31
f 30/48/30 35/57/35 34/58/34
f 29/47/29 35/57/35 30/48/30
f 35/57/35 29/47/29 31/49/31
f 36/59/36 32/50/32 33/51/33
f 33/51/33 37/60/37 36/59/36
f 38/61/38 32/54/32 36/62/36
f 34/52/34 32/54/32 38/61/38
f 33/51/33 34/58/34 38/63/38
f 30/48/30 34/58/34 33/51/33
f 39/64/39 36/59/36 37/60/37
f 37/60/37 40/65/40 39/64/39
f 41/66/41 36/62/36 39/67/39
f 38/61/38 36/62/36 41/66/41
f 37/60/37 38/63/38 41/68/41
f 33/51/33 38/63/38 37/60/37
f 42/69/42 40/65/40 37/60/37
f 40/70/40 41/66/41 39/67/39
f 41/66/41 40/70/40 43/71/43
f 44/72/44 43/71/43 40/70/40
f 43/73/43 42/69/42 37/60/37
f 37/60/37 41/68/41 43/73/43
f 23/37/23 25/41/25 45/74/45
f 45/75/45 27/44/27 23/42/23
f 27/76/27 25/41/25 26/45/26
f 40/65/40 42/69/42 46/77/46
f 46/78/46 44/72/44 40/70/40
f 44/79/44 42/69/42 43/73/43
f 42/69/42 47/80/47 46/77/46
f 47/80/47 42/69/42 44/79/44
f 44/72/44 46/78/46 48/81/48
f 47/80/47 49/82/49 50/83/50
f 25/41/25 51/84/51 45/74/45
f 51/84/51 25/41/25 27/76/27
f 27/44/27 45/75/45 52/85/52
f 51/84/51 53/86/53 54/87/54
f 27/76/27 53/86/53 51/84/51
f 52/88/52 45/74/45 51/84/51
f 51/84/51 54/87/54 52/88/52
f 44/79/44 49/82/49 47/80/47
f 48/89/48 46/77/46 47/80/47
f 47/80/47 50/83/50 48/89/48
f 53/90/53 52/85/52 54/91/54
f 27/44/27 52/85/52 53/90/53
f 49/92/49 48/81/48 50/93/50
f 44/72/44 48/81/48 49/92/49
f 55/94/55 1/95/1 4/96/4
f 4/96/4 56/97/56 55/94/55
f 57/98/57 9/99/9 7/100/7
f 7/100/7 58/101/58 57/98/57
f 58/102/58 7/14/7 1/16/1
f 1/16/1 55/103/55 58/102/58
f 55/104/55 59/105/59 60/106/60
f 59/105/59 55/104/55 61/107/61
f 62/108/62 61/107/61 55/104/55
f 63/109/63 60/106/60 59/105/59
f 56/110/56 62/108/62 55/104/55
f 59/105/59 64/111/64 65/112/65
f 65/112/65 63/109/63 59/105/59
f 62/108/62 66/113/66 64/111/64
f 64/111/64 61/114/61 62/108/62
f 58/115/58 55/116/55 60/117/60
f 5/5/5 8/118/8 2/2/2
f 67/119/67 68/120/68 69/121/69
f 68/120/68 67/119/67 70/122/70
f 60/106/60 70/122/70 67/119/67
f 68/120/68 71/123/71 69/121/69
f 66/113/66 57/124/57 58/115/58
f 58/115/58 64/111/64 66/113/66
f 58/115/58 65/112/65 64/111/64
f 65/112/65 58/115/58 60/117/60
f 67/125/67 69/121/69 71/123/71
f 70/122/70 71/123/71 68/120/68
f 70/122/70 60/106/60 63/109/63
f 70/122/70 65/112/65 71/123/71
f 65/112/65 70/122/70 63/109/63
f 71/123/71 65/112/65 60/117/60
f 60/117/60 67/125/67 71/123/71
f 59/105/59 61/114/61 64/111/64
f 72/126/72 10/127/10 73/128/73
f 73/128/73 74/129/74 72/126/72
f 4/4/4 6/6/6 10/127/10
f 10/127/10 72/126/72 4/4/4
f 75/130/75 76/131/76 73/132/73
f 73/132/73 10/13/10 75/130/75
f 75/130/75 10/13/10 9/11/9
f 75/133/75 72/134/72 74/135/74
f 74/135/74 76/136/76 75/133/75
f 77/137/77 78/138/78 79/139/79
f 79/139/79 80/140/80 77/137/77
f 79/141/79 81/142/81 80/143/80
f 81/142/81 79/141/79 82/144/82
f 83/145/83 82/144/82 79/141/79
f 82/146/82 77/137/77 81/147/81
f 77/137/77 82/146/82 78/138/78
f 83/148/83 78/138/78 82/146/82
f 78/138/78 83/148/83 79/139/79
f 84/149/84 77/137/77 80/140/80
f 80/140/80 85/150/85 84/149/84
f 80/143/80 86/151/86 85/152/85
f 86/151/86 80/143/80 81/142/81
f 81/147/81 84/149/84 86/153/86
f 84/149/84 81/147/81 77/137/77
f 87/154/87 84/149/84 85/150/85
f 85/150/85 88/155/88 87/154/87
f 89/156/89 87/154/87 88/155/88
f 85/152/85 90/157/90 88/158/88
f 90/157/90 85/152/85 86/151/86
f 86/153/86 87/154/87 90/159/90
f 87/154/87 86/153/86 84/149/84
f 87/154/87 89/156/89 91/160/91
f 91/160/91 92/161/92 87/154/87
f 90/157/90 89/162/89 88/158/88
f 92/163/92 89/162/89 90/157/90
f 93/164/93 94/165/94 95/166/95
f 95/166/95 96/167/96 93/164/93
f 95/168/95 97/169/97 96/170/96
f 97/169/97 95/168/95 98/171/98
f 99/172/99 98/171/98 95/168/95
f 98/173/98 93/164/93 97/174/97
f 93/164/93 98/173/98 94/165/94
f 99/175/99 94/165/94 98/173/98
f 94/165/94 99/175/99 95/166/95
f 100/176/100 93/164/93 96/167/96
f 96/167/96 101/177/101 100/176/100
f 96/170/96 102/178/102 101/179/101
f 102/178/102 96/170/96 97/169/97
f 97/174/97 100/176/100 102/180/102
f 100/176/100 97/174/97 93/164/93
f 103/181/103 100/176/100 101/177/101
f 101/177/101 104/182/104 103/181/103
f 105/183/105 103/181/103 104/182/104
f 101/179/101 106/184/106 104/185/104
f 106/184/106 101/179/101 102/178/102
f 102/180/102 103/181/103 106/186/106
f 103/181/103 102/180/102 100/176/100
f 103/181/103 105/183/105 107/187/107
f 107/187/107 108/188/108 103/181/103
f 106/184/106 105/189/105 104/185/104
f 108/190/108 105/189/105 106/184/106
f 91/160/91 89/156/89 109/191/109
f 110/192/110 89/162/89 92/163/92
f 89/162/89 110/192/110 109/193/109
f 111/194/111 109/193/109 110/192/110
f 91/160/91 110/195/110 92/161/92
f 107/187/107 105/183/105 112/196/112
f 113/197/113 105/189/105 108/190/108
f 105/189/105 113/197/113 112/198/112
f 114/199/114 112/198/112 113/197/113
f 107/187/107 113/200/113 108/188/108
f 115/201/115 107/187/107 112/196/112
f 116/202/116 115/201/115 117/203/117
f 115/201/115 116/202/116 113/200/113
f 118/204/118 91/160/91 109/191/109
f 119/205/119 118/204/118 120/206/120
f 118/204/118 119/205/119 110/195/110
f 118/204/118 109/191/109 111/207/111
f 115/201/115 112/196/112 114/208/114
f 111/194/111 119/209/119 120/210/120
f 119/209/119 111/194/111 110/192/110
f 118/204/118 111/207/111 120/206/120
f 110/195/110 91/160/91 118/204/118
f 114/199/114 116/211/116 117/212/117
f 116/211/116 114/199/114 113/197/113
f 115/201/115 114/208/114 117/203/117
f 113/200/113 107/187/107 115/201/115
f 87/154/87 92/161/92 90/159/90
f 103/181/103 108/188/108 106/186/106
f 121/213/121 4/96/4 72/214/72
f 4/96/4 121/213/121 56/97/56
f 57/98/57 75/215/75 9/99/9
f 75/215/75 57/98/57 122/216/122
f 122/217/122 72/134/72 75/133/75
f 72/134/72 122/217/122 121/218/121
f 123/219/123 124/220/124 121/221/121
f 124/220/124 123/219/123 125/222/125
f 121/221/121 62/108/62 56/110/56
f 62/108/62 121/221/121 126/223/126
f 124/220/124 126/223/126 121/221/121
f 124/220/124 127/224/127 128/225/128
f 128/225/128 126/226/126 124/220/124
f 124/220/124 125/222/125 127/224/127
f 62/108/62 128/225/128 66/113/66
f 128/225/128 62/108/62 126/226/126
f 121/227/121 122/228/122 123/229/123
f 76/230/76 74/129/74 73/128/73
f 129/231/129 130/232/130 131/233/131
f 132/234/132 129/231/129 131/233/131
f 129/231/129 132/234/132 133/235/133
f 66/113/66 122/228/122 57/124/57
f 122/228/122 66/113/66 128/225/128
f 127/224/127 122/228/122 128/225/128
f 123/229/123 122/228/122 127/224/127
f 127/224/127 132/234/132 123/229/123
f 130/236/130 123/229/123 132/234/132
f 132/234/132 131/233/131 130/236/130
f 133/235/133 130/232/130 129/231/129
f 130/232/130 133/235/133 123/219/123
f 125/222/125 123/219/123 133/235/133
f 133/235/133 132/234/132 127/224/127
f 127/224/127 125/222/125 133/235/133
